<svg width="30" height="29" viewBox="0 0 30 29" fill="none" xmlns="http://www.w3.org/2000/svg">
<path fill-rule="evenodd" clip-rule="evenodd" d="M14.8223 3.95423C14.753 4.07487 14.6754 4.21343 14.5846 4.37708L14.4675 4.58731L14.4401 4.63509C14.3469 4.8071 14.1916 5.09139 13.9324 5.28848C13.6684 5.48916 13.3495 5.55844 13.1643 5.59905L13.1118 5.6098L12.8848 5.66117C12.6746 5.70895 12.5038 5.74717 12.3592 5.7842C12.4536 5.90007 12.5766 6.04579 12.7367 6.23333L12.892 6.4149L12.9278 6.45551C13.0568 6.60482 13.2647 6.84372 13.3614 7.15429C13.457 7.46008 13.4235 7.77543 13.4032 7.97372C13.4011 7.99242 13.3991 8.01113 13.3973 8.02986L13.3734 8.27234C13.3555 8.45539 13.3387 8.63855 13.3232 8.82181C13.4486 8.76686 13.5896 8.70236 13.758 8.62472L13.9718 8.52677L14.0196 8.50288C14.1916 8.42285 14.489 8.2819 14.8223 8.2819C15.1556 8.2819 15.453 8.42285 15.625 8.50407L15.6728 8.52677L15.8866 8.62472C16.0538 8.70236 16.1972 8.76806 16.3214 8.82181C16.3059 8.63855 16.2891 8.45539 16.2712 8.27234L16.2473 8.02986C16.2455 8.01113 16.2435 7.99242 16.2414 7.97372C16.2211 7.77423 16.1876 7.46008 16.2832 7.15429C16.3787 6.84372 16.5878 6.60482 16.7168 6.45551L16.7526 6.4149L16.9079 6.23333C17.068 6.04579 17.191 5.90007 17.2854 5.7842C17.1408 5.74836 16.97 5.70895 16.7598 5.66117L16.5328 5.6098L16.4803 5.59786C16.2951 5.55844 15.9762 5.48916 15.7122 5.28729C15.453 5.09139 15.2977 4.8071 15.2045 4.63629L15.1771 4.58731L15.06 4.37708C14.9692 4.21343 14.8928 4.07487 14.8223 3.95423ZM13.6445 2.48022C13.85 2.21145 14.2227 1.82324 14.8223 1.82324C15.4219 1.82324 15.7946 2.21145 16.0001 2.48022C16.1972 2.73584 16.3943 3.09061 16.5973 3.45493L16.6248 3.5039L16.7419 3.71533L16.81 3.83478L16.9282 3.86225L17.1552 3.91361L17.2125 3.92556C17.6031 4.01515 17.9925 4.10235 18.2911 4.2206C18.6208 4.3508 19.0676 4.60284 19.2408 5.15828C19.4104 5.70178 19.1966 6.16286 19.0102 6.46029C18.837 6.73502 18.5742 7.04081 18.3055 7.35497L18.2696 7.39677L18.1143 7.57953L18.0164 7.6954C18.0188 7.7384 18.0248 7.78857 18.0307 7.85666L18.0546 8.09914L18.0594 8.15409C18.1 8.57455 18.1394 8.98068 18.1251 9.30558C18.1108 9.64721 18.0295 10.1632 17.5661 10.5132C17.0883 10.8763 16.5627 10.7975 16.2282 10.7008C15.9201 10.6136 15.5557 10.4451 15.189 10.2767L15.1377 10.2528L14.9226 10.1537L14.8223 10.1071L14.7208 10.1549L14.507 10.2528L14.4544 10.2767C14.0889 10.4451 13.7258 10.6136 13.4164 10.7008C13.0819 10.7963 12.5563 10.8763 12.0785 10.5132C11.6163 10.1632 11.5339 9.64721 11.5195 9.30678C11.5052 8.98068 11.5434 8.57455 11.5852 8.15409L11.59 8.09914L11.6139 7.85666L11.6294 7.6954C11.5966 7.65656 11.5636 7.61794 11.5303 7.57953L11.375 7.39677L11.3391 7.35497C11.0704 7.04081 10.8076 6.73383 10.6344 6.45909C10.4481 6.16286 10.2342 5.70178 10.4039 5.15709C10.5759 4.60403 11.0238 4.3508 11.3535 4.2206C11.6521 4.10235 12.0415 4.01515 12.4321 3.92675L12.4883 3.91481L12.7164 3.86225L12.8359 3.83478L12.9027 3.71533L13.0198 3.5039L13.0473 3.45493C13.2503 3.09061 13.4474 2.73584 13.6445 2.48022ZM13.5693 11.3792H16.0753C16.8697 11.3792 17.5541 11.3792 18.1024 11.4533C18.6901 11.5321 19.2527 11.7101 19.709 12.1664C20.1653 12.6227 20.3433 13.1853 20.4221 13.773C20.4962 14.3213 20.4962 15.0057 20.4962 15.8001V18.7457C20.6921 18.686 20.8939 18.6478 21.0982 18.6203C21.6465 18.5462 22.3309 18.5462 23.1253 18.5462H23.2423C24.0367 18.5462 24.7211 18.5462 25.2694 18.6203C25.8571 18.6991 26.4197 18.8771 26.876 19.3334C27.3323 19.7897 27.5103 20.3523 27.5891 20.94C27.6632 21.4883 27.6632 22.1727 27.6632 22.9671V26.6091C27.6632 26.8467 27.5688 27.0746 27.4008 27.2426C27.2328 27.4106 27.0049 27.505 26.7673 27.505C26.5297 27.505 26.3018 27.4106 26.1338 27.2426C25.9658 27.0746 25.8714 26.8467 25.8714 26.6091V23.0256C25.8714 22.156 25.869 21.5922 25.8141 21.1789C25.7615 20.7907 25.6767 20.6688 25.6086 20.6008C25.5405 20.5327 25.4187 20.4479 25.0305 20.3953C24.616 20.3404 24.0534 20.338 23.1838 20.338C22.3142 20.338 21.7504 20.3404 21.3371 20.3953C20.9489 20.4479 20.827 20.5327 20.759 20.6008C20.6909 20.6688 20.6061 20.7907 20.5535 21.1789C20.4986 21.5934 20.4962 22.156 20.4962 23.0256V26.6091C20.4962 26.8467 20.4018 27.0746 20.2338 27.2426C20.0658 27.4106 19.8379 27.505 19.6003 27.505C19.3627 27.505 19.1348 27.4106 18.9668 27.2426C18.7988 27.0746 18.7044 26.8467 18.7044 26.6091V15.8586C18.7044 14.989 18.702 14.4252 18.6471 14.0119C18.5945 13.6237 18.5097 13.5019 18.4416 13.4338C18.3736 13.3657 18.2517 13.2809 17.8635 13.2283C17.449 13.1734 16.8864 13.171 16.0168 13.171H13.6278C12.7582 13.171 12.1944 13.1734 11.7811 13.2283C11.3929 13.2809 11.2711 13.3657 11.203 13.4338C11.1349 13.5019 11.0501 13.6237 10.9975 14.0119C10.9426 14.4264 10.9402 14.989 10.9402 15.8586V26.6091C10.9402 26.8467 10.8458 27.0746 10.6778 27.2426C10.5098 27.4106 10.2819 27.505 10.0443 27.505C9.80671 27.505 9.57884 27.4106 9.41083 27.2426C9.24282 27.0746 9.14844 26.8467 9.14844 26.6091C9.14844 25.7395 9.14605 25.1757 9.0911 24.7624C9.03854 24.3742 8.95373 24.2523 8.88565 24.1843C8.81756 24.1162 8.69572 24.0314 8.30751 23.9788C7.89302 23.9239 7.33041 23.9215 6.46082 23.9215C5.59122 23.9215 5.02742 23.9239 4.61412 23.9788C4.22591 24.0314 4.10407 24.1162 4.03598 24.1843C3.9679 24.2523 3.88309 24.3742 3.83053 24.7624C3.77558 25.1769 3.77319 25.7395 3.77319 26.6091C3.77319 26.8467 3.67881 27.0746 3.5108 27.2426C3.34279 27.4106 3.11492 27.505 2.87732 27.505C2.63972 27.505 2.41185 27.4106 2.24384 27.2426C2.07583 27.0746 1.98145 26.8467 1.98145 26.6091V26.5494C1.98145 25.7562 1.98145 25.0718 2.0555 24.5235C2.13434 23.9358 2.31232 23.3732 2.76862 22.9169C3.22492 22.4606 3.78872 22.2826 4.37522 22.2038C4.9235 22.1297 5.60794 22.1297 6.40229 22.1297H6.51935C7.31369 22.1297 7.99813 22.1297 8.54641 22.2038C8.75067 22.2313 8.95254 22.2707 9.14844 22.3292V15.8001C9.14844 15.0057 9.14844 14.3213 9.2225 13.773C9.30133 13.1853 9.47931 12.6227 9.93561 12.1664C10.3919 11.7101 10.9557 11.5321 11.5422 11.4533C12.0905 11.3792 12.7749 11.3792 13.5693 11.3792Z" fill="#6750A4"/>
</svg>
