<svg width="31" height="31" viewBox="0 0 31 31" fill="none" xmlns="http://www.w3.org/2000/svg">
<path d="M6.7373 12.9141C6.7373 11.8428 6.7373 11.1153 6.7848 10.5528C6.82855 10.0053 6.9098 9.72406 7.0098 9.52906L4.7823 8.39406C4.47355 9.00031 4.3498 9.64656 4.2923 10.3491C4.2373 11.0366 4.2373 11.8841 4.2373 12.9141H6.7373ZM6.7373 15.6641V12.9141H4.2373V15.6641H6.7373ZM4.2373 15.6641V21.9141H6.7373V15.6641H4.2373ZM4.2373 21.9141V25.5566H6.7373V21.9141H4.2373ZM4.2373 25.5566C4.2373 27.1703 6.1898 27.9791 7.33105 26.8378L5.56355 25.0703C5.6597 24.9741 5.78223 24.9086 5.91562 24.8821C6.04901 24.8555 6.18728 24.8691 6.31293 24.9212C6.43858 24.9732 6.54597 25.0614 6.62151 25.1745C6.69705 25.2876 6.73735 25.4206 6.7373 25.5566H4.2373ZM7.33105 26.8378L11.0061 23.1641L9.2373 21.3966L5.56355 25.0703L7.33105 26.8378ZM19.4873 20.6641H11.0048V23.1641H19.4873V20.6641ZM22.8723 20.3916C22.6773 20.4916 22.3973 20.5728 21.8486 20.6166C21.2861 20.6628 20.5586 20.6641 19.4873 20.6641V23.1641C20.5173 23.1641 21.3636 23.1641 22.0523 23.1091C22.7548 23.0516 23.4011 22.9278 24.0073 22.6191L22.8723 20.3916ZM23.9648 19.2991C23.7251 19.7694 23.3427 20.1519 22.8723 20.3916L24.0073 22.6191C24.9481 22.1397 25.7129 21.3748 26.1923 20.4341L23.9648 19.2991ZM24.2373 15.9141C24.2373 16.9853 24.2373 17.7128 24.1898 18.2753C24.1461 18.8228 24.0648 19.1041 23.9648 19.2991L26.1923 20.4341C26.5011 19.8278 26.6248 19.1816 26.6823 18.4791C26.7386 17.7916 26.7373 16.9441 26.7373 15.9141H24.2373ZM24.2373 12.9141V15.9141H26.7373V12.9141H24.2373ZM23.9648 9.52906C24.0648 9.72406 24.1461 10.0041 24.1898 10.5528C24.2373 11.1153 24.2373 11.8428 24.2373 12.9141H26.7373C26.7373 11.8841 26.7373 11.0378 26.6823 10.3491C26.6248 9.64656 26.5011 9.00031 26.1923 8.39406L23.9648 9.52906ZM22.8723 8.43656C23.3427 8.67624 23.7251 9.05868 23.9648 9.52906L26.1923 8.39406C25.7129 7.45329 24.9481 6.68842 24.0073 6.20906L22.8723 8.43656ZM19.4873 8.16406C20.5586 8.16406 21.2861 8.16406 21.8486 8.21156C22.3961 8.25531 22.6773 8.33656 22.8723 8.43656L24.0073 6.20906C23.4011 5.90031 22.7548 5.77656 22.0523 5.71906C21.3648 5.66406 20.5173 5.66406 19.4873 5.66406V8.16406ZM11.4873 8.16406H19.4873V5.66406H11.4873V8.16406ZM8.1023 8.43656C8.2973 8.33656 8.5773 8.25531 9.12605 8.21156C9.68855 8.16406 10.4161 8.16406 11.4873 8.16406V5.66406C10.4573 5.66406 9.61105 5.66406 8.92231 5.71906C8.21981 5.77656 7.57355 5.90031 6.9673 6.20906L8.1023 8.43656ZM7.0098 9.52906C7.24948 9.05868 7.63192 8.67624 8.1023 8.43656L6.9673 6.20906C6.02654 6.68842 5.26166 7.45329 4.7823 8.39406L7.0098 9.52906ZM11.0048 23.1641V20.6641C10.3418 20.6642 9.70604 20.9277 9.2373 21.3966L11.0048 23.1641Z" fill="#6750A4"/>
<path d="M10.4873 11.9141H20.4873M10.4873 16.9141H16.7373" stroke="#6750A4" stroke-width="1.25" stroke-linecap="round" stroke-linejoin="round"/>
</svg>
