<svg width="24" height="22" viewBox="0 0 24 22" fill="none" xmlns="http://www.w3.org/2000/svg">
<path d="M12.3257 0.521951C12.9759 -0.0613098 14.0097 0.399645 14.0097 1.27252V20.0569C14.0097 20.9303 12.9759 21.3913 12.3257 20.808L7.59153 16.5584C7.08873 16.1069 6.4368 15.857 5.76098 15.8569H3.04833C2.24504 15.8569 1.47466 15.5378 0.906646 14.9698C0.338636 14.4018 0.0195313 13.6314 0.0195312 12.8281V8.50126C0.0195312 6.8282 1.37528 5.47245 3.04833 5.47245H5.76098C6.4368 5.47233 7.08873 5.22249 7.59153 4.77093L12.3257 0.521951ZM12.5674 2.24289L8.55498 5.84514C7.78737 6.53395 6.79233 6.91487 5.76098 6.91474H3.04833C2.62756 6.91474 2.22403 7.08189 1.9265 7.37942C1.62897 7.67695 1.46182 8.08049 1.46182 8.50126V12.8281C1.46182 13.2489 1.62897 13.6524 1.9265 13.9499C2.22403 14.2475 2.62756 14.4146 3.04833 14.4146H5.76098C6.79241 14.4147 7.78746 14.7958 8.55498 15.4848L12.5674 19.0876V2.24289ZM18.82 1.66251C18.9507 1.52305 19.1315 1.44119 19.3225 1.43491C19.5136 1.42864 19.6993 1.49846 19.8389 1.62905L19.8452 1.63482L19.8562 1.6452C19.9081 1.69497 19.9585 1.74634 20.0073 1.79924C20.1054 1.90308 20.2404 2.05366 20.4008 2.25096C20.839 2.79325 21.2283 3.3734 21.5638 3.98459C22.4055 5.50649 23.2403 7.753 23.2403 10.6647C23.2403 13.5764 22.4055 15.8223 21.5638 17.3454C21.2282 17.9563 20.839 18.5363 20.4008 19.0784C20.2391 19.2766 20.0688 19.4676 19.8902 19.6507L19.8556 19.6842L19.8452 19.6945L19.8417 19.698L19.84 19.6992L19.9669 19.5728C20.0287 19.5111 20.0494 19.4897 19.8389 19.6997C19.6983 19.8236 19.5151 19.8878 19.328 19.8789C19.1408 19.8701 18.9645 19.7887 18.8363 19.6521C18.7082 19.5155 18.6381 19.3344 18.6411 19.1471C18.6441 18.9598 18.7199 18.781 18.8523 18.6486L18.8546 18.6463C18.89 18.612 18.9244 18.5768 18.9579 18.5407C19.0335 18.46 19.146 18.3359 19.2827 18.1675C19.6664 17.6917 20.0073 17.183 20.3015 16.6473C21.0469 15.2996 21.7981 13.2914 21.7981 10.6647C21.7981 8.03799 21.0469 6.02975 20.3015 4.68208C20.0074 4.14616 19.6664 3.63727 19.2827 3.16133C19.1531 3.00187 19.0164 2.84826 18.8731 2.70096L18.8546 2.6825L18.8529 2.68076L18.8518 2.67961C18.7129 2.5487 18.6316 2.36808 18.6256 2.17733C18.6197 1.98657 18.6896 1.80182 18.82 1.66251ZM16.5101 5.12631C16.5745 5.05689 16.652 5.00085 16.7381 4.9614C16.8243 4.92194 16.9173 4.89984 17.012 4.89636C17.1067 4.89287 17.2011 4.90808 17.2899 4.9411C17.3787 4.97412 17.4601 5.02431 17.5295 5.08881L17.53 5.08938L17.5312 5.09054L17.5341 5.09342L17.5422 5.10034L17.5664 5.124C17.586 5.14323 17.6123 5.16996 17.6454 5.20419C17.7106 5.27226 17.8006 5.36976 17.9062 5.49553C18.1173 5.74707 18.3948 6.11398 18.6712 6.58763C19.3956 7.8243 19.7779 9.23146 19.7789 10.6647C19.7789 12.4087 19.2233 13.795 18.6712 14.7423C18.3943 15.2154 18.1173 15.5829 17.9062 15.8344C17.7982 15.9632 17.6846 16.0871 17.5658 16.2059L17.5548 16.2169L17.5422 16.229L17.5341 16.2365L17.5312 16.2394L17.53 16.2411H17.5289C17.3885 16.3682 17.2037 16.435 17.0145 16.427C16.8252 16.419 16.6468 16.3369 16.5176 16.1984C16.3884 16.0599 16.3189 15.8761 16.3241 15.6868C16.3292 15.4975 16.4087 15.3178 16.5452 15.1865L16.5464 15.1854L16.5556 15.1762L16.6047 15.1265C16.6497 15.0798 16.7177 15.006 16.8008 14.9067C16.9681 14.7071 17.196 14.4071 17.4245 14.0154C18.0206 12.9993 18.3354 11.8428 18.3366 10.6647C18.3366 9.23567 17.8825 8.09799 17.425 7.31454C17.1966 6.92224 16.9693 6.62225 16.802 6.42321C16.7236 6.3302 16.6416 6.24032 16.5562 6.15379L16.5464 6.14398L16.547 6.14456C16.4072 6.01434 16.3248 5.83398 16.3179 5.64307C16.311 5.45216 16.3801 5.26631 16.5101 5.12631ZM19.8452 1.63482L19.8389 1.62905L19.84 1.6302L19.8417 1.63136L19.8452 1.63482Z" fill="#6750A4"/>
</svg>
