<svg width="205" height="96" viewBox="0 0 205 96" fill="none" xmlns="http://www.w3.org/2000/svg">
<g opacity="0.2">
<path d="M0.501953 42.572H45.5776C48.505 42.572 50.8782 44.9451 50.8782 47.8726V53.7032C50.8782 56.6307 53.2513 59.0038 56.1788 59.0038C59.1062 59.0038 61.4794 56.6307 61.4794 53.7032V26.6702C61.4794 23.7427 63.8525 21.3696 66.78 21.3696C69.7074 21.3696 72.0806 23.7427 72.0806 26.6702V69.075C72.0806 72.0024 74.4537 74.3756 77.3812 74.3756C80.3086 74.3756 82.6818 72.0024 82.6818 69.075V10.7684C82.6818 7.84093 85.0549 5.46777 87.9824 5.46777C90.9098 5.46777 93.283 7.84093 93.283 10.7684V42.572C93.283 45.4994 95.6561 47.8726 98.5835 47.8726H132.937" stroke="#6750A4" stroke-width="1.46319"/>
<path d="M21.1934 42.5732H31.7946" stroke="#6750A4" stroke-width="1.46319"/>
<path d="M146.294 93.7148H188.699C191.626 93.7148 193.999 91.3417 193.999 88.4142V87.2696C193.999 84.3421 191.626 81.969 188.699 81.969H162.196C159.268 81.969 156.895 79.5958 156.895 76.6683V75.5237C156.895 72.5962 159.268 70.2231 162.196 70.2231H172.797C175.724 70.2231 178.098 67.8499 178.098 64.9225V63.7778C178.098 60.8503 175.724 58.4772 172.797 58.4772H137.039" stroke="#6750A4" stroke-width="1.46319"/>
<path d="M146.293 93.7148L156.894 93.7148" stroke="#6750A4" stroke-width="1.46319"/>
<path fill-rule="evenodd" clip-rule="evenodd" d="M137.167 100.486C137.843 101.234 138.938 101.234 139.614 100.486L144.47 95.1051C145.145 94.3567 145.145 93.1433 144.47 92.3949L139.614 87.0144C138.938 86.266 137.843 86.266 137.167 87.0144L132.311 92.3949C131.636 93.1433 131.636 94.3567 132.311 95.1051L137.167 100.486ZM137.289 97.7961H139.479V94.966H142.035L142.035 92.539H139.479V89.7061H137.289V92.539H134.733V94.966H137.289V97.7961Z" fill="#6750A4"/>
<path d="M193.991 43.1045L193.991 31.9732C193.991 29.0458 191.618 26.6726 188.691 26.6726V26.6726C185.763 26.6726 183.39 29.0458 183.39 31.9732L183.39 42.5744C183.39 45.5018 181.017 47.875 178.09 47.875V47.875C175.162 47.875 172.789 45.5018 172.789 42.5744L172.789 4.94015" stroke="#6750A4" stroke-width="1.46319"/>
<path d="M172.789 5.46875L172.789 16.0699" stroke="#6750A4" stroke-width="1.46319"/>
<path d="M193.996 42.5742L193.996 31.973" stroke="#6750A4" stroke-width="1.46319"/>
<rect x="193.992" y="52.7234" width="6.85655" height="6.85655" transform="rotate(-135 193.992 52.7234)" stroke="#6750A4" stroke-width="2.04846"/>
<rect x="175.488" y="3.76367" width="3.81643" height="3.81643" transform="rotate(135 175.488 3.76367)" fill="#6750A4"/>
<rect x="171.895" y="0.166016" width="3.81643" height="3.81643" transform="rotate(135 171.895 0.166016)" fill="#6750A4"/>
<rect x="179.09" y="0.166016" width="3.81643" height="3.81643" transform="rotate(135 179.09 0.166016)" fill="#6750A4"/>
<rect x="143.826" y="51.4365" width="3.81643" height="3.81643" transform="rotate(135 143.826 51.4365)" fill="#6750A4"/>
<rect x="140.229" y="47.8389" width="3.81643" height="3.81643" transform="rotate(135 140.229 47.8389)" fill="#6750A4"/>
<rect x="147.424" y="47.8389" width="3.81643" height="3.81643" transform="rotate(135 147.424 47.8389)" fill="#6750A4"/>
<rect x="143.826" y="44.2393" width="3.81643" height="3.81643" transform="rotate(135 143.826 44.2393)" fill="#6750A4"/>
<path d="M135.687 42.1367V26.6725C135.687 23.7451 138.06 21.3719 140.987 21.3719H156.889C159.816 21.3719 162.19 18.9987 162.19 16.0713V16.0713C162.19 13.1439 159.816 10.7707 156.889 10.7707H114.484C111.557 10.7707 109.184 8.39754 109.184 5.4701V5.4701C109.184 2.54266 111.557 0.169501 114.484 0.169501H131.976" stroke="#6750A4" stroke-width="1.46319"/>
<path d="M131.445 0.167969L120.844 0.16797" stroke="#6750A4" stroke-width="1.46319"/>
<path d="M139.278 1.09925C140.015 0.697448 140.015 -0.360294 139.278 -0.762097L131.478 -5.01661C130.662 -5.46159 129.71 -4.71628 129.945 -3.81734L130.919 -0.100015C130.965 0.0760765 130.965 0.261077 130.919 0.437168L129.945 4.1545C129.71 5.05344 130.662 5.79874 131.478 5.35376L139.278 1.09925Z" fill="#6750A4"/>
</g>
</svg>
