<svg width="116" height="116" viewBox="0 0 116 116" fill="none" xmlns="http://www.w3.org/2000/svg">
<g filter="url(#filter0_d_9805_13112)">
<rect x="92.4023" y="3.39746" width="82" height="82" rx="41" transform="rotate(81.5124 92.4023 3.39746)" fill="#F2F2F2"/>
<rect x="90.6774" y="5.72758" width="77.9" height="77.9" rx="38.95" transform="rotate(81.5124 90.6774 5.72758)" stroke="white" stroke-width="4.1"/>
<g clip-path="url(#clip0_9805_13112)">
<path d="M34.9441 51.9654C36.701 63.7389 47.6696 71.8589 59.4431 70.102C71.2166 68.345 79.3366 57.3764 77.5797 45.603C75.8227 33.8295 64.8541 25.7094 53.0806 27.4664C41.3072 29.2234 33.1871 40.1919 34.9441 51.9654Z" fill="#CAB8FF"/>
<path d="M37.5144 53.8697C39.2714 65.6432 50.24 73.7632 62.0134 72.0063C73.7869 70.2493 81.9069 59.2807 80.15 47.5072C78.393 35.7338 67.4244 27.6137 55.651 29.3707C43.8775 31.1277 35.7575 42.0962 37.5144 53.8697Z" fill="white" stroke="black" stroke-width="1.25752" stroke-linecap="round" stroke-linejoin="round"/>
<path d="M52.9695 44.0633L54.5781 43.8232L55.0582 47.0404L43.7899 48.722L43.5251 46.9476L53.1848 45.506L52.9708 44.0716L52.9695 44.0633Z" fill="black"/>
<path d="M54.9987 56.959L54.2254 51.7767L51.1492 52.2358C51.4716 52.408 51.7603 52.6955 52.0236 53.097C52.287 53.4985 52.4462 53.9409 52.518 54.4218C52.6467 55.2841 52.5694 56.0162 52.278 56.6191C51.9853 57.2137 51.5791 57.6727 51.0416 57.9903C50.5125 58.3066 49.9245 58.513 49.3026 58.6058C48.5398 58.7196 47.8376 58.6718 47.2056 58.4695C46.5736 58.2671 46.0354 57.8982 45.6088 57.3685C45.1822 56.8388 44.91 56.1505 44.7838 55.3047C44.6167 54.1854 44.7638 53.2395 45.2178 52.4767C45.6719 51.7139 46.3492 51.1975 47.2498 50.9275L47.506 52.6438C47.0424 52.8317 46.6898 53.1386 46.466 53.5704C46.2423 54.0021 46.1743 54.5124 46.2622 55.1011C46.371 55.8307 46.6766 56.3446 47.1717 56.6521C47.6656 56.9514 48.2815 57.0459 49.0112 56.9371C49.7409 56.8282 50.2941 56.5591 50.6364 56.1266C50.9787 55.6941 51.096 55.1172 50.9884 54.3958C50.9129 53.89 50.7254 53.4857 50.4164 53.1758C50.1157 52.8647 49.7303 52.6679 49.2769 52.583L49.0282 50.9164L55.5371 49.945L56.5518 56.7442L55.0095 56.9743L54.9987 56.959Z" fill="black"/>
<path d="M77.2469 48.1518L75.2274 49.6144C74.4472 50.1801 73.9715 51.0817 73.9633 52.0493L73.9278 54.5381C73.9219 54.7255 73.7174 54.8323 73.565 54.7194L71.5486 53.2488C70.7684 52.6786 69.7691 52.5141 68.8449 52.7961L66.4628 53.533C66.2841 53.5851 66.1242 53.4225 66.1741 53.2455L66.9478 50.8754C67.2515 49.957 67.1018 48.9537 66.5431 48.164L65.1112 46.123C65.0036 45.9696 65.1161 45.7578 65.3034 45.7638L67.7968 45.7731C68.7631 45.773 69.6709 45.3239 70.2506 44.5508L71.7498 42.5556C71.8627 42.4031 72.0977 42.4443 72.1498 42.623L72.9103 44.9931C73.2089 45.9148 73.9189 46.6395 74.8302 46.9528L77.1887 47.7621C77.3669 47.8202 77.3867 48.0448 77.2344 48.1608L77.2469 48.1518Z" fill="url(#paint0_linear_9805_13112)" stroke="black" stroke-width="1.25752" stroke-miterlimit="10"/>
<path d="M61.3398 41.3115L63.8183 57.9197" stroke="black" stroke-width="1.25752" stroke-linecap="round" stroke-linejoin="round"/>
</g>
</g>
<defs>
<filter id="filter0_d_9805_13112" x="-5.09922" y="-4.80254" width="126.003" height="126.005" filterUnits="userSpaceOnUse" color-interpolation-filters="sRGB">
<feFlood flood-opacity="0" result="BackgroundImageFix"/>
<feColorMatrix in="SourceAlpha" type="matrix" values="0 0 0 0 0 0 0 0 0 0 0 0 0 0 0 0 0 0 127 0" result="hardAlpha"/>
<feOffset dy="8.2"/>
<feGaussianBlur stdDeviation="8.2"/>
<feComposite in2="hardAlpha" operator="out"/>
<feColorMatrix type="matrix" values="0 0 0 0 0 0 0 0 0 0 0 0 0 0 0 0 0 0 0.12 0"/>
<feBlend mode="normal" in2="BackgroundImageFix" result="effect1_dropShadow_9805_13112"/>
<feBlend mode="normal" in="SourceGraphic" in2="effect1_dropShadow_9805_13112" result="shape"/>
</filter>
<linearGradient id="paint0_linear_9805_13112" x1="70.5519" y1="42.6496" x2="72.3893" y2="54.9626" gradientUnits="userSpaceOnUse">
<stop stop-color="#CBD1FF"/>
<stop offset="0.55" stop-color="#F7B363"/>
<stop offset="0.84" stop-color="#771BED"/>
</linearGradient>
<clipPath id="clip0_9805_13112">
<rect width="46" height="46" fill="white" transform="translate(77.2578 23.8574) rotate(81.5124)"/>
</clipPath>
</defs>
</svg>
