<svg width="116" height="124" viewBox="0 0 116 124" fill="none" xmlns="http://www.w3.org/2000/svg">
<g filter="url(#filter0_d_9805_13075)">
<rect x="-0.00390625" y="55.0078" width="82" height="82" rx="41" transform="rotate(-42.0412 -0.00390625 55.0078)" fill="#F2F2F2"/>
<rect x="2.89137" y="55.1575" width="77.9" height="77.9" rx="38.95" transform="rotate(-42.0412 2.89137 55.1575)" stroke="white" stroke-width="4.1"/>
<g clip-path="url(#clip0_9805_13075)">
<path d="M47.5419 60.1102C49.344 62.1088 51.7939 63.1882 54.2875 63.317C56.7868 63.4407 59.335 62.6197 61.3393 60.8124L66.0412 56.5726L72.2199 56.3633C72.9755 56.3418 73.2365 55.342 72.5846 54.9558L68.823 52.7238C70.1639 49.3677 69.5925 45.4006 67.0091 42.5356C65.2017 40.5312 62.7518 39.4519 60.253 39.3172C57.7537 39.1935 55.2056 40.0146 53.2012 41.8219L48.4647 46.0929C44.4675 49.6972 43.9266 56.1125 47.5419 60.1102Z" fill="url(#paint0_linear_9805_13075)"/>
<path d="M73.0978 56.6067C72.8725 56.8099 72.5686 56.9373 72.2431 56.9481L66.2742 57.1462L61.7283 61.2453C59.6777 63.0943 57.0297 64.0368 54.2557 63.8989C51.4933 63.7507 48.9508 62.5454 47.107 60.5006C45.3205 58.5193 44.4092 55.9059 44.5523 53.1377C44.6947 50.2759 45.9865 47.5506 48.0776 45.6651L52.8141 41.3942C54.8647 39.5452 57.5127 38.6026 60.2867 38.7405C63.06 38.8894 65.5968 40.0999 67.4458 42.1504C69.998 44.9808 70.7816 48.8928 69.5391 52.4742L72.8784 54.4587C73.3967 54.7663 73.6412 55.3627 73.4955 55.9444C73.4322 56.211 73.2884 56.4349 73.092 56.612L73.0978 56.6067ZM48.8536 46.5258C46.9879 48.2081 45.849 50.6385 45.7115 53.1921C45.5843 55.6527 46.3843 57.9685 47.9682 59.7135C49.6037 61.5273 51.8611 62.6022 54.3159 62.7346C56.7713 62.856 59.1275 62.0195 60.947 60.3788L65.8049 55.9985L72.1986 55.7838C72.2813 55.7825 72.3385 55.7414 72.3598 55.6489C72.3806 55.5674 72.351 55.4998 72.2816 55.4576L68.0925 52.9722L68.2817 52.5084C69.5915 49.2223 68.9388 45.5484 66.5742 42.9259C64.9335 41.1064 62.6761 40.0315 60.2213 39.8991C57.7659 39.7777 55.4097 40.6142 53.5902 42.2548L48.8536 46.5258Z" fill="black"/>
<path d="M56.3828 51.4974C58.1849 53.4959 59.0059 56.0441 58.877 58.5376C58.7424 61.0364 57.663 63.4863 55.6586 65.2937L50.9568 69.5334L50.1115 75.6576C50.0122 76.4069 48.9908 76.5634 48.674 75.8752L46.8416 71.9035C43.3652 72.8913 39.4782 71.9139 36.8947 69.0489C35.0874 67.0445 34.2664 64.4963 34.3901 61.997C34.5247 59.4983 35.6041 57.0484 37.6084 55.241L42.345 50.97C46.3422 47.3658 52.779 47.4892 56.3828 51.4974Z" fill="#CAB8FF"/>
<path d="M57.5937 49.3567C59.3958 51.3553 60.2168 53.9035 60.088 56.397C59.9533 58.8958 58.8739 61.3457 56.8696 63.153L52.1677 67.3928L51.3225 73.517C51.2232 74.2663 50.2018 74.4228 49.8849 73.7345L48.0526 69.7629C44.5761 70.7507 40.6891 69.7733 38.1057 66.9082C36.2983 64.9039 35.4773 62.3557 35.601 59.8564C35.7357 57.3577 36.815 54.9077 38.8194 53.1004L43.5559 48.8294C47.5531 45.2251 53.99 45.3486 57.5937 49.3567Z" fill="white"/>
<path d="M51.4757 74.4172C51.2851 74.5891 51.0424 74.7032 50.7701 74.7497C50.1765 74.8347 49.6085 74.53 49.3559 73.9827L47.7264 70.4566C44.0417 71.318 40.2256 70.1405 37.6734 67.3101C35.8244 65.2595 34.8819 62.6115 35.0197 59.8376C35.1692 57.0532 36.3797 54.5164 38.4302 52.6674L43.1668 48.3965C45.2578 46.511 48.1012 45.518 50.963 45.6604C53.7312 45.8035 56.2425 46.9741 58.0232 48.9606C59.867 51.0054 60.8038 53.6586 60.6665 56.4216C60.5176 59.195 59.3071 61.7317 57.2565 63.5808L52.7106 67.6798L51.8981 73.5965C51.8539 73.9191 51.7016 74.2031 51.4705 74.4115L51.4757 74.4172ZM39.2115 53.5339C37.392 55.1745 36.3171 57.4319 36.1847 59.8868C36.0633 62.3421 36.8997 64.6983 38.5404 66.5179C40.9051 69.1403 44.4921 70.1683 47.8957 69.2042C48.1697 69.1248 48.4658 69.2557 48.584 69.5262L50.4163 73.4979C50.4563 73.577 50.5153 73.6076 50.5985 73.5954C50.6818 73.5832 50.7285 73.5305 50.7493 73.449L51.5945 67.3248C51.6181 67.1883 51.6798 67.0593 51.778 66.9708L56.4799 62.7311C58.2994 61.0904 59.3743 58.833 59.5067 56.3782C59.6281 53.9228 58.7969 51.5724 57.1614 49.7586C55.5832 48.0084 53.3623 46.9739 50.9075 46.8415C48.348 46.7093 45.8184 47.5973 43.9527 49.2797L39.2162 53.5506L39.2115 53.5339Z" fill="black"/>
<path d="M47.43 61.1622L44.3917 63.9019L45.2406 66.0164L44.5301 66.6571L41.0196 57.8626L41.7763 57.1802L50.1505 61.5892L49.4457 62.2246L47.43 61.1622ZM46.7278 60.79L42.1503 58.3616L44.0938 63.1651L46.7336 60.7848L46.7278 60.79Z" fill="black"/>
<path d="M47.6029 56.5781C47.452 55.9811 47.4653 55.4035 47.6487 54.8403C47.832 54.277 48.1605 53.7818 48.6399 53.3495C49.1193 52.9172 49.6683 52.6317 50.2405 52.5346C50.807 52.4427 51.3325 52.503 51.812 52.7095L50.7755 51.56L51.4455 50.9558L56.154 56.1776L55.484 56.7817L54.4423 55.6265C54.5977 56.1357 54.6034 56.6646 54.4478 57.2238C54.298 57.7778 53.969 58.284 53.4722 58.7319C52.9755 59.1798 52.478 59.4295 51.8936 59.5479C51.3092 59.6664 50.7334 59.6201 50.1498 59.4027C49.5663 59.1853 49.0405 58.8112 48.5561 58.274C48.0717 57.7368 47.7538 57.1752 47.6029 56.5781ZM51.8698 53.2962C51.41 53.1348 50.955 53.0947 50.5036 53.1981C50.0527 53.2904 49.6454 53.5006 49.2872 53.8236C48.9291 54.1465 48.6612 54.5347 48.5177 54.9678C48.3741 55.401 48.3566 55.8461 48.4756 56.3149C48.5946 56.7836 48.8413 57.2314 49.2319 57.6646C49.6225 58.0979 50.0425 58.3894 50.4965 58.5561C50.9557 58.7285 51.4055 58.7627 51.8511 58.6646C52.2968 58.5665 52.7041 58.3563 53.0738 58.0229C53.4435 57.6896 53.6773 57.3217 53.8214 56.8775C53.9597 56.4386 53.9778 55.9825 53.8646 55.5085C53.7515 55.0346 53.5048 54.5868 53.1245 54.1651C52.7443 53.7434 52.3243 53.4519 51.8646 53.2904L51.8698 53.2962Z" fill="black"/>
<path d="M57.0731 63.8085C58.8753 65.807 61.3252 66.8864 63.8187 67.0153C66.3181 67.139 68.8662 66.3179 70.8706 64.5106L75.5725 60.2709L81.7512 60.0616C82.5068 60.04 82.7677 59.0402 82.1158 58.6541L78.3542 56.422C79.6952 53.066 79.1237 49.0989 76.5403 46.2338C74.733 44.2295 72.283 43.1501 69.7843 43.0155C67.285 42.8918 64.7368 43.7128 62.7325 45.5201L57.9959 49.7911C53.9987 53.3954 53.4579 59.8107 57.0731 63.8085Z" fill="#CAB8FF"/>
<path d="M54.8231 64.7938C56.6253 66.7924 59.0752 67.8718 61.5687 68.0006C64.0681 68.1243 66.6162 67.3033 68.6206 65.496L73.3225 61.2562L79.5012 61.0469C80.2568 61.0254 80.5177 60.0256 79.8658 59.6394L76.1042 57.4074C77.4452 54.0513 76.8737 50.0842 74.2903 47.2192C72.483 45.2148 70.033 44.1355 67.5343 44.0008C65.035 43.8771 62.4868 44.6982 60.4825 46.5055L55.7459 50.7765C51.7487 54.3808 51.2079 60.7961 54.8231 64.7938Z" fill="white"/>
<path d="M80.3804 61.2903C80.1551 61.4934 79.8511 61.6209 79.5257 61.6316L73.5568 61.8297L69.0108 65.9288C66.9603 67.7778 64.3122 68.7203 61.5383 68.5825C58.7759 68.4342 56.2334 67.2289 54.3843 65.1783C52.5978 63.197 51.6866 60.5836 51.8296 57.8155C51.9721 54.9537 53.2639 52.2283 55.3549 50.3429L60.0914 46.0719C62.142 44.2229 64.7901 43.2804 67.564 43.4182C70.3374 43.5671 72.8741 44.7776 74.7232 46.8282C77.2753 49.6586 78.0589 53.5705 76.8216 57.1577L80.161 59.1422C80.6793 59.4498 80.9238 60.0462 80.7781 60.6279C80.7147 60.8945 80.571 61.1184 80.3746 61.2955L80.3804 61.2903ZM56.1362 51.2093C54.2704 52.8917 53.1315 55.322 52.994 57.8757C52.8668 60.3362 53.6668 62.652 55.2508 64.397C56.8862 66.2108 59.1437 67.2857 61.5985 67.4181C64.0538 67.5395 66.41 66.703 68.2296 65.0624L72.9315 60.8226C73.0354 60.7289 73.1649 60.675 73.3025 60.6766L79.4812 60.4673C79.5639 60.466 79.6268 60.4197 79.6424 60.3324C79.6631 60.2509 79.6336 60.1833 79.5641 60.1411L75.8025 57.9091C75.5567 57.7642 75.4512 57.4614 75.5533 57.1913C76.8631 53.9052 76.2104 50.2313 73.8457 47.6089C72.2051 45.7894 69.9477 44.7145 67.4928 44.5821C65.0375 44.4607 62.6813 45.2971 60.8617 46.9378L56.1252 51.2087L56.1362 51.2093Z" fill="black"/>
<path d="M65.0671 63.1045C65.0035 63.1618 64.9342 63.2243 64.8707 63.2816C64.7089 63.4274 64.4621 63.4092 64.322 63.2422C64.1819 63.0753 64.2065 62.8122 64.3614 62.6935C64.4249 62.6363 64.4884 62.579 64.552 62.5217C70.4033 57.2455 67.5269 51.9532 66.5959 50.5724L59.3294 57.1246C59.1676 57.2705 58.926 57.258 58.7801 57.0963C58.6343 56.9345 58.6468 56.6929 58.8085 56.547L66.3986 49.7031C66.4794 49.6301 66.5858 49.5971 66.6898 49.608C66.7939 49.6189 66.8957 49.6737 66.9576 49.754C67.0149 49.8175 72.2706 56.5985 65.0671 63.1045Z" fill="black"/>
<path d="M72.4622 56.4373C67.3213 61.0728 61.3856 59.6701 61.13 59.6074C60.9236 59.5526 60.7968 59.3423 60.8457 59.1411C60.9005 58.9347 61.1108 58.8078 61.312 58.8568C61.3664 58.8706 67.1124 60.214 71.9356 55.8649C72.1036 55.7028 72.3447 55.7263 72.4906 55.888C72.6364 56.0498 72.6239 56.2914 72.4622 56.4373Z" fill="black"/>
<path d="M63.117 53.708C62.9553 53.8539 62.7136 53.8414 62.5678 53.6796L59.9479 50.7742C59.8021 50.6124 59.8146 50.3708 59.9763 50.2249C60.138 50.0791 60.3797 50.0916 60.5256 50.2533L63.1454 53.1588C63.2913 53.3205 63.2788 53.5622 63.117 53.708Z" fill="black"/>
</g>
</g>
<defs>
<filter id="filter0_d_9805_13075" x="-16.4039" y="-8.1043" width="148.613" height="148.611" filterUnits="userSpaceOnUse" color-interpolation-filters="sRGB">
<feFlood flood-opacity="0" result="BackgroundImageFix"/>
<feColorMatrix in="SourceAlpha" type="matrix" values="0 0 0 0 0 0 0 0 0 0 0 0 0 0 0 0 0 0 127 0" result="hardAlpha"/>
<feOffset dy="8.2"/>
<feGaussianBlur stdDeviation="8.2"/>
<feComposite in2="hardAlpha" operator="out"/>
<feColorMatrix type="matrix" values="0 0 0 0 0 0 0 0 0 0 0 0 0 0 0 0 0 0 0.12 0"/>
<feBlend mode="normal" in2="BackgroundImageFix" result="effect1_dropShadow_9805_13075"/>
<feBlend mode="normal" in="SourceGraphic" in2="effect1_dropShadow_9805_13075" result="shape"/>
</filter>
<linearGradient id="paint0_linear_9805_13075" x1="48.9273" y1="61.6467" x2="68.4049" y2="44.0836" gradientUnits="userSpaceOnUse">
<stop stop-color="#CBD1FF"/>
<stop offset="0.55" stop-color="#F7B363"/>
<stop offset="1" stop-color="#771BED"/>
</linearGradient>
<clipPath id="clip0_9805_13075">
<rect width="45.1111" height="35" fill="white" transform="translate(29.4375 60.7773) rotate(-42.0412)"/>
</clipPath>
</defs>
</svg>
