<svg width="116" height="122" viewBox="0 0 116 122" fill="none" xmlns="http://www.w3.org/2000/svg">
<g filter="url(#filter0_d_9805_13163)">
<rect x="41.9336" y="111.74" width="82" height="82" rx="41" transform="rotate(-119.015 41.9336 111.74)" fill="#F2F2F2"/>
<rect x="42.732" y="108.953" width="77.9" height="77.9" rx="38.95" transform="rotate(-119.015 42.732 108.953)" stroke="white" stroke-width="4.1"/>
<g clip-path="url(#clip0_9805_13163)">
<path d="M76.1405 47.6438C71.1948 38.727 59.957 35.5077 51.0401 40.4534C42.1233 45.3991 38.904 56.6369 43.8497 65.5538C48.7954 74.4707 60.0332 77.6899 68.9501 72.7442C77.867 67.7985 81.0862 56.5607 76.1405 47.6438Z" fill="#CAB8FF"/>
<path d="M73.7226 46.3958C68.7769 37.4789 57.539 34.2596 48.6222 39.2053C39.7053 44.151 36.486 55.3889 41.4317 64.3058C46.3774 73.2226 57.6153 76.4419 66.5321 71.4962C75.449 66.5505 78.6683 55.3127 73.7226 46.3958Z" fill="white" stroke="black" stroke-width="1.13175" stroke-linecap="round" stroke-linejoin="round"/>
<path d="M46.3695 61.3589L48.0378 58.8289C48.5168 58.1059 48.6237 57.2097 48.3355 56.3946L47.3284 53.5366C47.2743 53.3768 47.4166 53.2289 47.577 53.2693L50.499 54.073C51.3328 54.3008 52.2204 54.1277 52.914 53.605L55.3175 51.7628C55.4517 51.6625 55.6378 51.7491 55.645 51.9177L55.7814 54.9481C55.8218 55.8143 56.261 56.6061 56.9744 57.099L59.4729 58.8193C59.6121 58.9146 59.5804 59.122 59.4309 59.1791L56.5955 60.2426C55.7878 60.544 55.1644 61.209 54.9198 62.0435L54.0545 64.9478C54.0038 65.1054 53.803 65.1477 53.6961 65.0172L51.8048 62.6496C51.2659 61.9735 50.4425 61.5933 49.5821 61.6133L46.5525 61.6888C46.384 61.6961 46.2815 61.5113 46.3769 61.3721L46.3695 61.3589Z" fill="url(#paint0_linear_9805_13163)" stroke="black" stroke-width="1.13175" stroke-miterlimit="10"/>
<path d="M56.9078 66.4368L57.1139 66.1241C57.593 65.4011 57.6999 64.5049 57.4117 63.6898L57.2852 63.3372C57.2311 63.1774 57.3733 63.0295 57.5338 63.0699L57.8928 63.1727C58.7266 63.4005 59.6142 63.2274 60.3078 62.7047L60.6055 62.4792C60.7397 62.3789 60.9258 62.4655 60.933 62.634L60.9488 63.0049C60.9893 63.8711 61.4284 64.6629 62.1419 65.1558L62.448 65.3656C62.5872 65.461 62.5556 65.6684 62.406 65.7254L62.0571 65.8585C61.2493 66.1599 60.6259 66.8249 60.3813 67.6594L60.2785 68.0184C60.2278 68.176 60.027 68.2183 59.9201 68.0878L59.688 67.7938C59.1491 67.1177 58.3256 66.7375 57.4653 66.7575L57.0908 66.7667C56.9222 66.7739 56.8198 66.5892 56.9151 66.45L56.9078 66.4368Z" fill="white" stroke="black" stroke-width="1.13175" stroke-miterlimit="10"/>
<path d="M47.4508 49.388L47.6569 49.0752C48.136 48.3523 48.2428 47.4561 47.9547 46.641L47.8281 46.2884C47.774 46.1286 47.9163 45.9807 48.0768 46.0211L48.4358 46.1239C49.2696 46.3517 50.1572 46.1786 50.8508 45.6559L51.1485 45.4303C51.2827 45.33 51.4687 45.4166 51.4759 45.5852L51.4918 45.956C51.5322 46.8223 51.9714 47.614 52.6848 48.107L52.991 48.3168C53.1302 48.4122 53.0985 48.6195 52.949 48.6766L52.6001 48.8097C51.7923 49.1111 51.1689 49.7761 50.9243 50.6106L50.8214 50.9696C50.7708 51.1271 50.5699 51.1695 50.463 51.039L50.2309 50.7449C49.692 50.0689 48.8686 49.6887 48.0082 49.7086L47.6338 49.7179C47.4652 49.7251 47.3627 49.5404 47.4581 49.4012L47.4508 49.388Z" fill="white" stroke="black" stroke-width="1.13175" stroke-miterlimit="10"/>
<path d="M66.0625 60.1523L58.0187 45.6498" stroke="black" stroke-width="1.13175" stroke-linecap="round" stroke-linejoin="round"/>
<path d="M68.0977 55.502L63.0401 46.3835" stroke="black" stroke-width="1.13175" stroke-linecap="round" stroke-linejoin="round"/>
<path d="M70.5312 51.5469L67.6841 46.4136" stroke="black" stroke-width="1.13175" stroke-linecap="round" stroke-linejoin="round"/>
</g>
</g>
<defs>
<filter id="filter0_d_9805_13163" x="-14.2398" y="-7.94121" width="144.28" height="144.281" filterUnits="userSpaceOnUse" color-interpolation-filters="sRGB">
<feFlood flood-opacity="0" result="BackgroundImageFix"/>
<feColorMatrix in="SourceAlpha" type="matrix" values="0 0 0 0 0 0 0 0 0 0 0 0 0 0 0 0 0 0 127 0" result="hardAlpha"/>
<feOffset dy="8.2"/>
<feGaussianBlur stdDeviation="8.2"/>
<feComposite in2="hardAlpha" operator="out"/>
<feColorMatrix type="matrix" values="0 0 0 0 0 0 0 0 0 0 0 0 0 0 0 0 0 0 0.12 0"/>
<feBlend mode="normal" in2="BackgroundImageFix" result="effect1_dropShadow_9805_13163"/>
<feBlend mode="normal" in="SourceGraphic" in2="effect1_dropShadow_9805_13163" result="shape"/>
</filter>
<linearGradient id="paint0_linear_9805_13163" x1="55.2311" y1="64.347" x2="48.7024" y2="52.5761" gradientUnits="userSpaceOnUse">
<stop stop-color="#CBD1FF"/>
<stop offset="0.55" stop-color="#F7B363"/>
<stop offset="0.84" stop-color="#771BED"/>
</linearGradient>
<clipPath id="clip0_9805_13163">
<rect width="39.7545" height="39" fill="white" transform="translate(50.9883 82.7051) rotate(-119.015)"/>
</clipPath>
</defs>
</svg>
