<svg width="116" height="116" viewBox="0 0 116 116" fill="none" xmlns="http://www.w3.org/2000/svg">
<g filter="url(#filter0_d_9805_13095)">
<rect x="16.9023" y="9" width="82" height="82" rx="41" fill="#F2F2F2"/>
<rect x="18.9523" y="11.05" width="77.9" height="77.9" rx="38.95" stroke="white" stroke-width="4.1"/>
<g clip-path="url(#clip0_9805_13095)">
<path d="M67.5065 35.9026V66.3905C67.5065 66.8313 67.2776 67.2468 66.9046 67.4842C55.1113 74.8348 45.6157 69.1629 43.2926 67.5096C42.945 67.2637 42.75 66.8737 42.75 66.4583V35.9026C42.75 32.5961 48.2948 29.917 55.1283 29.917C61.9617 29.917 67.5065 32.5961 67.5065 35.9026Z" fill="#CAB8FF"/>
<path d="M69.7878 33.6224V64.1102C69.7878 64.5511 69.5589 64.9665 69.1858 65.2039C57.3926 72.5545 47.8969 66.8826 45.5739 65.2293C45.2262 64.9835 45.0312 64.5935 45.0312 64.178V33.6224C45.0312 30.3158 50.576 27.6367 57.4095 27.6367C64.243 27.6367 69.7878 30.3158 69.7878 33.6224Z" fill="white" stroke="black" stroke-width="1.27174" stroke-miterlimit="10"/>
<path d="M45.0312 43.8799C45.0312 43.8799 55.8919 53.011 69.7878 43.8799Z" fill="white"/>
<path d="M45.0312 43.8799C45.0312 43.8799 55.8919 53.011 69.7878 43.8799" stroke="black" stroke-width="1.27174" stroke-miterlimit="10"/>
<path d="M45.0312 33.0029C45.0312 33.0029 55.8919 42.134 69.7878 33.0029" stroke="black" stroke-width="1.27174" stroke-miterlimit="10"/>
<path d="M45.0312 54.5469C45.0312 54.5469 55.8919 63.678 69.7878 54.5469Z" fill="white"/>
<path d="M45.0312 54.5469C45.0312 54.5469 55.8919 63.678 69.7878 54.5469" stroke="black" stroke-width="1.27174" stroke-miterlimit="10"/>
<path d="M78.3057 43.1602H61.4339C60.4975 43.1602 59.7383 43.9193 59.7383 44.8558V57.0899C59.7383 58.0264 60.4975 58.7856 61.4339 58.7856H78.3057C79.2422 58.7856 80.0013 58.0264 80.0013 57.0899V44.8558C80.0013 43.9193 79.2422 43.1602 78.3057 43.1602Z" fill="white" stroke="black" stroke-width="1.27174" stroke-linecap="round" stroke-linejoin="round"/>
<path d="M70.6516 46.2803C71.1518 46.6787 71.7622 46.8992 72.3981 46.9161C72.9831 46.9246 73.4748 47.3485 73.5935 47.9166C73.7207 48.544 74.0429 49.1035 74.5261 49.5274C74.967 49.909 75.0772 50.5533 74.7974 51.062C74.4922 51.6216 74.3735 52.2659 74.4753 52.8933C74.56 53.4698 74.2379 54.0294 73.6953 54.2413C73.1018 54.4703 72.6016 54.8942 72.2709 55.4368C71.9657 55.937 71.3637 56.1574 70.8042 55.9709C70.2022 55.7674 69.5494 55.7674 68.9474 55.9709C68.3963 56.1574 67.7859 55.937 67.4807 55.4368C67.15 54.8942 66.6498 54.4703 66.0563 54.2413C65.5137 54.0294 65.1916 53.4698 65.2763 52.8933C65.3696 52.2659 65.2594 51.6216 64.9542 51.062C64.6744 50.5533 64.7846 49.909 65.2255 49.5274C65.7003 49.1035 66.0309 48.544 66.1581 47.9166C66.2683 47.3485 66.7685 46.9246 67.3535 46.9161C67.9894 46.8992 68.6083 46.6787 69.1 46.2803C69.5579 45.9157 70.2022 45.9157 70.66 46.2803H70.6516Z" fill="url(#paint0_linear_9805_13095)" stroke="black" stroke-width="1.27174" stroke-miterlimit="10"/>
<path d="M68.0312 51.7398L69.0062 52.7148L71.9906 49.7305" stroke="black" stroke-width="1.27174" stroke-linecap="round" stroke-linejoin="round"/>
</g>
</g>
<defs>
<filter id="filter0_d_9805_13095" x="0.502342" y="0.799999" width="114.8" height="114.8" filterUnits="userSpaceOnUse" color-interpolation-filters="sRGB">
<feFlood flood-opacity="0" result="BackgroundImageFix"/>
<feColorMatrix in="SourceAlpha" type="matrix" values="0 0 0 0 0 0 0 0 0 0 0 0 0 0 0 0 0 0 127 0" result="hardAlpha"/>
<feOffset dy="8.2"/>
<feGaussianBlur stdDeviation="8.2"/>
<feComposite in2="hardAlpha" operator="out"/>
<feColorMatrix type="matrix" values="0 0 0 0 0 0 0 0 0 0 0 0 0 0 0 0 0 0 0.12 0"/>
<feBlend mode="normal" in2="BackgroundImageFix" result="effect1_dropShadow_9805_13095"/>
<feBlend mode="normal" in="SourceGraphic" in2="effect1_dropShadow_9805_13095" result="shape"/>
</filter>
<linearGradient id="paint0_linear_9805_13095" x1="64.8016" y1="51.0196" x2="74.95" y2="51.0196" gradientUnits="userSpaceOnUse">
<stop stop-color="#CBD1FF"/>
<stop offset="0.55" stop-color="#F7B363"/>
<stop offset="1" stop-color="#771BED"/>
</linearGradient>
<clipPath id="clip0_9805_13095">
<rect width="39" height="45.7826" fill="white" transform="translate(41.9023 27)"/>
</clipPath>
</defs>
</svg>
