<svg width="24" height="24" viewBox="0 0 24 24" fill="none" xmlns="http://www.w3.org/2000/svg">
<path d="M14.5 10.5V20.5M9 17.5V7.5" stroke="black" stroke-width="1.5" stroke-linecap="round"/>
<path d="M4 11.0351V18.9983C4 19.7856 4.86766 20.2642 5.53355 19.8441L8.71581 17.8365C9.04175 17.6309 9.45685 17.6309 9.78281 17.8365L13.9501 20.4647C14.2845 20.6756 14.7117 20.6697 15.0401 20.4496L19.7454 17.2971C20.0225 17.1114 20.1888 16.7998 20.1888 16.4663V8.78935C20.1888 8.00708 19.3311 7.52772 18.6648 7.93764L15.0456 10.1643C14.7131 10.3689 14.2918 10.3612 13.967 10.1447L9.80402 7.36977C9.4681 7.14585 9.0305 7.14588 8.69462 7.36983L4.44525 10.2031C4.16708 10.3886 4 10.7008 4 11.0351Z" stroke="black" stroke-width="1.5" stroke-linecap="round"/>
<path d="M9.9332 10.4236L7.16208 5.12034C6.80452 4.43605 6.86441 3.59457 7.38117 3.02093C11.5439 -1.60008 15.6826 0.519437 17.4126 3.31275C17.7119 3.796 17.6954 4.39726 17.4611 4.91515L15.0342 10.2791C14.5626 11.3215 13.5112 11.9787 12.3676 11.9461C11.3403 11.9168 10.4091 11.3344 9.9332 10.4236Z" fill="white"/>
<path d="M11.4915 9.21119L10.2351 6.69821C9.64457 5.51725 9.57967 4.02034 10.5494 3.12426C11.8831 1.89184 13.1865 2.30405 14.175 3.16608C15.1701 4.03387 15.1274 5.51725 14.5369 6.69821L13.2804 9.21119C12.9119 9.94824 11.8601 9.94824 11.4915 9.21119Z" fill="#D9D9D9" stroke="black" stroke-width="1.5" stroke-linecap="round"/>
<circle cx="12.386" cy="5" r="1" fill="black"/>
</svg>
