<svg width="24" height="24" viewBox="0 0 24 24" fill="none" xmlns="http://www.w3.org/2000/svg">
<path d="M6.98438 10.1064C6.1484 10.28 5.36067 10.6615 4.68282 11.2212C4.00496 11.7808 3.45534 12.5034 3.07696 13.3325C2.83545 13.8616 2.66788 14.4249 2.57825 15.0039C2.49376 15.5497 2.94941 16 3.50169 16H5.00338" stroke="black" stroke-width="1.5" stroke-linecap="round"/>
<circle cx="12" cy="10" r="2" stroke="black" stroke-width="1.5"/>
<circle cx="7.5" cy="6" r="2" stroke="black" stroke-width="1.5"/>
<circle cx="2" cy="2" r="2" transform="matrix(-1 0 0 1 18.5 4)" stroke="black" stroke-width="1.5"/>
<path fill-rule="evenodd" clip-rule="evenodd" d="M17.1681 9.37213C16.7625 9.28793 16.3655 9.54845 16.2813 9.95402C16.1971 10.3596 16.4576 10.7566 16.8632 10.8408C17.5761 10.9888 18.253 11.3152 18.8397 11.7996C18.9792 11.9147 19.1127 12.0381 19.2397 12.1691C20.3408 12.4614 21.2945 13.1154 21.966 13.9963C21.8698 13.6628 21.7494 13.3367 21.6054 13.0211C21.1816 12.0926 20.5634 11.2775 19.7947 10.6428C19.0257 10.0079 18.1271 9.57123 17.1681 9.37213Z" fill="black"/>
<path fill-rule="evenodd" clip-rule="evenodd" d="M13.7365 14.2363C13.1722 14.0798 12.5881 14 12 14C11.1464 14 10.3012 14.1681 9.51254 14.4948C8.72393 14.8214 8.00737 15.3002 7.40379 15.9038C6.80021 16.5074 6.32142 17.2239 5.99477 18.0126C5.79603 18.4923 5.65598 18.9931 5.57676 19.5039C5.49212 20.0497 5.9477 20.5 6.49999 20.5L12 20.5H14.2206C13.3853 19.5972 12.8747 18.3895 12.8747 17.0626C12.8747 16.0159 13.1924 15.0434 13.7365 14.2363Z" fill="#D9D9D9"/>
<path d="M13.7365 14.2363L14.3584 14.6555L14.9406 13.7918L13.9369 13.5135L13.7365 14.2363ZM9.51254 14.4948L9.22553 13.8019L9.22553 13.8019L9.51254 14.4948ZM7.40379 15.9038L6.87346 15.3735L6.87346 15.3735L7.40379 15.9038ZM5.99477 18.0126L5.30186 17.7255L5.30186 17.7255L5.99477 18.0126ZM5.57676 19.5039L4.83562 19.389L4.83562 19.389L5.57676 19.5039ZM6.49999 20.5L6.49999 21.25L6.49999 21.25L6.49999 20.5ZM12 20.5L12 19.75L12 19.75L12 20.5ZM14.2206 20.5V21.25H15.9364L14.7711 19.9906L14.2206 20.5ZM13.9369 13.5135C13.3074 13.339 12.6559 13.25 12 13.25V14.75C12.5202 14.75 13.0369 14.8206 13.5361 14.959L13.9369 13.5135ZM12 13.25C11.0479 13.25 10.1051 13.4375 9.22553 13.8019L9.79956 15.1877C10.4972 14.8987 11.2449 14.75 12 14.75V13.25ZM9.22553 13.8019C8.34592 14.1662 7.54669 14.7003 6.87346 15.3735L7.93412 16.4341C8.46806 15.9002 9.10193 15.4767 9.79956 15.1877L9.22553 13.8019ZM6.87346 15.3735C6.20024 16.0467 5.66621 16.8459 5.30186 17.7255L6.68768 18.2996C6.97664 17.6019 7.40018 16.9681 7.93412 16.4341L6.87346 15.3735ZM5.30186 17.7255C5.08019 18.2607 4.92397 18.8192 4.83562 19.389L6.3179 19.6189C6.38798 19.167 6.51187 18.724 6.68768 18.2996L5.30186 17.7255ZM4.83562 19.389C4.66829 20.468 5.57096 21.25 6.49999 21.25V19.75C6.42708 19.75 6.37189 19.7201 6.34239 19.6891C6.32848 19.6745 6.32226 19.662 6.31954 19.6538C6.31728 19.647 6.31512 19.6368 6.3179 19.6189L4.83562 19.389ZM6.49999 21.25L12 21.25L12 19.75L6.49999 19.75L6.49999 21.25ZM12 21.25H14.2206V19.75H12V21.25ZM14.7711 19.9906C14.0589 19.221 13.6247 18.1933 13.6247 17.0626H12.1247C12.1247 18.5857 12.7116 19.9735 13.6701 21.0094L14.7711 19.9906ZM13.6247 17.0626C13.6247 16.1699 13.8951 15.3427 14.3584 14.6555L13.1146 13.817C12.4896 14.7442 12.1247 15.8619 12.1247 17.0626H13.6247Z" fill="black"/>
<path d="M17.9374 14.1504V19.9747" stroke="black" stroke-width="1.5" stroke-linecap="round"/>
<path d="M19.9967 15.0033L15.8783 19.1217" stroke="black" stroke-width="1.5" stroke-linecap="round"/>
<path d="M20.8496 17.0626H15.0253" stroke="black" stroke-width="1.5" stroke-linecap="round"/>
<path d="M19.9966 19.1218L15.8782 15.0034" stroke="black" stroke-width="1.5" stroke-linecap="round"/>
<circle cx="17.9066" cy="17.0626" r="2.2579" fill="black"/>
<circle cx="17.9066" cy="17.0626" r="0.833958" fill="white"/>
</svg>
