<svg width="24" height="24" viewBox="0 0 24 24" fill="none" xmlns="http://www.w3.org/2000/svg">
<circle cx="17.9375" cy="7.79357" r="2.20641" fill="#D9D9D9"/>
<path d="M2.28503 10C2.28503 9.44771 2.73275 9 3.28503 9H11C11.5523 9 12 9.44772 12 10V22.2188H3.28503C2.73275 22.2188 2.28503 21.771 2.28503 21.2187V10Z" stroke="black" stroke-width="1.5"/>
<path d="M12 14H20.715C21.2673 14 21.715 14.4477 21.715 15V21.2187C21.715 21.771 21.2673 22.2187 20.715 22.2187H12V14Z" stroke="black" stroke-width="1.5"/>
<path d="M7.14252 9V12" stroke="black" stroke-width="1.5" stroke-linecap="round"/>
<path d="M16.8575 14V16.7396" stroke="black" stroke-width="1.5" stroke-linecap="round"/>
<path d="M17.9375 2.89648V1.89648" stroke="black" stroke-width="1.5" stroke-linecap="round"/>
<path d="M21.2929 4.75008L22 4.04297" stroke="black" stroke-width="1.5" stroke-linecap="round"/>
<path d="M14.3477 4.75008L13.6406 4.04297" stroke="black" stroke-width="1.5" stroke-linecap="round"/>
<path d="M19.321 10.0826L18.9054 9.45829L18.6465 9.6306L18.5855 9.93554L19.321 10.0826ZM16.554 10.0826L17.2895 9.93554L17.2285 9.6306L16.9696 9.45829L16.554 10.0826ZM16.8571 11.5981L17.5925 11.451L17.5925 11.451L16.8571 11.5981ZM19.0179 11.5981L18.2825 11.451L18.2825 11.451L19.0179 11.5981ZM19.6875 8C19.6875 8.60765 19.3784 9.14344 18.9054 9.45829L19.7365 10.707C20.6096 10.1259 21.1875 9.13058 21.1875 8H19.6875ZM17.9375 6.25C18.904 6.25 19.6875 7.0335 19.6875 8H21.1875C21.1875 6.20507 19.7324 4.75 17.9375 4.75V6.25ZM16.1875 8C16.1875 7.0335 16.971 6.25 17.9375 6.25V4.75C16.1426 4.75 14.6875 6.20507 14.6875 8H16.1875ZM16.9696 9.45829C16.4966 9.14344 16.1875 8.60766 16.1875 8H14.6875C14.6875 9.13058 15.2654 10.1259 16.1385 10.707L16.9696 9.45829ZM17.5925 11.451L17.2895 9.93554L15.8186 10.2297L16.1217 11.7451L17.5925 11.451ZM17.3474 11.25C17.4666 11.25 17.5692 11.3341 17.5925 11.451L16.1217 11.7451C16.2385 12.3294 16.7516 12.75 17.3474 12.75V11.25ZM18.5276 11.25H17.3474V12.75H18.5276V11.25ZM18.2825 11.451C18.3058 11.3341 18.4084 11.25 18.5276 11.25V12.75C19.1234 12.75 19.6365 12.3294 19.7533 11.7451L18.2825 11.451ZM18.5855 9.93554L18.2825 11.451L19.7533 11.7451L20.0564 10.2297L18.5855 9.93554Z" fill="black"/>
<path d="M16.9375 9.75H18.9375" stroke="black" stroke-linecap="round"/>
</svg>
