<svg width="24" height="24" viewBox="0 0 24 24" fill="none" xmlns="http://www.w3.org/2000/svg">
<path d="M15 13.3456C13.777 9.8294 10.4224 3.50849 6.17111 4.03041C5.54646 4.1071 5.32396 4.8336 5.61126 5.39353C6.77617 7.66397 7.72456 11.3022 5 13.3456" stroke="black" stroke-width="1.5" stroke-linecap="round"/>
<path d="M4 16.571C4.83333 15.7377 6.1 14.571 8.5 16.571C10.9 18.571 13.3918 16.6433 15 15.5712C16 14.9046 18.5 14.2712 20.5 17.0712" stroke="black" stroke-width="1.5" stroke-linecap="round"/>
<path d="M4 19.571C4.83333 18.7377 6.1 17.571 8.5 19.571C10.9 21.571 13.3918 19.6433 15 18.5712C16 17.9046 18.5 17.2712 20.5 20.0712" stroke="black" stroke-width="1.5" stroke-linecap="round"/>
</svg>
