<svg width="24" height="24" viewBox="0 0 24 24" fill="none" xmlns="http://www.w3.org/2000/svg">
<path d="M22 10V10.75H22.75V10H22ZM22 14H22.75V13.25H22V14ZM2 14V13.25H1.25V14H2ZM2 10H1.25V10.75H2V10ZM3 5.25C2.0335 5.25 1.25 6.0335 1.25 7H2.75C2.75 6.86193 2.86193 6.75 3 6.75V5.25ZM21 5.25H3V6.75H21V5.25ZM22.75 7C22.75 6.0335 21.9665 5.25 21 5.25V6.75C21.1381 6.75 21.25 6.86193 21.25 7H22.75ZM22.75 10V7H21.25V10H22.75ZM20.75 12C20.75 11.3096 21.3096 10.75 22 10.75V9.25C20.4812 9.25 19.25 10.4812 19.25 12H20.75ZM22 13.25C21.3096 13.25 20.75 12.6904 20.75 12H19.25C19.25 13.5188 20.4812 14.75 22 14.75V13.25ZM22.75 17V14H21.25V17H22.75ZM21 18.75C21.9665 18.75 22.75 17.9665 22.75 17H21.25C21.25 17.1381 21.1381 17.25 21 17.25V18.75ZM3 18.75H21V17.25H3V18.75ZM1.25 17C1.25 17.9665 2.0335 18.75 3 18.75V17.25C2.86193 17.25 2.75 17.1381 2.75 17H1.25ZM1.25 14V17H2.75V14H1.25ZM3.25 12C3.25 12.6904 2.69036 13.25 2 13.25V14.75C3.51878 14.75 4.75 13.5188 4.75 12H3.25ZM2 10.75C2.69036 10.75 3.25 11.3096 3.25 12H4.75C4.75 10.4812 3.51878 9.25 2 9.25V10.75ZM1.25 7V10H2.75V7H1.25Z" fill="black"/>
<path d="M11.3343 9.04894C11.5438 8.40402 12.4562 8.40402 12.6657 9.04894L12.9654 9.97123C13.0591 10.2596 13.3279 10.4549 13.6311 10.4549H14.6009C15.279 10.4549 15.561 11.3226 15.0124 11.7212L14.2278 12.2912C13.9825 12.4695 13.8798 12.7854 13.9735 13.0739L14.2732 13.9962C14.4827 14.6411 13.7446 15.1774 13.196 14.7788L12.4114 14.2088C12.1661 14.0305 11.8339 14.0305 11.5886 14.2088L10.804 14.7788C10.2554 15.1774 9.51727 14.6411 9.72681 13.9961L10.0265 13.0739C10.1202 12.7854 10.0175 12.4695 9.77219 12.2912L8.98765 11.7212C8.43905 11.3226 8.72099 10.4549 9.3991 10.4549H10.3689C10.6721 10.4549 10.9409 10.2596 11.0346 9.97123L11.3343 9.04894Z" fill="#D9D9D9" stroke="black" stroke-width="1.5"/>
</svg>
