<svg width="24" height="24" viewBox="0 0 24 24" fill="none" xmlns="http://www.w3.org/2000/svg">
<path d="M20.7054 12C20.7054 9.98596 20.0071 8.03422 18.7294 6.47734C17.4517 4.92046 15.6737 3.85476 13.6983 3.46184C11.723 3.06892 9.67252 3.37308 7.89628 4.3225C6.12005 5.27191 4.72796 6.80784 3.95722 8.66858C3.18648 10.5293 3.08476 12.5997 3.66941 14.5271C4.25406 16.4544 5.48889 18.1194 7.16352 19.2383C8.83814 20.3573 10.8489 20.8609 12.8533 20.6635C14.8576 20.4661 16.7315 19.5798 18.1557 18.1557M20.7054 12L18.5606 10.5389M20.7054 12L22.2236 9.9711" stroke="black" stroke-width="1.5" stroke-linecap="round"/>
<path d="M14.3333 9.26316H10.5425C9.99022 9.26316 9.5425 9.71087 9.5425 10.2632V11.2105C9.5425 11.7628 9.99022 12.2105 10.5425 12.2105H13.3333C13.8856 12.2105 14.3333 12.6582 14.3333 13.2105V13.7368C14.3333 14.2891 13.8856 14.7368 13.3333 14.7368H9.33331M11.8739 8V16" stroke="black" stroke-width="1.5" stroke-linecap="round"/>
</svg>
