<svg width="59" height="57" viewBox="0 0 59 57" fill="none" xmlns="http://www.w3.org/2000/svg">
<g clip-path="url(#clip0_7939_112)">
<path d="M47.165 20.4812L45.475 16.3112C47.735 15.3912 50.355 16.4712 51.305 18.7212C52.255 20.9712 51.205 23.6612 48.925 24.6312L47.155 20.4912L47.165 20.4812Z" fill="url(#paint0_linear_7939_112)" stroke="black" stroke-width="1.5" stroke-miterlimit="10"/>
<path d="M53.375 17.1012L55.295 16.2812" stroke="black" stroke-width="1.5" stroke-linecap="round" stroke-linejoin="round"/>
<path d="M57.9049 24.8413L55.9449 24.1113" stroke="black" stroke-width="1.5" stroke-linecap="round" stroke-linejoin="round"/>
<path d="M49.9149 10.9312L50.7449 9.00122" stroke="black" stroke-width="1.5" stroke-linecap="round" stroke-linejoin="round"/>
<path d="M32.945 42.8412C39.105 42.0012 45.145 43.3712 53.135 45.5112C54.675 45.3912 55.465 43.5812 54.735 41.8612L39.555 6.27122L54.605 41.5512L39.415 5.96122C38.685 4.25122 36.825 3.57122 35.675 4.59122C31.365 12.4312 27.985 18.0012 22.395 21.9212L25.485 23.7012L23.105 28.3712L29.395 32.1912L26.275 39.3212L32.935 42.8312L32.945 42.8412Z" fill="#CAB8FF"/>
<path d="M32.945 39.8412C39.105 39.0012 45.145 40.3712 53.135 42.5112C54.675 42.3912 55.465 40.5812 54.735 38.8612L39.555 3.27122L54.605 38.5512L39.415 2.96122C38.685 1.25122 36.825 0.571219 35.675 1.59122C31.365 9.43122 27.985 15.0012 22.395 18.9212L25.485 20.7012L23.105 25.3712L29.395 29.1912L26.275 36.3212L32.935 39.8312L32.945 39.8412Z" fill="white" stroke="black" stroke-width="1.5" stroke-linecap="round" stroke-linejoin="round"/>
<path d="M15.135 23.4514C13.015 24.9414 10.595 26.2014 7.665 27.2514C1.895 29.3114 -1.215 35.9114 1.125 41.5714C1.145 41.6214 1.165 41.6714 1.185 41.7214L1.315 42.0314C1.315 42.0314 1.355 42.1314 1.375 42.1714C3.835 47.7814 10.755 50.1014 16.235 47.3714C19.575 45.7114 22.635 44.7714 25.665 44.3514" fill="#CAB8FF"/>
<path d="M17.135 20.4514C15.015 21.9414 12.595 23.2014 9.66499 24.2514C3.89499 26.3114 0.79499 32.9214 3.13499 38.5714C3.15499 38.6214 3.17499 38.6714 3.19499 38.7214L3.32499 39.0314C3.32499 39.0314 3.36499 39.1314 3.38499 39.1714C5.84499 44.7814 12.765 47.1014 18.245 44.3714C21.585 42.7114 24.645 41.7714 27.675 41.3514" fill="white"/>
<path d="M17.135 20.4514C15.015 21.9414 12.595 23.2014 9.66499 24.2514C3.89499 26.3114 0.79499 32.9214 3.13499 38.5714C3.15499 38.6214 3.17499 38.6714 3.19499 38.7214L3.32499 39.0314C3.32499 39.0314 3.36499 39.1314 3.38499 39.1714C5.84499 44.7814 12.765 47.1014 18.245 44.3714C21.585 42.7114 24.645 41.7714 27.675 41.3514" stroke="black" stroke-width="1.5" stroke-linecap="round" stroke-linejoin="round"/>
<path d="M17.135 20.4514L20.465 22.5114L17.755 27.5214L24.595 30.9214L21.675 37.6514L27.675 41.3614" stroke="black" stroke-width="1.5" stroke-linecap="round" stroke-linejoin="round"/>
<path d="M24.7649 54.1013L21.3549 55.5513C20.0049 56.1313 18.4449 55.5013 17.8749 54.1513L14.5349 46.3313L22.8249 42.7913L26.1649 50.6113C26.7449 51.9613 26.1149 53.5213 24.7649 54.0913V54.1013Z" fill="white" stroke="black" stroke-width="1.5" stroke-miterlimit="10"/>
</g>
<defs>
<linearGradient id="paint0_linear_7939_112" x1="45.7162" y1="20.4323" x2="51.6561" y2="20.0856" gradientUnits="userSpaceOnUse">
<stop stop-color="#CBD1FF"/>
<stop offset="0.55" stop-color="#F7B363"/>
<stop offset="1" stop-color="#771BED"/>
</linearGradient>
<clipPath id="clip0_7939_112">
<rect width="58.31" height="56.16" fill="white" transform="translate(0.344971 0.361328)"/>
</clipPath>
</defs>
</svg>
