<svg width="54" height="55" viewBox="0 0 54 55" fill="none" xmlns="http://www.w3.org/2000/svg">
<g clip-path="url(#clip0_7917_162)">
<path d="M25.42 54.59C39.4591 54.59 50.84 43.2091 50.84 29.17C50.84 15.1309 39.4591 3.75 25.42 3.75C11.3809 3.75 0 15.1309 0 29.17C0 43.2091 11.3809 54.59 25.42 54.59Z" fill="#CAB8FF"/>
<path d="M27.42 51.59C41.4591 51.59 52.84 40.2091 52.84 26.17C52.84 12.1309 41.4591 0.75 27.42 0.75C13.3809 0.75 2 12.1309 2 26.17C2 40.2091 13.3809 51.59 27.42 51.59Z" fill="white" stroke="black" stroke-width="1.5" stroke-linecap="round" stroke-linejoin="round"/>
<path d="M33.97 30.3601C30.15 26.5401 30.15 20.3501 33.97 16.5301C37.03 13.4701 41.98 13.4701 45.03 16.5301C47.47 18.9701 47.47 22.9401 45.03 25.3801C43.07 27.3401 39.9 27.3401 37.95 25.3801C36.39 23.8201 36.39 21.2801 37.95 19.7201C39.2 18.4701 41.23 18.4701 42.48 19.7201C43.48 20.7201 43.48 22.3401 42.48 23.3501C41.68 24.1501 40.38 24.1501 39.58 23.3501C38.94 22.7101 38.94 21.6701 39.58 21.0301C40.09 20.5201 40.92 20.5201 41.44 21.0301" stroke="black" stroke-width="1.5" stroke-linecap="round" stroke-linejoin="round"/>
<path d="M20.01 30.3601C23.83 26.5401 23.83 20.3501 20.01 16.5301C16.95 13.4701 12 13.4701 8.95 16.5301C6.51 18.9701 6.51 22.9401 8.95 25.3801C10.91 27.3401 14.08 27.3401 16.03 25.3801C17.59 23.8201 17.59 21.2801 16.03 19.7201C14.78 18.4701 12.75 18.4701 11.5 19.7201C10.5 20.7201 10.5 22.3401 11.5 23.3501C12.3 24.1501 13.6 24.1501 14.4 23.3501C15.04 22.7101 15.04 21.6701 14.4 21.0301C13.89 20.5201 13.06 20.5201 12.54 21.0301" stroke="black" stroke-width="1.5" stroke-linecap="round" stroke-linejoin="round"/>
<path d="M27.27 46.69C30.7549 46.69 33.58 44.5723 33.58 41.96C33.58 39.3477 30.7549 37.23 27.27 37.23C23.785 37.23 20.96 39.3477 20.96 41.96C20.96 44.5723 23.785 46.69 27.27 46.69Z" fill="url(#paint0_linear_7917_162)" stroke="black" stroke-width="1.5" stroke-linecap="round" stroke-linejoin="round"/>
</g>
<defs>
<linearGradient id="paint0_linear_7917_162" x1="20.96" y1="41.96" x2="33.58" y2="41.96" gradientUnits="userSpaceOnUse">
<stop stop-color="#CBD1FF"/>
<stop offset="0.55" stop-color="#F7B363"/>
<stop offset="0.84" stop-color="#771BED"/>
</linearGradient>
<clipPath id="clip0_7917_162">
<rect width="53.6" height="54.6" fill="white"/>
</clipPath>
</defs>
</svg>
