<svg width="47" height="57" viewBox="0 0 47 57" fill="none" xmlns="http://www.w3.org/2000/svg">
<g clip-path="url(#clip0_7928_66)">
<path d="M34.9651 5.7715L28.2651 17.3815C27.4551 18.7715 28.4651 20.5215 30.0751 20.5215H43.4751C45.0851 20.5215 46.0951 18.7815 45.2851 17.3815L38.5851 5.7715C37.7751 4.3815 35.7651 4.3815 34.9651 5.7715Z" fill="url(#paint0_linear_7928_66)" stroke="black" stroke-width="1.5" stroke-miterlimit="10"/>
<path d="M36.785 8.6814V14.5014" stroke="black" stroke-width="1.5" stroke-linecap="round" stroke-linejoin="round"/>
<path d="M36.785 18.2214C37.4036 18.2214 37.905 17.72 37.905 17.1014C37.905 16.4829 37.4036 15.9814 36.785 15.9814C36.1665 15.9814 35.665 16.4829 35.665 17.1014C35.665 17.72 36.1665 18.2214 36.785 18.2214Z" fill="black"/>
<path d="M0.675049 9.87141L0.675049 53.6314C0.675049 55.0453 1.8212 56.1914 3.23505 56.1914H17.305C18.7189 56.1914 19.865 55.0453 19.865 53.6314L19.865 9.87141C19.865 8.45756 18.7189 7.31141 17.305 7.31141H3.23505C1.8212 7.31141 0.675049 8.45756 0.675049 9.87141Z" fill="#CAB8FF"/>
<path d="M3.67505 6.87141L3.67505 50.6314C3.67505 52.0453 4.8212 53.1914 6.23505 53.1914H20.305C21.7189 53.1914 22.865 52.0453 22.865 50.6314L22.865 6.87141C22.865 5.45756 21.7189 4.31141 20.305 4.31141H6.23505C4.8212 4.31141 3.67505 5.45756 3.67505 6.87141Z" fill="white" stroke="#202020" stroke-width="1.5" stroke-linecap="round" stroke-linejoin="round"/>
<path d="M5.93506 47.1515V49.9415C5.93506 50.2563 6.19026 50.5115 6.50506 50.5115H20.4351C20.7499 50.5115 21.0051 50.2563 21.0051 49.9415V47.1515C21.0051 46.8367 20.7499 46.5815 20.4351 46.5815H6.50506C6.19026 46.5815 5.93506 46.8367 5.93506 47.1515Z" fill="#CCCCCC"/>
<path d="M5.93506 42.2113V45.0013C5.93506 45.3161 6.19026 45.5713 6.50506 45.5713H20.4351C20.7499 45.5713 21.0051 45.3161 21.0051 45.0013V42.2113C21.0051 41.8965 20.7499 41.6413 20.4351 41.6413H6.50506C6.19026 41.6413 5.93506 41.8965 5.93506 42.2113Z" fill="#CCCCCC"/>
<path d="M5.93506 37.2713V40.0613C5.93506 40.3762 6.19026 40.6313 6.50506 40.6313H20.4351C20.7499 40.6313 21.0051 40.3762 21.0051 40.0613V37.2713C21.0051 36.9565 20.7499 36.7013 20.4351 36.7013H6.50506C6.19026 36.7013 5.93506 36.9565 5.93506 37.2713Z" fill="#CCCCCC"/>
<path d="M9.55505 1.44141H16.7051" stroke="#202020" stroke-width="1.5" stroke-linecap="round" stroke-linejoin="round"/>
</g>
<defs>
<linearGradient id="paint0_linear_7928_66" x1="27.9851" y1="12.6215" x2="45.5751" y2="12.6215" gradientUnits="userSpaceOnUse">
<stop stop-color="#CBD1FF"/>
<stop offset="0.55" stop-color="#F7B363"/>
<stop offset="1" stop-color="#771BED"/>
</linearGradient>
<clipPath id="clip0_7928_66">
<rect width="45.65" height="55.5" fill="white" transform="translate(0.675049 0.691406)"/>
</clipPath>
</defs>
</svg>
