<svg width="22" height="17" viewBox="0 0 22 17" fill="none" xmlns="http://www.w3.org/2000/svg">
<path d="M20.9684 2.78606C20.8801 2.44045 20.7109 2.12079 20.4747 1.85346C20.2385 1.58614 19.9421 1.3788 19.61 1.24856C16.3962 0.00730818 11.2812 0.0185583 11 0.0185583C10.7188 0.0185583 5.60375 0.00730818 2.39 1.24856C2.0579 1.3788 1.76153 1.58614 1.52534 1.85346C1.28915 2.12079 1.1199 2.44045 1.03156 2.78606C0.78875 3.72168 0.5 5.43168 0.5 8.26856C0.5 11.1054 0.78875 12.8154 1.03156 13.7511C1.11977 14.0968 1.28895 14.4167 1.52515 14.6842C1.76136 14.9517 2.0578 15.1592 2.39 15.2895C5.46875 16.4773 10.2875 16.5186 10.9381 16.5186H11.0619C11.7125 16.5186 16.5341 16.4773 19.61 15.2895C19.9422 15.1592 20.2386 14.9517 20.4748 14.6842C20.711 14.4167 20.8802 14.0968 20.9684 13.7511C21.2113 12.8136 21.5 11.1054 21.5 8.26856C21.5 5.43168 21.2113 3.72168 20.9684 2.78606ZM14.2081 8.58075L9.70813 11.5807C9.65164 11.6184 9.58597 11.6401 9.51815 11.6434C9.45032 11.6466 9.38287 11.6315 9.32301 11.5994C9.26314 11.5674 9.2131 11.5196 9.17822 11.4614C9.14335 11.4031 9.12496 11.3365 9.125 11.2686V5.26856C9.12496 5.20065 9.14335 5.13401 9.17822 5.07574C9.2131 5.01747 9.26314 4.96976 9.32301 4.93771C9.38287 4.90566 9.45032 4.89047 9.51815 4.89375C9.58597 4.89704 9.65164 4.91868 9.70813 4.95637L14.2081 7.95637C14.2596 7.9906 14.3017 8.03701 14.3309 8.09148C14.3601 8.14594 14.3754 8.20677 14.3754 8.26856C14.3754 8.33035 14.3601 8.39118 14.3309 8.44564C14.3017 8.5001 14.2596 8.54652 14.2081 8.58075Z" fill="#808080"/>
</svg>
