<svg width="20" height="21" viewBox="0 0 20 21" fill="none" xmlns="http://www.w3.org/2000/svg">
<path d="M14.5 0.518555H5.5C4.10807 0.520044 2.77358 1.07365 1.78933 2.05789C0.805091 3.04213 0.251489 4.37663 0.25 5.76855V14.7686C0.251489 16.1605 0.805091 17.495 1.78933 18.4792C2.77358 19.4635 4.10807 20.0171 5.5 20.0186H14.5C15.8919 20.0171 17.2264 19.4635 18.2107 18.4792C19.1949 17.495 19.7485 16.1605 19.75 14.7686V5.76855C19.7485 4.37663 19.1949 3.04213 18.2107 2.05789C17.2264 1.07365 15.8919 0.520044 14.5 0.518555ZM10 14.7686C9.10998 14.7686 8.23995 14.5046 7.49993 14.0102C6.75991 13.5157 6.18314 12.8129 5.84254 11.9906C5.50195 11.1684 5.41283 10.2636 5.58647 9.39065C5.7601 8.51773 6.18868 7.71591 6.81802 7.08657C7.44736 6.45724 8.24918 6.02865 9.12209 5.85502C9.99501 5.68139 10.8998 5.7705 11.7221 6.1111C12.5443 6.45169 13.2471 7.02847 13.7416 7.76849C14.2361 8.50851 14.5 9.37854 14.5 10.2686C14.4988 11.4616 14.0243 12.6055 13.1806 13.4492C12.337 14.2928 11.1931 14.7673 10 14.7686ZM15.625 5.76855C15.4025 5.76855 15.185 5.70257 15 5.57896C14.815 5.45534 14.6708 5.27964 14.5856 5.07407C14.5005 4.86851 14.4782 4.64231 14.5216 4.42408C14.565 4.20585 14.6722 4.00539 14.8295 3.84806C14.9868 3.69073 15.1873 3.58358 15.4055 3.54017C15.6238 3.49676 15.85 3.51904 16.0555 3.60419C16.2611 3.68934 16.4368 3.83353 16.5604 4.01854C16.684 4.20354 16.75 4.42105 16.75 4.64355C16.75 4.94192 16.6315 5.22807 16.4205 5.43905C16.2095 5.65003 15.9234 5.76855 15.625 5.76855ZM13 10.2686C13 10.8619 12.8241 11.4419 12.4944 11.9353C12.1648 12.4286 11.6962 12.8131 11.1481 13.0402C10.5999 13.2673 9.99667 13.3267 9.41473 13.2109C8.83279 13.0952 8.29824 12.8094 7.87868 12.3899C7.45912 11.9703 7.1734 11.4358 7.05764 10.8538C6.94189 10.2719 7.0013 9.66868 7.22836 9.1205C7.45542 8.57233 7.83994 8.10379 8.33329 7.77415C8.82664 7.4445 9.40666 7.26855 10 7.26855C10.7956 7.26855 11.5587 7.58463 12.1213 8.14723C12.6839 8.70984 13 9.47291 13 10.2686Z" fill="#808080"/>
</svg>
