<svg width="16" height="18" viewBox="0 0 16 18" fill="none" xmlns="http://www.w3.org/2000/svg">
<path d="M13.6312 4.40456C13.5142 4.34556 13.4012 4.28056 13.2902 4.20956C12.9702 4.00156 12.6762 3.75656 12.4152 3.47956C11.7632 2.74656 11.5192 2.00256 11.4292 1.48156H11.4332C11.3582 1.04856 11.3892 0.769562 11.3942 0.769562H8.42115V12.0586C8.42115 12.2106 8.42115 12.3606 8.41515 12.5086C8.41515 12.5266 8.41315 12.5436 8.41215 12.5636C8.41215 12.5716 8.41215 12.5796 8.41015 12.5886V12.5946C8.34615 13.4176 7.87015 14.1546 7.14015 14.5626C6.76515 14.7716 6.34215 14.8816 5.91015 14.8816C4.52615 14.8816 3.40315 13.7716 3.40315 12.4026C3.40315 11.0326 4.52615 9.92356 5.91015 9.92356C6.17315 9.92256 6.43315 9.96356 6.68215 10.0436L6.68615 7.07056C5.15615 6.87656 3.61415 7.31956 2.43215 8.29256C1.91915 8.73056 1.48915 9.25156 1.15915 9.83456C1.03315 10.0476 0.560153 10.9006 0.503153 12.2866C0.467153 13.0736 0.707154 13.8886 0.822154 14.2246V14.2326C0.894154 14.4306 1.17315 15.1076 1.62915 15.6776C1.99615 16.1356 2.43015 16.5376 2.91615 16.8706V16.8636L2.92315 16.8706C4.36215 17.8316 5.95815 17.7686 5.95815 17.7686C6.23415 17.7576 7.15915 17.7686 8.21015 17.2796C9.37515 16.7366 10.0382 15.9296 10.0382 15.9296C10.4622 15.4466 10.7992 14.8966 11.0352 14.3026C11.3042 13.6086 11.3942 12.7756 11.3942 12.4426V6.45256C11.4302 6.47456 11.9102 6.78656 11.9102 6.78656C11.9102 6.78656 12.6022 7.22156 13.6812 7.50556C14.4562 7.70756 15.4992 7.74956 15.4992 7.74956V4.85156C15.1332 4.89056 14.3912 4.77656 13.6312 4.40456Z" fill="#808080"/>
</svg>
