<svg width="16" height="17" viewBox="0 0 16 17" fill="none" xmlns="http://www.w3.org/2000/svg">
<path d="M0 3.26855C0 1.61155 1.343 0.268555 3 0.268555H13C14.657 0.268555 16 1.61155 16 3.26855V13.2686C16 14.9256 14.657 16.2686 13 16.2686H3C1.343 16.2686 0 14.9256 0 13.2686V3.26855ZM4.85 13.6616V6.43755H2.434V13.6616H4.85ZM3.642 5.45055C4.484 5.45055 5.009 4.89655 5.009 4.20255C4.993 3.49355 4.484 2.95455 3.658 2.95455C2.831 2.95455 2.291 3.49355 2.291 4.20255C2.291 4.89655 2.815 5.45055 3.626 5.45055H3.642ZM8.604 13.6616V9.62755C8.604 9.41156 8.62 9.19655 8.683 9.04155C8.858 8.61055 9.256 8.16356 9.923 8.16356C10.798 8.16356 11.148 8.82555 11.148 9.79755V13.6616H13.564V9.51956C13.564 7.30056 12.372 6.26755 10.782 6.26755C9.5 6.26755 8.925 6.96756 8.604 7.46056V6.43755H6.187C6.219 7.11255 6.188 13.6206 6.187 13.6626L8.604 13.6616Z" fill="#808080"/>
</svg>
