<svg width="16" height="17" viewBox="0 0 16 17" fill="none" xmlns="http://www.w3.org/2000/svg">
<path d="M8.001 0.268555C3.582 0.268555 0 3.85055 0 8.26755C0 11.5446 1.97 14.3586 4.789 15.5956C4.765 15.0366 4.784 14.3666 4.927 13.7596C5.082 13.1096 5.957 9.39955 5.957 9.39955C5.957 9.39955 5.702 8.88855 5.702 8.13355C5.702 6.94755 6.389 6.06255 7.244 6.06255C7.973 6.06255 8.323 6.60955 8.323 7.26355C8.323 7.99455 7.857 9.08955 7.618 10.1026C7.417 10.9516 8.043 11.6436 8.879 11.6436C10.396 11.6436 11.417 9.69655 11.417 7.39055C11.417 5.63755 10.236 4.32455 8.088 4.32455C5.661 4.32455 4.15 6.13455 4.15 8.15555C4.15 8.85255 4.354 9.34455 4.677 9.72456C4.824 9.89956 4.845 9.97056 4.791 10.1706C4.753 10.3176 4.665 10.6726 4.628 10.8126C4.575 11.0156 4.411 11.0876 4.228 11.0136C3.11 10.5566 2.59 9.33355 2.59 7.95655C2.59 5.68455 4.507 2.95955 8.307 2.95955C11.362 2.95955 13.373 5.16955 13.373 7.54155C13.373 10.6806 11.627 13.0256 9.055 13.0256C8.191 13.0256 7.379 12.5576 7.101 12.0276C7.101 12.0276 6.636 13.8716 6.538 14.2266C6.368 14.8426 6.036 15.4606 5.733 15.9406C6.469 16.1586 7.233 16.2686 8.001 16.2686C12.419 16.2686 16 12.6866 16 8.26755C16 3.85055 12.419 0.268555 8.001 0.268555Z" fill="#808080"/>
</svg>
