<svg width="24" height="24" viewBox="0 0 24 24" fill="none" xmlns="http://www.w3.org/2000/svg">
<path d="M9.31262 14C9.31262 13.4477 9.76034 13 10.3126 13H13.6874C14.2397 13 14.6874 13.4477 14.6874 14V22H9.31262V14Z" stroke="black" stroke-width="1.5" stroke-linecap="round"/>
<path d="M3.93787 17.917C3.93787 17.3647 4.38558 16.917 4.93787 16.917H8.31264C8.86492 16.917 9.31264 17.3647 9.31264 17.917V22.0001H4.93787C4.38558 22.0001 3.93787 21.5524 3.93787 21.0001V17.917Z" stroke="black" stroke-width="1.5" stroke-linecap="round"/>
<path d="M14.6874 18.392C14.6874 17.8397 15.1351 17.392 15.6874 17.392H19.0621C19.6144 17.392 20.0621 17.8397 20.0621 18.392V21C20.0621 21.5523 19.6144 22 19.0621 22H14.6874V18.392Z" stroke="black" stroke-width="1.5" stroke-linecap="round"/>
<circle cx="11.2738" cy="6.06357" r="3.5759" fill="#D9D9D9" stroke="black" stroke-width="1.5"/>
<path d="M15.944 9.96788L14.3729 8.20911C14.0581 8.52384 13.7806 8.77665 13.5352 8.95302C13.3698 9.07188 13.3196 9.31872 13.4549 9.47094L14.799 10.983C14.9817 11.1885 15.296 11.2079 15.5027 11.0265L15.901 10.6767C16.1098 10.4934 16.1291 10.1751 15.944 9.96788Z" fill="black"/>
</svg>
