<svg width="24" height="24" viewBox="0 0 24 24" fill="none" xmlns="http://www.w3.org/2000/svg">
<circle cx="6" cy="2.96716" r="1.5" fill="#212121"/>
<path d="M3.10557 7.99552C3.65374 6.89919 4.77427 6.20667 6 6.20667V6.20667C7.22573 6.20667 8.34626 6.89919 8.89443 7.99552L9.27639 8.75945C9.60884 9.42435 9.12535 10.2067 8.38197 10.2067H3.61803C2.87465 10.2067 2.39116 9.42435 2.72361 8.75945L3.10557 7.99552Z" fill="#D9D9D9" stroke="black" stroke-width="1.5"/>
<path d="M14 16.4672C14 15.9149 14.4477 15.4672 15 15.4672H21C21.5523 15.4672 22 15.9149 22 16.4672V20.4672C22 21.0194 21.5523 21.4672 21 21.4672H15C14.4477 21.4672 14 21.0194 14 20.4672V16.4672Z" fill="#D9D9D9" stroke="black" stroke-width="1.5"/>
<path d="M2 16.4672C2 15.9149 2.44772 15.4672 3 15.4672H9C9.55228 15.4672 10 15.9149 10 16.4672V20.4672C10 21.0194 9.55228 21.4672 9 21.4672H3C2.44772 21.4672 2 21.0194 2 20.4672V16.4672Z" stroke="black" stroke-width="1.5"/>
<path d="M14 4.46716C14 3.91488 14.4477 3.46716 15 3.46716H21C21.5523 3.46716 22 3.91488 22 4.46716V8.46716C22 9.01945 21.5523 9.46716 21 9.46716H15C14.4477 9.46716 14 9.01945 14 8.46716V4.46716Z" stroke="black" stroke-width="1.5"/>
<path d="M18 15.4672V17.4672" stroke="black" stroke-width="1.5" stroke-linecap="round"/>
<path d="M6 15.4672V17.4672" stroke="black" stroke-width="1.5" stroke-linecap="round"/>
<path d="M18 3.46716V5.46716" stroke="black" stroke-width="1.5" stroke-linecap="round"/>
<path d="M10.75 11.2172L13.25 13.7172" stroke="black" stroke-width="1.5" stroke-linecap="round"/>
</svg>
