<svg width="24" height="24" viewBox="0 0 24 24" fill="none" xmlns="http://www.w3.org/2000/svg">
<circle cx="18.1494" cy="2.5" r="1.5" fill="#212121"/>
<circle cx="6" cy="2.5" r="1.5" fill="#212121"/>
<circle cx="6" cy="14.5" r="1.5" fill="#212121"/>
<circle cx="18.1494" cy="14.5" r="1.5" fill="#212121"/>
<path d="M15.2549 7.28885C15.8031 6.19253 16.9236 5.5 18.1494 5.5V5.5C19.3751 5.5 20.4956 6.19253 21.0438 7.28885L21.4257 8.05279C21.7582 8.71769 21.2747 9.5 20.5313 9.5H15.7674C15.024 9.5 14.5405 8.71769 14.873 8.05279L15.2549 7.28885Z" stroke="black" stroke-width="1.5"/>
<path d="M3.10557 7.28885C3.65374 6.19253 4.77427 5.5 6 5.5V5.5C7.22573 5.5 8.34626 6.19253 8.89443 7.28885L9.27639 8.05279C9.60884 8.71769 9.12535 9.5 8.38197 9.5H3.61803C2.87465 9.5 2.39116 8.71769 2.72361 8.05279L3.10557 7.28885Z" stroke="black" stroke-width="1.5"/>
<path d="M3.10557 19.5284C3.65374 18.432 4.77427 17.7395 6 17.7395V17.7395C7.22573 17.7395 8.34626 18.432 8.89443 19.5284L9.27639 20.2923C9.60884 20.9572 9.12535 21.7395 8.38197 21.7395H3.61803C2.87465 21.7395 2.39116 20.9572 2.72361 20.2923L3.10557 19.5284Z" stroke="black" stroke-width="1.5"/>
<path d="M15.2549 19.5284C15.8031 18.432 16.9236 17.7395 18.1494 17.7395V17.7395C19.3751 17.7395 20.4956 18.432 21.0438 19.5284L21.4257 20.2923C21.7582 20.9572 21.2747 21.7395 20.5313 21.7395H15.7674C15.024 21.7395 14.5405 20.9572 14.873 20.2923L15.2549 19.5284Z" fill="#D9D9D9" stroke="black" stroke-width="1.5"/>
</svg>
