<svg width="24" height="24" viewBox="0 0 24 24" fill="none" xmlns="http://www.w3.org/2000/svg">
<rect x="2" y="14.8978" width="20" height="3" rx="1" stroke="black" stroke-width="1.5"/>
<circle cx="12" cy="5" r="2" stroke="#212121" stroke-width="1.5"/>
<path d="M6.20837 18.447V21.3521" stroke="black" stroke-width="1.5" stroke-linecap="round"/>
<path d="M18.9181 18.447V21.3521" stroke="black" stroke-width="1.5" stroke-linecap="round"/>
<path d="M16.2916 7.5C20.7916 8 19.9695 11.7643 19.9695 14.7643" stroke="black" stroke-width="1.5" stroke-linecap="round"/>
<path d="M16.6353 14.8978C17.1875 14.8978 17.6445 14.4465 17.5444 13.9033C17.4747 13.5251 17.3653 13.1544 17.2175 12.7974C16.9416 12.1315 16.5373 11.5264 16.0277 11.0168C15.518 10.5071 14.9129 10.1028 14.247 9.82698C13.5811 9.55115 12.8674 9.40918 12.1466 9.40918C11.4258 9.40918 10.7121 9.55115 10.0462 9.82698C9.38028 10.1028 8.77521 10.5071 8.26555 11.0168C7.75588 11.5264 7.35159 12.1315 7.07576 12.7974C6.92788 13.1544 6.81848 13.5251 6.74881 13.9033C6.64874 14.4465 7.10567 14.8978 7.65796 14.8978L12.1466 14.8978H16.6353Z" fill="#D9D9D9" stroke="black" stroke-width="1.5"/>
</svg>
