<svg width="24" height="24" viewBox="0 0 24 24" fill="none" xmlns="http://www.w3.org/2000/svg">
<path d="M16.5665 6.91595V5.55508C16.5665 5.13085 16.8342 4.7528 17.2343 4.61187L19.2343 3.90745C19.8848 3.67833 20.5665 4.16098 20.5665 4.85066V6.60571C20.5665 7.35199 19.7787 7.83532 19.1134 7.49716L18.8535 7.36507C18.5484 7.20996 18.1786 7.26417 17.9308 7.50034C17.4169 7.99011 16.5665 7.62585 16.5665 6.91595Z" fill="#D9D9D9"/>
<path d="M8 6.91603V5.5359C8 5.12116 7.744 4.74947 7.35652 4.60161L5.35652 3.83843C4.7019 3.58863 4 4.07206 4 4.77272V6.6058C4 7.35208 4.78786 7.8354 5.45313 7.49724L5.71298 7.36516C6.01814 7.21005 6.38795 7.26425 6.63575 7.50042C7.14964 7.9902 8 7.62594 8 6.91603Z" fill="#D9D9D9"/>
<path d="M2 1.80066C4.85714 4.81915 12.8571 9.04504 22 1.80066" stroke="black" stroke-width="1.5" stroke-linecap="round"/>
<path d="M10 6.03998V8.34593C10 9.05597 10.8625 9.40705 11.3584 8.89888V8.89888C11.6063 8.64477 11.9932 8.58681 12.3047 8.75709L12.5204 8.87497C13.1868 9.23919 14 8.75691 14 7.99748V5.80066" stroke="black" stroke-width="1.5" stroke-linecap="round"/>
<path d="M16.5665 5V6.91597C16.5665 7.62588 17.4169 7.99014 17.9308 7.50037V7.50037C18.1786 7.2642 18.5484 7.20999 18.8535 7.3651L19.1134 7.49719C19.7787 7.83535 20.5665 7.35202 20.5665 6.60574V2.98279" stroke="black" stroke-width="1.5" stroke-linecap="round"/>
<path d="M7.5459 5.43353L7.5459 7.02032C7.5459 7.73241 6.71869 8.1248 6.16721 7.67429V7.67429C5.92217 7.4741 5.58577 7.42771 5.29568 7.5541L4.94533 7.70675C4.2848 7.99454 3.5459 7.51048 3.5459 6.78998V3.21399" stroke="black" stroke-width="1.5" stroke-linecap="round"/>
<path d="M14.5 14.2632H10.7092C10.1569 14.2632 9.70919 14.7109 9.70919 15.2632V16.2105C9.70919 16.7628 10.1569 17.2105 10.7092 17.2105H13.5C14.0523 17.2105 14.5 17.6582 14.5 18.2105V18.7368C14.5 19.2891 14.0523 19.7368 13.5 19.7368H9.5M12.0406 13V21" stroke="black" stroke-width="1.5" stroke-linecap="round"/>
</svg>
