<svg width="16" height="16" viewBox="0 0 16 16" fill="none" xmlns="http://www.w3.org/2000/svg">
<path d="M13.6106 4.05869C13.3662 3.4198 12.8884 2.93369 12.1551 2.6198C12.0967 2.5948 12.0967 2.51702 12.1551 2.49202C12.8356 2.2198 13.3329 1.75035 13.6079 1.0448C13.6301 0.986464 13.7106 0.983687 13.7356 1.0448C14.0995 1.91702 14.5551 2.21146 15.1884 2.48646C15.2467 2.51146 15.244 2.58924 15.1856 2.61424C14.4662 2.90313 14.0162 3.41424 13.7356 4.06424C13.7106 4.12258 13.6301 4.1198 13.6079 4.06146L13.6106 4.05869Z" fill="url(#paint0_linear_15538_10926)" stroke="black" stroke-width="0.4375" stroke-miterlimit="10"/>
<path d="M7.09167 15.6775C10.456 15.6775 13.1833 12.9501 13.1833 9.58581C13.1833 6.22147 10.456 3.49414 7.09167 3.49414C3.72733 3.49414 1 6.22147 1 9.58581C1 12.9501 3.72733 15.6775 7.09167 15.6775Z" fill="#CAB8FF"/>
<path d="M7.64049 15.1286C11.0048 15.1286 13.7322 12.4013 13.7322 9.03698C13.7322 5.67264 11.0048 2.94531 7.64049 2.94531C4.27616 2.94531 1.54883 5.67264 1.54883 9.03698C1.54883 12.4013 4.27616 15.1286 7.64049 15.1286Z" fill="white" stroke="black" stroke-width="0.4375" stroke-miterlimit="10"/>
<path d="M6.16999 4.56055C7.63666 4.88555 9.32555 5.37721 9.33111 5.99388C9.33944 6.88555 5.82277 7.33832 5.83388 8.30221C5.84499 9.27721 9.44777 9.68277 9.43944 10.6105C9.43111 11.4994 6.11444 11.8911 6.13388 12.6383C6.14499 13.0994 7.41722 13.4661 8.93388 13.7467" stroke="url(#paint1_linear_15538_10926)" stroke-width="0.4375" stroke-miterlimit="10"/>
<defs>
<linearGradient id="paint0_linear_15538_10926" x1="13.2023" y1="3.72813" x2="13.969" y2="1.81146" gradientUnits="userSpaceOnUse">
<stop stop-color="#CBD1FF"/>
<stop offset="0.55" stop-color="#F7B363"/>
<stop offset="1" stop-color="#771BED"/>
</linearGradient>
<linearGradient id="paint1_linear_15538_10926" x1="7.63666" y1="4.35777" x2="7.63666" y2="13.9522" gradientUnits="userSpaceOnUse">
<stop stop-color="#CBD1FF"/>
<stop offset="0.55" stop-color="#F7B363"/>
<stop offset="1" stop-color="#771BED"/>
</linearGradient>
</defs>
</svg>
