<svg width="89" height="59" viewBox="0 0 89 59" fill="none" xmlns="http://www.w3.org/2000/svg">
<path d="M0.498202 0.285568C-0.158581 0.942348 -0.158581 4.00734 0.454417 5.93391C1.28634 8.3859 4.70162 13.1585 7.10982 15.304C9.03639 17.0117 13.8528 19.7264 16.1734 20.4707C16.5675 20.6021 17.6184 22.1784 18.4941 24.0173C21.8656 30.7603 28.3896 35.4892 39.9052 39.4299C45.9476 41.4878 56.7189 43.1079 64.3376 43.1079C66.4831 43.1079 68.2783 43.283 68.2783 43.5019C68.2783 43.6771 67.4463 44.4214 66.3955 45.0782C63.9873 46.6983 57.4194 53.0472 56.6313 54.5797C56.0621 55.6743 56.0621 55.937 56.7189 56.9003C57.1129 57.5133 57.9449 58.1263 58.6017 58.3015C59.2147 58.4328 59.8276 58.7393 59.959 58.9144C60.0904 59.1334 60.8785 58.9144 61.7104 58.4328C62.5424 57.9512 64.3813 56.9879 65.7387 56.2435C68.8913 54.5797 80.6258 45.8226 80.3193 45.2971C80.2317 45.122 80.4507 44.6841 80.8885 44.3776C81.5453 43.8084 81.5891 43.8522 81.0199 44.509C80.7134 44.9469 80.6258 45.2971 80.8885 45.2971C81.4139 45.2971 82.3772 44.2025 82.0707 43.896C81.9394 43.7646 82.2021 43.4144 82.5961 43.0641C83.2967 42.4949 83.3405 42.5386 82.7713 43.1954C82.4648 43.6333 82.3772 43.9836 82.5961 43.9836C83.1216 43.9836 84.3914 42.6262 84.4789 42.0132C84.5227 41.7505 84.6541 41.4878 84.7854 41.3564C84.9606 41.2251 84.9168 41.4002 84.7416 41.6629C84.5665 41.9694 84.6103 42.2321 84.8292 42.2321C85.3109 42.2321 86.1428 41.3564 86.2303 40.6996C86.2741 40.4369 86.4055 40.1742 86.5368 40.0429C86.712 39.9115 86.6682 40.0867 86.4493 40.4369C86.2303 40.831 86.3179 40.9624 86.712 40.831C87.0623 40.6996 87.2812 40.3494 87.1936 40.0867C87.1498 39.8239 87.2374 39.6488 87.4126 39.6488C89.2078 39.9553 89.3391 37.2406 87.6315 35.4016C85.7925 33.3875 84.4351 32.8182 75.284 30.1473C65.8701 27.4326 61.8856 26.7758 61.4477 27.9143C60.7471 29.7533 63.4181 31.4609 71.1243 34.1318C73.0509 34.8324 74.8023 35.4892 74.9775 35.7081C75.6342 36.2335 66.1328 36.6714 58.4265 36.4087C50.5013 36.146 44.9406 35.3578 38.9419 33.6064C34.2131 32.249 28.6523 29.6657 26.6382 27.8705C24.9743 26.4256 22.8288 22.2221 23.4856 21.6967C23.6608 21.5216 25.2371 20.9524 26.9447 20.4269C32.1114 18.8069 36.2272 15.5229 37.1467 12.239C38.3727 7.7729 32.9871 1.07371 28.1269 1.07371C25.1057 1.07371 20.3769 4.97062 18.3627 9.17404C17.8373 10.2687 17.1805 12.3266 16.9178 13.7715C16.3048 16.9241 15.9545 17.0117 12.1452 14.9975C7.63525 12.5893 3.82591 7.37883 3.21291 2.73756C2.95019 0.810993 2.77505 0.548279 1.89934 0.679638C1.7242 0.679638 1.46149 0.504494 1.33013 0.241779C1.1112 -0.108505 0.848487 -0.0647163 0.498202 0.285568ZM24.9306 4.35762C24.9306 4.44519 24.4927 4.79548 23.9673 5.05819C23.0478 5.53984 23.004 5.53984 23.5732 4.88305C24.1424 4.18248 24.9306 3.87598 24.9306 4.35762ZM31.586 7.51019C31.98 8.99889 31.0605 11.0568 29.2653 12.6769C27.2512 14.4721 23.9235 16.1797 23.7046 15.4792C23.3543 14.5597 25.8938 10.3125 27.7766 8.56104C29.8345 6.67826 31.2795 6.28419 31.586 7.51019ZM72.613 43.6771C72.5255 43.7646 70.4238 45.3847 67.928 47.2237C65.4322 49.1065 62.4548 51.4709 61.2288 52.5655C58.2076 55.2365 57.8573 54.9737 60.8347 52.2153C63.7684 49.5443 72.3065 43.0641 72.613 43.3268C72.7006 43.4581 72.7006 43.6333 72.613 43.6771ZM79.6625 45.4723C79.6625 45.7788 70.38 52.8283 70.2048 52.6531C70.1173 52.5218 79.1371 45.4285 79.5749 45.3409C79.6187 45.2971 79.6625 45.3847 79.6625 45.4723Z" fill="black"/>
</svg>
