<svg width="91" height="65" viewBox="0 0 91 65" fill="none" xmlns="http://www.w3.org/2000/svg">
<path d="M83.7892 64.5233C82.3221 64.7259 80.7166 63.685 72.9693 57.2628C68.9981 54.0071 63.8003 49.8077 61.3981 47.93C58.996 46.0523 56.8288 44.192 56.5792 43.8278C56.1007 43.1297 56.186 41.8222 56.6975 41.9177C56.851 41.9464 57.2343 41.5944 57.5856 41.1307C58.106 40.3279 58.3201 40.3149 60.4928 41.0117C61.7733 41.383 62.9819 41.7145 63.1545 41.6409C63.3478 41.5976 63.6564 41.7875 63.8645 42.091C64.0517 42.3642 64.4739 42.6547 64.7808 42.712C66.2642 42.989 69.5135 44.866 73.2333 47.6249C74.8613 48.8287 76.2926 49.8105 76.4461 49.8392C76.8553 49.9155 74.1896 44.2038 71.8495 40.0085C64.7877 27.3619 50.5331 14.1138 38.8473 9.36496C33.4306 7.1892 26.1562 6.59882 21.4071 7.93559C13.4958 10.1907 6.27282 19.9589 4.24228 31.1198C3.70139 34.3009 3.69763 35.5971 4.34349 39.7937C4.73564 42.5137 5.29421 45.4765 5.57145 46.4017C5.892 47.5203 5.89268 48.3674 5.53358 49.015C4.73557 50.4541 4.19198 50.2468 2.93875 48.0277C1.5607 45.6266 0.354883 40.7431 0.246469 37.0703C-0.0698992 25.1536 8.71429 9.00698 18.6527 3.26595C26.8482 -1.50352 38.7352 -0.951982 48.9113 4.65314C53.4237 7.13651 60.4316 12.4149 63.1543 15.4112C63.6406 15.9254 64.602 16.8724 65.3041 17.5064C65.9759 18.1612 68.5677 21.2918 71.0077 24.5264C74.662 29.3376 75.8477 31.0676 77.4502 34.2517C80.7062 40.6295 84.0979 48.8325 83.9919 50.1097C83.9554 50.4469 84.0819 50.7617 84.2657 50.7695C84.6446 50.8667 84.8304 49.4457 85.8246 39.4411C86.2165 35.7823 86.401 32.6671 86.297 32.5153C86.193 32.3636 86.579 31.4298 87.168 30.4017C88.1065 28.777 88.2981 28.6011 89.0238 28.6836C89.4634 28.7392 89.8709 28.6829 89.8996 28.5295C89.9282 28.376 90.1458 28.6284 90.3971 29.1252C91.4423 31.0408 90.7892 43.7558 89.2265 52.4102C87.7212 60.7578 86.1528 64.197 83.7892 64.5233ZM58.9902 40.837C58.9278 40.746 58.7024 40.6774 58.4579 40.7112C58.2437 40.7242 58.1336 40.8889 58.2376 41.0406C58.3624 41.2227 58.6182 41.2705 58.7699 41.1665C58.952 41.0417 59.0318 40.8978 58.9902 40.837ZM38.0078 6.77319C37.3506 6.46524 36.0701 6.09385 35.119 5.94277C33.3191 5.65971 33.7092 5.83841 37.3158 6.93517C39.3446 7.55209 39.5683 7.48798 38.0078 6.77319ZM42.5451 2.45895C42.1853 2.25945 41.0071 1.90717 39.9424 1.65548C37.7619 1.14257 38.2145 1.41232 41.0842 2.34504C43.0618 2.95242 43.634 3.0063 42.5451 2.45895Z" fill="black"/>
</svg>
