<svg width="16" height="16" viewBox="0 0 16 16" fill="none" xmlns="http://www.w3.org/2000/svg">
<path d="M13.9993 12.6667H15.3327V14H0.666016V12.6667H1.99935V2.66667C1.99935 2.48986 2.06959 2.32029 2.19461 2.19526C2.31964 2.07024 2.4892 2 2.66602 2H9.33268C9.50949 2 9.67906 2.07024 9.80409 2.19526C9.92911 2.32029 9.99935 2.48986 9.99935 2.66667V12.6667H12.666V7.33333H11.3327V6H13.3327C13.5095 6 13.6791 6.07024 13.8041 6.19526C13.9291 6.32029 13.9993 6.48986 13.9993 6.66667V12.6667ZM3.33268 3.33333V12.6667H8.66602V3.33333H3.33268ZM4.66602 7.33333H7.33268V8.66667H4.66602V7.33333ZM4.66602 4.66667H7.33268V6H4.66602V4.66667Z" fill="#171717"/>
</svg>
