<svg width="16" height="16" viewBox="0 0 16 16" fill="none" xmlns="http://www.w3.org/2000/svg">
<path d="M3.25387 15.9993C2.89673 15.9993 2.5986 15.8798 2.35947 15.6407C2.12034 15.4015 2.00052 15.1031 2 14.7455V4.83093C2 4.47379 2.11982 4.17566 2.35947 3.93653C2.59912 3.6974 2.89751 3.57758 3.25465 3.57706H4.62809V1.8457H5.46427V3.57706H11.0186V1.8457H11.795V3.57706H13.1684C13.5256 3.57706 13.8239 3.69688 14.0636 3.93653C14.3032 4.17618 14.4228 4.47457 14.4223 4.83171V14.7455C14.4223 15.1026 14.3027 15.401 14.0636 15.6407C13.8245 15.8803 13.5258 15.9999 13.1676 15.9993H3.25387ZM3.25387 15.223H13.1684C13.2875 15.223 13.3969 15.1733 13.4968 15.0739C13.5967 14.9745 13.6464 14.8648 13.6459 14.7447V7.93728H2.77639V14.7455C2.77639 14.8645 2.82608 14.974 2.92546 15.0739C3.02484 15.1738 3.13431 15.2235 3.25387 15.223ZM2.77639 7.16011H13.6459V4.83093C13.6459 4.71189 13.5962 4.60242 13.4968 4.50252C13.3974 4.40262 13.2877 4.35293 13.1676 4.35345H3.25465C3.13509 4.35345 3.02536 4.40314 2.92546 4.50252C2.82556 4.6019 2.77588 4.71163 2.77639 4.83171V7.16011Z" fill="#171717"/>
<g clip-path="url(#clip0_14482_30019)">
<path d="M10.7287 10.6679C10.7029 10.5882 10.654 10.5179 10.5882 10.466C10.5224 10.4141 10.4427 10.3828 10.3591 10.3762L9.18017 10.281L8.72517 9.18081C8.69319 9.10306 8.63883 9.03655 8.56898 8.98975C8.49913 8.94296 8.41695 8.91797 8.33287 8.91797C8.2488 8.91797 8.16662 8.94296 8.09677 8.98975C8.02692 9.03655 7.97256 9.10306 7.94058 9.18081L7.486 10.2812L6.30704 10.3762C6.22334 10.3831 6.14354 10.4146 6.07768 10.4667C6.01182 10.5189 5.96283 10.5893 5.93687 10.6692C5.91092 10.749 5.90915 10.8348 5.93179 10.9157C5.95443 10.9966 6.00047 11.0689 6.06412 11.1237L6.96371 11.8996L6.68871 13.06C6.66865 13.1418 6.67339 13.2277 6.70234 13.3068C6.73128 13.3859 6.78311 13.4547 6.85123 13.5042C6.91935 13.5538 7.00068 13.5819 7.08485 13.5851C7.16903 13.5883 7.25225 13.5663 7.32392 13.5221L8.33287 12.901L9.34183 13.5221C9.41348 13.566 9.49656 13.5878 9.58056 13.5845C9.66456 13.5812 9.74571 13.5531 9.81372 13.5037C9.88173 13.4543 9.93355 13.3858 9.96263 13.3069C9.9917 13.2281 9.99672 13.1423 9.97704 13.0606L9.70204 11.9002L10.6016 11.1244C10.6657 11.0694 10.7119 10.9967 10.7346 10.9154C10.7572 10.8342 10.7551 10.748 10.7287 10.6679ZM9.26058 11.62C9.22589 11.6499 9.20009 11.6887 9.18598 11.7323C9.17187 11.7759 9.17 11.8225 9.18058 11.8671L9.44912 13.0012L8.46392 12.3954C8.42451 12.3711 8.37915 12.3583 8.33287 12.3583C8.2866 12.3583 8.24124 12.3711 8.20183 12.3954L7.21662 13.0012L7.48517 11.8679C7.49574 11.8233 7.49388 11.7767 7.47977 11.7332C7.46566 11.6896 7.43985 11.6507 7.40517 11.6208L6.52454 10.8604L7.67871 10.7673C7.72464 10.7636 7.76865 10.7473 7.8059 10.7201C7.84314 10.693 7.87216 10.6561 7.88975 10.6135L8.33287 9.54061L8.776 10.6135C8.79359 10.6561 8.82261 10.693 8.85985 10.7201C8.89709 10.7473 8.94111 10.7636 8.98704 10.7673L10.1412 10.8604L9.26058 11.62Z" fill="#171717"/>
</g>
<defs>
<clipPath id="clip0_14482_30019">
<rect width="5.33333" height="5.33333" fill="white" transform="translate(5.66602 8.66797)"/>
</clipPath>
</defs>
</svg>
