<svg width="55" height="56" viewBox="0 0 55 56" fill="none" xmlns="http://www.w3.org/2000/svg">
<rect x="0.606447" y="1.41895" width="53.2639" height="53.2639" rx="13.9483" stroke="#E6E6E6" stroke-width="1.21289"/>
<path d="M43.575 14.424C43.5479 13.9595 43.3512 13.5212 43.0222 13.1923C42.6933 12.8633 42.255 12.6666 41.7906 12.6395C35.5259 12.2709 29.9905 13.0097 25.3379 14.8337C20.8862 16.5786 17.4549 19.2838 15.411 22.6566C12.6235 27.2618 12.6172 32.8525 15.3398 38.1901L12.5824 40.9475C12.4058 41.1241 12.2657 41.3337 12.1701 41.5645C12.0746 41.7952 12.0254 42.0425 12.0254 42.2922C12.0254 42.5419 12.0746 42.7892 12.1701 43.0199C12.2657 43.2507 12.4058 43.4603 12.5824 43.6369C12.939 43.9935 13.4227 44.1939 13.9271 44.1939C14.1768 44.1939 14.4241 44.1447 14.6548 44.0491C14.8855 43.9536 15.0952 43.8135 15.2718 43.6369L18.0292 40.8795C20.6774 42.2305 23.3889 42.9123 26.0103 42.9123C28.6736 42.9206 31.2873 42.1925 33.5627 40.8083C36.9354 38.7644 39.6406 35.3315 41.3856 30.8813C43.2048 26.2256 43.9436 20.6886 43.575 14.424ZM31.5899 37.5557C28.4117 39.481 24.683 39.6266 20.8767 38.0177L34.2508 24.6436C34.4274 24.467 34.5675 24.2574 34.663 24.0266C34.7586 23.7959 34.8078 23.5486 34.8078 23.2989C34.8078 23.0492 34.7586 22.8019 34.663 22.5712C34.5675 22.3404 34.4274 22.1308 34.2508 21.9542C34.0742 21.7776 33.8646 21.6375 33.6339 21.542C33.4031 21.4464 33.1559 21.3972 32.9061 21.3972C32.6564 21.3972 32.4091 21.4464 32.1784 21.542C31.9477 21.6375 31.738 21.7776 31.5614 21.9542L18.1968 35.3378C16.5927 31.541 16.7383 27.8028 18.6714 24.6246C21.9794 19.162 29.8308 16.1262 39.87 16.3587C40.0883 26.3948 37.0525 34.2478 31.5899 37.5557Z" fill="#666666"/>
</svg>
