<svg width="16" height="16" viewBox="0 0 16 16" fill="none" xmlns="http://www.w3.org/2000/svg">
<path d="M12.5632 5.25C12.4717 6.52094 11.5289 7.5 10.5007 7.5C9.4726 7.5 8.52823 6.52125 8.43823 5.25C8.34448 3.92781 9.26229 3 10.5007 3C11.7392 3 12.657 3.95187 12.5632 5.25Z" stroke="#171717" stroke-linecap="round" stroke-linejoin="round"/>
<path d="M10.4999 9.5C8.46331 9.5 6.50488 10.5116 6.01425 12.4816C5.94925 12.7422 6.11269 13 6.3805 13H14.6196C14.8874 13 15.0499 12.7422 14.9858 12.4816C14.4952 10.48 12.5368 9.5 10.4999 9.5Z" stroke="#171717" stroke-miterlimit="10"/>
<path d="M6.24932 5.81063C6.1762 6.82563 5.41432 7.625 4.59307 7.625C3.77182 7.625 3.0087 6.82594 2.93682 5.81063C2.86213 4.75469 3.6037 4 4.59307 4C5.58245 4 6.32401 4.77406 6.24932 5.81063Z" stroke="#171717" stroke-linecap="round" stroke-linejoin="round"/>
<path d="M6.43781 9.56289C5.87374 9.30445 5.25249 9.20508 4.59406 9.20508C2.96906 9.20508 1.40343 10.0129 1.01124 11.5863C0.959681 11.7945 1.09031 12.0004 1.30406 12.0004H4.81281" stroke="#171717" stroke-miterlimit="10" stroke-linecap="round"/>
</svg>
