<svg width="16" height="16" viewBox="0 0 16 16" fill="none" xmlns="http://www.w3.org/2000/svg">
<g clip-path="url(#clip0_14489_33556)">
<path d="M15.1628 13.5482L12.4036 11.5932C13.3742 10.3341 13.8903 8.7093 13.6728 6.95177C13.3125 4.05493 10.9364 1.74717 8.02147 1.46558C4.02883 1.08365 0.704873 4.39802 1.09115 8.37916C1.37356 11.2889 3.69773 13.6614 6.60619 14.011C8.37204 14.2246 10.0113 13.7035 11.2708 12.726L13.358 15.4028C13.7183 15.8656 14.4 15.9077 14.8155 15.4934L15.2861 15.0241C15.7114 14.6001 15.6529 13.8945 15.1628 13.5449V13.5482Z" fill="#CAB8FF"/>
<path d="M15.1628 12.5775L12.4036 10.6225C13.3742 9.36342 13.8903 7.7386 13.6728 5.98107C13.3125 3.08423 10.9332 0.776466 8.02147 0.494873C4.02883 0.112943 0.704873 3.42732 1.09115 7.40845C1.37356 10.3182 3.69773 12.6907 6.60619 13.0403C8.37204 13.2539 10.0113 12.7328 11.2708 11.7553L13.358 14.4321C13.7183 14.8949 14.4 14.937 14.8155 14.5227L15.2861 14.0534C15.7114 13.6294 15.6529 12.9238 15.1628 12.5742V12.5775Z" fill="white" stroke="black" stroke-width="0.416667" stroke-miterlimit="10"/>
<path d="M10.1384 4.88734C10.0962 4.84527 10.0313 4.84527 9.98581 4.88087C9.67744 5.11391 9.23922 5.09126 8.95682 4.8129C8.67441 4.53454 8.65169 4.09435 8.88865 3.78687C8.92436 3.74155 8.92436 3.67682 8.88216 3.63474L8.87566 3.62827C8.61273 3.3661 8.1875 3.3661 7.92782 3.62827L4.28899 7.2566C4.02606 7.51878 4.02606 7.94278 4.28899 8.20172L4.29549 8.20819C4.33769 8.25027 4.40261 8.25027 4.44805 8.21467C4.75643 7.98162 5.19464 8.00428 5.47705 8.28264C5.75946 8.56099 5.78218 9.00118 5.54522 9.30867C5.50951 9.35398 5.50951 9.41872 5.55171 9.46079L5.5582 9.46727C5.82113 9.72944 6.24636 9.72944 6.50605 9.46727L10.1449 5.83893C10.4078 5.57676 10.4078 5.15275 10.1449 4.89382L10.1384 4.88734Z" fill="url(#paint0_linear_14489_33556)" stroke="black" stroke-width="0.416667" stroke-miterlimit="10"/>
<path d="M7.2168 4.67383L7.67449 5.1302" stroke="black" stroke-width="0.416667" stroke-miterlimit="10" stroke-linecap="round"/>
<path d="M8.76367 6.21875L9.22461 6.67512" stroke="black" stroke-width="0.416667" stroke-miterlimit="10" stroke-linecap="round"/>
</g>
<defs>
<linearGradient id="paint0_linear_14489_33556" x1="5.81788" y1="9.68089" x2="8.50884" y2="3.61603" gradientUnits="userSpaceOnUse">
<stop stop-color="#CBD1FF"/>
<stop offset="0.55" stop-color="#F7B363"/>
<stop offset="1" stop-color="#771BED"/>
</linearGradient>
<clipPath id="clip0_14489_33556">
<rect width="15" height="15.5556" fill="white" transform="translate(0.818359 0.222656)"/>
</clipPath>
</defs>
</svg>
