<svg width="24" height="24" viewBox="0 0 24 24" fill="none" xmlns="http://www.w3.org/2000/svg">
<g clip-path="url(#clip0_8328_7203)">
<path d="M17.4 12.3201C17.4 8.8701 14.4 6.1201 10.87 6.5301C8.32004 6.8301 6.20004 8.8601 5.81004 11.4101C5.58004 12.9501 5.95004 14.4001 6.72004 15.5601C7.93004 17.3701 8.72004 17.4301 8.72004 19.6101V20.1001H14.41V19.7801C14.41 17.6601 14.95 17.5201 16.23 15.8201C16.96 14.8501 17.39 13.6401 17.39 12.3301L17.4 12.3201Z" fill="#D9D9D9" stroke="black" stroke-width="1.5" stroke-linecap="round" stroke-linejoin="round"/>
<path d="M8.27002 21.98H14.59" stroke="black" stroke-width="1.5" stroke-linecap="round" stroke-linejoin="round"/>
<path d="M11.63 2.75V4.5" stroke="black" stroke-width="1.5" stroke-linecap="round" stroke-linejoin="round"/>
<path d="M7.75 3.46997L8.27 5.14997" stroke="black" stroke-width="1.5" stroke-linecap="round" stroke-linejoin="round"/>
<path d="M15.51 3.46997L14.99 5.14997" stroke="black" stroke-width="1.5" stroke-linecap="round" stroke-linejoin="round"/>
</g>
<defs>
<clipPath id="clip0_8328_7203">
<rect width="13.15" height="20.73" fill="white" transform="translate(5 2)"/>
</clipPath>
</defs>
</svg>
