<svg width="24" height="24" viewBox="0 0 24 24" fill="none" xmlns="http://www.w3.org/2000/svg">
<g clip-path="url(#clip0_8328_7198)">
<path d="M20.4793 10.2573C19.534 10.2573 19.0614 9.10813 19.7286 8.44088C20.4422 7.72728 20.4422 6.57812 19.7286 5.86453L19.1355 5.27141C18.4219 4.55782 17.2728 4.55782 16.5592 5.27141C15.8919 5.93867 14.7427 5.46603 14.7427 4.52075C14.7427 3.5106 13.9272 2.69507 12.9263 2.69507H12.083C11.0728 2.69507 10.2666 3.5106 10.2666 4.51148C10.2666 5.45676 9.11742 5.9294 8.45016 5.26215C7.73657 4.54855 6.58741 4.54855 5.87382 5.26215L5.2807 5.85526C4.56711 6.56885 4.56711 7.71802 5.2807 8.43161C5.94796 9.09886 5.47532 10.248 4.53004 10.248C3.51989 10.248 2.71362 11.0636 2.71362 12.0644V12.9078C2.71362 13.9179 3.52916 14.7242 4.53004 14.7242C5.47532 14.7242 5.94796 15.8734 5.2807 16.5406C4.56711 17.2542 4.56711 18.4034 5.2807 19.117L5.87382 19.7101C6.58741 20.4237 7.73657 20.4237 8.45016 19.7101C9.11742 19.0428 10.2666 19.5155 10.2666 20.4607C10.2666 21.4709 11.0821 22.2864 12.083 22.2864H12.9263C13.9365 22.2864 14.7427 21.4709 14.7427 20.47C14.7427 19.5247 15.8919 19.0521 16.5592 19.7193C17.2728 20.4329 18.4219 20.4329 19.1355 19.7193L19.7286 19.1262C20.4422 18.4126 20.4422 17.2635 19.7286 16.5499C19.0614 15.8826 19.534 14.7335 20.4793 14.7335C21.4894 14.7335 22.2957 13.9179 22.2957 12.917V12.0737C22.2957 11.0636 21.4802 10.2573 20.4793 10.2573Z" stroke="black" stroke-width="1.5" stroke-miterlimit="10"/>
<path d="M12.4999 16.5128C14.6701 16.5128 16.4293 14.7536 16.4293 12.5834C16.4293 10.4133 14.6701 8.65405 12.4999 8.65405C10.3298 8.65405 8.57056 10.4133 8.57056 12.5834C8.57056 14.7536 10.3298 16.5128 12.4999 16.5128Z" fill="#D9D9D9" stroke="black" stroke-width="1.5" stroke-miterlimit="10"/>
</g>
<defs>
<clipPath id="clip0_8328_7198">
<rect width="21" height="21" fill="white" transform="translate(2 2)"/>
</clipPath>
</defs>
</svg>
