<svg width="17" height="17" viewBox="0 0 17 17" fill="none" xmlns="http://www.w3.org/2000/svg">
<path d="M6.824 6.21414V4.80121C6.824 4.3395 6.45129 3.9668 5.98959 3.9668H1.15277C0.693844 3.9668 0.318359 4.3395 0.318359 4.80121V9.63522C0.318359 10.0969 0.693844 10.4696 1.15277 10.4696H2.57961C2.65471 9.99124 3.06913 9.6241 3.57256 9.6241C4.07599 9.6241 4.48765 9.99124 4.56274 10.4696H5.98959C6.45129 10.4696 6.824 10.0969 6.824 9.63522V8.22229" fill="#CAB8FF"/>
<path d="M6.82422 8.19636C7.3638 8.19636 7.80323 7.75691 7.80323 7.21732C7.80323 6.67774 7.3638 6.23828 6.82422 6.23828" fill="#CAB8FF"/>
<path d="M2.56961 10.4941H1.15668C0.694969 10.4941 0.322266 10.8668 0.322266 11.3286V16.1653C0.322266 16.6243 0.694969 16.9998 1.15668 16.9998H5.99071C6.45241 16.9998 6.82512 16.6243 6.82512 16.1653V14.7385C6.34672 14.6634 5.97957 14.249 5.97957 13.7456C5.97957 13.2421 6.34672 12.8305 6.82512 12.7554V11.3286C6.82512 10.8668 6.45241 10.4941 5.99071 10.4941H4.57775" fill="#CAB8FF"/>
<path d="M4.55184 10.4947C4.55184 9.95508 4.11238 9.51562 3.5728 9.51562C3.03321 9.51562 2.59375 9.95508 2.59375 10.4947" fill="#CAB8FF"/>
<path d="M6.92773 14.7535V16.1665C6.92773 16.6282 7.30044 17.0009 7.76214 17.0009H12.5989C13.0578 17.0009 13.4333 16.6282 13.4333 16.1665V11.3325C13.4333 10.8707 13.0578 10.498 12.5989 10.498H11.1721C11.097 10.9764 10.6826 11.3436 10.1791 11.3436C9.67571 11.3436 9.26408 10.9764 9.18899 10.498H7.76214C7.30044 10.498 6.92773 10.8707 6.92773 11.3325V12.7454" fill="#CAB8FF"/>
<path d="M6.92631 12.7695C6.38673 12.7695 5.94727 13.209 5.94727 13.7486C5.94727 14.2882 6.38673 14.7276 6.92631 14.7276" fill="#CAB8FF"/>
<path d="M7.86696 5.32742V3.91449C7.86696 3.45278 7.49426 3.08008 7.03255 3.08008H2.19574C1.73681 3.08008 1.36133 3.45278 1.36133 3.91449V8.7485C1.36133 9.21021 1.73681 9.58291 2.19574 9.58291H3.62258C3.69768 9.10452 4.1121 8.73738 4.61553 8.73738C5.11896 8.73738 5.53062 9.10452 5.60571 9.58291H7.03255C7.49426 9.58291 7.86696 9.21021 7.86696 8.7485V7.33557" fill="white"/>
<path d="M7.86696 5.32742V3.91449C7.86696 3.45278 7.49426 3.08008 7.03255 3.08008H2.19574C1.73681 3.08008 1.36133 3.45278 1.36133 3.91449V8.7485C1.36133 9.21021 1.73681 9.58291 2.19574 9.58291H3.62258C3.69768 9.10452 4.1121 8.73738 4.61553 8.73738C5.11896 8.73738 5.53062 9.10452 5.60571 9.58291H7.03255C7.49426 9.58291 7.86696 9.21021 7.86696 8.7485V7.33557" stroke="black" stroke-width="0.417205" stroke-linecap="round" stroke-linejoin="round"/>
<path d="M7.86719 7.30964C8.40677 7.30964 8.8462 6.87019 8.8462 6.3306C8.8462 5.79102 8.40677 5.35156 7.86719 5.35156" fill="white"/>
<path d="M7.86719 7.30964C8.40677 7.30964 8.8462 6.87019 8.8462 6.3306C8.8462 5.79102 8.40677 5.35156 7.86719 5.35156" stroke="black" stroke-width="0.417205" stroke-linecap="round" stroke-linejoin="round"/>
<path d="M3.61063 9.60938H2.19769C1.73598 9.60938 1.36328 9.98208 1.36328 10.4438V15.2806C1.36328 15.7395 1.73598 16.115 2.19769 16.115H7.03172C7.49343 16.115 7.86613 15.7395 7.86613 15.2806V13.8537C7.38774 13.7786 7.02059 13.3642 7.02059 12.8608C7.02059 12.3574 7.38774 11.9457 7.86613 11.8706V10.4438C7.86613 9.98208 7.49343 9.60938 7.03172 9.60938H5.61877" fill="white"/>
<path d="M3.61063 9.60938H2.19769C1.73598 9.60938 1.36328 9.98208 1.36328 10.4438V15.2806C1.36328 15.7395 1.73598 16.115 2.19769 16.115H7.03172C7.49343 16.115 7.86613 15.7395 7.86613 15.2806V13.8537C7.38774 13.7786 7.02059 13.3642 7.02059 12.8608C7.02059 12.3574 7.38774 11.9457 7.86613 11.8706V10.4438C7.86613 9.98208 7.49343 9.60938 7.03172 9.60938H5.61877" stroke="black" stroke-width="0.417205" stroke-linecap="round" stroke-linejoin="round"/>
<path d="M5.59481 9.6099C5.59481 9.07031 5.15535 8.63086 4.61577 8.63086C4.07618 8.63086 3.63672 9.07031 3.63672 9.6099" fill="white"/>
<path d="M5.59481 9.6099C5.59481 9.07031 5.15535 8.63086 4.61577 8.63086C4.07618 8.63086 3.63672 9.07031 3.63672 9.6099" stroke="black" stroke-width="0.417205" stroke-linecap="round" stroke-linejoin="round"/>
<path d="M7.96875 13.8649V15.2778C7.96875 15.7395 8.34145 16.1122 8.80316 16.1122H13.64C14.0989 16.1122 14.4744 15.7395 14.4744 15.2778V10.4438C14.4744 9.98208 14.0989 9.60938 13.64 9.60938H12.2131C12.138 10.0878 11.7236 10.4549 11.2202 10.4549C10.7167 10.4549 10.3051 10.0878 10.23 9.60938H8.80316C8.34145 9.60938 7.96875 9.98208 7.96875 10.4438V11.8567" fill="white"/>
<path d="M7.96875 13.8649V15.2778C7.96875 15.7395 8.34145 16.1122 8.80316 16.1122H13.64C14.0989 16.1122 14.4744 15.7395 14.4744 15.2778V10.4438C14.4744 9.98208 14.0989 9.60938 13.64 9.60938H12.2131C12.138 10.0878 11.7236 10.4549 11.2202 10.4549C10.7167 10.4549 10.3051 10.0878 10.23 9.60938H8.80316C8.34145 9.60938 7.96875 9.98208 7.96875 10.4438V11.8567" stroke="black" stroke-width="0.417205" stroke-linecap="round" stroke-linejoin="round"/>
<path d="M7.96733 11.8828C7.42774 11.8828 6.98828 12.3223 6.98828 12.8619C6.98828 13.4014 7.42774 13.8409 7.96733 13.8409" fill="white"/>
<path d="M7.96733 11.8828C7.42774 11.8828 6.98828 12.3223 6.98828 12.8619C6.98828 13.4014 7.42774 13.8409 7.96733 13.8409" stroke="black" stroke-width="0.417205" stroke-linecap="round" stroke-linejoin="round"/>
<path d="M16.6798 1.83441V6.67121C16.6798 7.13013 16.3043 7.50562 15.8454 7.50562H14.3406C14.3406 8.00904 13.9318 8.4179 13.4256 8.4179C12.9194 8.4179 12.5133 8.00904 12.5133 7.50562H11.0086C10.5469 7.50562 10.1742 7.13013 10.1742 6.67121V5.38621C10.1324 5.39456 10.0907 5.39734 10.049 5.39734C9.54559 5.39734 9.13672 4.98848 9.13672 4.48505C9.13672 3.98162 9.54559 3.56998 10.049 3.56998C10.0907 3.56998 10.1324 3.57276 10.1742 3.58111V1.83441C10.1742 1.3727 10.5469 1 11.0086 1H15.8454C16.3043 1 16.6798 1.3727 16.6798 1.83441Z" fill="url(#paint0_linear_14485_30072)" stroke="black" stroke-width="0.417205" stroke-linecap="round" stroke-linejoin="round"/>
<defs>
<linearGradient id="paint0_linear_14485_30072" x1="10.1658" y1="7.39158" x2="16.4406" y2="1.35045" gradientUnits="userSpaceOnUse">
<stop stop-color="#CBD1FF"/>
<stop offset="0.44" stop-color="#F7B363"/>
<stop offset="1" stop-color="#771BED"/>
</linearGradient>
</defs>
</svg>
