<svg width="71" height="18" viewBox="0 0 71 18" fill="none" xmlns="http://www.w3.org/2000/svg">
<path d="M5.40456 17.6343L0.820555 0.594276H4.13256L7.25255 13.3143L10.3726 0.594276H13.2766L16.4446 13.3143L19.5406 0.594276H22.8286L18.2926 17.6343H14.8126L11.8366 5.97028L8.86055 17.6343H5.40456ZM25.0814 17.6343V0.594276H28.1534V6.54628C28.8254 5.17828 30.1934 4.53028 31.8014 4.53028C34.6334 4.53028 36.1454 6.54628 36.1454 9.40228V17.6343H33.0734V10.1463C33.0734 8.05828 32.3774 7.02628 30.8894 7.02628C29.2094 7.02628 28.1534 8.13028 28.1534 10.2183V17.6343H25.0814ZM39.097 17.6343V4.81828H41.977L42.049 7.29028C42.553 5.56228 43.561 4.81828 45.121 4.81828H46.297V7.45828H45.097C43.129 7.45828 42.169 8.27428 42.169 10.2423V17.6343H39.097ZM47.0026 17.6343V14.2743H50.5306V17.6343H47.0026ZM56.9509 17.9223C54.2629 17.9223 52.4869 16.6503 52.4869 14.4183C52.4869 12.2103 53.8549 11.0343 56.6629 10.4823L60.9109 9.64228C60.9109 7.84228 60.0709 6.90628 58.4629 6.90628C56.9509 6.90628 56.1349 7.60228 55.8469 8.89828L52.7029 8.75428C53.2069 6.06628 55.2709 4.53028 58.4629 4.53028C62.1109 4.53028 63.9829 6.45028 63.9829 9.85828V14.5143C63.9829 15.2103 64.2229 15.4023 64.7029 15.4023H65.1109V17.6343C64.9189 17.6823 64.4149 17.7303 64.0069 17.7303C62.6149 17.7303 61.5829 17.2263 61.3189 15.6423C60.6949 17.0103 59.0629 17.9223 56.9509 17.9223ZM57.5749 15.6903C59.6149 15.6903 60.9109 14.3943 60.9109 12.4503V11.7303L57.5989 12.4023C56.2309 12.6663 55.6789 13.2423 55.6789 14.1303C55.6789 15.1383 56.3509 15.6903 57.5749 15.6903ZM67.5267 17.6343V4.81828H70.5987V17.6343H67.5267ZM67.4787 3.11428V0.378276H70.6707V3.11428H67.4787Z" fill="#171717"/>
</svg>
