<svg width="178" height="31" xmlns="http://www.w3.org/2000/svg"><g fill="none" fill-rule="evenodd"><path fill="#09F" d="M18.554 4.665L4.902 18.315v12.65h12.65l13.651-13.65V4.665z"/><path fill="#E30613" d="M13.65.72L0 14.37v12.65h12.65L26.3 13.37V.72z"/><path fill="#462882" d="M4.902 27.02h7.748L26.3 13.37V4.664h-7.747L4.903 18.316z"/><g fill="#000"><path d="M43.415 11.361c0-.379-.148-.67-.445-.878-.298-.205-.75-.31-1.363-.31-.34 0-.629.014-.863.04v2.294c.161.018.303.03.425.034.122.005.3.007.533.007.585 0 1.016-.103 1.295-.31.279-.207.418-.5.418-.877m-.16-3.858c0-.298-.125-.552-.373-.763-.247-.21-.613-.317-1.099-.317-.207 0-.392.009-.553.028a8.036 8.036 0 00-.486.067V8.58c.125.019.247.03.364.035.117.003.278.006.486.006.558 0 .973-.096 1.248-.29.273-.194.412-.47.412-.83m2.643 4.101c0 .387-.092.756-.276 1.107-.185.35-.458.659-.823.923-.363.266-.823.476-1.376.635-.553.156-1.203.235-1.95.235a24.27 24.27 0 01-2.954-.202V4.642a18.944 18.944 0 011.35-.148c.25-.018.501-.035.747-.048.248-.013.472-.02.67-.02.72 0 1.348.074 1.888.223.539.148.992.346 1.355.594.364.247.636.53.818.85.179.32.268.649.268.991 0 .522-.142.96-.425 1.314-.283.356-.709.651-1.275.885.676.208 1.175.504 1.497.89.325.388.486.863.486 1.43M57.216 10.39c0 1.375-.374 2.417-1.12 3.122-.746.706-1.786 1.06-3.116 1.06-1.34 0-2.366-.352-3.076-1.053-.71-.702-1.066-1.744-1.066-3.13V4.521h2.293v5.706c0 .701.153 1.253.46 1.653.305.4.786.601 1.444.601.646 0 1.122-.2 1.429-.601.304-.4.458-.952.458-1.653V4.52h2.294v5.868zM66.706 11.496c0 .395-.07.778-.215 1.146a2.813 2.813 0 01-.655.985 3.194 3.194 0 01-1.1.689c-.44.169-.956.255-1.55.255-.279 0-.569-.026-.87-.081a7.6 7.6 0 01-1.734-.532 5.117 5.117 0 01-.728-.398l.634-2.079c.405.289.85.52 1.336.696a4.18 4.18 0 001.429.263c.405 0 .693-.083.862-.25a.821.821 0 00.258-.613c0-.127-.02-.246-.062-.357a.864.864 0 00-.255-.344 2.744 2.744 0 00-.54-.358 9.81 9.81 0 00-.91-.411 5.781 5.781 0 01-1.1-.589 3.23 3.23 0 01-.728-.68 2.435 2.435 0 01-.4-.776 3.05 3.05 0 01-.12-.857c0-.36.075-.71.223-1.053.148-.341.366-.643.654-.909.288-.265.65-.479 1.085-.642.437-.162.944-.242 1.518-.242.27 0 .537.023.804.067.265.045.519.104.76.175.245.072.469.153.676.244.207.09.382.184.526.283l-.58 2.05a5.756 5.756 0 00-1.046-.546 4.72 4.72 0 00-.58-.188 2.241 2.241 0 00-.56-.074c-.422 0-.724.08-.903.242-.18.161-.27.345-.27.553 0 .162.03.301.095.418a.95.95 0 00.31.323c.143.1.325.2.546.298.22.099.483.216.79.351.459.197.842.402 1.154.613.31.212.556.436.74.675.185.238.315.494.392.769.077.275.114.568.114.884M69.774 14.41h2.294V4.52h-2.294zM83.896 14.599l-5.963-5.357v5.167h-2.294V4.385l.31-.052 5.882 5.314V4.52h2.294v10.038zM87.66 14.41V4.52h6.26v2.105h-3.966v1.767h3.615v1.998h-3.615v1.928h3.966v2.092zM103.435 11.496c0 .395-.071.778-.216 1.146a2.801 2.801 0 01-.654.985 3.194 3.194 0 01-1.099.689c-.44.169-.957.255-1.552.255-.278 0-.568-.026-.87-.081a7.566 7.566 0 01-1.734-.532 5.117 5.117 0 01-.728-.398l.635-2.079c.405.289.85.52 1.335.696.486.175.962.263 1.43.263.405 0 .693-.083.863-.25a.821.821 0 00.257-.613c0-.127-.02-.246-.062-.357a.867.867 0 00-.255-.344 2.702 2.702 0 00-.54-.358 9.784 9.784 0 00-.91-.411c-.432-.18-.8-.376-1.101-.589a3.226 3.226 0 01-.727-.68 2.42 2.42 0 01-.4-.776 3.05 3.05 0 01-.12-.857c0-.36.075-.71.223-1.053.148-.341.366-.643.654-.909.288-.265.65-.479 1.086-.642.436-.162.943-.242 1.517-.242.27 0 .537.023.804.067.265.045.519.104.76.175.245.072.469.153.676.244.208.09.383.184.526.283l-.58 2.05a4.538 4.538 0 00-.486-.29 5.823 5.823 0 00-.56-.256 4.76 4.76 0 00-.58-.188 2.241 2.241 0 00-.56-.074c-.423 0-.724.08-.903.242-.18.161-.271.345-.271.553 0 .162.032.301.096.418a.95.95 0 00.31.323c.143.1.326.2.546.298.22.099.482.216.789.351.46.197.843.402 1.155.613.309.212.556.436.74.675.185.238.315.494.392.769.076.275.114.568.114.884M112.565 11.496c0 .395-.071.778-.216 1.146a2.801 2.801 0 01-.654.985 3.19 3.19 0 01-1.1.689c-.44.169-.956.255-1.551.255a4.86 4.86 0 01-.87-.081 7.578 7.578 0 01-1.734-.532 5.117 5.117 0 01-.728-.398l.635-2.079c.405.289.85.52 1.335.696.486.175.962.263 1.43.263.405 0 .693-.083.862-.25a.819.819 0 00.258-.613c0-.127-.02-.246-.061-.357a.867.867 0 00-.256-.344 2.702 2.702 0 00-.54-.358 9.873 9.873 0 00-.91-.411c-.432-.18-.8-.376-1.101-.589a3.226 3.226 0 01-.727-.68 2.42 2.42 0 01-.4-.776c-.08-.275-.12-.559-.12-.857a2.673 2.673 0 01.876-1.962c.289-.265.651-.479 1.087-.642.435-.162.943-.242 1.517-.242.27 0 .538.023.804.067.265.045.519.104.761.175.244.072.467.153.675.244.208.09.383.184.526.283l-.58 2.05a4.61 4.61 0 00-.486-.29 5.823 5.823 0 00-.56-.256 4.77 4.77 0 00-.58-.188 2.24 2.24 0 00-.56-.074c-.423 0-.724.08-.904.242-.18.161-.27.345-.27.553 0 .162.032.301.096.418a.953.953 0 00.31.323c.143.1.326.2.546.298.221.099.482.216.789.351.46.197.843.402 1.155.613.309.212.556.436.74.675.185.238.315.494.392.769.076.275.114.568.114.884M118.554 14.41V4.52h6.26v2.105h-3.965v1.767h3.615v1.998h-3.615v1.928h3.964v2.092zM132.12 14.49h-.27l-4.723-9.97h2.633l2.253 5.343 2.252-5.343h2.576zM139.233 14.41V4.52h6.26v2.105h-3.965v1.767h3.614v1.998h-3.614v1.928h3.965v2.092zM157.148 14.599l-5.963-5.357v5.167h-2.294V4.385l.31-.052 5.882 5.314V4.52h2.294v10.038zM165.293 6.625v7.785h-2.294V6.625h-2.968V4.52h8.23v2.105zM177.17 11.496c0 .395-.072.778-.216 1.146a2.801 2.801 0 01-.654.985 3.194 3.194 0 01-1.1.689c-.44.169-.956.255-1.552.255a4.86 4.86 0 01-.869-.081 7.578 7.578 0 01-1.734-.532 5.117 5.117 0 01-.728-.398l.634-2.079c.405.289.85.52 1.336.696.486.175.962.263 1.429.263.405 0 .693-.083.863-.25a.821.821 0 00.257-.613c0-.127-.02-.246-.061-.357a.867.867 0 00-.256-.344 2.702 2.702 0 00-.54-.358 9.873 9.873 0 00-.91-.411c-.432-.18-.799-.376-1.1-.589a3.226 3.226 0 01-.728-.68 2.42 2.42 0 01-.399-.776c-.08-.275-.12-.559-.12-.857a2.673 2.673 0 01.876-1.962c.288-.265.65-.479 1.086-.642.436-.162.943-.242 1.518-.242.27 0 .537.023.803.067.265.045.52.104.761.175.245.072.468.153.675.244.208.09.383.184.526.283l-.58 2.05a4.61 4.61 0 00-.486-.29 5.823 5.823 0 00-.56-.256 4.73 4.73 0 00-.58-.188 2.24 2.24 0 00-.56-.074c-.422 0-.723.08-.903.242-.18.161-.27.345-.27.553 0 .162.031.301.095.418a.953.953 0 00.31.323c.143.1.326.2.546.298.221.099.483.216.79.351.459.197.843.402 1.154.613.31.212.556.436.741.675.185.238.314.494.392.769.076.275.114.568.114.884M38.518 30.598v-9.89h2.294v7.798h3.965v2.092zM55.253 26.578c0 1.375-.374 2.417-1.12 3.122-.746.707-1.786 1.059-3.116 1.059-1.34 0-2.366-.35-3.076-1.052-.71-.702-1.066-1.745-1.066-3.13v-5.869h2.293v5.706c0 .702.152 1.254.46 1.654.305.4.786.601 1.443.601.648 0 1.124-.201 1.43-.6.304-.401.458-.953.458-1.655v-5.706h2.294v5.87zM64.142 30.598l-1.983-3.251-2.01 3.25H57.45l3.25-4.83-3.25-5.059h2.739l1.996 3.266 2.01-3.266h2.685l-3.25 4.83 3.25 5.06zM69.152 30.598v-9.89h6.259v2.105h-3.965v1.768h3.615v1.997h-3.615v1.928h3.965v2.092zM86.458 30.598l-.122-4.857-2.738 3.467h-.243l-2.766-3.467-.094 4.857h-2.213l.46-9.957.309-.026 4.479 5.651 4.37-5.651.312.026.471 9.957zM96.627 27.55c0-.38-.148-.671-.444-.878-.299-.206-.751-.31-1.364-.31-.34 0-.63.014-.863.04v2.293c.162.018.303.03.425.034.122.005.3.007.534.007.584 0 1.016-.103 1.294-.31.278-.206.418-.5.418-.877m-.161-3.858c0-.298-.124-.552-.372-.763-.248-.21-.613-.317-1.1-.317-.207 0-.391.01-.552.028a8.013 8.013 0 00-.486.067v2.063c.126.019.247.03.364.035.117.003.279.007.486.007.558 0 .973-.097 1.248-.29.273-.195.412-.471.412-.83m2.643 4.1c0 .387-.093.756-.277 1.107-.184.351-.458.66-.821.924-.365.265-.824.476-1.377.634-.554.156-1.202.235-1.95.235a24.27 24.27 0 01-2.955-.202V20.83c.182-.026.387-.054.622-.08.234-.029.477-.05.73-.068.25-.018.5-.034.746-.048.247-.013.472-.02.67-.02.719 0 1.348.075 1.888.223.538.148.991.346 1.356.594.363.247.635.531.816.85.18.32.269.649.269.991 0 .522-.142.96-.425 1.314-.284.356-.709.651-1.275.885.675.208 1.174.504 1.497.89.325.388.486.864.486 1.43M109.044 25.66c0-.45-.063-.86-.19-1.235a2.918 2.918 0 00-.531-.965 2.492 2.492 0 00-.824-.634 2.47 2.47 0 00-1.071-.228c-.388 0-.744.077-1.068.228-.322.153-.6.366-.828.634-.23.27-.408.594-.534.965a3.83 3.83 0 00-.19 1.236c0 .439.064.848.19 1.22.126.374.303.696.534.971a2.412 2.412 0 001.896.87 2.45 2.45 0 001.07-.229c.321-.153.594-.366.825-.64a2.98 2.98 0 00.532-.972c.126-.372.189-.781.189-1.22m2.455 0a5.4 5.4 0 01-.371 2.024 4.769 4.769 0 01-1.045 1.61 4.935 4.935 0 01-1.612 1.074c-.626.26-1.32.39-2.085.39-.764 0-1.458-.13-2.078-.39a4.718 4.718 0 01-1.584-1.074 4.664 4.664 0 01-1.005-1.61 5.663 5.663 0 01-.35-2.024c0-.73.123-1.407.37-2.03a4.804 4.804 0 011.039-1.62 4.778 4.778 0 011.612-1.072c.63-.262 1.326-.392 2.09-.392.764 0 1.456.13 2.072.392.616.26 1.14.618 1.578 1.072.435.455.773.994 1.012 1.62.237.623.357 1.3.357 2.03M122.54 26.578c0 1.375-.375 2.417-1.12 3.122-.746.707-1.785 1.059-3.116 1.059-1.34 0-2.367-.35-3.076-1.052-.71-.702-1.065-1.745-1.065-3.13v-5.869h2.292v5.706c0 .702.153 1.254.46 1.654.305.4.786.601 1.443.601.648 0 1.124-.201 1.43-.6.305-.401.457-.953.457-1.655v-5.706h2.295v5.87zM130.453 24c0-.413-.149-.734-.444-.964-.297-.23-.694-.344-1.188-.344-.18 0-.333.004-.46.014a4.64 4.64 0 00-.431.053v2.725c.153.018.279.03.378.035.1.005.216.007.351.007.549 0 .985-.13 1.308-.386.324-.255.486-.635.486-1.14zm.404 6.598l-1.685-3.225c-.073.01-.138.014-.197.014h-.196c-.17 0-.314-.002-.43-.007-.118-.003-.258-.012-.42-.02v3.238h-2.29v-9.794c.42-.046.867-.084 1.334-.115.466-.031.993-.048 1.578-.048.774 0 1.43.086 1.97.257s.982.405 1.328.701c.346.297.598.646.756 1.047.157.4.235.825.235 1.274 0 .592-.148 1.14-.444 1.639a3.443 3.443 0 01-1.255 1.221l2.32 3.818h-2.604zM144.107 25.04v4.72a7.967 7.967 0 01-1.722.737c-.597.175-1.274.262-2.03.262a5.534 5.534 0 01-2.037-.37 4.964 4.964 0 01-1.645-1.046 4.904 4.904 0 01-1.107-1.613c-.27-.624-.404-1.315-.404-2.07 0-.755.138-1.449.41-2.078.276-.629.651-1.169 1.127-1.619a5.09 5.09 0 011.687-1.045 5.829 5.829 0 012.091-.371c.647 0 1.239.076 1.774.229a8.11 8.11 0 011.544.62l-.957 1.849a4.751 4.751 0 00-2.213-.554c-.493 0-.929.073-1.301.218a2.576 2.576 0 00-.945.612c-.255.265-.45.581-.58.946-.13.363-.195.762-.195 1.193 0 .468.073.893.221 1.275.15.382.355.703.615.965.262.26.566.463.917.606.351.145.73.216 1.133.216.369 0 .659-.02.871-.061.21-.04.407-.11.586-.21v-1.455h-1.982V25.04h4.142z"/></g></g></svg>