<svg width="72" height="72" viewBox="0 0 72 72" fill="none" xmlns="http://www.w3.org/2000/svg">
<rect x="0.5" y="0.5" width="71" height="71" rx="11.5" stroke="#E6E6E6"/>
<path d="M35.15 37.4303H56.3C56.3 49.0303 46.75 58.5803 35.15 58.5803C23.55 58.5803 14 49.0303 14 37.4303C14 25.8303 23.55 16.2803 35.15 16.2803C38.54 16.2803 41.88 17.0903 44.88 18.6503L35.15 37.4303Z" fill="#CAB8FF"/>
<path d="M38.9701 34.9H56.2301C57.2101 34.9 58.0001 35.73 57.9201 36.71C56.8901 48.61 45.8301 57.82 33.3401 55.76C24.5001 54.3 17.4401 47.24 15.9901 38.41C13.8101 25.29 24.0801 13.75 36.8401 13.75C39.7901 13.75 42.7101 14.37 45.4001 15.56C46.1101 15.87 46.5301 16.61 46.4101 17.37C46.0601 19.76 45.2601 23.09 43.3701 26.66C41.7901 29.64 39.9401 31.88 38.3601 33.48C37.8401 34.01 38.2201 34.91 38.9701 34.91V34.9Z" fill="white" stroke="black" stroke-width="1.5" stroke-miterlimit="10"/>
<path d="M31.3975 29.0113C30.5175 26.7113 28.7975 24.9613 26.1575 23.8313C25.9475 23.7413 25.9475 23.4613 26.1575 23.3713C28.6075 22.3913 30.3975 20.7013 31.3875 18.1613C31.4675 17.9513 31.7575 17.9413 31.8475 18.1613C33.1575 21.3013 34.7975 22.3613 37.0775 23.3513C37.2875 23.4413 37.2775 23.7213 37.0675 23.8113C34.4775 24.8513 32.8575 26.6913 31.8475 29.0313C31.7575 29.2413 31.4675 29.2313 31.3875 29.0213L31.3975 29.0113Z" fill="url(#paint0_linear_9670_12854)" stroke="black" stroke-width="1.5" stroke-miterlimit="10"/>
<defs>
<linearGradient id="paint0_linear_9670_12854" x1="29.9275" y1="27.8213" x2="32.6875" y2="20.9213" gradientUnits="userSpaceOnUse">
<stop stop-color="#CBD1FF"/>
<stop offset="0.55" stop-color="#F7B363"/>
<stop offset="1" stop-color="#771BED"/>
</linearGradient>
</defs>
</svg>
