<svg width="87" height="46" viewBox="0 0 87 46" fill="none" xmlns="http://www.w3.org/2000/svg">
<path d="M65.4811 0.298364C64.0246 1.14798 65.8452 3.15064 69.0313 4.21266C70.1236 4.57678 70.9732 4.94091 70.9126 5.03194C70.8215 5.09262 69.6078 5.00159 68.2423 4.78919C64.9349 4.30369 55.5588 4.30369 51.8872 4.78919C39.6892 6.36705 28.7656 10.8579 19.6018 18.1099C16.4461 20.5981 8.7389 28.2446 6.49349 31.1273C3.06468 35.4664 0 41.2013 0 43.2343C0 44.357 0.546181 45.1763 1.30477 45.1763C1.8206 45.1763 2.18473 44.7515 2.85228 43.5074C3.33778 42.5971 3.88396 41.8385 4.06602 41.8385C4.24808 41.8385 5.00666 40.9889 5.76525 39.9572C7.28242 37.8939 7.55551 37.378 6.97899 37.7421C6.70589 37.8939 6.64521 37.8635 6.79692 37.6208C6.9183 37.4387 7.1307 37.3477 7.28242 37.4387C7.6162 37.6511 8.28375 36.7711 8.07135 36.4374C7.98032 36.2553 8.13203 35.9519 8.43547 35.7395C8.92096 35.345 8.92096 35.3753 8.49616 35.9215C8.25341 36.2553 8.49616 36.1339 9.04234 35.6484C10.1347 34.6471 10.3774 33.8278 9.34577 34.7381C8.70856 35.254 8.70856 35.254 9.37611 34.4954C9.77058 34.0402 10.1954 33.7065 10.3168 33.7975C10.4078 33.8582 11.925 32.4927 13.6849 30.7328C15.4145 29.0032 16.7496 27.5771 16.6282 27.5771C16.5068 27.5771 16.2337 27.7592 16.0213 27.9412C15.8089 28.1536 14.5952 29.2763 13.3511 30.4597L11.0753 32.5534L13.6849 29.8832C15.111 28.4267 16.5068 27.213 16.8103 27.1523C17.1137 27.1219 17.9936 26.5454 18.7522 25.8779C19.5412 25.2103 21.028 23.9966 22.0597 23.2076C23.1217 22.3884 23.8803 21.6298 23.8196 21.4781C23.7285 21.3567 24.0927 20.9622 24.6389 20.5981L25.6402 19.9306L24.7299 20.7195C23.6375 21.6601 23.9713 21.7512 25.2154 20.8712C25.7009 20.5374 26.0346 20.143 25.9436 19.9912C25.8526 19.8395 25.9436 19.6271 26.1257 19.5057C26.3684 19.354 26.3988 19.4147 26.2471 19.6878C26.0953 19.9306 26.156 20.0216 26.4291 19.9306C26.6719 19.8395 26.8539 19.6271 26.8539 19.4754C26.8539 19.2933 26.9753 19.0202 27.127 18.8685C27.2787 18.7168 27.3091 18.7775 27.1877 18.9899C26.8539 19.5664 27.3394 19.4754 28.3711 18.7472C30.3434 17.412 36.5638 14.4991 39.8409 13.346C47.5785 10.6758 53.9506 9.79585 63.084 10.0993C69.365 10.3117 71.307 10.4938 71.307 10.8882C71.307 11.0399 70.7912 11.313 70.1843 11.4951C68.5154 12.0413 62.7502 15.0149 61.9613 15.7432C61.2634 16.3804 61.0813 16.9569 61.5668 16.9569C61.7185 16.9569 61.7792 17.23 61.6882 17.5638C61.5668 17.9582 61.6882 18.1706 61.9613 18.1706C62.204 18.1706 62.5985 18.5044 62.8109 18.9292C63.084 19.4754 63.4784 19.6878 64.0853 19.6878C65.5721 19.6878 69.4864 18.4437 74.9482 16.259C77.8612 15.1059 81.5631 13.6798 83.141 13.1336C85.7808 12.193 86.0236 12.0413 86.1146 11.2827C86.2056 10.342 85.5684 8.67315 84.7492 7.67181C83.3837 6.03327 74.5841 1.75485 70.4271 0.692828C67.332 -0.0961004 66.27 -0.187131 65.4811 0.298364ZM32.7709 11.6468C32.7709 11.7378 31.7089 12.3144 30.4344 12.9819C25.0333 15.6825 18.9039 20.2947 12.5925 26.3634C9.67955 29.1853 9.49749 29.3067 11.0753 27.4557C13.6849 24.4214 21.1494 18.1403 25.185 15.5611C26.3077 14.8632 32.4371 11.5558 32.7102 11.4951C32.7405 11.4951 32.7709 11.5558 32.7709 11.6468ZM69.9416 13.4371C67.7872 14.317 65.6631 15.197 65.2383 15.4094C64.7225 15.6825 64.6011 15.7128 64.8135 15.4397C65.2383 15.0149 72.8242 11.7985 73.4311 11.8289C73.6738 11.8289 72.1263 12.5571 69.9416 13.4371ZM79.8032 13.8922C79.5604 14.0439 79.0142 14.226 78.5894 14.3474C77.9522 14.4991 77.9826 14.4384 78.7412 14.0743C79.7121 13.6191 80.5618 13.4674 79.8032 13.8922ZM77.3757 14.8329C77.133 14.9846 76.7992 15.1363 76.6171 15.1363C76.4654 15.1363 76.5261 14.9846 76.7688 14.8329C77.0116 14.6811 77.3757 14.5294 77.5274 14.5294C77.7095 14.5294 77.6185 14.6811 77.3757 14.8329ZM75.8585 15.4397C75.6158 15.5914 75.282 15.7432 75.0999 15.7432C74.9482 15.7432 75.0089 15.5914 75.2517 15.4397C75.4944 15.288 75.8585 15.1363 76.0103 15.1363C76.1923 15.1363 76.1013 15.288 75.8585 15.4397ZM74.3414 16.0466C74.0986 16.1983 73.7648 16.35 73.5828 16.35C73.4311 16.35 73.4917 16.1983 73.7345 16.0466C73.9772 15.8949 74.3414 15.7432 74.4931 15.7432C74.6751 15.7432 74.5841 15.8949 74.3414 16.0466ZM72.8242 16.6535C72.5814 16.8052 72.2477 16.9569 72.0656 16.9569C71.9139 16.9569 71.9746 16.8052 72.2173 16.6535C72.4601 16.5017 72.8242 16.35 72.9759 16.35C73.158 16.35 73.0669 16.5017 72.8242 16.6535ZM71.307 17.2603C71.0643 17.412 70.7305 17.5638 70.5484 17.5638C70.3967 17.5638 70.4574 17.412 70.7002 17.2603C70.9429 17.1086 71.307 16.9569 71.4587 16.9569C71.6408 16.9569 71.5498 17.1086 71.307 17.2603ZM69.7899 17.8672C69.5471 18.0189 69.2133 18.1706 69.0313 18.1706C68.8795 18.1706 68.9402 18.0189 69.183 17.8672C69.4257 17.7155 69.7899 17.5638 69.9416 17.5638C70.1236 17.5638 70.0326 17.7155 69.7899 17.8672ZM22.4541 22.4491C19.7839 24.7552 16.9316 26.9702 17.7509 26.1206C18.2667 25.6048 19.6929 24.3607 20.937 23.3594C23.3037 21.4477 24.3051 20.8712 22.4541 22.4491ZM19.3894 24.0269C19.3288 24.0876 18.6005 24.7248 17.7509 25.4531L16.2337 26.7882L17.5992 25.362C18.3274 24.5731 19.0557 23.9359 19.2377 23.9359C19.3894 23.9359 19.4501 23.9662 19.3894 24.0269ZM15.7786 27.0613C15.7786 27.0916 15.0503 27.8198 14.2007 28.6391L12.5925 30.1563L14.1097 28.5481C15.5055 27.0916 15.7786 26.8185 15.7786 27.0613ZM6.94864 32.5838C6.40246 33.3423 5.82594 33.9492 5.67422 33.9492C5.37078 33.9492 5.73491 33.3727 6.94864 32.0376C8.07135 30.8238 8.07135 31.0362 6.94864 32.5838ZM5.46181 34.5561C5.46181 34.7078 5.3101 34.8595 5.12804 34.8595C4.97632 34.8595 4.91563 34.7078 5.00666 34.5561C5.09769 34.374 5.24941 34.2526 5.34044 34.2526C5.40113 34.2526 5.46181 34.374 5.46181 34.5561ZM1.42614 41.2923C1.33511 41.5351 1.24408 41.444 1.24408 41.1103C1.21374 40.7765 1.30477 40.5944 1.3958 40.7158C1.48683 40.8068 1.51717 41.0799 1.42614 41.2923Z" fill="black"/>
</svg>
