<svg width="93" height="61" viewBox="0 0 93 61" fill="none" xmlns="http://www.w3.org/2000/svg">
<path d="M15.1262 41.5447C26.6116 42.5435 44.5107 41.1481 59.5379 38.0702C63.8336 37.2269 67.328 36.5844 67.2865 36.7395C67.2554 36.8557 65.5692 38.19 63.5391 39.7229L59.8048 42.5022L60.6124 43.6736C61.0588 44.3331 61.8851 44.9696 62.5051 45.1356C65.644 45.976 75.4487 40.3784 86.6549 31.2523C91.5869 27.2571 91.8561 26.8723 91.1293 24.9335C90.57 23.4548 87.5701 20.6997 86.1363 20.3158C85.3613 20.1083 70.0077 18.8213 64.3307 18.4641C62.6485 18.3874 60.5761 18.3724 59.6689 18.5033C58.3044 18.6363 58.038 18.8557 57.926 19.7393C57.8091 20.331 57.6998 21.0492 57.6659 21.3309C57.6037 21.5634 57.8514 21.8789 58.1614 21.9619C58.4715 22.0449 58.7012 22.2726 58.639 22.5051C58.5871 22.6988 59.0542 23.2807 59.6971 23.8266C60.5698 24.6002 61.7399 25.0381 64.5999 25.6792C67.6433 26.4111 68.2813 26.665 68.0121 27.0497C67.7638 27.357 67.898 27.476 68.4045 27.4455C68.8619 27.4434 68.7042 27.5672 68.0475 27.8482C66.2069 28.5183 63.4799 29.2416 63.5318 29.0479C63.5629 28.9316 64.4832 28.5966 65.6077 28.2747C69.4978 27.2399 67.433 27.3515 63.0156 28.4943C48.944 32.0358 30.3565 34.4512 17.6477 34.4538C15.03 34.4589 12.3528 34.5311 11.7273 34.6959C11.0734 34.8115 10.4997 34.7825 10.3758 34.6247C10.3011 34.4386 10.1537 34.5237 10.0915 34.7562C10.0188 35.0275 9.30817 35.0449 8.30063 34.7751C7.40935 34.5365 5.47941 34.1443 3.96536 33.905C1.54964 33.4659 1.28601 33.5198 1.06811 34.3336C0.725712 35.6124 1.99986 37.9885 3.5029 38.8893C5.47859 40.0413 10.1315 41.121 15.1262 41.5447ZM65.0417 43.5722C65.0625 43.4947 65.4555 43.2677 65.8769 43.0898C66.6318 42.7521 66.6602 42.8012 65.9904 43.2863C65.3206 43.7715 64.9587 43.8822 65.0417 43.5722ZM66.8927 42.8634C66.9134 42.7859 67.4047 42.5022 67.9838 42.2004L69.0723 41.7028L68.0973 42.3969C67.1819 43.0239 66.8097 43.1734 66.8927 42.8634ZM61.4683 35.5138C62.0682 35.1346 71.8206 32.6792 71.9445 32.837C72.1147 33.1317 69.8555 33.8142 65.5183 34.8125C61.6309 35.682 60.9279 35.826 61.4683 35.5138Z" fill="black"/>
</svg>
