<svg width="85" height="88" viewBox="0 0 85 88" fill="none" xmlns="http://www.w3.org/2000/svg">
<path d="M81.7684 59.3877C81.1374 60.225 73.3155 66.0543 69.3629 68.6063C64.7783 71.5677 62.2143 72.8572 61.0852 72.8333C59.9273 72.8206 59.2841 72.1804 59.4207 71.1722C59.4705 70.7906 59.3993 70.5217 59.2847 70.5661C59.1702 70.6104 59.4713 70.1973 59.9397 69.6206C60.4192 69.0726 61.029 68.6059 61.2914 68.603C61.5538 68.6002 61.6176 68.5097 61.4762 68.3997C61.3237 68.2611 61.308 68.1355 61.4798 68.0689C61.623 68.0134 61.9621 67.7833 62.2153 67.5864C62.5895 67.2768 62.6292 67.2944 62.3678 67.725C62.1063 68.1557 62.1461 68.1732 62.5203 67.8636C62.7734 67.6667 63.1411 67.4255 63.313 67.3589C63.5421 67.2702 63.5089 67.1842 63.1845 67.1122C62.8999 67.0578 63.3794 66.5097 64.6562 65.554C65.715 64.7157 66.6575 64.0872 66.7656 64.1112C66.8561 64.175 66.1937 64.7609 65.2735 65.4467C64.3422 66.1039 63.6511 66.701 63.7416 66.7647C63.8498 66.7887 64.7922 66.1602 65.8621 65.3505C67.6452 64.0011 67.7265 63.8708 66.9744 63.7998C66.553 63.7324 65.0561 63.9498 63.7292 64.2661C58.3995 65.4738 49.88 66.27 44.4919 66.051C36.3954 65.7281 27.9362 63.108 23.4799 59.5965C21.6306 58.1387 18.6823 54.4384 17.6276 52.3106C16.7125 50.458 16.5997 50.337 14.4493 49.2923C8.01554 46.1184 5.18506 40.0008 6.46349 32.1601C6.80503 30.1502 9.40687 23.3451 9.92246 23.1454C10.0657 23.09 10.1498 23.2221 10.1129 23.467C10.0759 23.7118 10.1157 23.7294 10.3005 23.5261C10.4279 23.3449 10.4362 23.1112 10.2837 22.9726C9.97229 22.7638 11.8846 20.0468 13.4136 18.4664C14.8327 17.0274 17.089 16.2194 18.1444 16.733C18.6037 16.9833 19.1979 17.412 19.417 17.7224C19.7996 18.2001 19.7054 18.4672 18.643 19.6363C13.971 24.8385 10.9655 32.5575 11.3454 38.4713C11.5474 41.8847 12.3526 43.8787 13.7813 44.6759C14.3709 45.0075 14.9845 45.231 15.0991 45.1866C15.2423 45.1312 15.4759 44.1184 15.6032 42.9162C15.9575 39.7485 18.0792 35.1057 19.8993 33.5114C20.6828 32.8127 21.7176 32.0826 22.2045 31.894C25.0975 30.7735 29.4935 33.0237 30.7471 36.2604C32.2891 40.2419 28.899 46.6276 23.9844 48.9921L22.0348 49.9119L22.9334 52.232C23.7386 54.2259 24.064 54.7258 25.5094 56.0765C27.9603 58.3224 32.0984 59.6514 38.5548 60.2472C43.6833 60.7314 52.3775 60.1311 57.8153 58.9474C62.7726 57.8839 64.2427 57.5122 65.1196 57.1396C65.624 56.9113 66.3559 56.7596 66.7089 56.8206C67.0508 56.8528 67.5312 56.7326 67.7271 56.558C68.044 56.2705 67.6993 55.9758 66.083 55.1195C62.9299 53.442 62.1674 52.7491 61.4574 50.9159C60.3924 48.1662 60.8045 48.0395 65.2587 49.6743C67.3777 50.4677 70.5094 51.4946 72.1867 51.998C79.1007 54.0306 80.0304 54.5599 81.5296 57.2403C82.234 58.5486 82.2608 58.7029 81.7684 59.3877ZM64.026 70.4756C63.8301 70.6503 63.9493 70.7029 64.2644 70.5809C64.5906 70.4875 64.7291 70.335 64.5813 70.2935C64.4621 70.2408 64.1932 70.312 64.026 70.4756ZM28.4787 42.3105C27.8348 43.2846 27.4756 44.3131 28.0363 43.6348C28.4123 43.1597 29.2049 41.634 29.1494 41.4908C29.1161 41.4049 28.8325 41.7782 28.4787 42.3105ZM24.2136 38.5273C23.1382 39.8332 21.9069 42.3523 22.0844 42.8106C22.395 43.6126 25.3504 39.9317 25.8204 38.1685C26.2185 36.7297 25.4977 36.91 24.2136 38.5273ZM25.2498 40.2671C25.1925 40.2893 25.0521 40.6072 24.9514 40.9426C24.7565 41.5451 24.7963 41.5627 25.1104 41.0128C25.4244 40.463 25.4789 40.1784 25.2498 40.2671ZM21.6347 39.0979C21.3973 39.4204 21.2153 39.8862 21.2292 40.1773C21.2034 40.4508 21.4168 40.2364 21.6736 39.7087C22.2398 38.5341 22.2195 38.3114 21.6347 39.0979ZM18.3372 36.027C18.2799 36.0491 18.1395 36.367 18.0388 36.7025C17.844 37.305 17.8837 37.3225 18.1978 36.7727C18.5119 36.2228 18.5663 35.9382 18.3372 36.027ZM13.3556 24.7804C13.2983 24.8026 13.0637 25.3875 12.7653 26.0631L12.3007 27.33L12.9243 26.1333C13.4729 24.9984 13.5847 24.6916 13.3556 24.7804Z" fill="black"/>
</svg>
