<svg width="72" height="72" viewBox="0 0 72 72" fill="none" xmlns="http://www.w3.org/2000/svg">
<rect x="0.5" y="0.5" width="71" height="71" rx="11.5" stroke="#E6E6E6"/>
<g clip-path="url(#clip0_9670_12817)">
<path d="M57.1899 53.1698L48.6899 47.1299C51.6799 43.2399 53.2699 38.2199 52.5999 32.7899C51.4899 23.8399 44.1699 16.7098 35.1899 15.8398C22.8899 14.6598 12.6499 24.8998 13.8399 37.1999C14.7099 46.1898 21.8699 53.5198 30.8299 54.5998C36.2699 55.2598 41.3199 53.6498 45.1999 50.6298L51.6299 58.8998C52.7399 60.3298 54.8399 60.4598 56.1199 59.1798L57.5699 57.7298C58.8799 56.4198 58.6999 54.2398 57.1899 53.1598V53.1698Z" fill="#CAB8FF"/>
<path d="M57.1899 50.1698L48.6899 44.1299C51.6799 40.2399 53.2699 35.2199 52.5999 29.7899C51.4899 20.8399 44.1599 13.7098 35.1899 12.8398C22.8899 11.6598 12.6499 21.8998 13.8399 34.1999C14.7099 43.1898 21.8699 50.5198 30.8299 51.5998C36.2699 52.2598 41.3199 50.6498 45.1999 47.6298L51.6299 55.8998C52.7399 57.3298 54.8399 57.4598 56.1199 56.1798L57.5699 54.7298C58.8799 53.4198 58.6999 51.2398 57.1899 50.1598V50.1698Z" fill="white" stroke="black" stroke-width="1.5" stroke-miterlimit="10"/>
<path d="M41.71 26.4101C41.58 26.2801 41.38 26.2801 41.24 26.3901C40.29 27.1101 38.94 27.0401 38.07 26.1801C37.2 25.3201 37.13 23.9601 37.86 23.0101C37.97 22.8701 37.97 22.6701 37.84 22.5401L37.82 22.5201C37.01 21.7101 35.7 21.7101 34.9 22.5201L23.69 33.7301C22.88 34.5401 22.88 35.8501 23.69 36.6501L23.71 36.6701C23.84 36.8001 24.04 36.8001 24.18 36.6901C25.13 35.9701 26.48 36.0401 27.35 36.9001C28.22 37.7601 28.29 39.1201 27.56 40.0701C27.45 40.2101 27.45 40.4101 27.58 40.5401L27.6 40.5601C28.41 41.3701 29.72 41.3701 30.52 40.5601L41.73 29.3501C42.54 28.5401 42.54 27.2301 41.73 26.4301L41.71 26.4101Z" fill="url(#paint0_linear_9670_12817)" stroke="black" stroke-width="1.5" stroke-miterlimit="10"/>
<path d="M32.71 25.75L34.12 27.16" stroke="black" stroke-width="1.5" stroke-miterlimit="10" stroke-linecap="round"/>
<path d="M37.48 30.5298L38.9 31.9398" stroke="black" stroke-width="1.5" stroke-miterlimit="10" stroke-linecap="round"/>
</g>
<defs>
<linearGradient id="paint0_linear_9670_12817" x1="28.4" y1="41.2201" x2="36.73" y2="22.5001" gradientUnits="userSpaceOnUse">
<stop stop-color="#CBD1FF"/>
<stop offset="0.55" stop-color="#F7B363"/>
<stop offset="1" stop-color="#771BED"/>
</linearGradient>
<clipPath id="clip0_9670_12817">
<rect width="46.21" height="48.06" fill="white" transform="translate(13 12)"/>
</clipPath>
</defs>
</svg>
