<svg width="72" height="72" viewBox="0 0 72 72" fill="none" xmlns="http://www.w3.org/2000/svg">
<rect x="0.5" y="0.5" width="71" height="71" rx="11.5" stroke="#E6E6E6"/>
<path d="M56.3975 19.0113C55.5175 16.7113 53.7975 14.9613 51.1575 13.8313C50.9475 13.7413 50.9475 13.4613 51.1575 13.3713C53.6075 12.3913 55.3975 10.7013 56.3875 8.16127C56.4675 7.95127 56.7575 7.94127 56.8475 8.16127C58.1575 11.3013 59.7975 12.3613 62.0775 13.3513C62.2875 13.4413 62.2775 13.7213 62.0675 13.8113C59.4775 14.8513 57.8575 16.6913 56.8475 19.0313C56.7575 19.2413 56.4675 19.2313 56.3875 19.0213L56.3975 19.0113Z" fill="url(#paint0_linear_9670_12825)" stroke="black" stroke-width="1.5" stroke-miterlimit="10"/>
<path d="M32.93 60.84C45.0416 60.84 54.86 51.0216 54.86 38.91C54.86 26.7984 45.0416 16.98 32.93 16.98C20.8184 16.98 11 26.7984 11 38.91C11 51.0216 20.8184 60.84 32.93 60.84Z" fill="#CAB8FF"/>
<path d="M34.91 58.86C47.0216 58.86 56.84 49.0416 56.84 36.93C56.84 24.8184 47.0216 15 34.91 15C22.7984 15 12.98 24.8184 12.98 36.93C12.98 49.0416 22.7984 58.86 34.91 58.86Z" fill="white" stroke="black" stroke-width="1.5" stroke-miterlimit="10"/>
<path d="M29.6152 20.8252C34.8952 21.9952 40.9752 23.7652 40.9952 25.9852C41.0252 29.1952 28.3652 30.8252 28.4052 34.2952C28.4452 37.8052 41.4152 39.2652 41.3852 42.6052C41.3552 45.8052 29.4152 47.2152 29.4852 49.9052C29.5252 51.5652 34.1052 52.8852 39.5652 53.8952" stroke="url(#paint1_linear_9670_12825)" stroke-width="1.5" stroke-miterlimit="10"/>
<defs>
<linearGradient id="paint0_linear_9670_12825" x1="54.9275" y1="17.8213" x2="57.6875" y2="10.9213" gradientUnits="userSpaceOnUse">
<stop stop-color="#CBD1FF"/>
<stop offset="0.55" stop-color="#F7B363"/>
<stop offset="1" stop-color="#771BED"/>
</linearGradient>
<linearGradient id="paint1_linear_9670_12825" x1="34.8952" y1="20.0952" x2="34.8952" y2="54.6352" gradientUnits="userSpaceOnUse">
<stop stop-color="#CBD1FF"/>
<stop offset="0.55" stop-color="#F7B363"/>
<stop offset="1" stop-color="#771BED"/>
</linearGradient>
</defs>
</svg>
