<svg width="72" height="72" viewBox="0 0 72 72" fill="none" xmlns="http://www.w3.org/2000/svg">
<rect x="0.5" y="0.5" width="71" height="71" rx="11.5" stroke="#E6E6E6"/>
<g clip-path="url(#clip0_9670_12830)">
<path d="M38.46 22.3498V52.5498C38.46 57.5098 32.89 61.5198 26.02 61.5198C19.15 61.5198 13.59 57.5098 13.59 52.5498C13.59 50.1598 14.88 47.9998 16.99 46.3898C13.49 44.8698 11.15 42.0998 11.15 38.9398C11.15 37.7998 11.45 36.7198 12.01 35.7198C10.74 34.3398 10 32.6898 10 30.9098C10 28.0998 11.86 25.5898 14.74 23.9998C14.52 23.3398 14.4 22.6598 14.4 21.9598C14.4 17.1698 19.78 13.2798 26.43 13.2798C33.08 13.2798 38.46 17.1698 38.46 21.9598C38.46 22.0798 38.46 22.1898 38.46 22.3198V22.3498Z" fill="#CAB8FF"/>
<path d="M55.5 25.3199C54.62 23.0199 52.9 21.2699 50.26 20.1399C50.05 20.0499 50.05 19.7699 50.26 19.6799C52.71 18.6999 54.5 17.0099 55.49 14.4699C55.57 14.2599 55.86 14.2499 55.95 14.4699C57.26 17.6099 58.9 18.6699 61.18 19.6599C61.39 19.7499 61.38 20.0299 61.17 20.1199C58.58 21.1599 56.96 22.9999 55.95 25.3399C55.86 25.5499 55.57 25.5399 55.49 25.3299L55.5 25.3199Z" fill="url(#paint0_linear_9670_12830)" stroke="black" stroke-width="1.5" stroke-miterlimit="10"/>
<path d="M49.8799 37.2798C48.9999 34.9798 47.2799 33.2298 44.6399 32.0998C44.4299 32.0098 44.4299 31.7298 44.6399 31.6398C47.0899 30.6598 48.8799 28.9698 49.8699 26.4298C49.9499 26.2198 50.2399 26.2098 50.3299 26.4298C51.6399 29.5698 53.2799 30.6298 55.5599 31.6198C55.7699 31.7098 55.7599 31.9898 55.5499 32.0798C52.9599 33.1198 51.3399 34.9598 50.3299 37.2998C50.2399 37.5098 49.9499 37.4998 49.8699 37.2898L49.8799 37.2798Z" fill="url(#paint1_linear_9670_12830)" stroke="black" stroke-width="1.5" stroke-miterlimit="10"/>
<path d="M40.0801 19.81V50.01C40.0801 54.97 34.5101 58.98 27.6401 58.98C20.7701 58.98 15.2101 54.97 15.2101 50.01C15.2101 47.62 16.5001 45.46 18.6101 43.85C15.1101 42.33 12.7701 39.56 12.7701 36.4C12.7701 35.26 13.0701 34.18 13.6301 33.18C12.3601 31.8 11.6201 30.15 11.6201 28.37C11.6201 25.56 13.4801 23.05 16.3601 21.46C16.1401 20.8 16.0201 20.12 16.0201 19.42C16.0201 14.64 21.4001 10.75 28.0501 10.75C34.7001 10.75 40.0801 14.64 40.0801 19.43C40.0801 19.55 40.0801 19.66 40.0801 19.79V19.81Z" fill="white" stroke="black" stroke-width="1.5" stroke-miterlimit="10"/>
<path d="M22.14 29.7902C21.71 29.7302 21.28 29.7002 20.85 29.7002C16.42 29.7002 12.77 32.8902 12.77 36.7702" stroke="black" stroke-width="1.5" stroke-miterlimit="10"/>
<path d="M29.86 43.6498C28.3 42.6198 26.42 42.0698 24.5 42.0698C19.43 42.0698 15.25 45.9298 15.25 50.6098" stroke="black" stroke-width="1.5" stroke-miterlimit="10"/>
<path d="M17.4001 15.3999C16.6501 16.5199 16.2101 17.7899 16.1401 19.0899C16.0301 21.1299 16.8101 23.1399 18.3201 24.6899" stroke="black" stroke-width="1.5" stroke-miterlimit="10"/>
<path d="M25.8501 34.4199C25.8501 34.4199 20.9601 31.8199 23.2001 25.8799" stroke="black" stroke-width="1.5" stroke-miterlimit="10"/>
<path d="M26.8301 42.3501C26.8301 42.3501 22.5501 49.7701 31.2101 51.4201" stroke="black" stroke-width="1.5" stroke-miterlimit="10"/>
<path d="M30.73 15.5098C30.73 15.5098 25.26 22.9698 35.11 24.5798" stroke="black" stroke-width="1.5" stroke-miterlimit="10"/>
</g>
<defs>
<linearGradient id="paint0_linear_9670_12830" x1="54.03" y1="24.1399" x2="56.79" y2="17.2399" gradientUnits="userSpaceOnUse">
<stop stop-color="#CBD1FF"/>
<stop offset="0.55" stop-color="#F7B363"/>
<stop offset="1" stop-color="#771BED"/>
</linearGradient>
<linearGradient id="paint1_linear_9670_12830" x1="48.4099" y1="36.0998" x2="51.1699" y2="29.1998" gradientUnits="userSpaceOnUse">
<stop stop-color="#CBD1FF"/>
<stop offset="0.55" stop-color="#F7B363"/>
<stop offset="1" stop-color="#771BED"/>
</linearGradient>
<clipPath id="clip0_9670_12830">
<rect width="52.09" height="51.52" fill="white" transform="translate(10 10)"/>
</clipPath>
</defs>
</svg>
