<svg width="72" height="72" viewBox="0 0 72 72" fill="none" xmlns="http://www.w3.org/2000/svg">
<rect x="0.5" y="0.5" width="71" height="71" rx="11.5" stroke="#E6E6E6"/>
<path d="M19.5725 44H9.42753C8.63913 44 8 44.5027 8 45.1228V62.8772C8 63.4973 8.63913 64 9.42753 64H19.5725C20.3609 64 21 63.4973 21 62.8772V45.1228C21 44.5027 20.3609 44 19.5725 44Z" fill="#CAB8FF"/>
<path d="M40.4627 32H29.5373C28.6883 32 28 32.4987 28 33.1139V62.8861C28 63.5013 28.6883 64 29.5373 64H40.4627C41.3117 64 42 63.5013 42 62.8861V33.1139C42 32.4987 41.3117 32 40.4627 32Z" fill="#CAB8FF"/>
<path d="M60.5725 35H50.4275C49.6391 35 49 35.5124 49 36.1444V62.8556C49 63.4876 49.6391 64 50.4275 64H60.5725C61.3609 64 62 63.4876 62 62.8556V36.1444C62 35.5124 61.3609 35 60.5725 35Z" fill="#CAB8FF"/>
<path d="M21.5725 41H11.4275C10.6391 41 10 41.5278 10 42.1789V60.8211C10 61.4722 10.6391 62 11.4275 62H21.5725C22.3609 62 23 61.4722 23 60.8211V42.1789C23 41.5278 22.3609 41 21.5725 41Z" fill="white" stroke="black" stroke-width="1.5" stroke-miterlimit="10"/>
<path d="M42.4627 29H31.5373C30.6883 29 30 29.5143 30 30.1488V60.8512C30 61.4857 30.6883 62 31.5373 62H42.4627C43.3117 62 44 61.4857 44 60.8512V30.1488C44 29.5143 43.3117 29 42.4627 29Z" fill="white" stroke="black" stroke-width="1.5" stroke-miterlimit="10"/>
<path d="M62.5725 33H52.4275C51.6391 33 51 33.5124 51 34.1444V60.8556C51 61.4876 51.6391 62 52.4275 62H62.5725C63.3609 62 64 61.4876 64 60.8556V34.1444C64 33.5124 63.3609 33 62.5725 33Z" fill="white" stroke="black" stroke-width="1.5" stroke-miterlimit="10"/>
<path d="M16.24 11.3701C11.78 11.3701 8.03 14.3401 6.81 18.4101C6.73 18.6901 6.73 19.0001 6.81 19.2801C8.02 23.3501 11.78 26.3201 16.24 26.3201C20.7 26.3201 24.46 23.3501 25.67 19.2801C25.75 19.0001 25.75 18.6901 25.67 18.4101C24.46 14.3401 20.7 11.3701 16.24 11.3701Z" fill="white" stroke="black" stroke-width="1.5" stroke-miterlimit="10"/>
<path d="M16.2401 22.6701C18.3995 22.6701 20.1501 20.9195 20.1501 18.7601C20.1501 16.6007 18.3995 14.8501 16.2401 14.8501C14.0806 14.8501 12.3301 16.6007 12.3301 18.7601C12.3301 20.9195 14.0806 22.6701 16.2401 22.6701Z" fill="url(#paint0_linear_9670_12842)" stroke="black" stroke-width="1.5" stroke-miterlimit="10"/>
<path d="M25.7402 18.8501H28.1102" stroke="black" stroke-width="1.5" stroke-miterlimit="10" stroke-linecap="round"/>
<path d="M16.2402 11.37V9" stroke="black" stroke-width="1.5" stroke-miterlimit="10" stroke-linecap="round"/>
<defs>
<linearGradient id="paint0_linear_9670_12842" x1="12.3401" y1="18.7601" x2="20.1501" y2="18.7601" gradientUnits="userSpaceOnUse">
<stop stop-color="#CBD1FF"/>
<stop offset="0.55" stop-color="#F7B363"/>
<stop offset="1" stop-color="#771BED"/>
</linearGradient>
</defs>
</svg>
