<svg width="24" height="24" viewBox="0 0 24 24" fill="none" xmlns="http://www.w3.org/2000/svg">
<path d="M10.3615 3.34077C11.1577 2.2033 12.8423 2.2033 13.6385 3.34077L14.1316 4.0452C14.5774 4.68214 15.352 5.00299 16.1177 4.86786L16.9644 4.71842C18.3317 4.4771 19.5229 5.66827 19.2816 7.03558L19.1321 7.88235C18.997 8.648 19.3179 9.42258 19.9548 9.86843L20.6592 10.3615C21.7967 11.1577 21.7967 12.8423 20.6592 13.6385L19.9548 14.1316C19.3179 14.5774 18.997 15.352 19.1321 16.1177L19.2816 16.9644C19.5229 18.3317 18.3317 19.5229 16.9644 19.2816L16.1177 19.1321C15.352 18.997 14.5774 19.3179 14.1316 19.9548L13.6385 20.6592C12.8423 21.7967 11.1577 21.7967 10.3615 20.6592L9.86843 19.9548C9.42258 19.3179 8.648 18.997 7.88235 19.1321L7.03558 19.2816C5.66827 19.5229 4.4771 18.3317 4.71842 16.9644L4.86786 16.1177C5.00299 15.352 4.68215 14.5774 4.0452 14.1316L3.34077 13.6385C2.2033 12.8423 2.2033 11.1577 3.34077 10.3615L4.0452 9.86843C4.68214 9.42258 5.00299 8.648 4.86786 7.88235L4.71842 7.03558C4.4771 5.66827 5.66827 4.4771 7.03558 4.71842L7.88235 4.86786C8.648 5.00299 9.42258 4.68215 9.86843 4.0452L10.3615 3.34077Z" stroke="black" stroke-width="1.5"/>
<path d="M8.5 12.5L10.2257 14.2257C10.6415 14.6415 11.3246 14.6105 11.701 14.1588L16 9" stroke="black" stroke-width="1.5" stroke-linecap="round"/>
</svg>
