<svg width="24" height="24" viewBox="0 0 24 24" fill="none" xmlns="http://www.w3.org/2000/svg">
<path d="M19.7387 18.2619L17.293 15C16.4208 15.8722 15.5486 16.364 15.0082 16.8072C14.8834 16.9096 14.8799 17.0936 14.9897 17.2118L17.6281 20.053C17.9974 20.4507 18.6166 20.4812 19.0232 20.1217L19.6009 19.611C19.9913 19.2659 20.0513 18.6788 19.7387 18.2619Z" fill="#D9D9D9"/>
<circle cx="10.793" cy="10.5" r="7.5" stroke="black" stroke-width="1.5"/>
<path d="M20.0007 17.895L17.293 15C16.4697 15.8233 15.7678 16.4445 15.1665 16.8047C14.9895 16.9108 14.9397 17.158 15.0802 17.3092L17.6303 20.0553C17.9987 20.4521 18.616 20.4835 19.0229 20.1262L19.9302 19.3295C20.3545 18.9569 20.3864 18.3073 20.0007 17.895Z" stroke="black" stroke-width="1.5" stroke-linecap="round"/>
<path d="M6.97359 10.1812C8.58004 9.55709 9.41766 8.629 10.2019 6.75993C10.3099 6.50256 10.6862 6.50431 10.7884 6.76403C11.5071 8.58972 12.1376 9.47208 13.9423 10.1563C14.2288 10.2649 14.2241 10.7182 13.9357 10.8216C12.2083 11.4409 11.4163 12.3135 10.857 13.8402C10.7493 14.1342 10.2712 14.1288 10.1641 13.8345C9.58993 12.2561 8.6826 11.473 6.97005 10.8278C6.68965 10.7222 6.69429 10.2897 6.97359 10.1812Z" fill="black"/>
</svg>
