<svg width="24" height="24" viewBox="0 0 24 24" fill="none" xmlns="http://www.w3.org/2000/svg">
<circle cx="10.793" cy="10.5" r="7.5" stroke="black" stroke-width="1.5"/>
<path d="M20.0007 17.895L17.293 15C16.4697 15.8233 15.7678 16.4445 15.1665 16.8047C14.9895 16.9108 14.9397 17.158 15.0802 17.3092L17.6303 20.0553C17.9987 20.4521 18.616 20.4835 19.0229 20.1262L19.9302 19.3295C20.3545 18.9569 20.3864 18.3073 20.0007 17.895Z" stroke="black" stroke-width="1.5" stroke-linecap="round"/>
<circle cx="11" cy="7.5" r="1.5" fill="#212121"/>
<path d="M8.10557 12.5284C8.65374 11.432 9.77427 10.7395 11 10.7395C12.2257 10.7395 13.3463 11.432 13.8944 12.5284L14.2764 13.2923C14.6088 13.9572 14.1253 14.7395 13.382 14.7395H8.61803C7.87465 14.7395 7.39116 13.9572 7.72361 13.2923L8.10557 12.5284Z" fill="#D9D9D9" stroke="black" stroke-width="1.5"/>
</svg>
