<svg width="24" height="24" viewBox="0 0 24 24" fill="none" xmlns="http://www.w3.org/2000/svg">
<path d="M14.5 16.8155V8.59363C14.5 8.22769 14.3001 7.89097 13.9789 7.71574L10.4789 5.80665C9.81248 5.44317 9 5.92548 9 6.68454V14.9064C9 15.2723 9.19989 15.609 9.52115 15.7843L13.0211 17.6934C13.6875 18.0568 14.5 17.5745 14.5 16.8155Z" fill="#D9D9D9"/>
<path d="M14.5 8.5V18.5M9 15.5V5.5" stroke="black" stroke-width="1.5" stroke-linecap="round"/>
<path d="M4 9.03514V16.9983C4 17.7856 4.86766 18.2642 5.53355 17.8441L8.71581 15.8365C9.04175 15.6309 9.45685 15.6309 9.78281 15.8365L13.9501 18.4647C14.2845 18.6756 14.7117 18.6697 15.0401 18.4496L19.7454 15.2971C20.0225 15.1114 20.1888 14.7998 20.1888 14.4663V6.78935C20.1888 6.00708 19.3311 5.52772 18.6648 5.93764L15.0456 8.16431C14.7131 8.36891 14.2918 8.36125 13.967 8.14469L9.80402 5.36977C9.4681 5.14585 9.0305 5.14588 8.69462 5.36983L4.44525 8.20313C4.16708 8.3886 4 8.70081 4 9.03514Z" stroke="black" stroke-width="1.5" stroke-linecap="round"/>
</svg>
