<svg width="24" height="24" viewBox="0 0 24 24" fill="none" xmlns="http://www.w3.org/2000/svg">
<path d="M19.0711 4.92896C20.4904 6.34824 21.4497 8.16179 21.8243 10.1337C22.1989 12.1056 21.9714 14.1446 21.1715 15.9855C20.3715 17.8264 19.0361 19.3839 17.339 20.4555C15.6418 21.5272 13.6614 22.0633 11.6554 21.9941C9.64945 21.9249 7.7107 21.2537 6.09137 20.0677C4.47204 18.8818 3.24707 17.236 2.5758 15.3444C1.90454 13.4528 1.81805 11.4029 2.32757 9.4615C2.8371 7.52007 3.91907 5.77691 5.43273 4.45874" stroke="black" stroke-width="1.5" stroke-linecap="round"/>
<path d="M3 9C3.66667 10.1667 4.6 12.1 7 12.5C9.26133 12.8769 9.92466 12.5436 9.15727 15.4315C9.06401 15.7825 9.15927 16.1593 9.41606 16.4161L9.49035 16.4903C9.79471 16.7947 9.86075 17.2573 9.70256 17.6576C8.60344 20.4391 11.7959 18.5349 12.799 17.6864C12.937 17.5697 13.0948 17.4753 13.2659 17.4173C16.2896 16.3933 12.5537 14.4732 14.5 13.5C14.8578 13.3211 17.0337 12.7121 15.5 11.5L14.5 10.5" stroke="black" stroke-width="1.5" stroke-linecap="round"/>
<path d="M19.7312 7C18.8979 7.66667 17.4312 9.2 18.2312 10C19.2312 11 19.7313 14 21.7313 12" stroke="black" stroke-width="1.5" stroke-linecap="round"/>
<path fill-rule="evenodd" clip-rule="evenodd" d="M8.18442 2.96608C7.40337 3.74713 7.40337 5.01346 8.18442 5.79451L11.9886 9.59871C11.9907 9.6008 11.9941 9.6008 11.9962 9.59871C11.9983 9.59663 12.0017 9.59663 12.0037 9.59871C12.0058 9.6008 12.0092 9.6008 12.0113 9.59871L15.8155 5.79451C16.5966 5.01346 16.5966 3.74713 15.8155 2.96608L15.6598 2.8104C14.8788 2.02935 13.6124 2.02935 12.8314 2.8104L12.7071 2.93472C12.3165 3.32525 11.6834 3.32525 11.2929 2.93472L11.1685 2.8104C10.3875 2.02935 9.12115 2.02935 8.34011 2.8104L8.18442 2.96608Z" fill="#D9D9D9"/>
<path d="M8.18442 5.79451L8.71475 5.26418L8.18442 5.79451ZM8.18442 2.96608L7.65409 2.43575L8.18442 2.96608ZM15.8155 5.79451L15.2852 5.26418L15.8155 5.79451ZM15.8155 2.96608L15.2852 3.49641L15.2852 3.49641L15.8155 2.96608ZM15.6598 2.8104L16.1902 2.28007L16.1902 2.28007L15.6598 2.8104ZM12.8314 2.8104L13.3617 3.34073L12.8314 2.8104ZM11.1685 2.8104L11.6989 2.28007V2.28007L11.1685 2.8104ZM8.34011 2.8104L7.80978 2.28007L8.34011 2.8104ZM12.7071 2.93472L12.1767 2.40439L12.7071 2.93472ZM11.2929 2.93472L10.7625 3.46505L11.2929 2.93472ZM12.0113 9.59871L12.5416 10.129L12.0113 9.59871ZM11.9886 9.59871L12.519 9.06838L11.9886 9.59871ZM8.71475 5.26418C8.22659 4.77602 8.22659 3.98457 8.71475 3.49641L7.65409 2.43575C6.58015 3.50969 6.58015 5.2509 7.65409 6.32484L8.71475 5.26418ZM12.519 9.06838L8.71475 5.26418L7.65409 6.32484L11.4583 10.129L12.519 9.06838ZM12.5416 10.129L16.3458 6.32484L15.2852 5.26418L11.481 9.06838L12.5416 10.129ZM16.3458 6.32484C17.4198 5.2509 17.4198 3.50969 16.3458 2.43575L15.2852 3.49641C15.7733 3.98457 15.7733 4.77603 15.2852 5.26418L16.3458 6.32484ZM16.3458 2.43575L16.1902 2.28007L15.1295 3.34072L15.2852 3.49641L16.3458 2.43575ZM16.1902 2.28007C15.1162 1.20612 13.375 1.20612 12.3011 2.28007L13.3617 3.34073C13.8499 2.85257 14.6413 2.85257 15.1295 3.34073L16.1902 2.28007ZM12.3011 2.28007L12.1767 2.40439L13.2374 3.46505L13.3617 3.34073L12.3011 2.28007ZM10.6382 3.34073L10.7625 3.46505L11.8232 2.40439L11.6989 2.28007L10.6382 3.34073ZM8.87044 3.34073C9.35859 2.85257 10.15 2.85257 10.6382 3.34073L11.6989 2.28007C10.6249 1.20612 8.88372 1.20612 7.80978 2.28007L8.87044 3.34073ZM8.71475 3.49641L8.87044 3.34073L7.80978 2.28007L7.65409 2.43575L8.71475 3.49641ZM12.1767 2.40439C12.0791 2.50202 11.9208 2.50202 11.8232 2.40439L10.7625 3.46505C11.4459 4.14847 12.554 4.14847 13.2374 3.46505L12.1767 2.40439ZM11.4734 10.129C11.7684 10.424 12.2467 10.424 12.5416 10.129L11.481 9.06838C11.7718 8.77757 12.2433 8.77758 12.5341 9.0684L11.4734 10.129ZM12.5265 10.129C12.2357 10.4198 11.7642 10.4199 11.4734 10.129L12.5341 9.0684C12.2391 8.77339 11.7608 8.77341 11.4659 9.06838L12.5265 10.129ZM11.4583 10.129C11.7533 10.424 12.2315 10.424 12.5265 10.129L11.4659 9.06838C11.7566 8.7776 12.2281 8.77756 12.519 9.06838L11.4583 10.129Z" fill="black"/>
</svg>
