<svg width="24" height="24" viewBox="0 0 24 24" fill="none" xmlns="http://www.w3.org/2000/svg">
<path d="M3.01953 9H5C5.55228 9 6 9.44772 6 10V18.7527C6 18.8893 5.88927 19 5.75268 19C4.23242 19 3 17.7676 3 16.2473V9.01953C3 9.00874 3.00874 9 3.01953 9Z" fill="#D9D9D9"/>
<path d="M6 5C6 4.44772 6.44772 4 7 4H19C19.5523 4 20 4.44772 20 5V18C20 18.5523 19.5523 19 19 19H6V5Z" stroke="black" stroke-width="1.5"/>
<path d="M5.72945 9H3.01953C3.00874 9 3 9.00874 3 9.01953V16.4956C3 17.8787 4.12127 19 5.50443 19V19" stroke="black" stroke-width="1.5" stroke-linecap="round"/>
<rect x="8" y="6.43848" width="4" height="4" rx="1" stroke="black" stroke-width="1.5"/>
<path d="M8 13H17.5" stroke="black" stroke-width="1.5" stroke-linecap="round"/>
<path d="M14 6.87036H17.5" stroke="black" stroke-width="1.5" stroke-linecap="round"/>
<path d="M14 10.1996H17.5" stroke="black" stroke-width="1.5" stroke-linecap="round"/>
<path d="M8 15.8457H17.5" stroke="black" stroke-width="1.5" stroke-linecap="round"/>
</svg>
