<svg width="24" height="24" viewBox="0 0 24 24" fill="none" xmlns="http://www.w3.org/2000/svg">
<g clip-path="url(#clip0_7342_298)">
<path d="M9.09278 21.2368L7.16736 17.9019L9.93272 16.3053L11.8581 19.6402C12.299 20.4038 12.0374 21.3803 11.2738 21.8212C10.5101 22.2621 9.53366 22.0004 9.09278 21.2368Z" fill="#D9D9D9"/>
<path d="M17.5585 10.5711C17.8315 10.4135 18.0707 10.2037 18.2626 9.95362C18.4545 9.70358 18.5952 9.4182 18.6768 9.11376C18.7583 8.80933 18.7791 8.49181 18.738 8.17933C18.6969 7.86686 18.5946 7.56554 18.437 7.2926C18.2794 7.01965 18.0696 6.78041 17.8196 6.58855C17.5695 6.39668 17.2841 6.25595 16.9797 6.17437C16.6753 6.0928 16.3578 6.07199 16.0453 6.11313C15.7328 6.15427 15.4315 6.25655 15.1585 6.41414L16.3585 8.4926L17.5585 10.5711Z" fill="#D9D9D9"/>
<mask id="path-3-inside-1_7342_298" fill="white">
<path d="M17.5585 10.5711C18.1098 10.2528 18.512 9.72859 18.6768 9.11376C18.8415 8.49893 18.7553 7.84384 18.437 7.2926C18.1187 6.74135 17.5945 6.33912 16.9797 6.17437C16.3649 6.00963 15.7098 6.09588 15.1585 6.41414L15.7531 7.44399C16.0312 7.28342 16.3617 7.23991 16.6719 7.32302C16.9821 7.40614 17.2466 7.60907 17.4071 7.88718C17.5677 8.16529 17.6112 8.49579 17.5281 8.80598C17.445 9.11617 17.2421 9.38064 16.964 9.54121L17.5585 10.5711Z"/>
</mask>
<path d="M17.5585 10.5711C18.1098 10.2528 18.512 9.72859 18.6768 9.11376C18.8415 8.49893 18.7553 7.84384 18.437 7.2926C18.1187 6.74135 17.5945 6.33912 16.9797 6.17437C16.3649 6.00963 15.7098 6.09588 15.1585 6.41414L15.7531 7.44399C16.0312 7.28342 16.3617 7.23991 16.6719 7.32302C16.9821 7.40614 17.2466 7.60907 17.4071 7.88718C17.5677 8.16529 17.6112 8.49579 17.5281 8.80598C17.445 9.11617 17.2421 9.38064 16.964 9.54121L17.5585 10.5711Z" stroke="black" stroke-width="3" mask="url(#path-3-inside-1_7342_298)"/>
<path d="M3.37036 15.9918V15.9918C2.64417 14.734 3.12877 13.1341 4.29931 12.2743C7.61481 9.83906 9.80572 6.48248 10.992 3.9858C11.3665 3.19775 12.5493 3.09013 12.9855 3.84573L15.8411 8.7918" stroke="black" stroke-width="1.5"/>
<path d="M3.37036 15.9918V15.9918C4.09655 17.2496 5.72441 17.6299 7.05427 17.0461C10.821 15.3924 14.8234 15.1733 17.5787 15.3943C18.4484 15.4641 19.133 14.4935 18.6967 13.7379L15.8411 8.79184" stroke="black" stroke-width="1.5"/>
<path d="M7.198 17.6215L9.78539 22.103C9.92346 22.3421 10.2293 22.424 10.4684 22.286L12.2005 21.286C12.4396 21.1479 12.5215 20.8421 12.3835 20.603L10.0015 16.4772" stroke="black" stroke-width="1.5"/>
<path d="M16.3323 5.04413L16.6983 3.6781" stroke="black" stroke-width="1.5" stroke-linecap="round"/>
<path d="M19.2054 6.84898L20.4302 6.14188" stroke="black" stroke-width="1.5" stroke-linecap="round"/>
<path d="M20.6984 10.6063L19.3323 10.2402" stroke="black" stroke-width="1.5" stroke-linecap="round"/>
</g>
<defs>
<clipPath id="clip0_7342_298">
<rect width="24" height="24" fill="white"/>
</clipPath>
</defs>
</svg>
