<svg width="24" height="24" viewBox="0 0 24 24" fill="none" xmlns="http://www.w3.org/2000/svg">
<circle cx="12" cy="10" r="7" stroke="black" stroke-width="1.5" stroke-linecap="round"/>
<path d="M7 15L4.90392 19.6114C4.73528 19.9824 5.05753 20.3885 5.45716 20.3086L6.7376 20.0525C6.90153 20.0197 7.071 20.071 7.18922 20.1892L7.98522 20.9852C8.23333 21.2333 8.65317 21.1554 8.79567 20.8347L10.5 17" stroke="black" stroke-width="1.5" stroke-linecap="round"/>
<path d="M17.2446 15L19.3407 19.6114C19.5094 19.9824 19.1871 20.3885 18.7875 20.3086L17.507 20.0525C17.3431 20.0197 17.1736 20.071 17.0554 20.1892L16.2594 20.9852C16.0113 21.2333 15.5915 21.1554 15.449 20.8347L13.7446 17" stroke="black" stroke-width="1.5" stroke-linecap="round"/>
<path d="M11.3342 7.04893C11.5438 6.40402 12.4562 6.40402 12.6657 7.04894L12.9081 7.79483C13.0018 8.08325 13.2705 8.27852 13.5738 8.27852H14.3581C15.0362 8.27852 15.3181 9.14625 14.7695 9.54483L14.135 10.0058C13.8897 10.1841 13.787 10.5 13.8807 10.7884L14.1231 11.5343C14.3327 12.1793 13.5945 12.7155 13.0459 12.317L12.4114 11.856C12.1661 11.6777 11.8339 11.6777 11.5885 11.856L10.954 12.317C10.4054 12.7155 9.66729 12.1793 9.87683 11.5343L10.1192 10.7884C10.2129 10.5 10.1102 10.1841 9.8649 10.0058L9.2304 9.54483C8.6818 9.14625 8.96374 8.27852 9.64185 8.27852H10.4261C10.7294 8.27852 10.9982 8.08325 11.0919 7.79483L11.3342 7.04893Z" fill="#D9D9D9" stroke="black" stroke-width="1.5"/>
</svg>
