<svg width="24" height="24" viewBox="0 0 24 24" fill="none" xmlns="http://www.w3.org/2000/svg">
<g clip-path="url(#clip0_8028_455)">
<path d="M16.11 4.75H8.13C7.02544 4.75 6.13 5.64543 6.13 6.75V11.6C6.13 12.7046 7.02544 13.6 8.13 13.6H16.11C17.2146 13.6 18.11 12.7046 18.11 11.6V6.75C18.11 5.64543 17.2146 4.75 16.11 4.75Z" fill="#D9D9D9" stroke="black" stroke-width="1.5" stroke-linecap="round" stroke-linejoin="round"/>
<path d="M18.6 6.90997H5.58997C4.4854 6.90997 3.58997 7.8054 3.58997 8.90997V13.76C3.58997 14.8645 4.4854 15.76 5.58997 15.76H18.6C19.7045 15.76 20.6 14.8645 20.6 13.76V8.90997C20.6 7.8054 19.7045 6.90997 18.6 6.90997Z" fill="#D9D9D9" stroke="black" stroke-width="1.5" stroke-linecap="round" stroke-linejoin="round"/>
<path d="M20.44 9.5H3.75C2.64543 9.5 1.75 10.3954 1.75 11.5V18.52C1.75 19.6246 2.64543 20.52 3.75 20.52H20.44C21.5446 20.52 22.44 19.6246 22.44 18.52V11.5C22.44 10.3954 21.5446 9.5 20.44 9.5Z" fill="white" stroke="black" stroke-width="1.5" stroke-linecap="round" stroke-linejoin="round"/>
</g>
<defs>
<clipPath id="clip0_8028_455">
<rect width="22.19" height="18.27" fill="white" transform="translate(1 3)"/>
</clipPath>
</defs>
</svg>
