<svg width="24" height="24" viewBox="0 0 24 24" fill="none" xmlns="http://www.w3.org/2000/svg">
<g clip-path="url(#clip0_8022_305)">
<path d="M11.99 22.235C17.6454 22.235 22.23 17.6504 22.23 11.995C22.23 6.33961 17.6454 1.755 11.99 1.755C6.3346 1.755 1.75 6.33961 1.75 11.995C1.75 17.6504 6.3346 22.235 11.99 22.235Z" stroke="black" stroke-width="1.5" stroke-miterlimit="10"/>
<path d="M11.9899 16.185C14.293 16.185 16.1599 14.3181 16.1599 12.015C16.1599 9.712 14.293 7.84503 11.9899 7.84503C9.68692 7.84503 7.81995 9.712 7.81995 12.015C7.81995 14.3181 9.68692 16.185 11.9899 16.185Z" fill="#D9D9D9" stroke="black" stroke-width="1.5" stroke-linecap="round" stroke-linejoin="round"/>
<path d="M11.6649 12.015H22.23" stroke="black" stroke-width="1.5" stroke-linecap="round"/>
</g>
<defs>
<clipPath id="clip0_8022_305">
<rect width="21.99" height="21.99" fill="white" transform="translate(1 1.005)"/>
</clipPath>
</defs>
</svg>
