<svg width="24" height="24" viewBox="0 0 24 24" fill="none" xmlns="http://www.w3.org/2000/svg">
<g clip-path="url(#clip0_8032_530)">
<path d="M3.75 20.66V3.87C4.59 4.55 7.72 5.88 12.32 5.8C16.63 5.72 19.54 4.57 20.42 3.87V20.66" stroke="black" stroke-width="1.5" stroke-linecap="round" stroke-linejoin="round"/>
<path d="M12.08 6.05C16.6363 6.05 20.33 5.08741 20.33 3.9C20.33 2.71259 16.6363 1.75 12.08 1.75C7.52361 1.75 3.82996 2.71259 3.82996 3.9C3.82996 5.08741 7.52361 6.05 12.08 6.05Z" fill="#D9D9D9" stroke="black" stroke-width="1.5" stroke-miterlimit="10"/>
<path d="M20.33 11.27C20.33 12.46 16.64 13.42 12.08 13.42C7.51997 13.42 3.83997 12.45 3.83997 11.27" stroke="black" stroke-width="1.5" stroke-miterlimit="10"/>
<path d="M12.08 22.59C16.6363 22.59 20.33 21.6274 20.33 20.44C20.33 19.2526 16.6363 18.29 12.08 18.29C7.52361 18.29 3.82996 19.2526 3.82996 20.44C3.82996 21.6274 7.52361 22.59 12.08 22.59Z" fill="white" stroke="black" stroke-width="1.5" stroke-miterlimit="10"/>
<path d="M17.5 9.62002C17.9584 9.62002 18.33 9.24842 18.33 8.79002C18.33 8.33163 17.9584 7.96002 17.5 7.96002C17.0416 7.96002 16.67 8.33163 16.67 8.79002C16.67 9.24842 17.0416 9.62002 17.5 9.62002Z" fill="black"/>
<path d="M14.62 10.1C15.0784 10.1 15.45 9.7284 15.45 9.27C15.45 8.81161 15.0784 8.44 14.62 8.44C14.1616 8.44 13.79 8.81161 13.79 9.27C13.79 9.7284 14.1616 10.1 14.62 10.1Z" fill="black"/>
<path d="M11.6 10.1C12.0584 10.1 12.43 9.7284 12.43 9.27C12.43 8.81161 12.0584 8.44 11.6 8.44C11.1416 8.44 10.77 8.81161 10.77 9.27C10.77 9.7284 11.1416 10.1 11.6 10.1Z" fill="black"/>
</g>
<defs>
<clipPath id="clip0_8032_530">
<rect width="18.17" height="22.34" fill="white" transform="translate(3 1)"/>
</clipPath>
</defs>
</svg>
