<svg width="24" height="24" viewBox="0 0 24 24" fill="none" xmlns="http://www.w3.org/2000/svg">
<g clip-path="url(#clip0_8022_323)">
<path d="M19.17 3.86998V8.63998C18.95 8.30998 18.62 8.04998 18.22 7.93998C18.04 7.88998 17.86 7.85998 17.67 7.86998V5.14998C16.24 5.79998 13.78 6.49998 10.33 6.55998C6.93 6.61998 4.13 5.88998 2.5 5.15998V20.66C2.5 21.07 2.17 21.41 1.75 21.41C1.64 21.41 1.53 21.39 1.44 21.34C1.18 21.22 1 20.96 1 20.66V3.86998C1 3.57998 1.17 3.31998 1.43 3.19998C1.69 3.06998 2 3.10998 2.22 3.28998C2.99 3.89998 5.96 5.13998 10.31 5.05998C14.85 4.97998 17.41 3.71998 17.95 3.28998C18.18 3.10998 18.49 3.06998 18.75 3.19998C19.01 3.31998 19.17 3.57998 19.17 3.86998Z" fill="black"/>
<path d="M10.09 6.05C14.6463 6.05 18.34 5.08741 18.34 3.9C18.34 2.71259 14.6463 1.75 10.09 1.75C5.53362 1.75 1.83997 2.71259 1.83997 3.9C1.83997 5.08741 5.53362 6.05 10.09 6.05Z" stroke="black" stroke-width="1.5" stroke-miterlimit="10"/>
<path d="M10.09 12.66C11.36 12.66 12.49 12.59 13.46 12.47L12.29 14.08C11.51 14.14 10.75 14.16 10.09 14.16C7.78997 14.16 4.38997 13.87 2.49997 12.94C1.63997 12.52 1.08997 11.97 1.08997 11.26H2.58997C2.82997 11.73 5.55997 12.66 10.09 12.66Z" fill="black"/>
<path d="M12.52 21.95L12.58 21.74C11.82 21.8 10.99 21.84 10.09 21.84C5.71997 21.84 3.02997 20.97 2.61997 20.44C3.02997 19.91 5.71997 19.05 10.09 19.05C10.31 19.05 10.52 19.05 10.73 19.05L11.21 17.58C11.21 17.58 11.19 17.57 11.19 17.56C10.8 17.55 10.43 17.54 10.09 17.54C7.78997 17.54 4.38997 17.83 2.49997 18.76C1.63997 19.17 1.08997 19.72 1.08997 20.43C1.08997 20.77 1.20997 21.07 1.43997 21.33C2.69997 22.89 7.23997 23.33 10.09 23.33C10.85 23.33 11.73 23.3 12.64 23.22C12.44 22.84 12.39 22.38 12.52 21.94V21.95Z" fill="black"/>
<path d="M15.5 9.62002C15.9584 9.62002 16.33 9.24842 16.33 8.79002C16.33 8.33163 15.9584 7.96002 15.5 7.96002C15.0416 7.96002 14.67 8.33163 14.67 8.79002C14.67 9.24842 15.0416 9.62002 15.5 9.62002Z" fill="black"/>
<path d="M12.62 10.1C13.0784 10.1 13.45 9.7284 13.45 9.27C13.45 8.81161 13.0784 8.44 12.62 8.44C12.1616 8.44 11.79 8.81161 11.79 9.27C11.79 9.7284 12.1616 10.1 12.62 10.1Z" fill="black"/>
<path d="M9.61003 10.1C10.0684 10.1 10.44 9.7284 10.44 9.27C10.44 8.81161 10.0684 8.44 9.61003 8.44C9.15163 8.44 8.78003 8.81161 8.78003 9.27C8.78003 9.7284 9.15163 10.1 9.61003 10.1Z" fill="black"/>
<path d="M17.73 9.62L12.62 16.58H15.9L14.19 22.44L21.38 14.27L18.01 14.21L17.73 9.62Z" fill="#D9D9D9" stroke="black" stroke-width="1.5" stroke-linecap="round" stroke-linejoin="round"/>
</g>
<defs>
<clipPath id="clip0_8022_323">
<rect width="21.13" height="22.34" fill="white" transform="translate(1 1)"/>
</clipPath>
</defs>
</svg>
