<svg width="24" height="24" viewBox="0 0 24 24" fill="none" xmlns="http://www.w3.org/2000/svg">
<path d="M22.15 8.07C21.78 8.45 21.34 8.76 20.86 8.97C21.14 9.97 21.28 11.06 21.28 12.24C21.28 14.34 20.37 17.16 18.17 17.16C17.02 17.16 16.25 16.28 16.25 14.74V9.87C16.25 9.16 16.14 8.5 15.9 7.94C15.72 7.51 15.48 7.13 15.16 6.8C14.42 6.04 13.29 5.59 11.74 5.59C10.51 5.59 9.4 5.83 8.68 6.05C8.28 6.15 8.17 6.42 8.25 6.76L8.33 7.06C8.44 7.46 8.76 7.53 9.13 7.43C9.77 7.27 10.65 7.06 11.74 7.06C13.92 7.06 14.66 8.09 14.66 10.22V11.42H12.45C9.37 11.42 7.27 12.43 7.27 14.98C7.27 17.08 8.68 18.57 11.12 18.57C12.98 18.57 14.18 17.77 15.08 16.94C15.62 18.01 16.65 18.57 18.17 18.57C21.54 18.57 22.77 14.79 22.77 12.24C22.77 10.72 22.55 9.32 22.15 8.07ZM11.26 17.1C9.66 17.1 8.92 16.23 8.92 14.98C8.92 13.28 10.38 12.77 12.51 12.77H14.66V14.82C14.66 15.14 14.66 15.46 14.71 15.75C13.78 16.49 12.67 17.1 11.26 17.1ZM16.02 21.49C15.96 21.2 15.72 21.09 15.35 21.2C14.5 21.41 13.2 21.62 11.84 21.62C6.58 21.62 2.49 18.41 2.49 12.13C2.49 5.85 6.63 2.4 12.08 2.4C13.27 2.4 14.38 2.58 15.39 2.94C15.64 2.5 15.97 2.1 16.37 1.78C15.08 1.27 13.64 1 12.08 1C5.81 1 1 5.17 1 12.13C1 19.09 5.86 23.06 11.84 23.06C13.25 23.06 14.93 22.79 15.72 22.58C16.07 22.5 16.17 22.34 16.12 21.97L16.02 21.49Z" fill="black" stroke="black" stroke-width="0.1"/>
<path d="M19.08 7.62C20.4773 7.62 21.61 6.48728 21.61 5.09C21.61 3.69272 20.4773 2.56 19.08 2.56C17.6828 2.56 16.55 3.69272 16.55 5.09C16.55 6.48728 17.6828 7.62 19.08 7.62Z" fill="#D9D9D9" stroke="black" stroke-width="1.5" stroke-linecap="round" stroke-linejoin="round"/>
</svg>
