<svg width="24" height="24" viewBox="0 0 24 24" fill="none" xmlns="http://www.w3.org/2000/svg">
<path d="M11.9876 1.49609C13.4351 1.49609 14.7878 1.90297 15.9353 2.61058C15.5934 2.97585 15.329 3.41431 15.1682 3.89985C14.2457 3.32617 13.1554 2.99569 11.9876 2.99569C8.66297 2.99569 5.97997 5.66922 5.97949 8.99407V13.4025L4.63369 16.4958H19.3502L17.9958 13.4035L17.9959 9.00692L17.9921 8.78178C17.9884 8.67344 17.9818 8.56586 17.9725 8.45912C18.1435 8.48472 18.3185 8.49798 18.4966 8.49798C18.8347 8.49798 19.1616 8.45018 19.4709 8.36099C19.4816 8.48748 19.4892 8.6149 19.4936 8.74319L19.4978 8.99407V13.0899L20.8797 16.2451C20.9489 16.403 20.9846 16.5734 20.9846 16.7457C20.9846 17.4359 20.4241 17.9954 19.7329 17.9954L14.9917 17.9969C14.9917 19.6533 13.6467 20.9961 11.9876 20.9961C10.3878 20.9961 9.08004 19.7475 8.98867 18.1731L8.98312 17.9946L4.25202 17.9954C4.08044 17.9954 3.9107 17.9602 3.75334 17.892C3.11928 17.617 2.82853 16.8809 3.10394 16.2479L4.47746 13.0909V8.99396C4.47805 4.84029 7.8341 1.49609 11.9876 1.49609ZM13.4892 17.9946L10.4856 17.9969C10.4856 18.8251 11.1581 19.4965 11.9876 19.4965C12.7684 19.4965 13.41 18.9018 13.4828 18.1413L13.4892 17.9946Z" fill="black" stroke="black" stroke-width="0.1"/>
<circle cx="19.4514" cy="4.45142" r="2.45142" fill="#D9D9D9" stroke="black" stroke-width="1.5"/>
</svg>
