<svg width="24" height="24" viewBox="0 0 24 24" fill="none" xmlns="http://www.w3.org/2000/svg">
<g clip-path="url(#clip0_8020_33)">
<path d="M16.9867 20.7762C19.3066 20.7762 21.1873 18.8955 21.1873 16.5755C21.1873 14.2556 19.3066 12.3749 16.9867 12.3749C14.6667 12.3749 12.786 14.2556 12.786 16.5755C12.786 18.8955 14.6667 20.7762 16.9867 20.7762Z" fill="#D9D9D9" stroke="black" stroke-width="1.5" stroke-miterlimit="10"/>
<path d="M19.6435 20.2897L20.7196 19.1393L21.9108 20.2536C22.229 20.5513 22.2458 21.0566 21.9482 21.3747C21.6505 21.6929 21.1452 21.7098 20.827 21.4121L19.6359 20.2979L19.6435 20.2897Z" fill="black" stroke="black" stroke-width="1.5" stroke-miterlimit="10"/>
<path opacity="0.99" d="M2.7628 7.65985C2.7628 7.65985 4.04913 9.6496 6.89913 9.1496C10.5191 8.5096 8.25913 9.6396 9.92913 11.1196C10.6291 11.7396 8.94913 11.8396 8.95913 11.9096C9.03913 12.5396 10.2791 16.2396 8.85913 14.8296C7.29913 13.2796 7.26913 11.0996 5.69913 11.7896C4.12913 12.4796 2.10913 11.5996 2.10913 11.5996" stroke="black" stroke-width="1.5" stroke-miterlimit="10"/>
<path d="M10.1 2.14502C10.1 2.14502 10.02 5.03502 13.12 5.59502C14.11 5.77502 13.93 6.86502 15.37 8.19502C15.83 8.61502 20.48 7.77502 19.73 4.85502" stroke="black" stroke-width="1.5" stroke-miterlimit="10"/>
<path d="M14.11 22.175C13.45 22.305 12.79 22.365 12.12 22.365C6.43 22.365 1.75 17.685 1.75 12.005C1.75 6.32501 6.43 1.63501 12.12 1.63501C17.81 1.63501 22.49 6.31501 22.49 12.005C22.49 12.175 22.49 12.355 22.48 12.525" stroke="black" stroke-width="1.5" stroke-linecap="round" stroke-linejoin="round"/>
</g>
<defs>
<clipPath id="clip0_8020_33">
<rect width="22.23" height="22.23" fill="white" transform="translate(1 0.88501)"/>
</clipPath>
</defs>
</svg>
