<svg width="24" height="24" viewBox="0 0 24 24" fill="none" xmlns="http://www.w3.org/2000/svg">
<g clip-path="url(#clip0_8022_317)">
<path d="M21.99 22.41L19.24 21.59C18.63 21.91 17.94 22.09 17.2 22.09C14.77 22.09 12.8 20.11 12.8 17.68C12.8 15.25 14.77 13.28 17.2 13.28C19.63 13.28 21.6 15.25 21.6 17.68C21.6 18.4 21.43 19.08 21.12 19.68L21.99 22.41Z" fill="#D9D9D9" stroke="black" stroke-width="1.5" stroke-linecap="round" stroke-linejoin="round"/>
<path d="M14.31 8.39C14.31 11.79 11.56 14.54 8.15999 14.54C6.88999 14.54 5.69999 14.15 4.71999 13.48L1.73999 14.87L3.34999 12.22C2.51999 11.17 2.01999 9.83 2.01999 8.39C2.01999 5 4.77999 2.25 8.15999 2.25C11.54 2.25 14.31 5 14.31 8.39Z" stroke="black" stroke-width="1.5" stroke-linecap="round" stroke-linejoin="round"/>
<path d="M6.92995 9.47998H5.08995L4.78995 10.36H3.81995L5.47995 5.72998H6.55995L8.21995 10.36H7.23995L6.93995 9.47998H6.92995ZM6.66995 8.73998L5.99995 6.80998L5.32995 8.73998H6.66995Z" fill="black"/>
<path d="M8.81998 7.52995C8.96998 7.23995 9.16998 7.01995 9.41998 6.86995C9.66998 6.71995 9.95998 6.63995 10.27 6.63995C10.54 6.63995 10.78 6.69995 10.99 6.80995C11.2 6.91995 11.36 7.05995 11.48 7.22995V6.70995H12.41V10.38H11.48V9.83995C11.36 10.01 11.2 10.15 10.99 10.27C10.78 10.38 10.54 10.44 10.26 10.44C9.94998 10.44 9.66998 10.36 9.41998 10.2C9.16998 10.04 8.96998 9.81995 8.81998 9.52995C8.66998 9.23995 8.59998 8.90995 8.59998 8.52995C8.59998 8.14995 8.66998 7.82995 8.81998 7.53995V7.52995ZM11.35 7.94995C11.26 7.78995 11.14 7.66995 10.99 7.57995C10.84 7.48995 10.68 7.44995 10.51 7.44995C10.34 7.44995 10.18 7.48995 10.03 7.57995C9.87998 7.65995 9.76998 7.78995 9.67998 7.94995C9.58998 8.10995 9.53998 8.29995 9.53998 8.51995C9.53998 8.73995 9.58998 8.92995 9.67998 9.09995C9.76998 9.26995 9.88998 9.38995 10.04 9.47995C10.19 9.56995 10.35 9.60995 10.51 9.60995C10.67 9.60995 10.84 9.56995 10.99 9.47995C11.14 9.38995 11.26 9.26995 11.35 9.10995C11.44 8.94995 11.48 8.75995 11.48 8.52995C11.48 8.29995 11.44 8.10995 11.35 7.94995Z" fill="black"/>
<path d="M15.0299 18.32C15.284 18.32 15.4899 18.1141 15.4899 17.86C15.4899 17.606 15.284 17.4 15.0299 17.4C14.7759 17.4 14.5699 17.606 14.5699 17.86C14.5699 18.1141 14.7759 18.32 15.0299 18.32Z" fill="black"/>
<path d="M17.2 18.32C17.454 18.32 17.66 18.1141 17.66 17.86C17.66 17.606 17.454 17.4 17.2 17.4C16.9459 17.4 16.74 17.606 16.74 17.86C16.74 18.1141 16.9459 18.32 17.2 18.32Z" fill="black"/>
<path d="M19.36 18.32C19.6141 18.32 19.82 18.1141 19.82 17.86C19.82 17.606 19.6141 17.4 19.36 17.4C19.106 17.4 18.9 17.606 18.9 17.86C18.9 18.1141 19.106 18.32 19.36 18.32Z" fill="black"/>
</g>
<defs>
<clipPath id="clip0_8022_317">
<rect width="21.74" height="21.66" fill="white" transform="translate(1 1.5)"/>
</clipPath>
</defs>
</svg>
