<svg width="24" height="24" viewBox="0 0 24 24" fill="none" xmlns="http://www.w3.org/2000/svg">
<path d="M3.75 2.75V21.47H20.55" stroke="black" stroke-width="1.5" stroke-linecap="round" stroke-linejoin="round"/>
<path d="M6.93994 18.23L11.2899 13.84L14.6399 16.04L18.4999 10.9" stroke="black" stroke-width="1.5" stroke-linecap="round" stroke-linejoin="round"/>
<path d="M16.5399 7.13002C15.6699 8.89002 13.8499 10.11 11.7399 10.11C9.62994 10.11 7.80994 8.89002 6.93994 7.13002C7.80994 5.36002 9.62994 4.15002 11.7399 4.15002C13.8499 4.15002 15.6799 5.37002 16.5399 7.13002Z" fill="#D9D9D9" stroke="black" stroke-width="1.5" stroke-linecap="round" stroke-linejoin="round"/>
<path d="M11.74 8.38C12.4303 8.38 12.99 7.82036 12.99 7.13C12.99 6.43965 12.4303 5.88 11.74 5.88C11.0496 5.88 10.49 6.43965 10.49 7.13C10.49 7.82036 11.0496 8.38 11.74 8.38Z" fill="black"/>
<path d="M11.74 4.15V2.75" stroke="black" stroke-width="1.5" stroke-linecap="round" stroke-linejoin="round"/>
<path d="M8.09995 5.21002L7.19995 4.15002" stroke="black" stroke-width="1.5" stroke-linecap="round" stroke-linejoin="round"/>
</svg>
