<svg width="24" height="24" viewBox="0 0 24 24" fill="none" xmlns="http://www.w3.org/2000/svg">
<g clip-path="url(#clip0_8021_282)">
<path d="M22.24 13.5C20.38 17.26 16.5 19.85 11.99 19.85C7.48 19.85 3.61 17.25 1.75 13.5C3.6 9.73002 7.49 7.14001 12 7.14001C16.51 7.14001 20.4 9.73002 22.25 13.5H22.24Z" stroke="black" stroke-width="1.5" stroke-linecap="round" stroke-linejoin="round"/>
<path d="M12 16.17C13.4746 16.17 14.67 14.9746 14.67 13.5C14.67 12.0254 13.4746 10.83 12 10.83C10.5254 10.83 9.32996 12.0254 9.32996 13.5C9.32996 14.9746 10.5254 16.17 12 16.17Z" fill="#D9D9D9" stroke="black" stroke-width="1.5" stroke-linecap="round" stroke-linejoin="round"/>
<path d="M12 7.13002V4.15002" stroke="black" stroke-width="1.5" stroke-linecap="round" stroke-linejoin="round"/>
<path d="M4.24006 9.41001L2.31006 7.13" stroke="black" stroke-width="1.5" stroke-linecap="round" stroke-linejoin="round"/>
</g>
<defs>
<clipPath id="clip0_8021_282">
<rect width="21.99" height="17.2" fill="white" transform="translate(1 3.40002)"/>
</clipPath>
</defs>
</svg>
