<svg width="47" height="39" viewBox="0 0 47 39" fill="none" xmlns="http://www.w3.org/2000/svg">
<path d="M3.24335 4.02405H8.33891V38.06H3.24335C1.45159 38.06 0 36.6085 0 34.8167V7.26737C0 5.4756 1.45159 4.02405 3.24335 4.02405Z" fill="#CAB8FF"/>
<path d="M8.34644 4.02405H39.1391C40.9308 4.02405 42.3824 5.4756 42.3824 7.26737V34.8167C42.3824 36.6085 40.9308 38.06 39.1391 38.06H8.34644V4.02405Z" fill="#CAB8FF"/>
<path d="M6.26728 1H11.3628V35.036H6.26728C4.47551 35.036 3.02393 33.5844 3.02393 31.7926V4.24332C3.02393 2.45156 4.47551 1 6.26728 1Z" fill="url(#paint0_linear_8170_592)" stroke="black" stroke-width="1.5" stroke-miterlimit="10"/>
<path d="M11.3704 1H42.163C43.9548 1 45.4063 2.45156 45.4063 4.24332V31.7926C45.4063 33.5844 43.9548 35.036 42.163 35.036H11.3704V1Z" fill="white" stroke="black" stroke-width="1.5" stroke-miterlimit="10"/>
<path d="M31.0422 4.28113H15.0751C14.6576 4.28113 14.3191 4.61961 14.3191 5.03715V14.7066C14.3191 15.1242 14.6576 15.4626 15.0751 15.4626H31.0422C31.4598 15.4626 31.7982 15.1242 31.7982 14.7066V5.03715C31.7982 4.61961 31.4598 4.28113 31.0422 4.28113Z" fill="white" stroke="black" stroke-width="1.5" stroke-linecap="round" stroke-linejoin="round"/>
<path d="M21.0099 19.6357H15.0751C14.6576 19.6357 14.3191 19.9742 14.3191 20.3918V31.3389C14.3191 31.7565 14.6576 32.0949 15.0751 32.0949H21.0099C21.4274 32.0949 21.7659 31.7565 21.7659 31.3389V20.3918C21.7659 19.9742 21.4274 19.6357 21.0099 19.6357Z" fill="white" stroke="black" stroke-width="1.5" stroke-linecap="round" stroke-linejoin="round"/>
<path d="M31.4051 19.6357H25.4704C25.0528 19.6357 24.7144 19.9742 24.7144 20.3918V31.3389C24.7144 31.7565 25.0528 32.0949 25.4704 32.0949H31.4051C31.8227 32.0949 32.1612 31.7565 32.1612 31.3389V20.3918C32.1612 19.9742 31.8227 19.6357 31.4051 19.6357Z" fill="white" stroke="black" stroke-width="1.5" stroke-linecap="round" stroke-linejoin="round"/>
<path d="M41.8004 19.6357H35.8656C35.4481 19.6357 35.1096 19.9742 35.1096 20.3918V31.3389C35.1096 31.7565 35.4481 32.0949 35.8656 32.0949H41.8004C42.2179 32.0949 42.5564 31.7565 42.5564 31.3389V20.3918C42.5564 19.9742 42.2179 19.6357 41.8004 19.6357Z" fill="white" stroke="black" stroke-width="1.5" stroke-linecap="round" stroke-linejoin="round"/>
<path d="M41.8004 4.28113H35.8656C35.4481 4.28113 35.1096 4.61961 35.1096 5.03715V14.7066C35.1096 15.1242 35.4481 15.4626 35.8656 15.4626H41.8004C42.2179 15.4626 42.5564 15.1242 42.5564 14.7066V5.03715C42.5564 4.61961 42.2179 4.28113 41.8004 4.28113Z" fill="white" stroke="black" stroke-width="1.5" stroke-linecap="round" stroke-linejoin="round"/>
<defs>
<linearGradient id="paint0_linear_8170_592" x1="6.94767" y1="0.319583" x2="7.47689" y2="34.0909" gradientUnits="userSpaceOnUse">
<stop stop-color="#CBD1FF"/>
<stop offset="0.55" stop-color="#F7B363"/>
<stop offset="1" stop-color="#771BED"/>
</linearGradient>
</defs>
</svg>
