<svg width="45" height="54" viewBox="0 0 45 54" fill="none" xmlns="http://www.w3.org/2000/svg">
<path d="M22.2233 6.54997C22.2233 5.67997 21.5134 4.96997 20.6434 4.96997H1.58338C0.173383 4.96997 -0.526612 6.66997 0.463388 7.65997L11.9133 19.11C12.7933 19.99 13.2833 21.18 13.2833 22.41V48.15C13.2833 49.19 14.2634 49.94 15.2734 49.67L20.0933 46.43L18.4733 35.09L22.2333 6.53997L22.2233 6.54997Z" fill="#CAB8FF"/>
<path d="M43.6935 4.08997L28.1835 19.6V30.75C27.9635 30.82 27.7435 30.9 27.5135 30.98V36.5C25.8535 35.28 22.8635 37.35 20.4035 40.26C20.3635 40.63 20.3435 41.01 20.3435 41.38V41.4C20.3435 41.76 20.3636 42.1 20.3936 42.45C20.4636 43.25 20.5135 44.25 20.7535 45C20.8235 45.23 20.9035 45.46 21.0035 45.69L20.0836 46.45L17.6235 48.82L17.1035 49.33V19.6L1.59351 4.08997H43.6835H43.6935Z" fill="white"/>
<path d="M21.3035 46.34L20.4134 47.09L17.8235 49.57L17.5835 49.8C17.5035 49.88 17.4035 49.93 17.3035 49.96C17.2535 49.98 17.1935 49.99 17.1335 49.99C17.0435 49.99 16.9535 49.97 16.8635 49.94C16.6235 49.84 16.4635 49.59 16.4635 49.33V19.88L1.15343 4.56999C0.883428 4.29999 0.883428 3.88999 1.15343 3.62999C1.41343 3.35999 1.83343 3.35999 2.09343 3.62999L17.6034 19.14C17.7234 19.26 17.8035 19.43 17.8035 19.61V47.77L19.8534 45.8L20.7934 45C20.8634 45.23 20.9434 45.46 21.0434 45.69C21.1234 45.91 21.2235 46.13 21.3235 46.34H21.3035Z" fill="black"/>
<path d="M44.1634 4.55998L28.8534 19.87V30.55C28.6334 30.6 28.4134 30.67 28.1834 30.74C27.9634 30.81 27.7434 30.89 27.5134 30.97V19.59C27.5134 19.41 27.5834 19.24 27.7134 19.12L42.7434 4.08998L43.2134 3.61998C43.4834 3.34998 43.8934 3.34998 44.1534 3.61998C44.4234 3.87998 44.4234 4.29998 44.1534 4.55998H44.1634Z" fill="black"/>
<path d="M22.4934 47.9299C22.1634 48.2599 21.8234 48.5599 21.5034 48.8299C19.8534 50.2199 18.3333 50.7999 17.5333 50.2299C17.4333 50.1599 17.3533 50.0699 17.2933 49.9699C16.9533 49.4999 16.9034 48.6899 17.1234 47.6899C17.2434 47.0899 17.4833 46.3999 17.7933 45.6699C18.1433 44.8599 18.6033 43.9999 19.1533 43.1299C19.4133 42.7199 19.6833 42.3199 19.9833 41.9099C20.1033 41.7399 20.2334 41.5699 20.3634 41.4099C20.3634 41.7699 20.3833 42.0999 20.4133 42.4499C20.4833 43.2499 20.6534 44.0199 20.8934 44.7699C20.9634 44.9999 21.0434 45.2299 21.1434 45.4599C21.2234 45.6799 21.3233 45.8999 21.4233 46.1099C21.6233 46.5499 21.8533 46.9599 22.1033 47.3599C22.2233 47.5599 22.3533 47.7399 22.4833 47.9199L22.4934 47.9299Z" fill="white"/>
<path d="M22.4932 47.93C22.3632 47.75 22.2332 47.57 22.1132 47.37C21.7732 47.72 21.4432 48.02 21.1232 48.29C19.6132 49.56 18.3832 50.02 17.9332 49.69C17.8932 49.66 17.8632 49.63 17.8232 49.58C17.7032 49.42 17.6432 49.16 17.6432 48.82C17.6432 48.52 17.6832 48.15 17.7832 47.73C18.0032 46.76 18.5032 45.51 19.3232 44.11C19.6332 43.58 20.0032 43.02 20.4132 42.45C20.3732 42.1 20.3632 41.77 20.3632 41.41V41.38C20.3632 41.01 20.3832 40.63 20.4232 40.26C20.0832 40.66 19.7432 41.09 19.4332 41.51C19.3032 41.7 19.1632 41.88 19.0432 42.07C18.5832 42.75 18.1532 43.44 17.7932 44.13C17.5332 44.6 17.3132 45.07 17.1232 45.53C16.8232 46.24 16.5932 46.93 16.4532 47.56C16.3632 48 16.3132 48.41 16.3132 48.79C16.3132 49.65 16.5732 50.35 17.1532 50.76C17.4932 51 17.8732 51.12 18.3032 51.12C19.3532 51.12 20.6332 50.44 21.9232 49.36C22.2532 49.09 22.5832 48.79 22.9132 48.46C22.7732 48.28 22.6332 48.1 22.5032 47.93H22.4932Z" fill="black"/>
<path d="M33.4934 52.4C39.0273 52.4 43.5134 47.9139 43.5134 42.38C43.5134 36.8461 39.0273 32.36 33.4934 32.36C27.9595 32.36 23.4734 36.8461 23.4734 42.38C23.4734 47.9139 27.9595 52.4 33.4934 52.4Z" fill="url(#paint0_linear_8170_591)" stroke="black" stroke-width="1.5" stroke-miterlimit="10"/>
<path d="M22.6533 6.56C34.2789 6.56 43.7033 5.31535 43.7033 3.78C43.7033 2.24465 34.2789 1 22.6533 1C11.0277 1 1.60327 2.24465 1.60327 3.78C1.60327 5.31535 11.0277 6.56 22.6533 6.56Z" fill="white" stroke="black" stroke-width="1.5" stroke-linecap="round" stroke-linejoin="round"/>
<path d="M36.5632 48.2V40.04" stroke="black" stroke-width="1.5" stroke-linecap="round" stroke-linejoin="round"/>
<path d="M33.2034 48.2002V42.6802" stroke="black" stroke-width="1.5" stroke-linecap="round" stroke-linejoin="round"/>
<path d="M29.8533 48.1999V44.6499" stroke="black" stroke-width="1.5" stroke-linecap="round" stroke-linejoin="round"/>
<path d="M28.9834 41.8C28.9834 41.8 34.4234 41.01 36.3534 35.8" stroke="black" stroke-width="1.5" stroke-linecap="round" stroke-linejoin="round"/>
<defs>
<linearGradient id="paint0_linear_8170_591" x1="23.4634" y1="42.38" x2="43.5134" y2="42.38" gradientUnits="userSpaceOnUse">
<stop stop-color="#CBD1FF"/>
<stop offset="0.55" stop-color="#F7B363"/>
<stop offset="1" stop-color="#771BED"/>
</linearGradient>
</defs>
</svg>
