<svg width="52" height="57" viewBox="0 0 52 57" fill="none" xmlns="http://www.w3.org/2000/svg">
<path d="M7.10626 13.4538C6.10626 10.8438 4.16627 8.87377 1.17627 7.59377C0.93627 7.49377 0.94627 7.17378 1.17627 7.07378C3.94627 5.96378 5.97625 4.05377 7.09625 1.18377C7.18625 0.943769 7.51627 0.933769 7.61627 1.18377C9.09627 4.73377 10.9563 5.93376 13.5363 7.05376C13.7663 7.15376 13.7562 7.47378 13.5262 7.57378C10.5962 8.75378 8.76622 10.8338 7.62622 13.4738C7.52622 13.7138 7.19626 13.7038 7.10626 13.4638V13.4538Z" fill="url(#paint0_linear_8170_613)" stroke="black" stroke-width="1.5" stroke-miterlimit="10"/>
<path d="M26.0764 56.0339C38.0941 56.0339 47.8364 46.2916 47.8364 34.2739C47.8364 22.2562 38.0941 12.5139 26.0764 12.5139C14.0587 12.5139 4.31641 22.2562 4.31641 34.2739C4.31641 46.2916 14.0587 56.0339 26.0764 56.0339Z" fill="#CAB8FF"/>
<path d="M29.0764 53.0339C41.0941 53.0339 50.8364 43.2916 50.8364 31.2739C50.8364 19.2562 41.0941 9.51392 29.0764 9.51392C17.0587 9.51392 7.31641 19.2562 7.31641 31.2739C7.31641 43.2916 17.0587 53.0339 29.0764 53.0339Z" fill="white" stroke="black" stroke-width="1.5" stroke-miterlimit="10" stroke-linecap="round"/>
<path d="M29.0764 45.0938C36.7089 45.0938 42.8964 38.9064 42.8964 31.2738C42.8964 23.6413 36.7089 17.4539 29.0764 17.4539C21.4438 17.4539 15.2563 23.6413 15.2563 31.2738C15.2563 38.9064 21.4438 45.0938 29.0764 45.0938Z" fill="white" stroke="black" stroke-width="1.5" stroke-miterlimit="10" stroke-linecap="round"/>
<path d="M29.0763 38.8838C33.2792 38.8838 36.6863 35.4767 36.6863 31.2738C36.6863 27.0709 33.2792 23.6638 29.0763 23.6638C24.8734 23.6638 21.4663 27.0709 21.4663 31.2738C21.4663 35.4767 24.8734 38.8838 29.0763 38.8838Z" fill="white" stroke="black" stroke-width="1.5" stroke-miterlimit="10" stroke-linecap="round"/>
<path d="M29.0762 28.684V31.274L49.1462 14.614" fill="white"/>
<path d="M29.0762 28.684V31.274L49.1462 14.614" stroke="black" stroke-width="1.5" stroke-linecap="round" stroke-linejoin="round"/>
<path d="M31.3362 31.2739H29.0762" stroke="black" stroke-width="1.5" stroke-miterlimit="10" stroke-linecap="round"/>
<defs>
<linearGradient id="paint0_linear_8170_613" x1="5.43626" y1="12.1138" x2="8.55627" y2="4.30377" gradientUnits="userSpaceOnUse">
<stop stop-color="#CBD1FF"/>
<stop offset="0.55" stop-color="#F7B363"/>
<stop offset="1" stop-color="#771BED"/>
</linearGradient>
</defs>
</svg>
