<svg width="58" height="57" viewBox="0 0 58 57" fill="none" xmlns="http://www.w3.org/2000/svg">
<path d="M11.07 25.14C17.1838 25.14 22.14 20.1838 22.14 14.07C22.14 7.95622 17.1838 3 11.07 3C4.95622 3 0 7.95622 0 14.07C0 20.1838 4.95622 25.14 11.07 25.14Z" fill="#CAB8FF"/>
<path d="M43.2202 25.14C49.3339 25.14 54.2902 20.1838 54.2902 14.07C54.2902 7.95622 49.3339 3 43.2202 3C37.1064 3 32.1501 7.95622 32.1501 14.07C32.1501 20.1838 37.1064 25.14 43.2202 25.14Z" fill="#CAB8FF"/>
<path d="M11.07 56.1503C17.1838 56.1503 22.14 51.1941 22.14 45.0803C22.14 38.9665 17.1838 34.0103 11.07 34.0103C4.95622 34.0103 0 38.9665 0 45.0803C0 51.1941 4.95622 56.1503 11.07 56.1503Z" fill="#CAB8FF"/>
<path d="M43.2202 56.1503C49.3339 56.1503 54.2902 51.1941 54.2902 45.0803C54.2902 38.9665 49.3339 34.0103 43.2202 34.0103C37.1064 34.0103 32.1501 38.9665 32.1501 45.0803C32.1501 51.1941 37.1064 56.1503 43.2202 56.1503Z" fill="#CAB8FF"/>
<path d="M13.07 23.14C19.1838 23.14 24.14 18.1838 24.14 12.07C24.14 5.95622 19.1838 1 13.07 1C6.95622 1 2 5.95622 2 12.07C2 18.1838 6.95622 23.14 13.07 23.14Z" fill="white" stroke="black" stroke-width="1.5" stroke-miterlimit="10"/>
<path d="M45.2202 23.14C51.3339 23.14 56.2902 18.1838 56.2902 12.07C56.2902 5.95622 51.3339 1 45.2202 1C39.1064 1 34.1501 5.95622 34.1501 12.07C34.1501 18.1838 39.1064 23.14 45.2202 23.14Z" fill="white" stroke="black" stroke-width="1.5" stroke-miterlimit="10"/>
<path d="M13.07 54.1503C19.1838 54.1503 24.14 49.1941 24.14 43.0803C24.14 36.9665 19.1838 32.0103 13.07 32.0103C6.95622 32.0103 2 36.9665 2 43.0803C2 49.1941 6.95622 54.1503 13.07 54.1503Z" fill="white" stroke="black" stroke-width="1.5" stroke-miterlimit="10"/>
<path d="M45.2202 54.1503C51.3339 54.1503 56.2902 49.1941 56.2902 43.0803C56.2902 36.9665 51.3339 32.0103 45.2202 32.0103C39.1064 32.0103 34.1501 36.9665 34.1501 43.0803C34.1501 49.1941 39.1064 54.1503 45.2202 54.1503Z" fill="white" stroke="black" stroke-width="1.5" stroke-miterlimit="10"/>
<path d="M12.9401 12.3401H13.2001C15.9001 12.3401 18.0901 14.5301 18.0901 17.2301C18.0901 17.3601 17.9801 17.4701 17.8501 17.4701H8.30005C8.17005 17.4701 8.06006 17.3601 8.06006 17.2301C8.06006 14.5301 10.2501 12.3401 12.9501 12.3401H12.9401Z" stroke="black" stroke-width="1.5" stroke-miterlimit="10"/>
<path d="M13.07 10.5903C14.6054 10.5903 15.85 9.34562 15.85 7.81027C15.85 6.27492 14.6054 5.03027 13.07 5.03027C11.5347 5.03027 10.29 6.27492 10.29 7.81027C10.29 9.34562 11.5347 10.5903 13.07 10.5903Z" fill="black"/>
<path d="M45.1002 12.3401H45.3602C48.0602 12.3401 50.2502 14.5301 50.2502 17.2301C50.2502 17.3601 50.1402 17.4701 50.0102 17.4701H40.4602C40.3302 17.4701 40.2202 17.3601 40.2202 17.2301C40.2202 14.5301 42.4102 12.3401 45.1102 12.3401H45.1002Z" stroke="black" stroke-width="1.5" stroke-miterlimit="10"/>
<path d="M45.22 10.5903C46.7553 10.5903 47.9999 9.34562 47.9999 7.81027C47.9999 6.27492 46.7553 5.03027 45.22 5.03027C43.6846 5.03027 42.4399 6.27492 42.4399 7.81027C42.4399 9.34562 43.6846 10.5903 45.22 10.5903Z" fill="url(#paint0_linear_8170_615)" stroke="black" stroke-width="1.5" stroke-miterlimit="10"/>
<path d="M12.9401 43.3501H13.2001C15.9001 43.3501 18.0901 45.5401 18.0901 48.2401C18.0901 48.3701 17.9801 48.4801 17.8501 48.4801H8.30005C8.17005 48.4801 8.06006 48.3701 8.06006 48.2401C8.06006 45.5401 10.2501 43.3501 12.9501 43.3501H12.9401Z" stroke="black" stroke-width="1.5" stroke-miterlimit="10"/>
<path d="M13.07 41.6C14.6054 41.6 15.85 40.3554 15.85 38.82C15.85 37.2847 14.6054 36.04 13.07 36.04C11.5347 36.04 10.29 37.2847 10.29 38.82C10.29 40.3554 11.5347 41.6 13.07 41.6Z" fill="url(#paint1_linear_8170_615)" stroke="black" stroke-width="1.5" stroke-miterlimit="10"/>
<path d="M45.1002 43.3501H45.3602C48.0602 43.3501 50.2502 45.5401 50.2502 48.2401C50.2502 48.3701 50.1402 48.4801 50.0102 48.4801H40.4602C40.3302 48.4801 40.2202 48.3701 40.2202 48.2401C40.2202 45.5401 42.4102 43.3501 45.1102 43.3501H45.1002Z" stroke="black" stroke-width="1.5" stroke-miterlimit="10"/>
<path d="M45.22 41.6C46.7553 41.6 47.9999 40.3554 47.9999 38.82C47.9999 37.2847 46.7553 36.04 45.22 36.04C43.6846 36.04 42.4399 37.2847 42.4399 38.82C42.4399 40.3554 43.6846 41.6 45.22 41.6Z" fill="black"/>
<path d="M24.1401 10.5901H34.1501" stroke="black" stroke-width="1.5" stroke-miterlimit="10"/>
<path d="M13.0701 23.1401V32.0101" stroke="black" stroke-width="1.5" stroke-miterlimit="10"/>
<path d="M24.1401 43.0801H34.1501" stroke="black" stroke-width="1.5" stroke-miterlimit="10"/>
<path d="M45.2202 32.0101V23.1401" stroke="black" stroke-width="1.5" stroke-miterlimit="10"/>
<defs>
<linearGradient id="paint0_linear_8170_615" x1="42.4399" y1="7.81027" x2="48.0099" y2="7.81027" gradientUnits="userSpaceOnUse">
<stop stop-color="#CBD1FF"/>
<stop offset="0.55" stop-color="#F7B363"/>
<stop offset="1" stop-color="#771BED"/>
</linearGradient>
<linearGradient id="paint1_linear_8170_615" x1="10.28" y1="38.82" x2="15.85" y2="38.82" gradientUnits="userSpaceOnUse">
<stop stop-color="#CBD1FF"/>
<stop offset="0.55" stop-color="#F7B363"/>
<stop offset="1" stop-color="#771BED"/>
</linearGradient>
</defs>
</svg>
