<svg width="60" height="59" viewBox="0 0 60 59" fill="none" xmlns="http://www.w3.org/2000/svg">
<path d="M23.3901 19.7499V14.6699C23.3901 13.0099 22.0501 11.6699 20.3901 11.6699H3C1.35 11.6699 0 13.0099 0 14.6699V32.0499C0 33.7099 1.35 35.0499 3 35.0499H8.13C8.4 33.3299 9.89001 32.0099 11.7 32.0099C13.51 32.0099 14.9901 33.3299 15.2601 35.0499H20.3901C22.0501 35.0499 23.3901 33.7099 23.3901 32.0499V26.9699" fill="#CAB8FF"/>
<path d="M23.3901 26.88C25.3301 26.88 26.91 25.3 26.91 23.36C26.91 21.42 25.3301 19.84 23.3901 19.84" fill="#CAB8FF"/>
<path d="M8.09003 35.14H3.01001C1.35001 35.14 0.0100098 36.48 0.0100098 38.14V55.53C0.0100098 57.18 1.35001 58.53 3.01001 58.53H20.3901C22.0501 58.53 23.3901 57.18 23.3901 55.53V50.4C21.6701 50.13 20.35 48.64 20.35 46.83C20.35 45.02 21.6701 43.54 23.3901 43.27V38.14C23.3901 36.48 22.0501 35.14 20.3901 35.14H15.31" fill="#CAB8FF"/>
<path d="M15.22 35.14C15.22 33.2 13.64 31.62 11.7 31.62C9.75995 31.62 8.17993 33.2 8.17993 35.14" fill="#CAB8FF"/>
<path d="M23.76 50.4499V55.5299C23.76 57.1899 25.1 58.5299 26.76 58.5299H44.1499C45.7999 58.5299 47.1499 57.1899 47.1499 55.5299V38.1499C47.1499 36.4899 45.7999 35.1499 44.1499 35.1499H39.02C38.75 36.8699 37.26 38.1899 35.45 38.1899C33.64 38.1899 32.16 36.8699 31.89 35.1499H26.76C25.1 35.1499 23.76 36.4899 23.76 38.1499V43.2299" fill="#CAB8FF"/>
<path d="M23.76 43.3199C21.82 43.3199 20.24 44.8999 20.24 46.8399C20.24 48.7799 21.82 50.3599 23.76 50.3599" fill="#CAB8FF"/>
<path d="M27.1401 16.56V11.48C27.1401 9.81998 25.8001 8.47998 24.1401 8.47998H6.75C5.1 8.47998 3.75 9.81998 3.75 11.48V28.86C3.75 30.52 5.1 31.86 6.75 31.86H11.88C12.15 30.14 13.64 28.82 15.45 28.82C17.26 28.82 18.7401 30.14 19.0101 31.86H24.1401C25.8001 31.86 27.1401 30.52 27.1401 28.86V23.78" fill="white"/>
<path d="M27.1401 16.56V11.48C27.1401 9.81998 25.8001 8.47998 24.1401 8.47998H6.75C5.1 8.47998 3.75 9.81998 3.75 11.48V28.86C3.75 30.52 5.1 31.86 6.75 31.86H11.88C12.15 30.14 13.64 28.82 15.45 28.82C17.26 28.82 18.7401 30.14 19.0101 31.86H24.1401C25.8001 31.86 27.1401 30.52 27.1401 28.86V23.78" stroke="black" stroke-width="1.5" stroke-linecap="round" stroke-linejoin="round"/>
<path d="M27.1401 23.69C29.0801 23.69 30.66 22.11 30.66 20.17C30.66 18.23 29.0801 16.65 27.1401 16.65" fill="white"/>
<path d="M27.1401 23.69C29.0801 23.69 30.66 22.11 30.66 20.17C30.66 18.23 29.0801 16.65 27.1401 16.65" stroke="black" stroke-width="1.5" stroke-linecap="round" stroke-linejoin="round"/>
<path d="M11.84 31.96H6.76001C5.10001 31.96 3.76001 33.3 3.76001 34.96V52.35C3.76001 54 5.10001 55.35 6.76001 55.35H24.1401C25.8001 55.35 27.1401 54 27.1401 52.35V47.22C25.4201 46.95 24.1 45.46 24.1 43.65C24.1 41.84 25.4201 40.36 27.1401 40.09V34.96C27.1401 33.3 25.8001 31.96 24.1401 31.96H19.06" fill="white"/>
<path d="M11.84 31.96H6.76001C5.10001 31.96 3.76001 33.3 3.76001 34.96V52.35C3.76001 54 5.10001 55.35 6.76001 55.35H24.1401C25.8001 55.35 27.1401 54 27.1401 52.35V47.22C25.4201 46.95 24.1 45.46 24.1 43.65C24.1 41.84 25.4201 40.36 27.1401 40.09V34.96C27.1401 33.3 25.8001 31.96 24.1401 31.96H19.06" stroke="black" stroke-width="1.5" stroke-linecap="round" stroke-linejoin="round"/>
<path d="M18.97 31.9599C18.97 30.0199 17.39 28.4399 15.45 28.4399C13.51 28.4399 11.9299 30.0199 11.9299 31.9599" fill="white"/>
<path d="M18.97 31.9599C18.97 30.0199 17.39 28.4399 15.45 28.4399C13.51 28.4399 11.9299 30.0199 11.9299 31.9599" stroke="black" stroke-width="1.5" stroke-linecap="round" stroke-linejoin="round"/>
<path d="M27.5 47.26V52.34C27.5 54 28.84 55.34 30.5 55.34H47.89C49.54 55.34 50.89 54 50.89 52.34V34.96C50.89 33.3 49.54 31.96 47.89 31.96H42.76C42.49 33.68 40.9999 35 39.1899 35C37.3799 35 35.9 33.68 35.63 31.96H30.5C28.84 31.96 27.5 33.3 27.5 34.96V40.04" fill="white"/>
<path d="M27.5 47.26V52.34C27.5 54 28.84 55.34 30.5 55.34H47.89C49.54 55.34 50.89 54 50.89 52.34V34.96C50.89 33.3 49.54 31.96 47.89 31.96H42.76C42.49 33.68 40.9999 35 39.1899 35C37.3799 35 35.9 33.68 35.63 31.96H30.5C28.84 31.96 27.5 33.3 27.5 34.96V40.04" stroke="black" stroke-width="1.5" stroke-linecap="round" stroke-linejoin="round"/>
<path d="M27.5 40.13C25.56 40.13 23.98 41.71 23.98 43.65C23.98 45.59 25.56 47.17 27.5 47.17" fill="white"/>
<path d="M27.5 40.13C25.56 40.13 23.98 41.71 23.98 43.65C23.98 45.59 25.56 47.17 27.5 47.17" stroke="black" stroke-width="1.5" stroke-linecap="round" stroke-linejoin="round"/>
<path d="M58.83 4V21.39C58.83 23.04 57.48 24.39 55.83 24.39H50.4199C50.4199 26.2 48.95 27.67 47.13 27.67C45.31 27.67 43.85 26.2 43.85 24.39H38.4399C36.7799 24.39 35.4399 23.04 35.4399 21.39V16.77C35.2899 16.8 35.14 16.81 34.99 16.81C33.18 16.81 31.71 15.34 31.71 13.53C31.71 11.72 33.18 10.24 34.99 10.24C35.14 10.24 35.2899 10.25 35.4399 10.28V4C35.4399 2.34 36.7799 1 38.4399 1H55.83C57.48 1 58.83 2.34 58.83 4Z" fill="url(#paint0_linear_8170_587)" stroke="black" stroke-width="1.5" stroke-linecap="round" stroke-linejoin="round"/>
<defs>
<linearGradient id="paint0_linear_8170_587" x1="35.41" y1="23.98" x2="57.97" y2="2.26" gradientUnits="userSpaceOnUse">
<stop stop-color="#CBD1FF"/>
<stop offset="0.44" stop-color="#F7B363"/>
<stop offset="1" stop-color="#771BED"/>
</linearGradient>
</defs>
</svg>
