<svg width="45" height="54" viewBox="0 0 45 54" fill="none" xmlns="http://www.w3.org/2000/svg">
<path d="M22.2234 6.55009C22.2234 5.68009 21.5134 4.97009 20.6434 4.97009H1.58338C0.173383 4.97009 -0.526612 6.67009 0.463388 7.66009L11.9134 19.1101C12.7934 19.9901 13.2834 21.1801 13.2834 22.4101V48.1501C13.2834 49.1901 14.2634 49.9401 15.2734 49.6701L20.0934 46.4301L18.4734 35.0901L22.2334 6.54009L22.2234 6.55009Z" fill="#CAB8FF"/>
<path d="M43.6935 4.09009L28.1835 19.6001V30.7501C27.9635 30.8201 27.7435 30.9001 27.5135 30.9801V36.5001C25.8535 35.2801 22.8635 37.3501 20.4035 40.2601C20.3635 40.6301 20.3435 41.0101 20.3435 41.3801V41.4001C20.3435 41.7601 20.3635 42.1001 20.3935 42.4501C20.4635 43.2501 20.5135 44.2501 20.7535 45.0001C20.8235 45.2301 20.9035 45.4601 21.0035 45.6901L20.0835 46.4501L17.6235 48.8201L17.1035 49.3301V19.6001L1.59351 4.09009H43.6835H43.6935Z" fill="white"/>
<path d="M21.2934 46.3401L20.4034 47.0901L17.8135 49.5701L17.5734 49.8001C17.4934 49.8801 17.3934 49.9301 17.2934 49.9601C17.2434 49.9801 17.1835 49.9901 17.1235 49.9901C17.0335 49.9901 16.9434 49.9701 16.8534 49.9401C16.6134 49.8401 16.4534 49.5901 16.4534 49.3301V19.8801L1.14342 4.57011C0.873418 4.30011 0.873418 3.89011 1.14342 3.63011C1.40342 3.36011 1.82342 3.36011 2.08342 3.63011L17.5934 19.1401C17.7134 19.2601 17.7934 19.4301 17.7934 19.6101V47.7701L19.8434 45.8001L20.7834 45.0001C20.8534 45.2301 20.9334 45.4601 21.0334 45.6901C21.1134 45.9101 21.2135 46.1301 21.3135 46.3401H21.2934Z" fill="black"/>
<path d="M44.1635 4.5601L28.8535 19.8701V30.5501C28.6335 30.6001 28.4135 30.6701 28.1835 30.7401C27.9635 30.8101 27.7434 30.8901 27.5134 30.9701V19.5901C27.5134 19.4101 27.5834 19.2401 27.7134 19.1201L42.7435 4.0901L43.2134 3.6201C43.4834 3.3501 43.8934 3.3501 44.1534 3.6201C44.4234 3.8801 44.4234 4.3001 44.1534 4.5601H44.1635Z" fill="black"/>
<path d="M22.4836 47.93C22.1536 48.26 21.8136 48.56 21.4936 48.83C19.8436 50.22 18.3236 50.8 17.5236 50.23C17.4236 50.16 17.3436 50.07 17.2836 49.97C16.9436 49.5 16.8936 48.69 17.1136 47.69C17.2336 47.09 17.4736 46.4 17.7836 45.67C18.1336 44.86 18.5936 44 19.1436 43.13C19.4036 42.72 19.6736 42.32 19.9736 41.91C20.0936 41.74 20.2236 41.57 20.3536 41.41C20.3536 41.77 20.3736 42.1 20.4036 42.45C20.4736 43.25 20.6436 44.02 20.8836 44.77C20.9536 45 21.0336 45.23 21.1336 45.46C21.2136 45.68 21.3136 45.9 21.4136 46.11C21.6136 46.55 21.8436 46.96 22.0936 47.36C22.2136 47.56 22.3436 47.74 22.4736 47.92L22.4836 47.93Z" fill="white"/>
<path d="M22.4835 47.93C22.3535 47.75 22.2235 47.57 22.1035 47.37C21.7635 47.72 21.4335 48.02 21.1135 48.29C19.6035 49.56 18.3735 50.02 17.9235 49.69C17.8835 49.66 17.8535 49.63 17.8135 49.58C17.6935 49.42 17.6335 49.16 17.6335 48.82C17.6335 48.52 17.6734 48.15 17.7734 47.73C17.9934 46.76 18.4935 45.51 19.3135 44.11C19.6235 43.58 19.9934 43.02 20.4034 42.45C20.3634 42.1 20.3535 41.77 20.3535 41.41V41.38C20.3535 41.01 20.3735 40.63 20.4135 40.26C20.0735 40.66 19.7335 41.09 19.4235 41.51C19.2935 41.7 19.1534 41.88 19.0334 42.07C18.5734 42.75 18.1434 43.44 17.7834 44.13C17.5234 44.6 17.3035 45.07 17.1135 45.53C16.8135 46.24 16.5835 46.93 16.4435 47.56C16.3535 48 16.3035 48.41 16.3035 48.79C16.3035 49.65 16.5634 50.35 17.1434 50.76C17.4834 51 17.8635 51.12 18.2935 51.12C19.3435 51.12 20.6235 50.44 21.9135 49.36C22.2435 49.09 22.5734 48.79 22.9034 48.46C22.7634 48.28 22.6235 48.1 22.4935 47.93H22.4835Z" fill="black"/>
<path d="M32.9136 52.4001C38.4475 52.4001 42.9336 47.914 42.9336 42.3801C42.9336 36.8462 38.4475 32.3601 32.9136 32.3601C27.3797 32.3601 22.8936 36.8462 22.8936 42.3801C22.8936 47.914 27.3797 52.4001 32.9136 52.4001Z" fill="url(#paint0_linear_8170_585)" stroke="black" stroke-width="1.5" stroke-miterlimit="10"/>
<path d="M22.6435 6.56C34.2691 6.56 43.6935 5.31535 43.6935 3.78C43.6935 2.24465 34.2691 1 22.6435 1C11.0179 1 1.59351 2.24465 1.59351 3.78C1.59351 5.31535 11.0179 6.56 22.6435 6.56Z" stroke="black" stroke-width="1.5" stroke-linecap="round" stroke-linejoin="round"/>
<path d="M28.2334 42.79L30.5734 45.48L37.5834 38.79" stroke="black" stroke-width="1.5" stroke-linecap="round" stroke-linejoin="round"/>
<defs>
<linearGradient id="paint0_linear_8170_585" x1="22.8936" y1="42.3801" x2="42.9336" y2="42.3801" gradientUnits="userSpaceOnUse">
<stop stop-color="#CBD1FF"/>
<stop offset="0.55" stop-color="#F7B363"/>
<stop offset="1" stop-color="#771BED"/>
</linearGradient>
</defs>
</svg>
