<svg width="45" height="53" viewBox="0 0 45 53" fill="none" xmlns="http://www.w3.org/2000/svg">
<path d="M22.2134 6.56C22.2134 5.69 21.5034 4.97998 20.6334 4.97998H1.58339C0.173386 4.97998 -0.526614 6.67998 0.463386 7.66998L11.9134 19.12C12.7934 20 13.2834 21.19 13.2834 22.42V48.16C13.2834 49.2 14.2634 49.95 15.2734 49.68L20.0934 46.44L18.4734 35.1L22.2334 6.54999L22.2134 6.56Z" fill="#CAB8FF"/>
<path d="M43.6834 4.09009L28.1734 19.6001V30.7501C27.9534 30.8201 27.7334 30.9001 27.5034 30.9801V36.5001C25.8434 35.2801 22.8534 37.3501 20.3934 40.2601C20.3534 40.6301 20.3334 41.0101 20.3334 41.3801V41.4001C20.3334 41.7601 20.3534 42.1001 20.3834 42.4501C20.4534 43.2501 20.5034 44.2501 20.7434 45.0001C20.8134 45.2301 20.8934 45.4601 20.9934 45.6901L20.0734 46.4501L17.6134 48.8201L17.0934 49.3301V19.6001L1.58337 4.09009H43.6734H43.6834Z" fill="white"/>
<path d="M21.2834 46.34L20.3934 47.09L17.8034 49.57L17.5634 49.8C17.4834 49.88 17.3834 49.93 17.2834 49.96C17.2334 49.98 17.1734 49.99 17.1134 49.99C17.0234 49.99 16.9334 49.97 16.8434 49.94C16.6034 49.84 16.4434 49.59 16.4434 49.33V19.88L1.13341 4.56996C0.863408 4.29996 0.863408 3.88999 1.13341 3.62999C1.39341 3.35999 1.81341 3.35999 2.07341 3.62999L17.5834 19.14C17.7034 19.26 17.7834 19.43 17.7834 19.61V47.77L19.8334 45.8L20.7734 45C20.8434 45.23 20.9234 45.46 21.0234 45.69C21.1034 45.91 21.2034 46.13 21.3034 46.34H21.2834Z" fill="black"/>
<path d="M44.1534 4.55998L28.8434 19.87V30.55C28.6234 30.6 28.4034 30.67 28.1734 30.74C27.9534 30.81 27.7334 30.89 27.5034 30.97V19.59C27.5034 19.41 27.5734 19.24 27.7034 19.12L42.7334 4.08998L43.2034 3.61998C43.4734 3.34998 43.8834 3.34998 44.1434 3.61998C44.4134 3.87998 44.4134 4.29998 44.1434 4.55998H44.1534Z" fill="black"/>
<path d="M22.4735 47.9301C22.1435 48.2601 21.8035 48.5601 21.4835 48.8301C19.8335 50.2201 18.3135 50.8001 17.5135 50.2301C17.4135 50.1601 17.3335 50.0702 17.2735 49.9702C16.9335 49.5002 16.8835 48.6902 17.1035 47.6902C17.2235 47.0902 17.4635 46.4001 17.7735 45.6701C18.1235 44.8601 18.5835 44.0002 19.1335 43.1302C19.3935 42.7202 19.6635 42.3202 19.9635 41.9102C20.0835 41.7402 20.2135 41.5702 20.3435 41.4102C20.3435 41.7702 20.3635 42.1001 20.3935 42.4501C20.4635 43.2501 20.6335 44.0201 20.8735 44.7701C20.9435 45.0001 21.0235 45.2301 21.1235 45.4601C21.2035 45.6801 21.3035 45.9001 21.4035 46.1101C21.6035 46.5501 21.8335 46.9601 22.0835 47.3601C22.2035 47.5601 22.3335 47.7401 22.4635 47.9201L22.4735 47.9301Z" fill="white"/>
<path d="M22.4735 47.93C22.3435 47.75 22.2135 47.57 22.0935 47.37C21.7535 47.72 21.4235 48.02 21.1035 48.29C19.5935 49.56 18.3635 50.02 17.9135 49.69C17.8735 49.66 17.8435 49.63 17.8035 49.58C17.6835 49.42 17.6235 49.16 17.6235 48.82C17.6235 48.52 17.6635 48.15 17.7635 47.73C17.9835 46.76 18.4835 45.51 19.3035 44.11C19.6135 43.58 19.9835 43.02 20.3935 42.45C20.3535 42.1 20.3435 41.77 20.3435 41.41V41.38C20.3435 41.01 20.3635 40.63 20.4035 40.26C20.0635 40.66 19.7235 41.09 19.4135 41.51C19.2835 41.7 19.1435 41.88 19.0235 42.07C18.5635 42.75 18.1335 43.44 17.7735 44.13C17.5135 44.6 17.2935 45.07 17.1035 45.53C16.8035 46.24 16.5735 46.93 16.4335 47.56C16.3435 48 16.2935 48.41 16.2935 48.79C16.2935 49.65 16.5535 50.35 17.1335 50.76C17.4735 51 17.8535 51.12 18.2835 51.12C19.3335 51.12 20.6135 50.44 21.9035 49.36C22.2335 49.09 22.5635 48.79 22.8935 48.46C22.7535 48.28 22.6135 48.1 22.4835 47.93H22.4735Z" fill="black"/>
<path d="M32.6634 51.8401C38.1973 51.8401 42.6834 47.3539 42.6834 41.82C42.6834 36.2861 38.1973 31.8 32.6634 31.8C27.1295 31.8 22.6434 36.2861 22.6434 41.82C22.6434 47.3539 27.1295 51.8401 32.6634 51.8401Z" fill="url(#paint0_linear_8170_622)" stroke="black" stroke-width="1.5" stroke-miterlimit="10"/>
<path d="M22.6434 6.56C34.269 6.56 43.6934 5.31535 43.6934 3.78C43.6934 2.24465 34.269 1 22.6434 1C11.0178 1 1.59338 2.24465 1.59338 3.78C1.59338 5.31535 11.0178 6.56 22.6434 6.56Z" fill="white" stroke="black" stroke-width="1.5" stroke-linecap="round" stroke-linejoin="round"/>
<path d="M37.5735 38.8101C37.4935 38.7301 37.3835 38.7401 37.2935 38.8101C36.7335 39.2401 35.9335 39.2001 35.4235 38.6801C34.9135 38.1601 34.8735 37.3701 35.2935 36.8101C35.3635 36.7201 35.3635 36.6101 35.2935 36.5301C34.8135 36.0401 34.0435 36.0401 33.5635 36.5301L26.9335 43.1601C26.4535 43.6401 26.4535 44.4101 26.9335 44.8901C27.0135 44.9801 27.1235 44.9701 27.2135 44.9101C27.7735 44.4801 28.5735 44.5201 29.0835 45.0401C29.5935 45.5601 29.6335 46.3501 29.2135 46.9101C29.1435 47.0001 29.1435 47.1101 29.2135 47.1901C29.6935 47.6801 30.4635 47.6801 30.9435 47.1901L37.5735 40.5601C38.0535 40.0801 38.0535 39.3101 37.5735 38.8301V38.8101Z" fill="white" stroke="black" stroke-width="1.26" stroke-linecap="round" stroke-linejoin="round"/>
<path d="M31.6635 39.0601L32.8435 40.2401" stroke="black" stroke-width="1.26" stroke-miterlimit="10" stroke-linecap="round"/>
<path d="M34.1334 41.53L35.3234 42.72" stroke="black" stroke-width="1.26" stroke-miterlimit="10" stroke-linecap="round"/>
<defs>
<linearGradient id="paint0_linear_8170_622" x1="22.6434" y1="41.8201" x2="42.6834" y2="41.8201" gradientUnits="userSpaceOnUse">
<stop stop-color="#CBD1FF"/>
<stop offset="0.55" stop-color="#F7B363"/>
<stop offset="1" stop-color="#771BED"/>
</linearGradient>
</defs>
</svg>
