<svg width="52" height="60" viewBox="0 0 52 60" fill="none" xmlns="http://www.w3.org/2000/svg">
<path d="M12.51 24.02C18.8668 24.02 24.02 18.8668 24.02 12.51C24.02 6.1532 18.8668 1 12.51 1C6.15321 1 1 6.1532 1 12.51C1 18.8668 6.15321 24.02 12.51 24.02Z" fill="url(#paint0_linear_8170_590)" stroke="black" stroke-width="1.5" stroke-miterlimit="10"/>
<path d="M17.7198 16.57H7.12988L8.00989 14.8V9.92001C8.00989 7.90001 9.98986 6.26001 12.4199 6.26001C14.8599 6.26001 16.8298 7.90001 16.8298 9.92001V14.79L17.7098 16.57H17.7198Z" fill="white" stroke="black" stroke-width="1.5" stroke-linecap="round" stroke-linejoin="round"/>
<path d="M12.8099 17.6801H14.2299C14.2299 18.4601 13.5899 19.1001 12.8099 19.1001C12.0299 19.1001 11.3999 18.4701 11.3899 17.7001L12.8099 17.6801Z" fill="black"/>
<path d="M31.48 41.1001H26.7C26.1477 41.1001 25.7 41.5478 25.7 42.1001V48.5401C25.7 49.0924 26.1477 49.5401 26.7 49.5401H31.48C32.0323 49.5401 32.48 49.0924 32.48 48.5401V42.1001C32.48 41.5478 32.0323 41.1001 31.48 41.1001Z" fill="#CAB8FF"/>
<path d="M31.5 27.15H44.19C47.63 27.15 50.41 29.94 50.41 33.37V52.95C50.41 56.43 47.59 59.26 44.1 59.26H24.51" stroke="black" stroke-width="1.5" stroke-linecap="round" stroke-linejoin="round"/>
<path d="M37.2399 16.6799H20.9399C19.8354 16.6799 18.9399 17.5754 18.9399 18.6799V41.8899C18.9399 42.9945 19.8354 43.8899 20.9399 43.8899H37.2399C38.3445 43.8899 39.2399 42.9945 39.2399 41.8899V18.6799C39.2399 17.5754 38.3445 16.6799 37.2399 16.6799Z" fill="#CAB8FF"/>
<path d="M38.6501 14.2699H24.3501C22.6932 14.2699 21.3501 15.613 21.3501 17.2699V38.4799C21.3501 40.1367 22.6932 41.4799 24.3501 41.4799H38.6501C40.3069 41.4799 41.6501 40.1367 41.6501 38.4799V17.2699C41.6501 15.613 40.3069 14.2699 38.6501 14.2699Z" fill="white" stroke="black" stroke-width="1.5" stroke-miterlimit="10"/>
<path d="M33.8898 38.6799H29.1099C28.5576 38.6799 28.1099 39.1276 28.1099 39.6799V46.1199C28.1099 46.6722 28.5576 47.1199 29.1099 47.1199H33.8898C34.4421 47.1199 34.8898 46.6722 34.8898 46.1199V39.6799C34.8898 39.1276 34.4421 38.6799 33.8898 38.6799Z" fill="white" stroke="black" stroke-width="1.5" stroke-linecap="round" stroke-linejoin="round"/>
<path d="M22.1899 59.2598H43.7899" stroke="black" stroke-width="1.5" stroke-linecap="round" stroke-linejoin="round"/>
<path d="M9.45996 55.79H34.92" stroke="black" stroke-width="1.5" stroke-linecap="round" stroke-linejoin="round" stroke-dasharray="4 4"/>
<path d="M31.4999 47.7801C33.3721 47.7801 34.8898 47.0592 34.8898 46.1701C34.8898 45.2809 33.3721 44.5601 31.4999 44.5601C29.6276 44.5601 28.1099 45.2809 28.1099 46.1701C28.1099 47.0592 29.6276 47.7801 31.4999 47.7801Z" fill="white" stroke="black" stroke-width="1.5" stroke-linecap="round" stroke-linejoin="round"/>
<defs>
<linearGradient id="paint0_linear_8170_590" x1="1" y1="12.51" x2="24.01" y2="12.51" gradientUnits="userSpaceOnUse">
<stop stop-color="#CBD1FF"/>
<stop offset="0.55" stop-color="#F7B363"/>
<stop offset="1" stop-color="#771BED"/>
</linearGradient>
</defs>
</svg>
