<svg width="45" height="53" viewBox="0 0 45 53" fill="none" xmlns="http://www.w3.org/2000/svg">
<path d="M22.2234 6.54997C22.2234 5.67997 21.5134 4.96997 20.6434 4.96997H1.58338C0.173383 4.96997 -0.526612 6.66997 0.463388 7.65997L11.9134 19.11C12.7934 19.99 13.2834 21.18 13.2834 22.41V48.15C13.2834 49.19 14.2634 49.94 15.2734 49.67L20.0934 46.43L18.4734 35.09L22.2334 6.53997L22.2234 6.54997Z" fill="#CAB8FF"/>
<path d="M43.6932 4.08997L28.1832 19.6V30.75C27.9632 30.82 27.7432 30.9 27.5132 30.98V36.5C25.8532 35.28 22.8633 37.35 20.4033 40.26C20.3633 40.63 20.3433 41.01 20.3433 41.38V41.4C20.3433 41.76 20.3632 42.1 20.3932 42.45C20.4632 43.25 20.5132 44.25 20.7532 45C20.8232 45.23 20.9032 45.46 21.0032 45.69L20.0833 46.45L17.6232 48.82L17.1033 49.33V19.6L1.59326 4.08997H43.6832H43.6932Z" fill="white"/>
<path d="M21.2932 46.34L20.4032 47.09L17.8132 49.57L17.5732 49.8C17.4932 49.88 17.3932 49.93 17.2932 49.96C17.2432 49.98 17.1832 49.99 17.1232 49.99C17.0332 49.99 16.9432 49.97 16.8532 49.94C16.6132 49.84 16.4532 49.59 16.4532 49.33V19.88L1.14317 4.56999C0.873174 4.29999 0.873174 3.88999 1.14317 3.62999C1.40317 3.35999 1.82318 3.35999 2.08318 3.62999L17.5932 19.14C17.7132 19.26 17.7932 19.43 17.7932 19.61V47.77L19.8432 45.8L20.7832 45C20.8532 45.23 20.9332 45.46 21.0332 45.69C21.1132 45.91 21.2132 46.13 21.3132 46.34H21.2932Z" fill="black"/>
<path d="M44.1632 4.55998L28.8532 19.87V30.55C28.6332 30.6 28.4132 30.67 28.1832 30.74C27.9632 30.81 27.7432 30.89 27.5132 30.97V19.59C27.5132 19.41 27.5832 19.24 27.7132 19.12L42.7432 4.08998L43.2132 3.61998C43.4832 3.34998 43.8932 3.34998 44.1532 3.61998C44.4232 3.87998 44.4232 4.29998 44.1532 4.55998H44.1632Z" fill="black"/>
<path d="M22.4831 47.9299C22.1531 48.2599 21.8131 48.5599 21.4931 48.8299C19.8431 50.2199 18.3231 50.7999 17.5231 50.2299C17.4231 50.1599 17.3431 50.0699 17.2831 49.9699C16.9431 49.4999 16.8931 48.6899 17.1131 47.6899C17.2331 47.0899 17.4731 46.3999 17.7831 45.6699C18.1331 44.8599 18.5931 43.9999 19.1431 43.1299C19.4031 42.7199 19.6731 42.3199 19.9731 41.9099C20.0931 41.7399 20.2231 41.5699 20.3531 41.4099C20.3531 41.7699 20.3731 42.0999 20.4031 42.4499C20.4731 43.2499 20.6431 44.0199 20.8831 44.7699C20.9531 44.9999 21.0331 45.2299 21.1331 45.4599C21.2131 45.6799 21.3131 45.8999 21.4131 46.1099C21.6131 46.5499 21.8431 46.9599 22.0931 47.3599C22.2131 47.5599 22.3431 47.7399 22.4731 47.9199L22.4831 47.9299Z" fill="white"/>
<path d="M22.4833 47.93C22.3533 47.75 22.2233 47.57 22.1033 47.37C21.7633 47.72 21.4332 48.02 21.1132 48.29C19.6032 49.56 18.3733 50.02 17.9233 49.69C17.8833 49.66 17.8532 49.63 17.8132 49.58C17.6932 49.42 17.6332 49.16 17.6332 48.82C17.6332 48.52 17.6733 48.15 17.7733 47.73C17.9933 46.76 18.4932 45.51 19.3132 44.11C19.6232 43.58 19.9933 43.02 20.4033 42.45C20.3633 42.1 20.3533 41.77 20.3533 41.41V41.38C20.3533 41.01 20.3733 40.63 20.4133 40.26C20.0733 40.66 19.7333 41.09 19.4233 41.51C19.2933 41.7 19.1533 41.88 19.0333 42.07C18.5733 42.75 18.1433 43.44 17.7833 44.13C17.5233 44.6 17.3032 45.07 17.1132 45.53C16.8132 46.24 16.5832 46.93 16.4432 47.56C16.3532 48 16.3032 48.41 16.3032 48.79C16.3032 49.65 16.5632 50.35 17.1432 50.76C17.4832 51 17.8633 51.12 18.2933 51.12C19.3433 51.12 20.6233 50.44 21.9133 49.36C22.2433 49.09 22.5733 48.79 22.9033 48.46C22.7633 48.28 22.6232 48.1 22.4932 47.93H22.4833Z" fill="black"/>
<path d="M32.6733 51.8401C38.2072 51.8401 42.6933 47.3539 42.6933 41.8201C42.6933 36.2862 38.2072 31.8 32.6733 31.8C27.1394 31.8 22.6533 36.2862 22.6533 41.8201C22.6533 47.3539 27.1394 51.8401 32.6733 51.8401Z" fill="url(#paint0_linear_8170_589)" stroke="black" stroke-width="1.5" stroke-miterlimit="10"/>
<path d="M22.6432 6.56C34.2688 6.56 43.6932 5.31535 43.6932 3.78C43.6932 2.24465 34.2688 1 22.6432 1C11.0177 1 1.59326 2.24465 1.59326 3.78C1.59326 5.31535 11.0177 6.56 22.6432 6.56Z" fill="white" stroke="black" stroke-width="1.5" stroke-linecap="round" stroke-linejoin="round"/>
<path d="M37.5833 38.8101C37.5033 38.7301 37.3932 38.7401 37.3032 38.8101C36.7432 39.2401 35.9432 39.2001 35.4332 38.6801C34.9232 38.1601 34.8832 37.3701 35.3032 36.8101C35.3732 36.7201 35.3732 36.6101 35.3032 36.5301C34.8232 36.0401 34.0533 36.0401 33.5733 36.5301L26.9433 43.1601C26.4633 43.6401 26.4633 44.4101 26.9433 44.8901C27.0233 44.9801 27.1333 44.9701 27.2233 44.9101C27.7833 44.4801 28.5833 44.5201 29.0933 45.0401C29.6033 45.5601 29.6433 46.3501 29.2233 46.9101C29.1533 47.0001 29.1533 47.1101 29.2233 47.1901C29.7033 47.6801 30.4733 47.6801 30.9533 47.1901L37.5833 40.5601C38.0633 40.0801 38.0633 39.3101 37.5833 38.8301V38.8101Z" fill="white" stroke="black" stroke-width="1.26" stroke-linecap="round" stroke-linejoin="round"/>
<path d="M31.6633 39.05L32.8533 40.2401" stroke="black" stroke-width="1.26" stroke-miterlimit="10" stroke-linecap="round"/>
<path d="M34.1433 41.53L35.3233 42.71" stroke="black" stroke-width="1.26" stroke-miterlimit="10" stroke-linecap="round"/>
<defs>
<linearGradient id="paint0_linear_8170_589" x1="22.6433" y1="41.8201" x2="42.6933" y2="41.8201" gradientUnits="userSpaceOnUse">
<stop stop-color="#CBD1FF"/>
<stop offset="0.55" stop-color="#F7B363"/>
<stop offset="1" stop-color="#771BED"/>
</linearGradient>
</defs>
</svg>
