<svg width="55" height="55" viewBox="0 0 55 55" fill="none" xmlns="http://www.w3.org/2000/svg">
<path d="M1.03 26.33C1.01 26.76 1 27.19 1 27.62C1 42.22 13.02 54.24 27.62 54.24C42.22 54.24 54.24 42.22 54.24 27.62C54.24 13.02 42.22 1 27.62 1C17.26 1 7.8 7.05001 3.46 16.45L2 11.14" fill="white"/>
<path d="M1.03 26.33C1.01 26.76 1 27.19 1 27.62C1 42.22 13.02 54.24 27.62 54.24C42.22 54.24 54.24 42.22 54.24 27.62C54.24 13.02 42.22 1 27.62 1C17.26 1 7.8 7.05001 3.46 16.45L2 11.14" stroke="black" stroke-width="1.5" stroke-linecap="round" stroke-linejoin="round"/>
<path d="M23.62 43.1898C31.1201 43.1898 37.2 37.1098 37.2 29.6098C37.2 22.1098 31.1201 16.0298 23.62 16.0298C16.12 16.0298 10.04 22.1098 10.04 29.6098C10.04 37.1098 16.12 43.1898 23.62 43.1898Z" fill="#CAB8FF"/>
<path d="M27.62 41.1898C35.1201 41.1898 41.2 35.1098 41.2 27.6098C41.2 20.1098 35.1201 14.0298 27.62 14.0298C20.12 14.0298 14.04 20.1098 14.04 27.6098C14.04 35.1098 20.12 41.1898 27.62 41.1898Z" fill="url(#paint0_linear_8170_621)" stroke="black" stroke-width="1.5" stroke-miterlimit="10"/>
<path d="M8.42995 15.3398L3.44995 16.4398" stroke="black" stroke-width="1.5" stroke-linecap="round" stroke-linejoin="round"/>
<path d="M27.62 20.1899V29.06L32.18 34.3" stroke="black" stroke-width="1.5" stroke-linecap="round" stroke-linejoin="round"/>
<defs>
<linearGradient id="paint0_linear_8170_621" x1="14.04" y1="27.6098" x2="41.2" y2="27.6098" gradientUnits="userSpaceOnUse">
<stop stop-color="#CBD1FF"/>
<stop offset="0.55" stop-color="#F7B363"/>
<stop offset="1" stop-color="#771BED"/>
</linearGradient>
</defs>
</svg>
