<svg width="66" height="55" viewBox="0 0 66 55" fill="none" xmlns="http://www.w3.org/2000/svg">
<path d="M46.0799 50.3499C52.9227 50.3499 58.4699 44.8028 58.4699 37.9599C58.4699 31.1171 52.9227 25.5699 46.0799 25.5699C39.2371 25.5699 33.6899 31.1171 33.6899 37.9599C33.6899 44.8028 39.2371 50.3499 46.0799 50.3499Z" fill="#CAB8FF"/>
<path d="M48.0799 48.3499C54.9227 48.3499 60.4699 42.8028 60.4699 35.9599C60.4699 29.1171 54.9227 23.5699 48.0799 23.5699C41.2371 23.5699 35.6899 29.1171 35.6899 35.9599C35.6899 42.8028 41.2371 48.3499 48.0799 48.3499Z" fill="white" stroke="black" stroke-width="1.5" stroke-miterlimit="10"/>
<path d="M5.93003 6.54C7.45986 6.54 8.70003 5.29983 8.70003 3.77C8.70003 2.24017 7.45986 1 5.93003 1C4.40021 1 3.16003 2.24017 3.16003 3.77C3.16003 5.29983 4.40021 6.54 5.93003 6.54Z" stroke="black" stroke-width="1.5" stroke-miterlimit="10"/>
<path d="M1 13.21V13.17C1 10.45 3.2 8.23999 5.93 8.23999C8.65 8.23999 10.86 10.44 10.86 13.17V13.21" stroke="black" stroke-width="1.5" stroke-miterlimit="10" stroke-linecap="round"/>
<path d="M25.22 6.54C26.7498 6.54 27.99 5.29983 27.99 3.77C27.99 2.24017 26.7498 1 25.22 1C23.6901 1 22.45 2.24017 22.45 3.77C22.45 5.29983 23.6901 6.54 25.22 6.54Z" stroke="black" stroke-width="1.5" stroke-miterlimit="10"/>
<path d="M20.29 13.21V13.17C20.29 10.45 22.49 8.23999 25.22 8.23999C27.94 8.23999 30.15 10.44 30.15 13.17V13.21" stroke="black" stroke-width="1.5" stroke-miterlimit="10" stroke-linecap="round"/>
<path d="M47.28 6.54C48.8098 6.54 50.05 5.29983 50.05 3.77C50.05 2.24017 48.8098 1 47.28 1C45.7502 1 44.51 2.24017 44.51 3.77C44.51 5.29983 45.7502 6.54 47.28 6.54Z" stroke="black" stroke-width="1.5" stroke-miterlimit="10"/>
<path d="M42.35 13.21V13.17C42.35 10.45 44.55 8.23999 47.28 8.23999C50 8.23999 52.21 10.44 52.21 13.17V13.21" stroke="black" stroke-width="1.5" stroke-miterlimit="10" stroke-linecap="round"/>
<path d="M5.93003 35.9599C7.45986 35.9599 8.70003 34.7197 8.70003 33.1899C8.70003 31.6601 7.45986 30.4199 5.93003 30.4199C4.40021 30.4199 3.16003 31.6601 3.16003 33.1899C3.16003 34.7197 4.40021 35.9599 5.93003 35.9599Z" stroke="black" stroke-width="1.5" stroke-miterlimit="10"/>
<path d="M1 42.63V42.59C1 39.87 3.2 37.66 5.93 37.66C8.65 37.66 10.86 39.86 10.86 42.59V42.63" stroke="black" stroke-width="1.5" stroke-miterlimit="10" stroke-linecap="round"/>
<path d="M25.22 35.9599C26.7498 35.9599 27.99 34.7197 27.99 33.1899C27.99 31.6601 26.7498 30.4199 25.22 30.4199C23.6901 30.4199 22.45 31.6601 22.45 33.1899C22.45 34.7197 23.6901 35.9599 25.22 35.9599Z" stroke="black" stroke-width="1.5" stroke-miterlimit="10"/>
<path d="M20.29 42.63V42.59C20.29 39.87 22.49 37.66 25.22 37.66C27.94 37.66 30.15 39.86 30.15 42.59V42.63" stroke="black" stroke-width="1.5" stroke-miterlimit="10" stroke-linecap="round"/>
<path d="M48.0801 35.39C49.6099 35.39 50.8501 34.1498 50.8501 32.62C50.8501 31.0901 49.6099 29.85 48.0801 29.85C46.5502 29.85 45.3101 31.0901 45.3101 32.62C45.3101 34.1498 46.5502 35.39 48.0801 35.39Z" fill="url(#paint0_linear_8170_576)" stroke="black" stroke-width="1.5" stroke-miterlimit="10"/>
<path d="M43.16 42.06V42.02C43.16 39.3 45.36 37.09 48.09 37.09C50.81 37.09 53.02 39.29 53.02 42.02V42.06" stroke="black" stroke-width="1.5" stroke-miterlimit="10" stroke-linecap="round"/>
<path d="M48.08 21.0199V17.9399" stroke="black" stroke-width="1.5" stroke-miterlimit="10" stroke-linecap="round"/>
<path d="M48.08 53.97V50.89" stroke="black" stroke-width="1.5" stroke-miterlimit="10" stroke-linecap="round"/>
<path d="M62.53 35.96H65.16" stroke="black" stroke-width="1.5" stroke-miterlimit="10" stroke-linecap="round"/>
<path d="M30.52 35.96H33.15" stroke="black" stroke-width="1.5" stroke-miterlimit="10" stroke-linecap="round"/>
<defs>
<linearGradient id="paint0_linear_8170_576" x1="45.3201" y1="32.62" x2="50.8501" y2="32.62" gradientUnits="userSpaceOnUse">
<stop stop-color="#CBD1FF"/>
<stop offset="0.55" stop-color="#F7B363"/>
<stop offset="1" stop-color="#771BED"/>
</linearGradient>
</defs>
</svg>
