<svg width="63" height="46" viewBox="0 0 63 46" fill="none" xmlns="http://www.w3.org/2000/svg">
<path d="M19.0001 34.5401L40.0101 10.7301L30.1501 40.9101C29.0301 44.3501 25.3201 46.2301 21.8801 45.1101C18.4401 43.9901 16.5601 40.2801 17.6801 36.8401C17.9601 35.9701 18.4301 35.1801 19.0001 34.5401Z" fill="#CAB8FF"/>
<path d="M1 31.96C1 31.81 1 31.67 1 31.52C1 30.66 1.04 29.8 1.11 28.96" stroke="black" stroke-width="1.5" stroke-linecap="round" stroke-linejoin="round"/>
<path d="M2.20996 23.06C5.91996 10.38 17.71 1 31.53 1C46.23 1 58.65 11.62 61.46 25.55" stroke="black" stroke-width="1.5" stroke-linecap="round" stroke-linejoin="round" stroke-dasharray="6.01 6.01"/>
<path d="M61.9 28.53C62 29.52 62.05 30.52 62.05 31.53" stroke="black" stroke-width="1.5" stroke-linecap="round" stroke-linejoin="round"/>
<path d="M22.92 33.46L43.93 9.65002L34.07 39.83C32.95 43.27 29.24 45.15 25.8 44.03C22.36 42.91 20.48 39.2 21.6 35.76C21.88 34.89 22.35 34.1 22.92 33.46Z" fill="url(#paint0_linear_8170_577)" stroke="black" stroke-width="1.5" stroke-linecap="round" stroke-linejoin="round"/>
<defs>
<linearGradient id="paint0_linear_8170_577" x1="25.48" y1="43.07" x2="41.12" y2="8.12002" gradientUnits="userSpaceOnUse">
<stop stop-color="#CBD1FF"/>
<stop offset="0.55" stop-color="#F7B363"/>
<stop offset="0.84" stop-color="#771BED"/>
</linearGradient>
</defs>
</svg>
