<svg width="45" height="46" viewBox="0 0 45 46" fill="none" xmlns="http://www.w3.org/2000/svg">
<path d="M21.15 24.6799H42.3C42.3 36.2799 32.75 45.8299 21.15 45.8299C9.54999 45.8299 0 36.2799 0 24.6799C0 13.0799 9.54999 3.52991 21.15 3.52991C24.54 3.52991 27.88 4.33991 30.88 5.89991L21.15 24.6799Z" fill="#CAB8FF"/>
<path d="M24.9601 22.15H42.2201C43.2001 22.15 43.9901 22.98 43.9101 23.96C42.8801 35.86 31.8201 45.07 19.3301 43.01C10.4901 41.55 3.4301 34.49 1.9801 25.66C-0.1899 12.54 10.0901 1 22.8401 1C25.7901 1 28.7101 1.62 31.4001 2.81C32.1101 3.12 32.5301 3.86 32.4101 4.62C32.0601 7.01 31.2601 10.34 29.3701 13.91C27.7901 16.89 25.9401 19.13 24.3601 20.73C23.8401 21.26 24.2201 22.16 24.9701 22.16L24.9601 22.15Z" fill="white" stroke="black" stroke-width="1.5" stroke-miterlimit="10"/>
<path d="M18.7901 15.6499C17.9101 13.3499 16.1901 11.5999 13.5501 10.4699C13.3401 10.3799 13.3401 10.0999 13.5501 10.0099C16.0001 9.02994 17.7901 7.33994 18.7801 4.79994C18.8601 4.58994 19.1501 4.57994 19.2401 4.79994C20.5501 7.93994 22.1901 8.99994 24.4701 9.98994C24.6801 10.0799 24.6701 10.3599 24.4601 10.4499C21.8701 11.4899 20.2501 13.3299 19.2401 15.6699C19.1501 15.8799 18.8601 15.8699 18.7801 15.6599L18.7901 15.6499Z" fill="url(#paint0_linear_8170_578)" stroke="black" stroke-width="1.5" stroke-miterlimit="10"/>
<defs>
<linearGradient id="paint0_linear_8170_578" x1="17.3101" y1="14.4699" x2="20.0701" y2="7.56994" gradientUnits="userSpaceOnUse">
<stop stop-color="#CBD1FF"/>
<stop offset="0.55" stop-color="#F7B363"/>
<stop offset="1" stop-color="#771BED"/>
</linearGradient>
</defs>
</svg>
