<svg width="56" height="55" viewBox="0 0 56 55" fill="none" xmlns="http://www.w3.org/2000/svg">
<path d="M25.47 54.6402C39.5367 54.6402 50.94 43.2369 50.94 29.1702C50.94 15.1035 39.5367 3.7002 25.47 3.7002C11.4033 3.7002 0 15.1035 0 29.1702C0 43.2369 11.4033 54.6402 25.47 54.6402Z" fill="#CAB8FF"/>
<path d="M29.0699 51.94C43.1366 51.94 54.5399 40.5367 54.5399 26.47C54.5399 12.4033 43.1366 1 29.0699 1C15.0032 1 3.59985 12.4033 3.59985 26.47C3.59985 40.5367 15.0032 51.94 29.0699 51.94Z" fill="white" stroke="black" stroke-width="1.5" stroke-miterlimit="10"/>
<path d="M43.9797 38.8298H14.4897L16.9498 33.9099V20.3099C16.9498 14.6799 22.4497 10.1099 29.2397 10.1099C36.0297 10.1099 41.5298 14.6799 41.5298 20.3099V33.8699L43.9897 38.8399L43.9797 38.8298Z" fill="white" stroke="black" stroke-width="1.5" stroke-linecap="round" stroke-linejoin="round"/>
<path d="M29.23 40.71H33.19C33.19 42.88 31.4 44.67 29.23 44.67C27.06 44.67 25.3 42.92 25.27 40.77L29.23 40.71Z" fill="black"/>
<path d="M28.9798 29.1601C27.9798 26.5501 26.0398 24.5801 23.0498 23.3001C22.8098 23.2001 22.8198 22.8801 23.0498 22.7801C25.8198 21.6701 27.8498 19.7601 28.9698 16.8901C29.0598 16.6501 29.3898 16.6401 29.4898 16.8901C30.9698 20.4401 32.8299 21.6401 35.4099 22.7601C35.6399 22.8601 35.6298 23.1801 35.3998 23.2801C32.4698 24.4601 30.6398 26.5401 29.4998 29.1801C29.3998 29.4201 29.0698 29.4101 28.9798 29.1701V29.1601Z" fill="url(#paint0_linear_8170_607)" stroke="black" stroke-width="1.5" stroke-miterlimit="10"/>
<defs>
<linearGradient id="paint0_linear_8170_607" x1="27.3098" y1="27.8201" x2="30.4298" y2="20.0201" gradientUnits="userSpaceOnUse">
<stop stop-color="#CBD1FF"/>
<stop offset="0.55" stop-color="#F7B363"/>
<stop offset="1" stop-color="#771BED"/>
</linearGradient>
</defs>
</svg>
