<svg width="65" height="61" viewBox="0 0 65 61" fill="none" xmlns="http://www.w3.org/2000/svg">
<path d="M51.1098 25.3761C57.0745 25.3761 61.9099 20.5408 61.9099 14.5761C61.9099 8.61144 57.0745 3.77612 51.1098 3.77612C45.1451 3.77612 40.3098 8.61144 40.3098 14.5761C40.3098 20.5408 45.1451 25.3761 51.1098 25.3761Z" fill="#CAB8FF"/>
<path d="M11.8 60.1359C17.7647 60.1359 22.6 55.3006 22.6 49.3359C22.6 43.3712 17.7647 38.5359 11.8 38.5359C5.83531 38.5359 1 43.3712 1 49.3359C1 55.3006 5.83531 60.1359 11.8 60.1359Z" fill="white" stroke="black" stroke-width="1.5" stroke-miterlimit="10" stroke-linecap="round" stroke-dasharray="4 4"/>
<path d="M53.1098 23.3761C59.0745 23.3761 63.9099 18.5408 63.9099 12.5761C63.9099 6.61144 59.0745 1.77612 53.1098 1.77612C47.1451 1.77612 42.3098 6.61144 42.3098 12.5761C42.3098 18.5408 47.1451 23.3761 53.1098 23.3761Z" fill="white" stroke="black" stroke-width="1.5" stroke-miterlimit="10" stroke-linecap="round"/>
<path d="M53.45 12.006C54.9798 12.006 56.22 10.7659 56.22 9.23605C56.22 7.70622 54.9798 6.46606 53.45 6.46606C51.9201 6.46606 50.6799 7.70622 50.6799 9.23605C50.6799 10.7659 51.9201 12.006 53.45 12.006Z" stroke="black" stroke-width="1.5" stroke-miterlimit="10"/>
<path d="M48.52 18.6761V18.636C48.52 15.916 50.72 13.7061 53.45 13.7061C56.17 13.7061 58.38 15.906 58.38 18.636V18.6761" stroke="black" stroke-width="1.5" stroke-miterlimit="10" stroke-linecap="round"/>
<path d="M40.7201 5.52601C26.6801 -3.71399 13.8401 2.01601 13.7601 15.276C13.6601 31.186 20.8201 33.156 30.8501 28.466C45.7001 21.526 52.1201 38.546 52.1201 38.546C52.1201 38.546 55.94 63.376 25.99 53.786" stroke="url(#paint0_linear_8170_616)" stroke-width="1.5" stroke-linecap="round" stroke-linejoin="round" stroke-dasharray="4 4"/>
<path d="M11.7998 48.3159C12.8989 48.3159 13.7899 47.425 13.7899 46.3259C13.7899 45.2269 12.8989 44.3359 11.7998 44.3359C10.7008 44.3359 9.80981 45.2269 9.80981 46.3259C9.80981 47.425 10.7008 48.3159 11.7998 48.3159Z" stroke="black" stroke-width="1.5" stroke-miterlimit="10" stroke-linecap="round"/>
<path d="M8.26001 53.786V53.756C8.26001 51.796 9.84999 50.2161 11.8 50.2161C13.76 50.2161 15.34 51.806 15.34 53.756V53.786" stroke="black" stroke-width="1.5" stroke-miterlimit="10" stroke-linecap="round"/>
<defs>
<linearGradient id="paint0_linear_8170_616" x1="13.0101" y1="28.496" x2="53.0201" y2="28.496" gradientUnits="userSpaceOnUse">
<stop stop-color="#CBD1FF"/>
<stop offset="0.55" stop-color="#F7B363"/>
<stop offset="1" stop-color="#771BED"/>
</linearGradient>
</defs>
</svg>
