<svg width="59" height="59" viewBox="0 0 59 59" fill="none" xmlns="http://www.w3.org/2000/svg">
<path d="M12.44 23.88C18.7581 23.88 23.88 18.7581 23.88 12.44C23.88 6.12186 18.7581 1 12.44 1C6.12186 1 1 6.12186 1 12.44C1 18.7581 6.12186 23.88 12.44 23.88Z" fill="url(#paint0_linear_8170_619)" stroke="black" stroke-width="1.5" stroke-miterlimit="10"/>
<path d="M8.06006 13.9399L10.33 16.21L16.83 9.70996" stroke="black" stroke-width="1.5" stroke-linecap="round" stroke-linejoin="round"/>
<path d="M56.9401 51.9901L48.4401 45.9501C51.4301 42.0601 53.0201 37.0401 52.3501 31.6101C51.2401 22.6601 43.9201 15.5301 34.9401 14.6601C22.6401 13.4701 12.4001 23.7201 13.5901 36.0201C14.4601 45.0101 21.6201 52.3401 30.5801 53.4201C36.0201 54.0801 41.0701 52.4701 44.9501 49.4501L51.3801 57.7201C52.4901 59.1501 54.5901 59.2801 55.8701 58.0001L57.3201 56.5501C58.6301 55.2401 58.4501 53.0601 56.9401 51.9801V51.9901Z" fill="#CAB8FF"/>
<path d="M56.9401 48.9901L48.4401 42.9501C51.4301 39.0601 53.0201 34.0401 52.3501 28.6101C51.2401 19.6601 43.9201 12.5301 34.9401 11.6601C22.6401 10.4701 12.4001 20.7201 13.5901 33.0201C14.4601 42.0101 21.6201 49.3401 30.5801 50.4201C36.0201 51.0801 41.0701 49.4701 44.9501 46.4501L51.3801 54.7201C52.4901 56.1501 54.5901 56.2801 55.8701 55.0001L57.3201 53.5501C58.6301 52.2401 58.4501 50.0601 56.9401 48.9801V48.9901Z" fill="white" stroke="black" stroke-width="1.5" stroke-miterlimit="10"/>
<path d="M41.23 26.6101C41.1 26.4801 40.9 26.48 40.76 26.59C39.81 27.31 38.46 27.2401 37.59 26.3801C36.72 25.5201 36.65 24.1601 37.38 23.2101C37.49 23.0701 37.49 22.8701 37.36 22.7401L37.34 22.72C36.53 21.91 35.22 21.91 34.42 22.72L23.21 33.9301C22.4 34.7401 22.4 36.0501 23.21 36.8501L23.23 36.87C23.36 37 23.56 37.0001 23.7 36.8901C24.65 36.1701 26 36.2401 26.87 37.1001C27.74 37.9601 27.81 39.3201 27.08 40.2701C26.97 40.4101 26.97 40.6101 27.1 40.7401L27.12 40.7601C27.93 41.5701 29.24 41.5701 30.04 40.7601L41.25 29.5501C42.06 28.7401 42.06 27.4301 41.25 26.6301L41.23 26.6101Z" fill="white" stroke="black" stroke-width="1.5" stroke-linecap="round" stroke-linejoin="round"/>
<path d="M32.23 25.95L33.64 27.36" stroke="black" stroke-width="1.5" stroke-miterlimit="10" stroke-linecap="round"/>
<path d="M37.01 30.72L38.42 32.14" stroke="black" stroke-width="1.5" stroke-miterlimit="10" stroke-linecap="round"/>
<defs>
<linearGradient id="paint0_linear_8170_619" x1="1.01" y1="12.44" x2="23.88" y2="12.44" gradientUnits="userSpaceOnUse">
<stop stop-color="#CBD1FF"/>
<stop offset="0.55" stop-color="#F7B363"/>
<stop offset="1" stop-color="#771BED"/>
</linearGradient>
</defs>
</svg>
