<svg width="53" height="52" viewBox="0 0 53 52" fill="none" xmlns="http://www.w3.org/2000/svg">
<path d="M28.46 12.6198V42.8198C28.46 47.7798 22.89 51.7898 16.02 51.7898C9.15002 51.7898 3.59 47.7798 3.59 42.8198C3.59 40.4298 4.88002 38.2698 6.99002 36.6598C3.49002 35.1398 1.14999 32.3698 1.14999 29.2098C1.14999 28.0698 1.45001 26.9898 2.01001 25.9898C0.74001 24.6098 0 22.9598 0 21.1798C0 18.3698 1.86002 15.8598 4.74002 14.2698C4.52002 13.6098 4.39999 12.9298 4.39999 12.2298C4.39999 7.4398 9.78002 3.5498 16.43 3.5498C23.08 3.5498 28.46 7.4398 28.46 12.2298C28.46 12.3498 28.46 12.4598 28.46 12.5898V12.6198Z" fill="#CAB8FF"/>
<path d="M45.5001 15.5899C44.6201 13.2899 42.9 11.5399 40.26 10.4099C40.05 10.3199 40.05 10.0399 40.26 9.94988C42.71 8.96988 44.5 7.27989 45.49 4.73989C45.57 4.52989 45.86 4.51989 45.95 4.73989C47.26 7.87989 48.9001 8.93989 51.1801 9.92989C51.3901 10.0199 51.38 10.2999 51.17 10.3899C48.58 11.4299 46.96 13.2699 45.95 15.6099C45.86 15.8199 45.57 15.8099 45.49 15.5999L45.5001 15.5899Z" fill="url(#paint0_linear_8170_617)" stroke="black" stroke-width="1.5" stroke-miterlimit="10"/>
<path d="M39.8799 27.5398C38.9999 25.2398 37.2799 23.4898 34.6399 22.3598C34.4299 22.2698 34.4299 21.9899 34.6399 21.8999C37.0899 20.9199 38.8799 19.2298 39.8699 16.6898C39.9499 16.4798 40.2399 16.4698 40.3299 16.6898C41.6399 19.8298 43.2799 20.8898 45.5599 21.8798C45.7699 21.9698 45.7599 22.2499 45.5499 22.3399C42.9599 23.3799 41.3399 25.2199 40.3299 27.5599C40.2399 27.7699 39.9499 27.7599 39.8699 27.5499L39.8799 27.5398Z" fill="url(#paint1_linear_8170_617)" stroke="black" stroke-width="1.5" stroke-miterlimit="10"/>
<path d="M30.0801 10.07V40.27C30.0801 45.23 24.5101 49.24 17.6401 49.24C10.7701 49.24 5.21014 45.23 5.21014 40.27C5.21014 37.88 6.50014 35.72 8.61014 34.11C5.11014 32.59 2.77014 29.82 2.77014 26.66C2.77014 25.52 3.07013 24.44 3.63013 23.44C2.36013 22.06 1.62012 20.41 1.62012 18.63C1.62012 15.82 3.48014 13.31 6.36014 11.72C6.14014 11.06 6.02014 10.38 6.02014 9.67999C6.02014 4.88999 11.4001 1 18.0501 1C24.7001 1 30.0801 4.88999 30.0801 9.67999C30.0801 9.79999 30.0801 9.90998 30.0801 10.04V10.07Z" fill="white" stroke="black" stroke-width="1.5" stroke-miterlimit="10"/>
<path d="M12.15 20.05C11.72 19.99 11.29 19.96 10.86 19.96C6.43005 19.96 2.78003 23.15 2.78003 27.03" stroke="black" stroke-width="1.5" stroke-miterlimit="10"/>
<path d="M19.86 33.9098C18.3 32.8798 16.42 32.3298 14.5 32.3298C9.43 32.3298 5.25 36.1898 5.25 40.8698" stroke="black" stroke-width="1.5" stroke-miterlimit="10"/>
<path d="M7.40989 5.65991C6.65989 6.77991 6.21988 8.04991 6.14988 9.34991C6.03988 11.3899 6.81991 13.3999 8.32991 14.9499" stroke="black" stroke-width="1.5" stroke-miterlimit="10"/>
<path d="M15.85 24.6799C15.85 24.6799 10.9601 22.0799 13.2001 16.1399" stroke="black" stroke-width="1.5" stroke-miterlimit="10"/>
<path d="M16.8301 32.6199C16.8301 32.6199 12.5501 40.0398 21.2101 41.6898" stroke="black" stroke-width="1.5" stroke-miterlimit="10"/>
<path d="M20.73 5.77979C20.73 5.77979 15.26 13.2398 25.11 14.8498" stroke="black" stroke-width="1.5" stroke-miterlimit="10"/>
<defs>
<linearGradient id="paint0_linear_8170_617" x1="44.03" y1="14.4099" x2="46.79" y2="7.50988" gradientUnits="userSpaceOnUse">
<stop stop-color="#CBD1FF"/>
<stop offset="0.55" stop-color="#F7B363"/>
<stop offset="1" stop-color="#771BED"/>
</linearGradient>
<linearGradient id="paint1_linear_8170_617" x1="38.4099" y1="26.3599" x2="41.1699" y2="19.4598" gradientUnits="userSpaceOnUse">
<stop stop-color="#CBD1FF"/>
<stop offset="0.55" stop-color="#F7B363"/>
<stop offset="1" stop-color="#771BED"/>
</linearGradient>
</defs>
</svg>
