<svg width="53" height="53" viewBox="0 0 53 53" fill="none" xmlns="http://www.w3.org/2000/svg">
<path d="M6.02002 14.8399C9.34477 14.8399 12.04 12.1447 12.04 8.81993C12.04 5.49517 9.34477 2.79993 6.02002 2.79993C2.69527 2.79993 0 5.49517 0 8.81993C0 12.1447 2.69527 14.8399 6.02002 14.8399Z" fill="#CAB8FF"/>
<path d="M43.9201 52.1899C47.2449 52.1899 49.9401 49.4947 49.9401 46.1699C49.9401 42.8451 47.2449 40.1499 43.9201 40.1499C40.5954 40.1499 37.9001 42.8451 37.9001 46.1699C37.9001 49.4947 40.5954 52.1899 43.9201 52.1899Z" fill="#CAB8FF"/>
<path d="M7.5802 7.02002H41.1802C46.2102 7.02002 50.2902 11.1 50.2902 16.13C50.2902 21.16 46.2102 25.24 41.1802 25.24H13.0502C8.02017 25.24 3.94019 29.32 3.94019 34.35V35.24C3.94019 40.27 8.02017 44.35 13.0502 44.35H45.7302" stroke="black" stroke-width="1.5" stroke-miterlimit="10" stroke-linecap="round"/>
<path d="M7.83008 13.04C11.1548 13.04 13.8501 10.3448 13.8501 7.02C13.8501 3.69525 11.1548 1 7.83008 1C4.50532 1 1.81006 3.69525 1.81006 7.02C1.81006 10.3448 4.50532 13.04 7.83008 13.04Z" fill="url(#paint0_linear_8170_583)" stroke="black" stroke-width="1.5" stroke-miterlimit="10"/>
<path d="M35.04 13.04C38.3647 13.04 41.06 10.3448 41.06 7.02C41.06 3.69525 38.3647 1 35.04 1C31.7152 1 29.02 3.69525 29.02 7.02C29.02 10.3448 31.7152 13.04 35.04 13.04Z" fill="white" stroke="black" stroke-width="1.5" stroke-miterlimit="10" stroke-linecap="round"/>
<path d="M16.95 30.92C20.2747 30.92 22.97 28.2248 22.97 24.9C22.97 21.5752 20.2747 18.88 16.95 18.88C13.6252 18.88 10.9299 21.5752 10.9299 24.9C10.9299 28.2248 13.6252 30.92 16.95 30.92Z" fill="white" stroke="black" stroke-width="1.5" stroke-miterlimit="10" stroke-linecap="round"/>
<path d="M16.95 50.38C20.2747 50.38 22.97 47.6847 22.97 44.36C22.97 41.0352 20.2747 38.34 16.95 38.34C13.6252 38.34 10.9299 41.0352 10.9299 44.36C10.9299 47.6847 13.6252 50.38 16.95 50.38Z" fill="white" stroke="black" stroke-width="1.5" stroke-miterlimit="10" stroke-linecap="round"/>
<path d="M45.7302 50.38C49.0549 50.38 51.7502 47.6847 51.7502 44.36C51.7502 41.0352 49.0549 38.34 45.7302 38.34C42.4054 38.34 39.7102 41.0352 39.7102 44.36C39.7102 47.6847 42.4054 50.38 45.7302 50.38Z" fill="url(#paint1_linear_8170_583)" stroke="black" stroke-width="1.5" stroke-miterlimit="10"/>
<path d="M25.51 4.16992L29.03 7.01992L25.51 9.84992" stroke="black" stroke-width="1.5" stroke-linecap="round" stroke-linejoin="round"/>
<path d="M35.04 41.52L38.5601 44.37L35.04 47.21" stroke="black" stroke-width="1.5" stroke-linecap="round" stroke-linejoin="round"/>
<path d="M27.27 22.47L23.75 25.32L27.27 28.15" stroke="black" stroke-width="1.5" stroke-linecap="round" stroke-linejoin="round"/>
<path d="M5.39014 44.4799L9.89014 43.9599L8.43011 39.6799" stroke="black" stroke-width="1.5" stroke-linecap="round" stroke-linejoin="round"/>
<defs>
<linearGradient id="paint0_linear_8170_583" x1="1.81006" y1="7.02" x2="13.8401" y2="7.02" gradientUnits="userSpaceOnUse">
<stop stop-color="#CBD1FF"/>
<stop offset="0.55" stop-color="#F7B363"/>
<stop offset="1" stop-color="#771BED"/>
</linearGradient>
<linearGradient id="paint1_linear_8170_583" x1="39.7202" y1="44.36" x2="51.7502" y2="44.36" gradientUnits="userSpaceOnUse">
<stop stop-color="#CBD1FF"/>
<stop offset="0.55" stop-color="#F7B363"/>
<stop offset="1" stop-color="#771BED"/>
</linearGradient>
</defs>
</svg>
