<svg width="57" height="57" viewBox="0 0 57 57" fill="none" xmlns="http://www.w3.org/2000/svg">
<path d="M44.4443 49.82L35.9443 43.78C38.9343 39.89 40.5243 34.87 39.8543 29.44C38.7443 20.49 31.4243 13.36 22.4443 12.49C10.1443 11.3 -0.0957139 21.55 1.09429 33.85C1.96429 42.84 9.12428 50.17 18.0843 51.25C23.5243 51.91 28.5743 50.3 32.4543 47.28L38.8843 55.55C39.9943 56.98 42.0943 57.11 43.3743 55.83L44.8243 54.38C46.1343 53.07 45.9543 50.89 44.4443 49.81V49.82Z" fill="#CAB8FF"/>
<path d="M44.4443 46.82L35.9443 40.78C38.9343 36.89 40.5243 31.87 39.8543 26.44C38.7443 17.49 31.4243 10.36 22.4443 9.48996C10.1443 8.29996 -0.0957139 18.55 1.09429 30.85C1.96429 39.84 9.12428 47.17 18.0843 48.25C23.5243 48.91 28.5743 47.3 32.4543 44.28L38.8843 52.55C39.9943 53.98 42.0943 54.11 43.3743 52.83L44.8243 51.38C46.1343 50.07 45.9543 47.89 44.4443 46.81V46.82Z" fill="white" stroke="black" stroke-width="1.5" stroke-miterlimit="10"/>
<path d="M23.1943 24.1399H16.6243V34.8699H23.1943V24.1399Z" fill="url(#paint0_linear_8170_584)" stroke="black" stroke-width="1.5" stroke-linecap="round" stroke-linejoin="round"/>
<path d="M29.7643 27.8199H23.1943V34.8699H29.7643V27.8199Z" fill="white" stroke="black" stroke-width="1.5" stroke-linecap="round" stroke-linejoin="round"/>
<path d="M16.6244 27.8199H10.0544V34.8699H16.6244V27.8199Z" fill="white" stroke="black" stroke-width="1.5" stroke-linecap="round" stroke-linejoin="round"/>
<path d="M47.2043 8.78992C48.342 8.78992 49.2643 7.86763 49.2643 6.72992C49.2643 5.59222 48.342 4.66992 47.2043 4.66992C46.0666 4.66992 45.1443 5.59222 45.1443 6.72992C45.1443 7.86763 46.0666 8.78992 47.2043 8.78992Z" fill="url(#paint1_linear_8170_584)" stroke="black" stroke-width="1.5" stroke-miterlimit="10"/>
<path d="M43.5244 14.5199V14.4899C43.5244 12.4599 45.1644 10.8199 47.1944 10.8199C49.2244 10.8199 50.8644 12.4599 50.8644 14.4899V14.5199" stroke="black" stroke-width="1.5" stroke-miterlimit="10" stroke-linecap="round"/>
<path d="M47.2045 18.2C51.9541 18.2 55.8045 14.3496 55.8045 9.6C55.8045 4.85035 51.9541 1 47.2045 1C42.4548 1 38.6045 4.85035 38.6045 9.6C38.6045 14.3496 42.4548 18.2 47.2045 18.2Z" stroke="black" stroke-width="1.5" stroke-miterlimit="10" stroke-linecap="round"/>
<defs>
<linearGradient id="paint0_linear_8170_584" x1="16.6243" y1="29.4999" x2="23.1943" y2="29.4999" gradientUnits="userSpaceOnUse">
<stop stop-color="#CBD1FF"/>
<stop offset="0.55" stop-color="#F7B363"/>
<stop offset="1" stop-color="#771BED"/>
</linearGradient>
<linearGradient id="paint1_linear_8170_584" x1="45.1343" y1="6.72992" x2="49.2643" y2="6.72992" gradientUnits="userSpaceOnUse">
<stop stop-color="#CBD1FF"/>
<stop offset="0.55" stop-color="#F7B363"/>
<stop offset="1" stop-color="#771BED"/>
</linearGradient>
</defs>
</svg>
