<svg width="55" height="53" viewBox="0 0 55 53" fill="none" xmlns="http://www.w3.org/2000/svg">
<path d="M50.14 46.4013C50.14 45.9513 49.7901 45.6213 49.3501 45.5613C46.4501 45.1813 44.21 42.7013 44.2 39.6913C44.2 36.6813 46.4301 34.2013 49.3301 33.8013C49.7701 33.7413 50.12 33.4013 50.12 32.9513V32.8913C50.12 30.0813 47.8301 27.8113 45.0301 27.8213L6.07004 27.9013C3.26004 27.9013 0.990033 30.1913 1.00003 32.9913V33.0513C1.00003 33.5013 1.35007 33.8313 1.79007 33.8913C4.69007 34.2713 6.93004 36.7513 6.94004 39.7613C6.95004 42.7713 4.71003 45.2513 1.81003 45.6513C1.37003 45.7113 1.02005 46.0513 1.02005 46.5013V46.5613C1.02005 49.3713 3.31008 51.6413 6.11008 51.6313L45.07 51.5513C47.88 51.5513 50.15 49.2613 50.14 46.4613V46.4013Z" fill="url(#paint0_linear_8170_610)" stroke="black" stroke-width="1.5" stroke-miterlimit="10"/>
<path d="M50.2271 1.06147L45.7373 1.01445C44.9752 1.00647 44.351 1.61782 44.343 2.37993L44.3033 6.16971C44.2953 6.93183 44.9066 7.55611 45.6687 7.56409L50.1585 7.61111C50.9206 7.61909 51.5449 7.00775 51.5529 6.24564L51.5926 2.45585C51.6006 1.69374 50.9892 1.06945 50.2271 1.06147Z" fill="url(#paint1_linear_8170_610)" stroke="black" stroke-width="1.5" stroke-linecap="round" stroke-linejoin="round"/>
<path d="M52.0301 4.14126L34.1401 3.95126C33.0501 3.94126 32.1701 4.81126 32.1601 5.89126L32.0401 17.0213C32.0301 18.1013 32.8901 18.9913 33.9801 19.0013L51.8701 19.1913C52.9501 19.2013 53.8401 18.3313 53.8501 17.2513L53.9701 6.12126C53.9801 5.04126 53.1101 4.15126 52.0301 4.14126ZM42.9601 15.6613C41.0601 15.6413 39.5301 14.0713 39.5501 12.1713C39.5701 10.2713 41.1401 8.74125 43.0401 8.76125C44.9401 8.78125 46.4701 10.3413 46.4501 12.2513C46.4301 14.1613 44.8701 15.6813 42.9601 15.6613Z" fill="white" stroke="black" stroke-width="1.5" stroke-miterlimit="10"/>
<path d="M37.9044 6.15244L34.4446 6.11621L34.4166 8.78606L37.8764 8.82229L37.9044 6.15244Z" fill="url(#paint2_linear_8170_610)" stroke="black" stroke-width="1.5" stroke-linecap="round" stroke-linejoin="round"/>
<path d="M31.2002 27.9312L31.1902 30.4312" stroke="black" stroke-width="1.5" stroke-miterlimit="10"/>
<path d="M31.1602 36.5115L31.1301 45.6215" stroke="black" stroke-width="1.5" stroke-miterlimit="10" stroke-dasharray="6.07 6.07"/>
<path d="M31.1201 48.6511L31.1101 51.1511" stroke="black" stroke-width="1.5" stroke-miterlimit="10"/>
<defs>
<linearGradient id="paint0_linear_8170_610" x1="0.990033" y1="39.7313" x2="50.14" y2="39.7313" gradientUnits="userSpaceOnUse">
<stop stop-color="#CBD1FF"/>
<stop offset="0.55" stop-color="#F7B363"/>
<stop offset="1" stop-color="#771BED"/>
</linearGradient>
<linearGradient id="paint1_linear_8170_610" x1="44.0317" y1="5.53412" x2="51.8563" y2="3.11501" gradientUnits="userSpaceOnUse">
<stop stop-color="#CBD1FF"/>
<stop offset="0.44" stop-color="#F7B363"/>
<stop offset="1" stop-color="#771BED"/>
</linearGradient>
<linearGradient id="paint2_linear_8170_610" x1="34.4307" y1="7.44614" x2="37.8904" y2="7.48237" gradientUnits="userSpaceOnUse">
<stop stop-color="#CBD1FF"/>
<stop offset="0.44" stop-color="#F7B363"/>
<stop offset="1" stop-color="#771BED"/>
</linearGradient>
</defs>
</svg>
