<svg width="47" height="49" viewBox="0 0 47 49" fill="none" xmlns="http://www.w3.org/2000/svg">
<path d="M44.4443 41.4242L35.9443 35.3842C38.9343 31.4942 40.5243 26.4742 39.8543 21.0442C38.7443 12.0942 31.4243 4.9642 22.4443 4.0942C10.1443 2.9042 -0.0957139 13.1542 1.09429 25.4542C1.96429 34.4442 9.12428 41.7742 18.0843 42.8542C23.5243 43.5142 28.5743 41.9042 32.4543 38.8842L38.8843 47.1542C39.9943 48.5842 42.0943 48.7142 43.3743 47.4342L44.8243 45.9842C46.1343 44.6742 45.9543 42.4942 44.4443 41.4142V41.4242Z" fill="#CAB8FF"/>
<path d="M44.4443 38.4242L35.9443 32.3842C38.9343 28.4942 40.5243 23.4742 39.8543 18.0442C38.7443 9.0942 31.4243 1.9642 22.4443 1.0942C10.1443 -0.095796 -0.0957139 10.1542 1.09429 22.4542C1.96429 31.4442 9.12428 38.7742 18.0843 39.8542C23.5243 40.5142 28.5743 38.9042 32.4543 35.8842L38.8843 44.1542C39.9943 45.5842 42.0943 45.7142 43.3743 44.4342L44.8243 42.9842C46.1343 41.6742 45.9543 39.4942 44.4443 38.4142V38.4242Z" fill="white" stroke="black" stroke-width="1.5" stroke-miterlimit="10"/>
<path d="M14.7244 16.474C14.7244 13.094 17.4644 10.354 20.8444 10.354C24.2244 10.354 26.9644 13.094 26.9644 16.474C26.9644 19.054 23.3843 25.854 21.7043 28.914C21.3343 29.594 20.3643 29.594 19.9943 28.914C18.3143 25.854 14.7344 19.054 14.7344 16.474H14.7244Z" fill="url(#paint0_linear_8170_609)" stroke="black" stroke-width="1.5" stroke-miterlimit="10"/>
<path d="M20.8443 18.6342C22.1808 18.6342 23.2643 17.5507 23.2643 16.2142C23.2643 14.8777 22.1808 13.7942 20.8443 13.7942C19.5078 13.7942 18.4243 14.8777 18.4243 16.2142C18.4243 17.5507 19.5078 18.6342 20.8443 18.6342Z" stroke="black" stroke-width="1.5" stroke-miterlimit="10"/>
<defs>
<linearGradient id="paint0_linear_8170_609" x1="14.7244" y1="19.894" x2="26.9644" y2="19.894" gradientUnits="userSpaceOnUse">
<stop stop-color="#CBD1FF"/>
<stop offset="0.55" stop-color="#F7B363"/>
<stop offset="1" stop-color="#771BED"/>
</linearGradient>
</defs>
</svg>
