<svg width="45" height="54" viewBox="0 0 45 54" fill="none" xmlns="http://www.w3.org/2000/svg">
<path d="M22.2234 6.54997C22.2234 5.67997 21.5134 4.96997 20.6434 4.96997H1.58338C0.173383 4.96997 -0.526612 6.66997 0.463388 7.65997L11.9134 19.11C12.7934 19.99 13.2834 21.18 13.2834 22.41V48.15C13.2834 49.19 14.2634 49.94 15.2734 49.67L20.0934 46.43L18.4734 35.09L22.2334 6.53998L22.2234 6.54997Z" fill="#CAB8FF"/>
<path d="M43.6935 4.08008L28.1835 19.5901V30.7401C27.9635 30.8101 27.7435 30.8901 27.5135 30.9701V36.4901C25.8535 35.2701 22.8635 37.3401 20.4035 40.2501C20.3635 40.6201 20.3435 41.0001 20.3435 41.3701V41.3901C20.3435 41.7501 20.3635 42.0901 20.3935 42.4401C20.4635 43.2401 20.5135 44.2401 20.7535 44.9901C20.8235 45.2201 20.9035 45.4501 21.0035 45.6801L20.0835 46.4401L17.6235 48.8101L17.1035 49.3201V19.5901L1.59351 4.08008H43.6835H43.6935Z" fill="white"/>
<path d="M21.2934 46.33L20.4034 47.08L17.8134 49.56L17.5734 49.79C17.4934 49.87 17.3934 49.92 17.2934 49.95C17.2434 49.97 17.1834 49.98 17.1234 49.98C17.0334 49.98 16.9434 49.96 16.8534 49.93C16.6134 49.83 16.4534 49.58 16.4534 49.32V19.87L1.14342 4.55997C0.873418 4.28997 0.873418 3.87998 1.14342 3.61998C1.40342 3.34998 1.82342 3.34998 2.08342 3.61998L17.5934 19.13C17.7134 19.25 17.7934 19.42 17.7934 19.6V47.76L19.8434 45.79L20.7834 44.99C20.8534 45.22 20.9334 45.45 21.0334 45.68C21.1134 45.9 21.2134 46.12 21.3134 46.33H21.2934Z" fill="black"/>
<path d="M44.1635 4.55997L28.8534 19.87V30.55C28.6334 30.6 28.4134 30.67 28.1834 30.74C27.9634 30.81 27.7434 30.89 27.5134 30.97V19.59C27.5134 19.41 27.5834 19.24 27.7134 19.12L42.7434 4.08998L43.2134 3.61998C43.4834 3.34998 43.8934 3.34998 44.1534 3.61998C44.4234 3.87998 44.4234 4.29997 44.1534 4.55997H44.1635Z" fill="black"/>
<path d="M22.4836 47.9199C22.1536 48.2499 21.8136 48.5499 21.4936 48.8199C19.8436 50.2099 18.3236 50.7899 17.5236 50.2199C17.4236 50.1499 17.3436 50.0599 17.2836 49.9599C16.9436 49.4899 16.8936 48.6799 17.1136 47.6799C17.2336 47.0799 17.4736 46.3899 17.7836 45.6599C18.1336 44.8499 18.5936 43.9899 19.1436 43.1199C19.4036 42.7099 19.6736 42.3099 19.9736 41.8999C20.0936 41.7299 20.2236 41.5599 20.3536 41.3999C20.3536 41.7599 20.3736 42.0899 20.4036 42.4399C20.4736 43.2399 20.6436 44.0099 20.8836 44.7599C20.9536 44.9899 21.0336 45.2199 21.1336 45.4499C21.2136 45.6699 21.3136 45.8899 21.4136 46.0999C21.6136 46.5399 21.8436 46.9499 22.0936 47.3499C22.2136 47.5499 22.3436 47.7299 22.4736 47.9099L22.4836 47.9199Z" fill="white"/>
<path d="M22.4835 47.92C22.3535 47.74 22.2235 47.56 22.1035 47.36C21.7635 47.71 21.4335 48.01 21.1135 48.28C19.6035 49.55 18.3735 50.01 17.9235 49.68C17.8835 49.65 17.8535 49.62 17.8135 49.57C17.6935 49.41 17.6335 49.15 17.6335 48.81C17.6335 48.51 17.6735 48.14 17.7735 47.72C17.9935 46.75 18.4935 45.5 19.3135 44.1C19.6235 43.57 19.9935 43.01 20.4035 42.44C20.3635 42.09 20.3535 41.76 20.3535 41.4V41.37C20.3535 41 20.3735 40.62 20.4135 40.25C20.0735 40.65 19.7335 41.08 19.4235 41.5C19.2935 41.69 19.1535 41.87 19.0335 42.06C18.5735 42.74 18.1435 43.43 17.7835 44.12C17.5235 44.59 17.3035 45.06 17.1135 45.52C16.8135 46.23 16.5835 46.92 16.4435 47.55C16.3535 47.99 16.3035 48.4 16.3035 48.78C16.3035 49.64 16.5635 50.34 17.1435 50.75C17.4835 50.99 17.8635 51.11 18.2935 51.11C19.3435 51.11 20.6235 50.43 21.9135 49.35C22.2435 49.08 22.5735 48.78 22.9035 48.45C22.7635 48.27 22.6235 48.09 22.4935 47.92H22.4835Z" fill="black"/>
<path d="M33.4834 52.3901C39.0173 52.3901 43.5034 47.904 43.5034 42.3701C43.5034 36.8362 39.0173 32.3501 33.4834 32.3501C27.9495 32.3501 23.4634 36.8362 23.4634 42.3701C23.4634 47.904 27.9495 52.3901 33.4834 52.3901Z" fill="url(#paint0_linear_8170_603)" stroke="black" stroke-width="1.5" stroke-miterlimit="10"/>
<path d="M22.6535 6.56C34.2791 6.56 43.7035 5.31535 43.7035 3.78C43.7035 2.24465 34.2791 1 22.6535 1C11.0279 1 1.60352 2.24465 1.60352 3.78C1.60352 5.31535 11.0279 6.56 22.6535 6.56Z" fill="white" stroke="black" stroke-width="1.5" stroke-linecap="round" stroke-linejoin="round"/>
<path d="M38.5659 40.558C39.3196 39.8043 39.3196 38.5823 38.5659 37.8286C37.8122 37.0749 36.5902 37.0749 35.8365 37.8286L32.8737 40.7914C32.12 41.5451 32.12 42.7671 32.8737 43.5208C33.6274 44.2745 34.8494 44.2745 35.6031 43.5208L38.5659 40.558Z" stroke="black" stroke-width="1.5" stroke-miterlimit="10"/>
<path d="M34.0937 43.5627C34.8474 42.809 34.8474 41.587 34.0937 40.8332C33.34 40.0795 32.118 40.0795 31.3643 40.8332L28.4015 43.796C27.6478 44.5497 27.6478 45.7717 28.4015 46.5254C29.1552 47.2792 30.3772 47.2792 31.131 46.5254L34.0937 43.5627Z" stroke="black" stroke-width="1.5" stroke-miterlimit="10"/>
<defs>
<linearGradient id="paint0_linear_8170_603" x1="23.4634" y1="42.3701" x2="43.5134" y2="42.3701" gradientUnits="userSpaceOnUse">
<stop stop-color="#CBD1FF"/>
<stop offset="0.55" stop-color="#F7B363"/>
<stop offset="1" stop-color="#771BED"/>
</linearGradient>
</defs>
</svg>
