<svg width="53" height="53" viewBox="0 0 53 53" fill="none" xmlns="http://www.w3.org/2000/svg">
<path d="M21.93 52.4313C34.0416 52.4313 43.86 42.6129 43.86 30.5013C43.86 18.3897 34.0416 8.57129 21.93 8.57129C9.81839 8.57129 0 18.3897 0 30.5013C0 42.6129 9.81839 52.4313 21.93 52.4313Z" fill="#CAB8FF"/>
<path d="M23.9002 50.4611C36.0118 50.4611 45.8302 40.6427 45.8302 28.5311C45.8302 16.4195 36.0118 6.60107 23.9002 6.60107C11.7886 6.60107 1.97021 16.4195 1.97021 28.5311C1.97021 40.6427 11.7886 50.4611 23.9002 50.4611Z" fill="white" stroke="black" stroke-width="1.5" stroke-miterlimit="10"/>
<path d="M45.6099 12.0113C44.7299 9.71128 43.0099 7.96127 40.3699 6.83127C40.1599 6.74127 40.1599 6.46128 40.3699 6.37128C42.8199 5.39128 44.6099 3.70127 45.5999 1.16127C45.6799 0.951272 45.9699 0.941272 46.0599 1.16127C47.3699 4.30127 49.0099 5.36127 51.2899 6.35127C51.4999 6.44127 51.4899 6.72128 51.2799 6.81128C48.6899 7.85128 47.0699 9.69128 46.0599 12.0313C45.9699 12.2413 45.6799 12.2313 45.5999 12.0213L45.6099 12.0113Z" fill="url(#paint0_linear_8170_605)" stroke="black" stroke-width="1.5" stroke-miterlimit="10"/>
<path d="M7.36011 34.2315C8.53011 28.9515 10.3001 22.8715 12.5201 22.8515C15.7301 22.8215 17.3601 35.4815 20.8301 35.4415C24.3401 35.4015 25.8001 22.4315 29.1401 22.4615C32.3401 22.4915 33.7501 34.4315 36.4401 34.3615C38.1001 34.3215 39.4201 29.7415 40.4301 24.2815" stroke="url(#paint1_linear_8170_605)" stroke-width="1.5" stroke-miterlimit="10"/>
<defs>
<linearGradient id="paint0_linear_8170_605" x1="44.1399" y1="10.8313" x2="46.8999" y2="3.93128" gradientUnits="userSpaceOnUse">
<stop stop-color="#CBD1FF"/>
<stop offset="0.55" stop-color="#F7B363"/>
<stop offset="1" stop-color="#771BED"/>
</linearGradient>
<linearGradient id="paint1_linear_8170_605" x1="6.62011" y1="28.9515" x2="41.1601" y2="28.9515" gradientUnits="userSpaceOnUse">
<stop stop-color="#CBD1FF"/>
<stop offset="0.55" stop-color="#F7B363"/>
<stop offset="1" stop-color="#771BED"/>
</linearGradient>
</defs>
</svg>
