<svg width="48" height="54" viewBox="0 0 48 54" fill="none" xmlns="http://www.w3.org/2000/svg">
<path d="M44.4443 47.0012L35.9443 40.9612C38.9343 37.0712 40.5243 32.0512 39.8543 26.6212C38.7443 17.6712 31.4243 10.5412 22.4443 9.67123C10.1443 8.48123 -0.0957142 18.7312 1.09429 31.0312C1.96429 40.0212 9.12428 47.3512 18.0843 48.4312C23.5243 49.0912 28.5743 47.4812 32.4543 44.4612L38.8843 52.7312C39.9943 54.1612 42.0943 54.2912 43.3743 53.0112L44.8243 51.5612C46.1343 50.2512 45.9543 48.0712 44.4443 46.9912V47.0012Z" fill="#CAB8FF"/>
<path d="M44.4443 44.0012L35.9443 37.9612C38.9343 34.0712 40.5243 29.0512 39.8543 23.6212C38.7443 14.6712 31.4243 7.54123 22.4443 6.67123C10.1443 5.48123 -0.0957142 15.7312 1.09429 28.0312C1.96429 37.0212 9.12428 44.3512 18.0843 45.4312C23.5243 46.0912 28.5743 44.4812 32.4543 41.4612L38.8843 49.7312C39.9943 51.1612 42.0943 51.2912 43.3743 50.0112L44.8243 48.5612C46.1343 47.2512 45.9543 45.0712 44.4443 43.9912V44.0012Z" fill="white" stroke="black" stroke-width="1.5" stroke-miterlimit="10"/>
<path d="M28.9541 20.2513C28.8241 20.1213 28.6241 20.1213 28.4841 20.2313C27.5341 20.9513 26.1842 20.8813 25.3142 20.0213C24.4442 19.1613 24.3741 17.8013 25.1041 16.8513C25.2141 16.7113 25.2142 16.5113 25.0842 16.3813L25.0642 16.3613C24.2542 15.5513 22.9442 15.5513 22.1442 16.3613L10.9342 27.5713C10.1242 28.3813 10.1242 29.6913 10.9342 30.4913L10.9541 30.5113C11.0841 30.6413 11.2842 30.6413 11.4242 30.5313C12.3742 29.8113 13.7242 29.8813 14.5942 30.7413C15.4642 31.6013 15.5342 32.9613 14.8042 33.9113C14.6942 34.0513 14.6941 34.2513 14.8241 34.3813L14.8442 34.4013C15.6542 35.2113 16.9641 35.2113 17.7641 34.4013L28.9742 23.1913C29.7842 22.3813 29.7842 21.0713 28.9742 20.2713L28.9541 20.2513Z" stroke="black" stroke-width="1.5" stroke-miterlimit="10"/>
<path d="M19.9541 19.5913L21.3741 21.0013" stroke="black" stroke-width="1.5" stroke-miterlimit="10" stroke-linecap="round"/>
<path d="M24.7341 24.3613L26.1441 25.7813" stroke="black" stroke-width="1.5" stroke-miterlimit="10" stroke-linecap="round"/>
<path d="M40.5342 12.0113C39.6542 9.71127 37.9342 7.96127 35.2942 6.83127C35.0842 6.74127 35.0842 6.46127 35.2942 6.37127C37.7442 5.39127 39.5342 3.70127 40.5242 1.16127C40.6042 0.951272 40.8942 0.941272 40.9842 1.16127C42.2942 4.30127 43.9342 5.36127 46.2142 6.35127C46.4242 6.44127 46.4142 6.72127 46.2042 6.81127C43.6142 7.85127 41.9942 9.69127 40.9842 12.0313C40.8942 12.2413 40.6042 12.2313 40.5242 12.0213L40.5342 12.0113Z" fill="url(#paint0_linear_8170_579)" stroke="black" stroke-width="1.5" stroke-miterlimit="10"/>
<defs>
<linearGradient id="paint0_linear_8170_579" x1="39.0542" y1="10.8313" x2="41.8142" y2="3.93127" gradientUnits="userSpaceOnUse">
<stop stop-color="#CBD1FF"/>
<stop offset="0.55" stop-color="#F7B363"/>
<stop offset="1" stop-color="#771BED"/>
</linearGradient>
</defs>
</svg>
