<svg width="56" height="47" viewBox="0 0 56 47" fill="none" xmlns="http://www.w3.org/2000/svg">
<path d="M3.94345 4.67688H10.139V46.0601H3.94345C1.76491 46.0601 0 44.2951 0 42.1166V8.62032C0 6.44178 1.76491 4.67688 3.94345 4.67688Z" fill="#CAB8FF"/>
<path d="M10.1482 4.67688H47.5879C49.7665 4.67688 51.5314 6.44178 51.5314 8.62032V42.1166C51.5314 44.2951 49.7665 46.0601 47.5879 46.0601H10.1482V4.67688Z" fill="#CAB8FF"/>
<path d="M7.62021 1H13.8157V42.3832H7.62021C5.44166 42.3832 3.67676 40.6183 3.67676 38.4397V4.94344C3.67676 2.7649 5.44166 1 7.62021 1Z" fill="url(#paint0_linear_8170_597)" stroke="black" stroke-width="1.5" stroke-miterlimit="10"/>
<path d="M13.825 1H51.2647C53.4432 1 55.2081 2.7649 55.2081 4.94344V38.4397C55.2081 40.6183 53.4432 42.3832 51.2647 42.3832H13.825V1Z" fill="white" stroke="black" stroke-width="1.5" stroke-miterlimit="10"/>
<path d="M37.743 4.98938H18.3291C17.8215 4.98938 17.4099 5.40093 17.4099 5.9086V17.6654C17.4099 18.1731 17.8215 18.5846 18.3291 18.5846H37.743C38.2507 18.5846 38.6622 18.1731 38.6622 17.6654V5.9086C38.6622 5.40093 38.2507 4.98938 37.743 4.98938Z" fill="white" stroke="black" stroke-width="1.5" stroke-linecap="round" stroke-linejoin="round"/>
<path d="M25.545 23.6586H18.3291C17.8215 23.6586 17.4099 24.0701 17.4099 24.5778V37.8881C17.4099 38.3957 17.8215 38.8073 18.3291 38.8073H25.545C26.0527 38.8073 26.4642 38.3957 26.4642 37.8881V24.5778C26.4642 24.0701 26.0527 23.6586 25.545 23.6586Z" fill="white" stroke="black" stroke-width="1.5" stroke-linecap="round" stroke-linejoin="round"/>
<path d="M38.1842 23.6586H30.9683C30.4606 23.6586 30.0491 24.0701 30.0491 24.5778V37.8881C30.0491 38.3957 30.4606 38.8073 30.9683 38.8073H38.1842C38.6918 38.8073 39.1034 38.3957 39.1034 37.8881V24.5778C39.1034 24.0701 38.6918 23.6586 38.1842 23.6586Z" fill="white" stroke="black" stroke-width="1.5" stroke-linecap="round" stroke-linejoin="round"/>
<path d="M50.8236 23.6586H43.6077C43.1 23.6586 42.6885 24.0701 42.6885 24.5778V37.8881C42.6885 38.3957 43.1 38.8073 43.6077 38.8073H50.8236C51.3312 38.8073 51.7428 38.3957 51.7428 37.8881V24.5778C51.7428 24.0701 51.3312 23.6586 50.8236 23.6586Z" fill="white" stroke="black" stroke-width="1.5" stroke-linecap="round" stroke-linejoin="round"/>
<path d="M50.8236 4.98938H43.6077C43.1 4.98938 42.6885 5.40093 42.6885 5.9086V17.6654C42.6885 18.1731 43.1 18.5846 43.6077 18.5846H50.8236C51.3312 18.5846 51.7428 18.1731 51.7428 17.6654V5.9086C51.7428 5.40093 51.3312 4.98938 50.8236 4.98938Z" fill="white" stroke="black" stroke-width="1.5" stroke-linecap="round" stroke-linejoin="round"/>
<defs>
<linearGradient id="paint0_linear_8170_597" x1="9.29318" y1="0.779388" x2="8.328" y2="41.3537" gradientUnits="userSpaceOnUse">
<stop stop-color="#CBD1FF"/>
<stop offset="0.55" stop-color="#F7B363"/>
<stop offset="1" stop-color="#771BED"/>
</linearGradient>
</defs>
</svg>
