<svg width="56" height="49" viewBox="0 0 56 49" fill="none" xmlns="http://www.w3.org/2000/svg">
<path d="M55.2299 16L51.1499 20.31M51.1499 20.31L44.6699 17.55M51.1499 20.31C50.2499 9.48001 40.0899 1 28.0099 1C15.2799 1 4.80994 10.42 4.80994 21.86" stroke="black" stroke-width="1.5" stroke-linecap="round" stroke-linejoin="round"/>
<path d="M1 32.88L5.08 28.57M5.08 28.57L11.56 31.33M5.08 28.57C5.98 39.4 16.14 47.88 28.22 47.88C40.95 47.88 51.42 38.46 51.42 27.02" stroke="black" stroke-width="1.5" stroke-linecap="round" stroke-linejoin="round"/>
<path d="M25.99 36.2901C24.44 32.2401 21.42 29.1701 16.78 27.1801C16.41 27.0201 16.42 26.5201 16.78 26.3701C21.09 24.6401 24.24 21.6801 25.97 17.2201C26.12 16.8401 26.63 16.8301 26.78 17.2101C29.08 22.7301 31.97 24.5901 35.98 26.3301C36.34 26.4901 36.33 26.9901 35.96 27.1401C31.41 28.9701 28.56 32.2001 26.79 36.3001C26.63 36.6701 26.12 36.6601 25.97 36.2801L25.99 36.2901Z" fill="#CAB8FF"/>
<path d="M27.99 34.2901C26.44 30.2401 23.42 27.1701 18.78 25.1801C18.41 25.0201 18.42 24.5201 18.78 24.3701C23.09 22.6401 26.24 19.6801 27.97 15.2201C28.12 14.8401 28.63 14.8301 28.78 15.2101C31.08 20.7301 33.97 22.5901 37.98 24.3301C38.34 24.4901 38.33 24.9901 37.96 25.1401C33.41 26.9701 30.56 30.2001 28.79 34.3001C28.63 34.6701 28.12 34.6601 27.97 34.2801L27.99 34.2901Z" fill="url(#paint0_linear_8170_598)" stroke="black" stroke-width="1.5" stroke-miterlimit="10"/>
<defs>
<linearGradient id="paint0_linear_8170_598" x1="25.4" y1="32.2101" x2="30.25" y2="20.0801" gradientUnits="userSpaceOnUse">
<stop stop-color="#CBD1FF"/>
<stop offset="0.55" stop-color="#F7B363"/>
<stop offset="1" stop-color="#771BED"/>
</linearGradient>
</defs>
</svg>
