<svg width="45" height="54" viewBox="0 0 45 54" fill="none" xmlns="http://www.w3.org/2000/svg">
<path d="M22.2134 6.54997C22.2134 5.67997 21.5034 4.96997 20.6334 4.96997H1.58339C0.173386 4.96997 -0.526614 6.66997 0.463386 7.65997L11.9134 19.11C12.7934 19.99 13.2834 21.18 13.2834 22.41V48.15C13.2834 49.19 14.2634 49.94 15.2734 49.67L20.0934 46.43L18.4734 35.09L22.2334 6.53998L22.2134 6.54997Z" fill="#CAB8FF"/>
<path d="M43.6834 4.08008L28.1734 19.5901V30.7401C27.9534 30.8101 27.7334 30.8901 27.5034 30.9701V36.4901C25.8434 35.2701 22.8534 37.3401 20.3934 40.2501C20.3534 40.6201 20.3334 41.0001 20.3334 41.3701V41.3901C20.3334 41.7501 20.3534 42.0901 20.3834 42.4401C20.4534 43.2401 20.5034 44.2401 20.7434 44.9901C20.8134 45.2201 20.8934 45.4501 20.9934 45.6801L20.0734 46.4401L17.6134 48.8101L17.0934 49.3201V19.5901L1.58337 4.08008H43.6734H43.6834Z" fill="white"/>
<path d="M21.2834 46.33L20.3934 47.08L17.8034 49.56L17.5634 49.79C17.4834 49.87 17.3834 49.92 17.2834 49.95C17.2334 49.97 17.1734 49.98 17.1134 49.98C17.0234 49.98 16.9334 49.96 16.8434 49.93C16.6034 49.83 16.4434 49.58 16.4434 49.32V19.87L1.13341 4.55997C0.863408 4.28997 0.863408 3.87998 1.13341 3.61998C1.39341 3.34998 1.81341 3.34998 2.07341 3.61998L17.5834 19.13C17.7034 19.25 17.7834 19.42 17.7834 19.6V47.76L19.8334 45.79L20.7734 44.99C20.8434 45.22 20.9234 45.45 21.0234 45.68C21.1034 45.9 21.2034 46.12 21.3034 46.33H21.2834Z" fill="black"/>
<path d="M44.1534 4.55997L28.8434 19.87V30.55C28.6234 30.6 28.4034 30.67 28.1734 30.74C27.9534 30.81 27.7334 30.89 27.5034 30.97V19.59C27.5034 19.41 27.5734 19.24 27.7034 19.12L42.7334 4.08998L43.2034 3.61998C43.4734 3.34998 43.8834 3.34998 44.1434 3.61998C44.4134 3.87998 44.4134 4.29997 44.1434 4.55997H44.1534Z" fill="black"/>
<path d="M22.4735 47.9199C22.1435 48.2499 21.8035 48.5499 21.4835 48.8199C19.8335 50.2099 18.3135 50.7899 17.5135 50.2199C17.4135 50.1499 17.3335 50.0599 17.2735 49.9599C16.9335 49.4899 16.8835 48.6799 17.1035 47.6799C17.2235 47.0799 17.4635 46.3899 17.7735 45.6599C18.1235 44.8499 18.5835 43.9899 19.1335 43.1199C19.3935 42.7099 19.6635 42.3099 19.9635 41.8999C20.0835 41.7299 20.2135 41.5599 20.3435 41.3999C20.3435 41.7599 20.3635 42.0899 20.3935 42.4399C20.4635 43.2399 20.6335 44.0099 20.8735 44.7599C20.9435 44.9899 21.0235 45.2199 21.1235 45.4499C21.2035 45.6699 21.3035 45.8899 21.4035 46.0999C21.6035 46.5399 21.8335 46.9499 22.0835 47.3499C22.2035 47.5499 22.3335 47.7299 22.4635 47.9099L22.4735 47.9199Z" fill="white"/>
<path d="M22.4735 47.92C22.3435 47.74 22.2135 47.56 22.0935 47.36C21.7535 47.71 21.4235 48.01 21.1035 48.28C19.5935 49.55 18.3635 50.01 17.9135 49.68C17.8735 49.65 17.8435 49.62 17.8035 49.57C17.6835 49.41 17.6235 49.15 17.6235 48.81C17.6235 48.51 17.6635 48.14 17.7635 47.72C17.9835 46.75 18.4835 45.5 19.3035 44.1C19.6135 43.57 19.9835 43.01 20.3935 42.44C20.3535 42.09 20.3435 41.76 20.3435 41.4V41.37C20.3435 41 20.3635 40.62 20.4035 40.25C20.0635 40.65 19.7235 41.08 19.4135 41.5C19.2835 41.69 19.1435 41.87 19.0235 42.06C18.5635 42.74 18.1335 43.43 17.7735 44.12C17.5135 44.59 17.2935 45.06 17.1035 45.52C16.8035 46.23 16.5735 46.92 16.4335 47.55C16.3435 47.99 16.2935 48.4 16.2935 48.78C16.2935 49.64 16.5535 50.34 17.1335 50.75C17.4735 50.99 17.8535 51.11 18.2835 51.11C19.3335 51.11 20.6135 50.43 21.9035 49.35C22.2335 49.08 22.5635 48.78 22.8935 48.45C22.7535 48.27 22.6135 48.09 22.4835 47.92H22.4735Z" fill="black"/>
<path d="M33.4834 52.3901C39.0173 52.3901 43.5034 47.904 43.5034 42.3701C43.5034 36.8362 39.0173 32.3501 33.4834 32.3501C27.9495 32.3501 23.4634 36.8362 23.4634 42.3701C23.4634 47.904 27.9495 52.3901 33.4834 52.3901Z" fill="url(#paint0_linear_8170_600)" stroke="black" stroke-width="1.5" stroke-miterlimit="10"/>
<path d="M22.6434 6.56C34.269 6.56 43.6934 5.31535 43.6934 3.78C43.6934 2.24465 34.269 1 22.6434 1C11.0178 1 1.59338 2.24465 1.59338 3.78C1.59338 5.31535 11.0178 6.56 22.6434 6.56Z" fill="white" stroke="black" stroke-width="1.5" stroke-linecap="round" stroke-linejoin="round"/>
<path d="M34.1334 38.48L28.2135 44.4L27.9135 47.67L31.1835 47.7L37.3235 41.46L34.1334 38.48Z" stroke="black" stroke-width="1.5" stroke-linecap="round" stroke-linejoin="round"/>
<path d="M35.5834 36.9099L38.7234 39.8999L39.4734 39.0899L36.3334 36.1799L35.5834 36.9099Z" fill="white" stroke="black" stroke-width="1.5" stroke-linecap="round" stroke-linejoin="round"/>
<defs>
<linearGradient id="paint0_linear_8170_600" x1="23.4534" y1="42.3701" x2="43.5034" y2="42.3701" gradientUnits="userSpaceOnUse">
<stop stop-color="#CBD1FF"/>
<stop offset="0.55" stop-color="#F7B363"/>
<stop offset="1" stop-color="#771BED"/>
</linearGradient>
</defs>
</svg>
