<svg width="54" height="59" viewBox="0 0 54 59" fill="none" xmlns="http://www.w3.org/2000/svg">
<path d="M23.0487 42.6213C33.1389 42.6213 41.3187 34.4415 41.3187 24.3513C41.3187 14.2611 33.1389 6.0813 23.0487 6.0813C12.9584 6.0813 4.77869 14.2611 4.77869 24.3513C4.77869 34.4415 12.9584 42.6213 23.0487 42.6213Z" fill="#CAB8FF"/>
<path d="M47.3286 12.0113C46.4486 9.71128 44.7287 7.96127 42.0887 6.83127C41.8787 6.74127 41.8787 6.46128 42.0887 6.37128C44.5387 5.39128 46.3286 3.70127 47.3186 1.16127C47.3986 0.951272 47.6887 0.941272 47.7787 1.16127C49.0887 4.30127 50.7287 5.36127 53.0087 6.35127C53.2187 6.44127 53.2087 6.72128 52.9987 6.81128C50.4087 7.85128 48.7887 9.69128 47.7787 12.0313C47.6887 12.2413 47.3986 12.2313 47.3186 12.0213L47.3286 12.0113Z" fill="url(#paint0_linear_8170_601)" stroke="black" stroke-width="1.5" stroke-miterlimit="10"/>
<path d="M26.0487 40.6213C36.1389 40.6213 44.3187 32.4415 44.3187 22.3513C44.3187 12.2611 36.1389 4.0813 26.0487 4.0813C15.9584 4.0813 7.77869 12.2611 7.77869 22.3513C7.77869 32.4415 15.9584 40.6213 26.0487 40.6213Z" fill="white" stroke="black" stroke-width="1.5" stroke-linecap="round" stroke-linejoin="round"/>
<path d="M9.97865 46.3313H42.1086C42.9086 46.3313 43.6586 46.6313 44.1886 47.1613L50.3986 53.4213C51.9686 55.0013 50.6986 57.4713 48.3186 57.4713H3.76864C1.38864 57.4713 0.128645 55.0013 1.68864 53.4213L7.89864 47.1613C8.41864 46.6313 9.17865 46.3313 9.97865 46.3313Z" fill="url(#paint1_linear_8170_601)" stroke="black" stroke-width="1.5" stroke-miterlimit="10"/>
<defs>
<linearGradient id="paint0_linear_8170_601" x1="45.8587" y1="10.8213" x2="48.6187" y2="3.92127" gradientUnits="userSpaceOnUse">
<stop stop-color="#CBD1FF"/>
<stop offset="0.55" stop-color="#F7B363"/>
<stop offset="1" stop-color="#771BED"/>
</linearGradient>
<linearGradient id="paint1_linear_8170_601" x1="0.998643" y1="51.9013" x2="51.0886" y2="51.9013" gradientUnits="userSpaceOnUse">
<stop stop-color="#CBD1FF"/>
<stop offset="0.55" stop-color="#F7B363"/>
<stop offset="1" stop-color="#771BED"/>
</linearGradient>
</defs>
</svg>
