<svg width="56" height="56" viewBox="0 0 56 56" fill="none" xmlns="http://www.w3.org/2000/svg">
<path d="M0.00999451 46.1399V5.05994C0.00999451 4.15994 0.739999 3.42993 1.64 3.42993H18.08C18.98 3.42993 19.71 4.15994 19.71 5.05994V34.2599C19.71 34.7799 19.46 35.2799 19.03 35.5799L2.59 47.4599C1.51 48.2399 0 47.4599 0 46.1399H0.00999451Z" fill="#CAB8FF"/>
<path d="M52.5299 51.69L47.3299 48C49.1599 45.62 50.1299 42.55 49.7199 39.23C49.0399 33.76 44.5599 29.4 39.0799 28.87C31.5599 28.14 25.2999 34.4099 26.0299 41.9299C26.5599 47.4199 30.9399 51.9099 36.4199 52.5699C39.7499 52.9699 42.8299 51.9899 45.2099 50.1399L49.1399 55.1999C49.8199 56.0699 51.1099 56.15 51.8899 55.37L52.7799 54.4799C53.5799 53.6799 53.4699 52.35 52.5499 51.69H52.5299Z" fill="#CAB8FF"/>
<path d="M53.5299 48.8601L48.3299 45.1701C50.1599 42.7901 51.1299 39.7201 50.7199 36.4001C50.0399 30.9301 45.5599 26.5701 40.0799 26.0401C32.5599 25.3101 26.2999 31.5801 27.0299 39.1001C27.5599 44.5901 31.9399 49.0801 37.4199 49.7401C40.7499 50.1401 43.8299 49.1601 46.2099 47.3101L50.1399 52.3701C50.8199 53.2401 52.1099 53.3201 52.8899 52.5401L53.7799 51.6501C54.5799 50.8501 54.4699 49.5201 53.5499 48.8601H53.5299Z" fill="white" stroke="black" stroke-width="1.5" stroke-miterlimit="10"/>
<path d="M38.8698 46.1201C43.3047 46.1201 46.8998 42.5249 46.8998 38.0901C46.8998 33.6552 43.3047 30.0601 38.8698 30.0601C34.435 30.0601 30.8398 33.6552 30.8398 38.0901C30.8398 42.5249 34.435 46.1201 38.8698 46.1201Z" fill="url(#paint0_linear_8170_602)" stroke="black" stroke-width="1.5" stroke-miterlimit="10"/>
<path d="M40.1299 0H2.11987C1.69987 0 1.36987 0.34 1.36987 0.75V44.42C1.36987 44.69 1.50987 44.94 1.73987 45.07C1.96987 45.21 2.24987 45.21 2.47987 45.08L19.9899 32.41L25.0599 35.29C25.0999 35.03 25.1499 34.77 25.2099 34.52C25.2699 34.26 25.3299 34.01 25.4099 33.76L20.3599 30.89C20.2499 30.83 20.1199 30.8 19.9899 30.8C19.8699 30.8 19.7399 30.83 19.6199 30.89L2.86987 43.14V2.5C2.86987 1.95 3.31987 1.5 3.86987 1.5H38.3799C38.9299 1.5 39.3799 1.95 39.3799 2.5V23.9C39.6399 23.96 39.8899 24.03 40.1299 24.11C40.3899 24.18 40.6299 24.26 40.8799 24.35V0.75C40.8799 0.34 40.5499 0 40.1299 0Z" fill="black"/>
<path d="M39.6399 23.6V1.45996H2.86987V43.14L19.9899 30.8L20.3599 30.89L25.4099 33.76L32.7699 24.91L39.6399 23.6Z" fill="white"/>
<defs>
<linearGradient id="paint0_linear_8170_602" x1="30.8398" y1="38.0901" x2="46.8998" y2="38.0901" gradientUnits="userSpaceOnUse">
<stop stop-color="#CBD1FF"/>
<stop offset="0.55" stop-color="#F7B363"/>
<stop offset="1" stop-color="#771BED"/>
</linearGradient>
</defs>
</svg>
