<svg width="24" height="24" viewBox="0 0 24 24" fill="none" xmlns="http://www.w3.org/2000/svg">
<path d="M11.0444 5.3415L12.9002 7.46241C13.448 8.08846 13.0364 9.07067 12.206 9.11921L10.3568 9.22729C9.98171 9.24922 9.62596 9.059 9.43588 8.73486L8.12871 6.50587C7.73776 5.83923 8.2185 5 8.99132 5H10.2918C10.5802 5 10.8545 5.12448 11.0444 5.3415Z" fill="#D9D9D9"/>
<path d="M9.5 14.5H6.63701C6.38539 14.5 6.14302 14.4051 5.95824 14.2343L3.34538 11.8192C3.12662 11.617 3.0094 11.3278 3.02564 11.0304L3.19136 7.99441C3.21378 7.58376 3.69477 7.37427 4.01071 7.63756L5.96751 9.26822C6.14723 9.41798 6.37376 9.5 6.60769 9.5H18.5096C18.6648 9.5 18.818 9.5353 18.9553 9.60772C20.9098 10.6384 23.699 12.8462 20.9568 14.3881C20.8215 14.4642 20.6648 14.5 20.5096 14.5H15.1228" stroke="black" stroke-width="1.5" stroke-linecap="round"/>
<path d="M14.2456 9L11.0444 5.3415C10.8545 5.12448 10.5802 5 10.2918 5H8.99132C8.2185 5 7.73776 5.83923 8.12871 6.50587L9.74561 9.26302" stroke="black" stroke-width="1.5" stroke-linecap="round"/>
<path d="M16.2456 13L11.0411 18.462C10.8524 18.6601 10.5908 18.7722 10.3172 18.7722H8.89233C8.14209 18.7722 7.65903 17.9768 8.00502 17.3111L10.2456 13" stroke="black" stroke-width="1.5" stroke-linecap="round"/>
<path d="M21.2456 12H18.2456" stroke="black" stroke-width="1.5" stroke-linecap="round"/>
</svg>
