<svg width="24" height="24" viewBox="0 0 24 24" fill="none" xmlns="http://www.w3.org/2000/svg">
<path d="M9.52147 15.5304L12 10L14.5 15.5783C14.6707 15.8836 14.4263 16.2544 14.0785 16.2179L12.0797 16.0083C12.0266 16.0028 11.9733 16.0015 11.92 16.0044L9.69834 16.1277C9.42415 16.1429 9.27328 15.8142 9.46356 15.6162C9.48766 15.5911 9.50725 15.5621 9.52147 15.5304Z" fill="#D9D9D9"/>
<path fill-rule="evenodd" clip-rule="evenodd" d="M11.9187 2.91406C11.8308 2.91398 11.7462 2.92917 11.6674 2.95722C11.454 3.03297 11.2868 3.20197 11.2118 3.41281C11.1873 3.48164 11.1726 3.55492 11.1693 3.63088C11.1284 4.35528 11.1225 5.20663 11.1677 6.13783C11.0695 8.04811 10.7436 10.3097 10.0381 12.4509C8.99472 15.618 7.17354 18.3775 4.18607 19.4996C3.86287 19.621 3.6727 19.9417 3.70267 20.2696C3.70076 20.2914 3.69979 20.3135 3.69979 20.3358C3.69979 20.7501 4.03557 21.0858 4.44979 21.0858H8.62212C8.97439 21.0858 9.31846 20.9795 9.60932 20.7808L11.2825 19.6377C11.3618 19.5835 11.4651 19.5795 11.5483 19.6274L13.677 20.8526C13.9426 21.0054 14.2436 21.0858 14.55 21.0858H19.8796C20.2938 21.0858 20.6296 20.7501 20.6296 20.3358C20.6296 19.9216 20.2938 19.5858 19.8796 19.5858H19.8158C19.7658 19.5511 19.7108 19.522 19.6512 19.4996C16.6638 18.3775 14.8426 15.618 13.7992 12.4509C13.0937 10.3097 12.7678 8.04811 12.6696 6.13782C12.7148 5.20664 12.7089 4.3553 12.668 3.6309C12.6647 3.55494 12.65 3.48164 12.6255 3.41281C12.5498 3.19943 12.3808 3.03228 12.1699 2.95722C12.0911 2.92917 12.0065 2.91398 11.9187 2.91406ZM16.7415 19.5858C14.5761 17.9385 13.21 15.4561 12.3745 12.9202C12.2018 12.3961 12.0505 11.8661 11.9187 11.3362C11.7868 11.8661 11.6355 12.3961 11.4628 12.9202C10.6273 15.4561 9.26124 17.9385 7.09583 19.5858H8.62212C8.67244 19.5858 8.7216 19.5707 8.76315 19.5423L10.4364 18.3991C10.9912 18.02 11.7141 17.9922 12.2965 18.3273L14.4253 19.5525C14.4632 19.5743 14.5062 19.5858 14.55 19.5858H16.7415Z" fill="black"/>
<path d="M10.3174 10.3508H13.4549" stroke="black" stroke-width="1.5" stroke-linecap="round"/>
<path d="M11.1393 4.66406H12.6331" stroke="black" stroke-width="1.5" stroke-linecap="round"/>
<path d="M7.05359 15.6641H16.7188" stroke="black" stroke-width="1.5" stroke-linecap="round"/>
</svg>
