<svg width="24" height="24" viewBox="0 0 24 24" fill="none" xmlns="http://www.w3.org/2000/svg">
<path d="M21.5801 15.3167C22.3354 12.7456 22.6803 11.3399 21.789 10.6751C21.6593 10.5784 21.4956 10.5446 21.3338 10.5446H3.80811C3.25582 10.5446 2.80811 10.9923 2.80811 11.5446V15" stroke="black" stroke-width="1.5" stroke-linecap="round"/>
<circle cx="7.5636" cy="12.9307" r="1" fill="black"/>
<circle cx="12.5636" cy="12.9307" r="1" fill="black"/>
<circle cx="17.5636" cy="12.9307" r="1" fill="black"/>
<rect x="4.41858" y="3.54456" width="8" height="7" rx="1" fill="#D9D9D9" stroke="black" stroke-width="1.5"/>
<rect x="12.4186" y="6.54456" width="5" height="4" rx="1" stroke="black" stroke-width="1.5"/>
<path d="M7.25 6.90259C7.25 7.3168 7.58579 7.65259 8 7.65259C8.41421 7.65259 8.75 7.3168 8.75 6.90259H7.25ZM7.25 3.90259V6.90259H8.75V3.90259H7.25Z" fill="black"/>
<path d="M14.1686 8.04456C14.1686 8.45878 14.5044 8.79456 14.9186 8.79456C15.3328 8.79456 15.6686 8.45878 15.6686 8.04456H14.1686ZM14.1686 6.39539V8.04456H15.6686V6.39539H14.1686Z" fill="black"/>
<path d="M2.56531 17.571C3.54356 16.7377 5.03049 15.571 7.84785 17.571C10.6652 19.571 13.5904 17.6433 15.4782 16.5712C16.6521 15.9046 19.5868 15.2712 21.9346 18.0712" stroke="black" stroke-width="1.5" stroke-linecap="round"/>
<path d="M2.56531 20.571C3.54356 19.7377 5.03049 18.571 7.84785 20.571C10.6652 22.571 13.5904 20.6433 15.4782 19.5712C16.6521 18.9046 19.5868 18.2712 21.9346 21.0712" stroke="black" stroke-width="1.5" stroke-linecap="round"/>
</svg>
