<svg width="24" height="24" viewBox="0 0 24 24" fill="none" xmlns="http://www.w3.org/2000/svg">
<path d="M4.83663 19.1337L17.9482 13.3933C18.4471 13.1748 19.0291 13.3958 19.2573 13.8904L19.5694 14.5668C19.8053 15.078 19.5728 15.6831 19.0553 15.9049L5.8329 21.572C5.29529 21.8024 4.67555 21.5243 4.49039 20.9694L4.28911 20.3663C4.12538 19.8757 4.36281 19.3412 4.83663 19.1337Z" stroke="black" stroke-width="1.5" stroke-linecap="round"/>
<path d="M19.1634 19.1337L6.05178 13.3933C5.55286 13.1748 4.9709 13.3958 4.74271 13.8904L4.4306 14.5668C4.19472 15.078 4.42718 15.6831 4.94466 15.9049L18.1671 21.572C18.7047 21.8024 19.3245 21.5243 19.5096 20.9694L19.7109 20.3663C19.8746 19.8757 19.6372 19.3412 19.1634 19.1337Z" stroke="black" stroke-width="1.5" stroke-linecap="round"/>
<circle cx="12.1172" cy="7.79357" r="2.20641" fill="#D9D9D9"/>
<path d="M12.1172 2.89648V1.89648" stroke="black" stroke-width="1.5" stroke-linecap="round"/>
<path d="M15.4726 4.75008L16.1797 4.04297" stroke="black" stroke-width="1.5" stroke-linecap="round"/>
<path d="M8.52742 4.75008L7.82031 4.04297" stroke="black" stroke-width="1.5" stroke-linecap="round"/>
<path d="M13.5007 10.0826L13.0851 9.45829L12.8262 9.6306L12.7652 9.93554L13.5007 10.0826ZM10.7337 10.0826L11.4691 9.93554L11.4082 9.6306L11.1493 9.45829L10.7337 10.0826ZM11.0368 11.5981L11.7722 11.451V11.451L11.0368 11.5981ZM13.1976 11.5981L12.4621 11.451L13.1976 11.5981ZM13.8672 8C13.8672 8.60766 13.5581 9.14344 13.0851 9.45829L13.9162 10.707C14.7893 10.1259 15.3672 9.13058 15.3672 8H13.8672ZM12.1172 6.25C13.0837 6.25 13.8672 7.0335 13.8672 8H15.3672C15.3672 6.20507 13.9121 4.75 12.1172 4.75V6.25ZM10.3672 8C10.3672 7.0335 11.1507 6.25 12.1172 6.25V4.75C10.3223 4.75 8.86719 6.20507 8.86719 8H10.3672ZM11.1493 9.45829C10.6763 9.14344 10.3672 8.60766 10.3672 8H8.86719C8.86719 9.13058 9.4451 10.1259 10.3181 10.707L11.1493 9.45829ZM11.7722 11.451L11.4691 9.93554L9.99828 10.2297L10.3014 11.7451L11.7722 11.451ZM11.5271 11.25C11.6463 11.25 11.7489 11.3341 11.7722 11.451L10.3014 11.7451C10.4182 12.3294 10.9312 12.75 11.5271 12.75V11.25ZM12.7073 11.25H11.5271V12.75H12.7073V11.25ZM12.4621 11.451C12.4855 11.3341 12.5881 11.25 12.7073 11.25V12.75C13.3031 12.75 13.8162 12.3294 13.933 11.7451L12.4621 11.451ZM12.7652 9.93554L12.4621 11.451L13.933 11.7451L14.2361 10.2297L12.7652 9.93554Z" fill="black"/>
<path d="M11.1172 9.75H13.1172" stroke="black" stroke-linecap="round"/>
</svg>
