<svg width="24" height="24" viewBox="0 0 24 24" fill="none" xmlns="http://www.w3.org/2000/svg">
<rect x="10" y="15" width="4" height="6" rx="0.5" fill="#D9D9D9" stroke="black" stroke-width="1.5"/>
<path d="M6 5C6 4.44772 6.44772 4 7 4H17C17.5523 4 18 4.44772 18 5V21H6V5Z" stroke="black" stroke-width="1.5"/>
<path d="M9 7.5H11" stroke="black" stroke-width="1.5" stroke-linecap="round"/>
<path d="M9 10H11" stroke="black" stroke-width="1.5" stroke-linecap="round"/>
<path d="M9 12.5H11" stroke="black" stroke-width="1.5" stroke-linecap="round"/>
<path d="M13.5 7.5H15.5" stroke="black" stroke-width="1.5" stroke-linecap="round"/>
<path d="M13.5 10H15.5" stroke="black" stroke-width="1.5" stroke-linecap="round"/>
<path d="M13.5 12.5H15.5" stroke="black" stroke-width="1.5" stroke-linecap="round"/>
<path d="M18 9C18 8.44772 18.4477 8 19 8H20C20.5523 8 21 8.44772 21 9V20.0142C21 20.5664 20.5523 21.0142 20 21.0142H18V9Z" stroke="black" stroke-width="1.5"/>
<path d="M3 12.6177C3 12.0654 3.44772 11.6177 4 11.6177H5C5.55228 11.6177 6 12.0654 6 12.6177V21.0142H4C3.44772 21.0142 3 20.5665 3 20.0142V12.6177Z" stroke="black" stroke-width="1.5"/>
</svg>
