<svg width="24" height="24" viewBox="0 0 24 24" fill="none" xmlns="http://www.w3.org/2000/svg">
<path d="M8 10.25H17C17 12.7353 14.9853 14.75 12.5 14.75C10.0147 14.75 8 12.7353 8 10.25Z" fill="#D9D9D9"/>
<path d="M4 20.25C4 18.0409 5.79086 16.25 8 16.25H9.81504C9.93439 16.25 10.0498 16.2927 10.1404 16.3704L11.8492 17.835C12.2237 18.156 12.7763 18.156 13.1508 17.835L14.8596 16.3704C14.9502 16.2927 15.0656 16.25 15.185 16.25H16C18.2091 16.25 20 18.0409 20 20.25V20.25C20 20.8023 19.5523 21.25 19 21.25H5C4.44772 21.25 4 20.8023 4 20.25V20.25Z" stroke="black" stroke-width="1.5"/>
<path d="M8 10.25V10.25C8 12.7353 10.0147 14.75 12.5 14.75V14.75C14.9853 14.75 17 12.7353 17 10.25V10.25" stroke="black" stroke-width="1.5"/>
<rect x="7" y="8.25" width="11" height="2" rx="1" stroke="black" stroke-width="1.5"/>
<path d="M17 7.75046C17 6.80015 16.6992 5.87424 16.1406 5.10542C15.582 4.33661 14.7944 3.76436 13.8906 3.4707" stroke="black" stroke-width="1.5"/>
<path d="M7.99995 7.75046C7.99995 6.80015 8.3008 5.87424 8.85938 5.10542C9.41795 4.33661 10.2056 3.76436 11.1094 3.4707" stroke="black" stroke-width="1.5"/>
<path d="M14 5.55473V3.25C14 2.97386 13.7761 2.75 13.5 2.75H11.5C11.2239 2.75 11 2.97386 11 3.25L11 5.55473" stroke="black" stroke-width="1.5"/>
</svg>
