<svg width="24" height="24" viewBox="0 0 24 24" fill="none" xmlns="http://www.w3.org/2000/svg">
<rect x="10" y="15.5" width="4" height="6" rx="0.5" stroke="black" stroke-width="1.5"/>
<path d="M6 5.5C6 4.94772 6.44772 4.5 7 4.5H17C17.5523 4.5 18 4.94772 18 5.5V20.5C18 21.0523 17.5523 21.5 17 21.5H7C6.44772 21.5 6 21.0523 6 20.5V5.5Z" stroke="black" stroke-width="1.5"/>
<path d="M9 8H11" stroke="black" stroke-width="1.5" stroke-linecap="round"/>
<path d="M9 10.5H11" stroke="black" stroke-width="1.5" stroke-linecap="round"/>
<path d="M9 13H11" stroke="black" stroke-width="1.5" stroke-linecap="round"/>
<path d="M13.5 8H15.5" stroke="black" stroke-width="1.5" stroke-linecap="round"/>
<path d="M13.5 10.5H15.5" stroke="black" stroke-width="1.5" stroke-linecap="round"/>
<path d="M13.5 13H15.5" stroke="black" stroke-width="1.5" stroke-linecap="round"/>
<rect x="4" y="2.5" width="16" height="3" rx="1" fill="#D9D9D9" stroke="black" stroke-width="1.5" stroke-linecap="round"/>
</svg>
