<svg width="24" height="24" viewBox="0 0 24 24" fill="none" xmlns="http://www.w3.org/2000/svg">
<path d="M4 9.5V19.5C4 20.0523 4.44772 20.5 5 20.5H9.5M9.5 20.5V14.5C9.5 13.9477 9.94772 13.5 10.5 13.5H13.5C14.0523 13.5 14.5 13.9477 14.5 14.5V20.5M9.5 20.5H14.5M14.5 20.5H18.5C19.0523 20.5 19.5 20.0523 19.5 19.5V9" stroke="black" stroke-width="1.5" stroke-linecap="round"/>
<path d="M2.19312 8.38662L3.5313 3.72413C3.65435 3.2954 4.04646 3 4.49249 3H19.6221C20.0756 3 20.4723 3.30513 20.5887 3.7434L21.7909 8.27174C21.9126 8.73038 21.6971 9.2204 21.2551 9.39313C19.2352 10.1825 18.443 9.43714 17.6213 8.27437C17.3963 7.95607 16.9101 7.99913 16.7093 8.3332C15.2565 10.7505 13.6231 9.55862 12.5108 8.18693C12.2698 7.88964 11.7888 7.92776 11.585 8.25174C10.0585 10.6784 8.39981 9.76836 7.34274 8.40109C7.08776 8.07127 6.53138 8.10161 6.30502 8.45169C5.15641 10.2281 3.65982 9.99197 2.59302 9.43003C2.22115 9.23415 2.07717 8.79062 2.19312 8.38662Z" fill="#D9D9D9" stroke="black" stroke-width="1.5" stroke-linecap="round"/>
</svg>
