<svg width="24" height="24" viewBox="0 0 24 24" fill="none" xmlns="http://www.w3.org/2000/svg">
<path d="M8.35279 7.36364V4C8.35279 3.44772 8.80051 3 9.35279 3H9.91204C10.4406 3 10.879 3.41506 10.9056 3.94299C11.1302 8.41031 10.8113 9.98467 9.82861 10.4582C9.33108 10.6979 8.85279 11.0841 8.85279 11.6364V20C8.85279 20.5523 8.40507 21 7.85279 21H7.35282C6.80054 21 6.35282 20.5523 6.35282 20V11.6364C6.35282 11.0841 5.87937 10.6733 5.37983 10.4378C3.60427 9.60064 3.93878 6.29103 4.24212 3.87759C4.30515 3.37617 4.73267 3 5.23804 3H5.35282C5.9051 3 6.35282 3.44772 6.35282 4V7.36364" stroke="black" stroke-width="1.5" stroke-linecap="round"/>
<path d="M6.34888 6.81824V4.00818C6.34888 3.45589 6.79851 3.00818 7.3508 3.00818V3.00818C7.90308 3.00818 8.35272 3.45589 8.35272 4.00818V6.81824" stroke="black" stroke-width="1.5" stroke-linecap="round"/>
<path d="M19.6838 20V3.5C19.6838 3.22386 19.4594 2.99802 19.1838 3.01522C14.3488 3.31685 14.1877 8.03686 14.1838 11.2286C14.1835 11.5047 14.4077 11.7273 14.6838 11.7273H15.6838C16.2361 11.7273 16.6838 12.175 16.6838 12.7273V20C16.6838 20.5523 17.1315 21 17.6838 21H18.6838C19.2361 21 19.6838 20.5523 19.6838 20Z" fill="#D9D9D9" stroke="black" stroke-width="1.5" stroke-linecap="round"/>
</svg>
