<svg width="24" height="24" viewBox="0 0 24 24" fill="none" xmlns="http://www.w3.org/2000/svg">
<circle cx="17" cy="16.5" r="2.5" fill="#D9D9D9"/>
<path d="M12.25 21.25C12.6642 21.25 13 20.9142 13 20.5C13 20.0858 12.6642 19.75 12.25 19.75V21.25ZM8.25 4.75H6.25V6.25H8.25V4.75ZM4.5 6.5V19.5H6V6.5H4.5ZM6.25 21.25H12.25V19.75H6.25V21.25ZM4.5 19.5C4.5 20.4665 5.2835 21.25 6.25 21.25V19.75C6.11193 19.75 6 19.6381 6 19.5H4.5ZM6.25 4.75C5.2835 4.75 4.5 5.5335 4.5 6.5H6C6 6.36193 6.11193 6.25 6.25 6.25V4.75Z" fill="black"/>
<rect x="8" y="4" width="7" height="3" rx="1.5" stroke="black" stroke-width="1.5"/>
<path d="M17 7.67294C17 8.08715 17.3358 8.42294 17.75 8.42294C18.1642 8.42294 18.5 8.08715 18.5 7.67294H17ZM14.793 6.25H16.75V4.75H14.793V6.25ZM17 6.5V7.67294H18.5V6.5H17ZM16.75 6.25C16.8881 6.25 17 6.36193 17 6.5H18.5C18.5 5.5335 17.7165 4.75 16.75 4.75V6.25Z" fill="black"/>
<path d="M18.3835 18.5826L17.9679 17.9583L17.709 18.1306L17.648 18.4355L18.3835 18.5826ZM15.6165 18.5826L16.352 18.4355L16.291 18.1306L16.0321 17.9583L15.6165 18.5826ZM15.9196 20.0981L16.655 19.951V19.951L15.9196 20.0981ZM18.0804 20.0981L17.345 19.951L18.0804 20.0981ZM18.75 16.5C18.75 17.1077 18.4409 17.6434 17.9679 17.9583L18.799 19.207C19.6721 18.6259 20.25 17.6306 20.25 16.5H18.75ZM17 14.75C17.9665 14.75 18.75 15.5335 18.75 16.5H20.25C20.25 14.7051 18.7949 13.25 17 13.25V14.75ZM15.25 16.5C15.25 15.5335 16.0335 14.75 17 14.75V13.25C15.2051 13.25 13.75 14.7051 13.75 16.5H15.25ZM16.0321 17.9583C15.5591 17.6434 15.25 17.1077 15.25 16.5H13.75C13.75 17.6306 14.3279 18.6259 15.201 19.207L16.0321 17.9583ZM16.655 19.951L16.352 18.4355L14.8811 18.7297L15.1842 20.2451L16.655 19.951ZM16.4099 19.75C16.5291 19.75 16.6317 19.8341 16.655 19.951L15.1842 20.2451C15.301 20.8294 15.8141 21.25 16.4099 21.25V19.75ZM17.5901 19.75H16.4099V21.25H17.5901V19.75ZM17.345 19.951C17.3683 19.8341 17.4709 19.75 17.5901 19.75V21.25C18.1859 21.25 18.699 20.8294 18.8158 20.2451L17.345 19.951ZM17.648 18.4355L17.345 19.951L18.8158 20.2451L19.1189 18.7297L17.648 18.4355Z" fill="black"/>
<path d="M15.75 18.5H17.75" stroke="black" stroke-linecap="round"/>
<path d="M14 13.5L13 12.5" stroke="black" stroke-width="1.5" stroke-linecap="round"/>
<path d="M20.25 13.5L21.25 12.5" stroke="black" stroke-width="1.5" stroke-linecap="round"/>
<path d="M17 12V11" stroke="black" stroke-width="1.5" stroke-linecap="round"/>
</svg>
