<svg width="24" height="25" viewBox="0 0 24 25" fill="none" xmlns="http://www.w3.org/2000/svg">
<path d="M16 10.0123L19.6424 4.68256H4V16.339L20 16.6826L16 10.0123Z" fill="#D9D9D9"/>
<path d="M3 4.4306C3 4.01638 3.33579 3.6806 3.75 3.6806H20.2541C20.8722 3.6806 21.225 4.38624 20.8541 4.88066L16.6898 10.4318L20.8541 15.983C21.225 16.4774 20.8722 17.1831 20.2541 17.1831L4.5 17.1826V21.9325C4.5 22.3122 4.21785 22.626 3.85177 22.6756L3.75 22.6825C3.3703 22.6825 3.05651 22.4003 3.00685 22.0343L3 21.9325V4.4306ZM18.7539 5.1806H4.5V15.6831H18.7539L15.1522 10.8819C14.9522 10.6152 14.9522 10.2485 15.1522 9.98176L18.7539 5.1806Z" fill="black" stroke="black" stroke-width="0.1"/>
</svg>
