<svg width="24" height="25" viewBox="0 0 24 25" fill="none" xmlns="http://www.w3.org/2000/svg">
<circle cx="12" cy="12.5735" r="5.10904" fill="#D9D9D9"/>
<path d="M5.57409 12.6828C5.57409 9.13481 8.45022 6.25868 11.9981 6.25868C15.546 6.25868 18.4222 9.13481 18.4222 12.6828C18.4222 16.2306 15.546 19.1068 11.9981 19.1068C8.45022 19.1068 5.57409 16.2306 5.57409 12.6828ZM11.9981 7.86469C9.3372 7.86469 7.1801 10.0218 7.1801 12.6828C7.1801 15.3436 9.3372 17.5008 11.9981 17.5008C14.659 17.5008 16.8162 15.3436 16.8162 12.6828C16.8162 10.0218 14.659 7.86469 11.9981 7.86469ZM1.28918 12.6827C1.28918 6.76831 6.08375 1.97375 11.9981 1.97375C17.9125 1.97375 22.7071 6.76831 22.7071 12.6827C22.7071 18.5971 17.9125 23.3916 11.9981 23.3916C6.08375 23.3916 1.28918 18.5971 1.28918 12.6827ZM11.9981 3.57976C6.97072 3.57976 2.89519 7.65529 2.89519 12.6827C2.89519 17.7101 6.97072 21.7856 11.9981 21.7856C17.0256 21.7856 21.1011 17.7101 21.1011 12.6827C21.1011 7.65529 17.0256 3.57976 11.9981 3.57976Z" fill="black" stroke="black" stroke-width="0.1"/>
<circle cx="12" cy="12.6826" r="1.8508" stroke="black" stroke-width="1.5"/>
</svg>
