<svg width="25" height="24" viewBox="0 0 25 24" fill="none" xmlns="http://www.w3.org/2000/svg">
<path d="M22.9027 15.1339L22.241 16.4887M22.241 16.4887L20.682 16.115M22.241 16.4887C22.1133 14.9216 20.6391 13.6795 18.8862 13.6795C17.0405 13.6795 15.5198 15.0493 15.5198 16.7093" stroke="black" stroke-width="1.5" stroke-linecap="round" stroke-linejoin="round"/>
<path d="M15.3205 19.8169L16.1437 18.6007M16.1437 18.6007L17.5002 18.9606M16.1437 18.6007C16.2714 20.1679 17.7457 21.41 19.4986 21.41C21.3443 21.41 22.865 20.0402 22.865 18.3802" stroke="black" stroke-width="1.5" stroke-linecap="round" stroke-linejoin="round"/>
<g clip-path="url(#clip0_8034_874)">
<path d="M22.0628 3.86998V12.88C21.8328 12.73 21.5828 12.59 21.3328 12.47C21.0928 12.35 20.8328 12.25 20.5628 12.16V5.14998C19.1328 5.79998 16.6728 6.49998 13.2328 6.55998C9.82283 6.61998 7.02283 5.88998 5.40283 5.15998V20.66C5.40283 20.85 5.33283 21.03 5.20283 21.16C5.07283 21.31 4.87283 21.41 4.65283 21.41C4.53283 21.41 4.41283 21.38 4.31283 21.32C4.06283 21.2 3.90283 20.95 3.90283 20.66V3.86998C3.90283 3.57998 4.06283 3.31998 4.32283 3.19998C4.58283 3.06998 4.89283 3.10998 5.11283 3.28998C5.88283 3.89998 8.83283 5.13998 13.2028 5.05998C17.7428 4.97998 20.3028 3.71998 20.8428 3.28998C21.0728 3.10998 21.3828 3.06998 21.6428 3.19998C21.9028 3.31998 22.0628 3.57998 22.0628 3.86998Z" fill="black"/>
<path d="M12.9828 6.05C17.5391 6.05 21.2328 5.08741 21.2328 3.9C21.2328 2.71259 17.5391 1.75 12.9828 1.75C8.42644 1.75 4.73279 2.71259 4.73279 3.9C4.73279 5.08741 8.42644 6.05 12.9828 6.05Z" fill="#D9D9D9" stroke="black" stroke-width="1.5" stroke-miterlimit="10"/>
<path d="M12.9828 12.66C14.3428 12.66 15.5328 12.58 16.5428 12.45C15.7228 12.83 15.0028 13.41 14.4528 14.12C13.9328 14.15 13.4328 14.16 12.9828 14.16C10.6928 14.16 7.30279 13.87 5.40279 12.95C4.53279 12.53 3.98279 11.98 3.98279 11.26H5.48279C5.73279 11.73 8.45279 12.66 12.9828 12.66Z" fill="black"/>
<path d="M16.5629 12.44C16.5629 12.44 16.6429 12.43 16.6829 12.43C16.6429 12.44 16.5929 12.44 16.5529 12.45H16.5629V12.44Z" fill="black"/>
<path d="M21.9828 11.26C21.9828 11.73 21.7428 12.13 21.3328 12.47C21.0928 12.35 20.8328 12.25 20.5628 12.16C20.0928 12.02 19.6028 11.94 19.0928 11.93C19.9128 11.68 20.3928 11.41 20.4928 11.21H20.5628L21.9828 11.26Z" fill="black"/>
<path d="M16.1028 22.42C15.1428 22.53 14.0828 22.59 12.9828 22.59C9.39279 22.59 6.33279 21.99 5.20279 21.16C4.89279 20.94 4.73279 20.69 4.73279 20.44C4.73279 20.14 4.97279 19.86 5.40279 19.6C6.66279 18.83 9.59279 18.3 12.9828 18.3C13.1028 18.3 13.2228 18.3 13.3428 18.3C13.3728 18.56 13.4228 18.81 13.4928 19.05C13.7828 20.1 14.3728 21.03 15.1728 21.74C15.1728 21.74 15.1761 21.74 15.1828 21.74C15.4628 22 15.7728 22.23 16.1028 22.41V22.42Z" fill="white"/>
<path d="M16.1028 22.1175C15.7728 21.9487 15.4628 21.733 15.1828 21.4891C15.1828 21.4891 15.1795 21.4891 15.1728 21.4891C14.5028 21.5454 13.7728 21.5735 12.9828 21.5735C8.61279 21.5735 5.92279 20.7576 5.51279 20.2605C5.92279 19.7634 8.61279 18.9568 12.9828 18.9568C13.1528 18.9568 13.3228 18.9568 13.4928 18.9568C13.4228 18.7317 13.3728 18.4973 13.3428 18.2534C13.3028 18.0189 13.2828 17.7845 13.2828 17.55C13.1828 17.55 13.0828 17.55 12.9828 17.55C10.6928 17.55 7.30279 17.822 5.40279 18.6848C4.53279 19.0787 3.98279 19.5852 3.98279 20.2605C3.98279 20.57 4.10279 20.842 4.31279 21.0858C5.56279 22.5583 10.1228 22.9803 12.9828 22.9803C14.2928 22.9803 15.9428 22.8959 17.4828 22.6521C16.9928 22.5395 16.5228 22.352 16.1028 22.1175Z" fill="black"/>
<path d="M18.3929 9.62002C18.8513 9.62002 19.2229 9.24842 19.2229 8.79002C19.2229 8.33163 18.8513 7.96002 18.3929 7.96002C17.9345 7.96002 17.5629 8.33163 17.5629 8.79002C17.5629 9.24842 17.9345 9.62002 18.3929 9.62002Z" fill="black"/>
<path d="M15.5129 10.1C15.9713 10.1 16.3429 9.7284 16.3429 9.27C16.3429 8.81161 15.9713 8.44 15.5129 8.44C15.0545 8.44 14.6829 8.81161 14.6829 9.27C14.6829 9.7284 15.0545 10.1 15.5129 10.1Z" fill="black"/>
<path d="M12.5029 10.1C12.9612 10.1 13.3329 9.7284 13.3329 9.27C13.3329 8.81161 12.9612 8.44 12.5029 8.44C12.0445 8.44 11.6729 8.81161 11.6729 9.27C11.6729 9.7284 12.0445 10.1 12.5029 10.1Z" fill="black"/>
<path d="M16.5629 12.44H16.5529C16.5529 12.44 16.6429 12.44 16.6829 12.43C16.6429 12.43 16.6029 12.44 16.5629 12.44Z" fill="black"/>
</g>
<defs>
<clipPath id="clip0_8034_874">
<rect width="18.16" height="22.34" fill="white" transform="translate(3.90283 1)"/>
</clipPath>
</defs>
</svg>
