<svg width="24" height="25" viewBox="0 0 24 25" fill="none" xmlns="http://www.w3.org/2000/svg">
<path d="M16.9999 15.2971C16.9999 17.0364 16.4045 18.7232 15.3128 20.0771C14.221 21.4309 12.6987 22.3702 10.999 22.7388C9.29925 23.1074 7.52458 22.883 5.9701 22.1029C4.41563 21.3228 3.17503 20.0341 2.45465 18.4511C1.73426 16.8681 1.5775 15.0862 2.01044 13.4017C2.44337 11.7172 3.43991 10.2317 4.83431 9.19222C6.22872 8.15274 7.93695 7.62192 9.67492 7.68806C11.4129 7.7542 13.0758 8.41331 14.3872 9.55577L9.38535 15.2971H16.9999Z" stroke="black" stroke-width="1.5" stroke-linejoin="round"/>
<path d="M18.2889 2.68509C18.2892 2.68422 18.2905 2.68422 18.2908 2.68509L18.6749 3.72385C19.0686 4.78264 19.8999 5.61392 20.9587 6.00769L21.9975 6.39176C21.9983 6.39208 21.9983 6.39332 21.9975 6.39364L20.9587 6.77771C19.8999 7.17148 19.0686 8.00276 18.6749 9.06155L18.2908 10.1003C18.2905 10.1012 18.2892 10.1012 18.2889 10.1003L17.9048 9.06155C17.5111 8.00276 16.6798 7.17148 15.621 6.77771L14.5822 6.39364C14.5814 6.39332 14.5814 6.39208 14.5822 6.39176L15.621 6.00769C16.6798 5.61392 17.5111 4.78264 17.9048 3.72385L18.2889 2.68509Z" fill="#D9D9D9" stroke="black" stroke-width="1.5"/>
<path d="M20.574 10.5974C20.5743 10.5966 20.5756 10.5966 20.5759 10.5974L20.6833 10.8879C20.7941 11.1858 21.0279 11.4196 21.3258 11.5304L21.6162 11.6378C21.6171 11.6381 21.6171 11.6393 21.6162 11.6397L21.3258 11.7471C21.0279 11.8578 20.7941 12.0917 20.6833 12.3896L20.5759 12.68C20.5756 12.6809 20.5743 12.6809 20.574 12.68L20.4666 12.3896C20.3558 12.0917 20.122 11.8578 19.8241 11.7471L19.5337 11.6397C19.5328 11.6393 19.5328 11.6381 19.5337 11.6378L19.8241 11.5304C20.122 11.4196 20.3558 11.1858 20.4666 10.8879L20.574 10.5974Z" fill="#D9D9D9" stroke="black" stroke-width="1.5"/>
</svg>
