<svg width="24" height="25" viewBox="0 0 24 25" fill="none" xmlns="http://www.w3.org/2000/svg">
<circle cx="17.4132" cy="18.0694" r="4.65808" fill="#D9D9D9" stroke="black" stroke-width="1.5"/>
<path d="M17.4132 16.4794L17.8132 17.6894H19.0832L18.0532 18.4494L18.4432 19.6594L17.4132 18.9094L16.3832 19.6594L16.7732 18.4494L15.7432 17.6894H17.0232L17.4132 16.4794Z" stroke="black" stroke-width="1.5" stroke-linecap="round" stroke-linejoin="round"/>
<path d="M12.3047 22.2778C12.2035 22.281 12.102 22.2826 12 22.2826C6.69809 22.2826 2.40002 17.9845 2.40002 12.6826C2.40002 7.38064 6.69809 3.08258 12 3.08258C17.302 3.08258 21.6 7.38064 21.6 12.6826C21.6 12.7846 21.5985 12.8861 21.5952 12.9873C21.2241 12.6813 20.8188 12.4151 20.3861 12.1951C20.3357 11.3144 20.1497 10.47 19.8485 9.68258H16.5689C16.6624 10.2704 16.7289 10.8826 16.7659 11.5127C16.3575 11.5516 15.9598 11.6278 15.5764 11.7377C15.5404 11.0204 15.4638 10.3318 15.3526 9.68258H8.64743C8.48816 10.6122 8.40002 11.6226 8.40002 12.6826C8.40002 13.7425 8.48816 14.7529 8.64743 15.6826H11.25C11.1001 16.0665 10.9851 16.4677 10.9089 16.8826H8.90326C9.08609 17.5908 9.3129 18.2335 9.57389 18.7929C10.1499 20.0271 10.8244 20.7294 11.4676 20.9784C11.6958 21.4451 11.9775 21.8809 12.3047 22.2778ZM14.4262 6.57235C13.6882 4.99088 12.7882 4.28258 12 4.28258C11.2118 4.28258 10.3119 4.99088 9.57389 6.57235C9.3129 7.13161 9.08609 7.77432 8.90326 8.48258H15.0967C14.914 7.77432 14.6872 7.13161 14.4262 6.57235ZM7.6672 8.48258C7.878 7.59093 8.15479 6.77562 8.48646 6.06489C8.70996 5.58598 8.96759 5.13724 9.25733 4.74054C7.33421 5.40454 5.72756 6.74737 4.7238 8.48258H7.6672ZM7.20002 12.6826C7.20002 11.6378 7.2807 10.6286 7.4312 9.68258H4.15158C3.79524 10.6143 3.60002 11.6256 3.60002 12.6826C3.60002 13.7395 3.79524 14.7509 4.15158 15.6826H7.4312C7.2807 14.7366 7.20002 13.7274 7.20002 12.6826ZM8.48646 19.3002C8.15479 18.5896 7.878 17.7742 7.6672 16.8826H4.7238C5.72756 18.6178 7.33421 19.9606 9.25733 20.6247C8.96759 20.2279 8.70996 19.7791 8.48646 19.3002ZM19.2762 8.48258C18.2725 6.74737 16.6659 5.40454 14.7427 4.74054C15.0324 5.13724 15.2901 5.58598 15.5136 6.06489C15.8453 6.77562 16.122 7.59093 16.3329 8.48258H19.2762Z" fill="black" stroke="black" stroke-width="0.1"/>
</svg>
