<svg width="25" height="24" viewBox="0 0 25 24" fill="none" xmlns="http://www.w3.org/2000/svg">
<path d="M23.0528 8.07C22.6828 8.45 22.2428 8.76 21.7628 8.97C22.0428 9.97 22.1828 11.06 22.1828 12.24C22.1828 14.34 21.2728 17.16 19.0728 17.16C17.9228 17.16 17.1528 16.28 17.1528 14.74V9.87C17.1528 9.16 17.0428 8.5 16.8028 7.94C16.6228 7.51 16.3828 7.13 16.0628 6.8C15.3228 6.04 14.1928 5.59 12.6428 5.59C11.4128 5.59 10.3028 5.83 9.58283 6.05C9.18283 6.15 9.07283 6.42 9.15283 6.76L9.23283 7.06C9.34283 7.46 9.66283 7.53 10.0328 7.43C10.6728 7.27 11.5528 7.06 12.6428 7.06C14.8228 7.06 15.5628 8.09 15.5628 10.22V11.42H13.3528C10.2728 11.42 8.17283 12.43 8.17283 14.98C8.17283 17.08 9.58283 18.57 12.0228 18.57C13.8828 18.57 15.0828 17.77 15.9828 16.94C16.5228 18.01 17.5528 18.57 19.0728 18.57C22.4428 18.57 23.6728 14.79 23.6728 12.24C23.6728 10.72 23.4528 9.32 23.0528 8.07ZM12.1628 17.1C10.5628 17.1 9.82283 16.23 9.82283 14.98C9.82283 13.28 11.2828 12.77 13.4128 12.77H15.5628V14.82C15.5628 15.14 15.5628 15.46 15.6128 15.75C14.6828 16.49 13.5728 17.1 12.1628 17.1ZM16.9228 21.49C16.8628 21.2 16.6228 21.09 16.2528 21.2C15.4028 21.41 14.1028 21.62 12.7428 21.62C7.48283 21.62 3.39283 18.41 3.39283 12.13C3.39283 5.85 7.53283 2.4 12.9828 2.4C14.1728 2.4 15.2828 2.58 16.2928 2.94C16.5428 2.5 16.8728 2.1 17.2728 1.78C15.9828 1.27 14.5428 1 12.9828 1C6.71283 1 1.90283 5.17 1.90283 12.13C1.90283 19.09 6.76283 23.06 12.7428 23.06C14.1528 23.06 15.8328 22.79 16.6228 22.58C16.9728 22.5 17.0728 22.34 17.0228 21.97L16.9228 21.49Z" fill="black" stroke="black" stroke-width="0.1"/>
<path d="M19.9829 7.62C21.3802 7.62 22.5129 6.48728 22.5129 5.09C22.5129 3.69272 21.3802 2.56 19.9829 2.56C18.5856 2.56 17.4529 3.69272 17.4529 5.09C17.4529 6.48728 18.5856 7.62 19.9829 7.62Z" fill="#D9D9D9" stroke="black" stroke-width="1.5" stroke-linecap="round" stroke-linejoin="round"/>
</svg>
