<svg width="24" height="25" viewBox="0 0 24 25" fill="none" xmlns="http://www.w3.org/2000/svg">
<g clip-path="url(#clip0_8033_767)">
<path d="M21.98 9.84131L20.45 11.6313M20.45 11.6313L18.02 10.4813M20.45 11.6313C20.12 7.12131 16.31 3.59131 11.79 3.59131C7.01998 3.59131 3.09998 7.51131 3.09998 12.2813" stroke="black" stroke-width="1.5" stroke-linecap="round" stroke-linejoin="round"/>
<path d="M1.75 16.1413L3.28 14.3513M3.28 14.3513L5.71 15.5013M3.28 14.3513C3.62 18.8613 7.42 22.3913 11.94 22.3913C16.71 22.3913 20.63 18.4713 20.63 13.7013" stroke="black" stroke-width="1.5" stroke-linecap="round" stroke-linejoin="round"/>
<path d="M9.70765 8.78866L14.41 8.78865L15.393 15.445H8.5387L9.70765 8.78866Z" fill="#D9D9D9"/>
</g>
<path d="M12.0025 7.84131C13.9745 7.84131 15.5846 9.39689 15.6524 11.371L15.6544 11.4932V13.4881L16.3263 15.0248C16.36 15.1017 16.3773 15.1847 16.3773 15.2687C16.3773 15.6048 16.1048 15.8773 15.7687 15.8773L13.4633 15.8781C13.4633 16.6848 12.8093 17.3388 12.0025 17.3388C11.2246 17.3388 10.5887 16.7306 10.5442 15.9638L10.5415 15.8769L8.24101 15.8773C8.15758 15.8773 8.07504 15.8601 7.99852 15.8269C7.6902 15.693 7.54882 15.3345 7.68275 15.0262L8.35063 13.4885V11.4931C8.35092 9.4701 9.98282 7.84131 12.0025 7.84131ZM12.7327 15.8769L11.2721 15.8781C11.0391 16.521 11.5967 16.9194 12.0001 16.9194C12.3797 16.9194 12.9102 16.5288 12.7327 15.8769ZM12.0025 8.57169C10.3859 8.57169 9.08124 9.87383 9.08101 11.4932V13.6403L8.4266 15.1469H15.5826L14.924 13.6408L14.9241 11.4995L14.9223 11.3898C14.8682 9.81536 13.5809 8.57169 12.0025 8.57169Z" fill="black" stroke="black" stroke-width="0.5"/>
<defs>
<clipPath id="clip0_8033_767">
<rect width="21.73" height="20.3" fill="white" transform="translate(1 2.84131)"/>
</clipPath>
</defs>
</svg>
