<svg width="24" height="25" viewBox="0 0 24 25" fill="none" xmlns="http://www.w3.org/2000/svg">
<g clip-path="url(#clip0_8033_756)">
<g clip-path="url(#clip1_8033_756)">
<path d="M12.99 20.2813L12.45 22.6413L12.27 23.3913H7.66003C7.31003 23.3913 7.03003 23.1113 7.03003 22.7613C7.03003 21.5413 7.52003 20.4413 8.32003 19.6513C9.12003 18.8513 10.22 18.3613 11.43 18.3613H12.47C13.18 18.3613 13.85 18.5313 14.44 18.8313L12.99 20.2813Z" fill="#D9D9D9"/>
<path d="M16.87 22.7313L16.36 23.2413L15.71 23.3913H13.3L13.47 22.6413L13.9 20.7813L15.3 19.3813C16.25 20.1913 16.86 21.3913 16.87 22.7313Z" fill="#D9D9D9"/>
<path d="M12.47 17.6113H11.43C8.59003 17.6113 6.28003 19.9213 6.28003 22.7613C6.28003 23.5213 6.90003 24.1413 7.66003 24.1413H12.1L12.27 23.3913L12.45 22.6413H7.78003C7.84003 20.6813 9.46003 19.1113 11.43 19.1113H12.47C12.97 19.1113 13.45 19.2113 13.88 19.3913L14.99 18.2813C14.25 17.8513 13.39 17.6113 12.47 17.6113ZM15.82 18.8613L14.76 19.9213C15.56 20.5713 16.08 21.5413 16.12 22.6413H13.47L13.3 23.3913L13.16 23.9813L15.71 23.3913L16.36 23.2413L17.56 22.0413C17.39 20.7713 16.75 19.6513 15.82 18.8613Z" fill="black"/>
<path d="M11.95 16.6413C13.4577 16.6413 14.68 15.4191 14.68 13.9113C14.68 12.4036 13.4577 11.1813 11.95 11.1813C10.4422 11.1813 9.21997 12.4036 9.21997 13.9113C9.21997 15.4191 10.4422 16.6413 11.95 16.6413Z" stroke="black" stroke-width="1.41" stroke-miterlimit="10"/>
<path d="M6.15 10.4713H7.19C7.76 10.4713 8.29 10.6013 8.77 10.8313C9.15 10.4413 9.6 10.1113 10.11 9.88131C9.28 9.31131 8.27 8.97131 7.19 8.97131H6.15C3.31 8.97131 1 11.2813 1 14.1213C1 14.8813 1.61 15.5013 2.38 15.5013H7.81C7.62 15.0313 7.52 14.5313 7.51 14.0013H2.5C2.56 12.0413 4.18 10.4713 6.15 10.4713Z" fill="black"/>
<path d="M6.66994 8.00132C8.17768 8.00132 9.39994 6.77906 9.39994 5.27132C9.39994 3.76358 8.17768 2.54132 6.66994 2.54132C5.1622 2.54132 3.93994 3.76358 3.93994 5.27132C3.93994 6.77906 5.1622 8.00132 6.66994 8.00132Z" stroke="black" stroke-width="1.41" stroke-miterlimit="10"/>
<path d="M17.74 8.97131H16.71C15.62 8.97131 14.61 9.31131 13.78 9.89131C14.29 10.1113 14.75 10.4313 15.13 10.8313C15.61 10.6013 16.14 10.4713 16.71 10.4713H17.74C19.45 10.4713 20.89 11.6513 21.29 13.2413C21.87 13.2713 22.43 13.4813 22.88 13.8513C22.75 11.1413 20.5 8.97131 17.74 8.97131ZM22.39 14.7513C21.71 14.0713 20.61 14.0713 19.93 14.7513L19.18 15.5013H21.52C21.95 15.5013 22.33 15.3013 22.58 14.9913C22.53 14.9113 22.47 14.8313 22.39 14.7513Z" fill="black"/>
<path d="M17.23 8.00132C18.7377 8.00132 19.96 6.77906 19.96 5.27132C19.96 3.76358 18.7377 2.54132 17.23 2.54132C15.7223 2.54132 14.5 3.76358 14.5 5.27132C14.5 6.77906 15.7223 8.00132 17.23 8.00132Z" stroke="black" stroke-width="1.41" stroke-miterlimit="10"/>
<path d="M22.39 17.2013L17.56 22.0413L16.36 23.2413L15.71 23.3913L13.16 23.9813L13.3 23.3913L13.47 22.6413L13.9 20.7813L19.93 14.7513C20.61 14.0713 21.71 14.0713 22.39 14.7513C22.47 14.8313 22.53 14.9113 22.58 14.9913C23.06 15.6713 22.99 16.6013 22.39 17.2013Z" fill="black"/>
</g>
</g>
<defs>
<clipPath id="clip0_8033_756">
<rect width="24" height="24" fill="white" transform="translate(0 0.841309)"/>
</clipPath>
<clipPath id="clip1_8033_756">
<rect width="21.9" height="22.3" fill="white" transform="translate(1 1.84131)"/>
</clipPath>
</defs>
</svg>
