<svg width="24" height="25" viewBox="0 0 24 25" fill="none" xmlns="http://www.w3.org/2000/svg">
<g clip-path="url(#clip0_8033_770)">
<g clip-path="url(#clip1_8033_770)">
<path d="M14.33 23.8234H4.75C3.79 23.8234 3 23.0334 3 22.0734V21.4634C3 17.1934 6.48 13.7134 10.75 13.7134H12.98C12.56 14.1534 12.2 14.6634 11.93 15.2134H10.75C7.3 15.2134 4.5 18.0134 4.5 21.4634V22.0734C4.5 22.2134 4.61 22.3234 4.75 22.3234H12.64C13.11 22.9234 13.68 23.4334 14.33 23.8234Z" fill="black"/>
<path d="M12.17 11.9048C14.7437 11.9048 16.83 9.81842 16.83 7.24478C16.83 4.67113 14.7437 2.58478 12.17 2.58478C9.59636 2.58478 7.51001 4.67113 7.51001 7.24478C7.51001 9.81842 9.59636 11.9048 12.17 11.9048Z" stroke="black" stroke-width="1.41" stroke-miterlimit="10"/>
</g>
<path d="M17.209 13.5703C17.4527 13.2536 17.9303 13.2536 18.174 13.5703L18.8968 14.5099C19.0278 14.6802 19.2389 14.7688 19.4522 14.743L20.6129 14.6031C21.0034 14.556 21.3353 14.8859 21.2906 15.2766L21.1495 16.5092C21.1259 16.7159 21.2094 16.9203 21.371 17.0513L22.322 17.8223C22.6225 18.0659 22.6225 18.5244 22.322 18.768L21.371 19.539C21.2094 19.67 21.1259 19.8744 21.1495 20.0811L21.2906 21.3136C21.3353 21.7043 21.0034 22.0343 20.6129 21.9872L19.4522 21.8472C19.2389 21.8215 19.0278 21.9101 18.8968 22.0804L18.174 23.0199C17.9303 23.3367 17.4527 23.3367 17.209 23.0199L16.4862 22.0804C16.3552 21.9101 16.1441 21.8215 15.9308 21.8472L14.7701 21.9872C14.3796 22.0343 14.0477 21.7043 14.0924 21.3136L14.2335 20.0811C14.2571 19.8744 14.1736 19.67 14.012 19.539L13.061 18.768C12.7605 18.5244 12.7605 18.0659 13.061 17.8223L14.012 17.0513C14.1736 16.9203 14.2571 16.7159 14.2335 16.5092L14.0924 15.2766C14.0477 14.8859 14.3796 14.556 14.7701 14.6031L15.9308 14.743C16.1441 14.7688 16.3552 14.6802 16.4862 14.5099L17.209 13.5703Z" fill="#D9D9D9" stroke="black" stroke-width="1.5"/>
<path d="M16.0452 18.6076L17.1596 19.4687L19.3378 17.3159" stroke="black" stroke-width="1.5" stroke-linecap="round" stroke-linejoin="round"/>
</g>
<defs>
<clipPath id="clip0_8033_770">
<rect width="24" height="24" fill="white" transform="translate(0 0.841309)"/>
</clipPath>
<clipPath id="clip1_8033_770">
<rect width="14.54" height="22.32" fill="white" transform="translate(3 1.68134)"/>
</clipPath>
</defs>
</svg>
