<svg width="24" height="24" viewBox="0 0 24 24" fill="none" xmlns="http://www.w3.org/2000/svg">
<circle cx="17.5001" cy="17.5" r="4.89557" fill="#D9D9D9" stroke="black" stroke-width="1.5"/>
<path d="M17.75 3C19.5449 3 21 4.45507 21 6.25V12.0218C20.5368 11.7253 20.0335 11.4858 19.5 11.3135V8.5H4.5V17.75C4.5 18.7165 5.2835 19.5 6.25 19.5H11.3135C11.4858 20.0335 11.7253 20.5368 12.0218 21H6.25C4.45507 21 3 19.5449 3 17.75V6.25C3 4.45507 4.45507 3 6.25 3H17.75ZM17.75 4.5H6.25C5.2835 4.5 4.5 5.2835 4.5 6.25V7H19.5V6.25C19.5 5.2835 18.7165 4.5 17.75 4.5ZM17.5 14C17.7761 14 18 14.2239 18 14.5V17H20C20.2761 17 20.5 17.2239 20.5 17.5C20.5 17.7761 20.2761 18 20 18H17.5C17.2239 18 17 17.7761 17 17.5V14.5C17 14.2239 17.2239 14 17.5 14Z" fill="black" stroke="black" stroke-width="0.2"/>
</svg>
