<svg width="24" height="25" viewBox="0 0 24 25" fill="none" xmlns="http://www.w3.org/2000/svg">
<g clip-path="url(#clip0_8032_648)">
<path d="M10.8 20.5326C15.7982 20.5326 19.85 16.4807 19.85 11.4826C19.85 6.48438 15.7982 2.43256 10.8 2.43256C5.80182 2.43256 1.75 6.48438 1.75 11.4826C1.75 16.4807 5.80182 20.5326 10.8 20.5326Z" stroke="black" stroke-width="1.5" stroke-miterlimit="10"/>
<path d="M16.4951 19.4759L18.811 17.0002L21.8782 19.8695C22.2798 20.2452 22.301 20.8812 21.9253 21.2829L20.9757 22.298C20.6 22.6996 19.964 22.7208 19.5623 22.3451L16.4951 19.4759Z" stroke="black" stroke-width="1.5" stroke-miterlimit="10"/>
<path d="M15.6 12.1826C14.73 13.9426 12.91 15.1626 10.8 15.1626C8.69 15.1626 6.87 13.9426 6 12.1826C6.87 10.4126 8.69 9.20258 10.8 9.20258C12.91 9.20258 14.74 10.4226 15.6 12.1826Z" fill="#D9D9D9" stroke="black" stroke-width="1.5" stroke-linecap="round" stroke-linejoin="round"/>
<path d="M10.8 13.4326C11.4904 13.4326 12.05 12.8729 12.05 12.1826C12.05 11.4922 11.4904 10.9326 10.8 10.9326C10.1097 10.9326 9.55005 11.4922 9.55005 12.1826C9.55005 12.8729 10.1097 13.4326 10.8 13.4326Z" fill="black"/>
<path d="M10.8 9.20255V7.80255" stroke="black" stroke-width="1.5" stroke-linecap="round" stroke-linejoin="round"/>
<path d="M7.16001 10.2626L6.26001 9.20258" stroke="black" stroke-width="1.5" stroke-linecap="round" stroke-linejoin="round"/>
</g>
<defs>
<clipPath id="clip0_8032_648">
<rect width="21.95" height="21.68" fill="white" transform="translate(1 1.68256)"/>
</clipPath>
</defs>
</svg>
