<svg width="24" height="25" viewBox="0 0 24 25" fill="none" xmlns="http://www.w3.org/2000/svg">
<path d="M11.9876 2.17865C13.4351 2.17865 14.7878 2.58553 15.9353 3.29314C15.5934 3.65841 15.329 4.09687 15.1682 4.58241C14.2457 4.00873 13.1554 3.67825 11.9876 3.67825C8.66297 3.67825 5.97997 6.35178 5.97949 9.67663V14.0851L4.63369 17.1784H19.3502L17.9958 14.0861L17.9959 9.68948L17.9921 9.46434C17.9884 9.356 17.9818 9.24842 17.9725 9.14168C18.1435 9.16728 18.3185 9.18054 18.4966 9.18054C18.8347 9.18054 19.1616 9.13274 19.4709 9.04355C19.4816 9.17004 19.4892 9.29746 19.4936 9.42575L19.4978 9.67663V13.7725L20.8797 16.9277C20.9489 17.0856 20.9846 17.256 20.9846 17.4283C20.9846 18.1185 20.4241 18.678 19.7329 18.678L14.9917 18.6795C14.9917 20.3359 13.6467 21.6787 11.9876 21.6787C10.3878 21.6787 9.08004 20.4301 8.98867 18.8557L8.98312 18.6772L4.25202 18.678C4.08044 18.678 3.9107 18.6428 3.75334 18.5746C3.11928 18.2996 2.82853 17.5635 3.10394 16.9305L4.47746 13.7735V9.67652C4.47805 5.52285 7.8341 2.17865 11.9876 2.17865ZM13.4892 18.6772L10.4856 18.6795C10.4856 19.5077 11.1581 20.1791 11.9876 20.1791C12.7684 20.1791 13.41 19.5844 13.4828 18.8239L13.4892 18.6772Z" fill="black" stroke="black" stroke-width="0.1"/>
<circle cx="19.4514" cy="5.13397" r="2.45142" fill="#D9D9D9" stroke="black" stroke-width="1.5"/>
</svg>
