<svg width="24" height="25" viewBox="0 0 24 25" fill="none" xmlns="http://www.w3.org/2000/svg">
<g clip-path="url(#clip0_8033_774)">
<path d="M20.38 19.0213H15.3C15.48 18.4713 15.99 18.0713 16.6 18.0713H19.09C19.69 18.0713 20.21 18.4713 20.38 19.0213Z" fill="#D9D9D9"/>
<path d="M16.59 16.3213H19.08C20.79 16.3213 22.19 17.7113 22.19 19.4313V20.3313C22.19 20.5713 21.99 20.7713 21.75 20.7713H13.94C13.7 20.7713 13.5 20.5713 13.5 20.3313V19.4313C13.5 17.7213 14.89 16.3213 16.61 16.3213H16.59Z" fill="#D9D9D9"/>
<path d="M21.74 21.5213H13.93C13.27 21.5213 12.74 20.9813 12.74 20.3313V19.4313C12.74 17.3013 14.47 15.5713 16.6 15.5713H19.09C21.22 15.5713 22.95 17.3013 22.95 19.4313V20.3313C22.95 20.9913 22.41 21.5213 21.76 21.5213H21.74ZM14.24 20.0213H21.44V19.4313C21.44 18.1313 20.38 17.0713 19.08 17.0713H16.59C15.29 17.0713 14.23 18.1313 14.23 19.4313V20.0213H14.24Z" fill="black"/>
<path d="M17.8401 14.8013C19.1711 14.8013 20.2501 13.7223 20.2501 12.3913C20.2501 11.0603 19.1711 9.98132 17.8401 9.98132C16.509 9.98132 15.4301 11.0603 15.4301 12.3913C15.4301 13.7223 16.509 14.8013 17.8401 14.8013Z" fill="black"/>
<path d="M1.75 5.59131H22.46" stroke="black" stroke-width="1.5" stroke-linecap="round" stroke-linejoin="round"/>
<path d="M15.0099 10.5013C14.8499 10.7313 14.7299 10.9813 14.6299 11.2513C14.5399 11.4913 14.4799 11.7413 14.4599 12.0013H4.68994C4.26994 12.0013 3.93994 11.6613 3.93994 11.2513C3.93994 10.8413 4.26994 10.5013 4.68994 10.5013H15.0099Z" fill="black"/>
<path d="M13.42 15.7713C13.15 15.9913 12.91 16.2513 12.72 16.5213C12.54 16.7513 12.38 17.0013 12.26 17.2713H8.15002C7.73002 17.2713 7.40002 16.9413 7.40002 16.5213C7.40002 16.1013 7.73002 15.7713 8.15002 15.7713H13.42Z" fill="black"/>
</g>
<defs>
<clipPath id="clip0_8033_774">
<rect width="22.21" height="16.68" fill="white" transform="translate(1 4.84131)"/>
</clipPath>
</defs>
</svg>
