<svg width="24" height="25" viewBox="0 0 24 25" fill="none" xmlns="http://www.w3.org/2000/svg">
<g clip-path="url(#clip0_8033_746)">
<path d="M1.94 11.0113C3.32 11.0113 4.44 12.1313 4.44 13.5113C4.44 14.8913 3.32 16.0113 1.94 16.0113H1.75V18.9913C1.75 19.5413 2.2 19.9913 2.75 19.9913H21.34C21.89 19.9913 22.34 19.5413 22.34 18.9913V16.0113H22.3C20.92 16.0113 19.8 14.8913 19.8 13.5113C19.8 12.1313 20.92 11.0113 22.3 11.0113H22.34V7.59131C22.34 7.04131 21.89 6.59131 21.34 6.59131H2.75C2.2 6.59131 1.75 7.04131 1.75 7.59131V11.0213" stroke="black" stroke-width="1.5" stroke-linecap="round" stroke-linejoin="round"/>
<path d="M17.32 13.6613C16.41 15.5013 14.51 16.7713 12.31 16.7713C10.11 16.7713 8.21005 15.5013 7.30005 13.6613C8.20005 11.8113 10.11 10.5513 12.31 10.5513C14.51 10.5513 16.42 11.8213 17.32 13.6613Z" stroke="black" stroke-width="1.5" stroke-linecap="round" stroke-linejoin="round"/>
<path d="M12.31 14.9813C13.0335 14.9813 13.62 14.3948 13.62 13.6713C13.62 12.9478 13.0335 12.3613 12.31 12.3613C11.5865 12.3613 11 12.9478 11 13.6713C11 14.3948 11.5865 14.9813 12.31 14.9813Z" fill="#D9D9D9" stroke="black" stroke-width="1.5" stroke-linecap="round" stroke-linejoin="round"/>
<path d="M12.3101 10.5513V9.09131" stroke="black" stroke-width="1.5" stroke-linecap="round" stroke-linejoin="round"/>
<path d="M8.50995 11.6613L7.56995 10.5513" stroke="black" stroke-width="1.5" stroke-linecap="round" stroke-linejoin="round"/>
</g>
<defs>
<clipPath id="clip0_8033_746">
<rect width="22.09" height="14.9" fill="white" transform="translate(1 5.84131)"/>
</clipPath>
</defs>
</svg>
