<svg width="54" height="55" viewBox="0 0 54 55" fill="none" xmlns="http://www.w3.org/2000/svg">
<g clip-path="url(#clip0_9972_44384)">
<path d="M25.4503 54.59C39.4894 54.59 50.8703 43.2091 50.8703 29.17C50.8703 15.1309 39.4894 3.75 25.4503 3.75C11.4112 3.75 0.0302734 15.1309 0.0302734 29.17C0.0302734 43.2091 11.4112 54.59 25.4503 54.59Z" fill="#CAB8FF"/>
<path d="M27.4503 51.59C41.4894 51.59 52.8703 40.2091 52.8703 26.17C52.8703 12.1309 41.4894 0.75 27.4503 0.75C13.4112 0.75 2.03027 12.1309 2.03027 26.17C2.03027 40.2091 13.4112 51.59 27.4503 51.59Z" fill="white" stroke="black" stroke-width="1.5" stroke-linecap="round" stroke-linejoin="round"/>
<path d="M26.9907 45.3599C30.4756 45.3599 33.3007 43.2422 33.3007 40.6299C33.3007 38.0176 30.4756 35.8999 26.9907 35.8999C23.5057 35.8999 20.6807 38.0176 20.6807 40.6299C20.6807 43.2422 23.5057 45.3599 26.9907 45.3599Z" fill="url(#paint0_linear_9972_44384)" stroke="black" stroke-width="1.5" stroke-linecap="round" stroke-linejoin="round"/>
<path d="M12.3799 21.5303L20.3599 25.3803" stroke="black" stroke-width="1.5" stroke-linecap="round" stroke-linejoin="round"/>
<path d="M18.3002 19.4702L14.4502 27.4402" stroke="black" stroke-width="1.5" stroke-linecap="round" stroke-linejoin="round"/>
<path d="M38 19.29L41 27.62" stroke="black" stroke-width="1.5" stroke-linecap="round" stroke-linejoin="round"/>
<path d="M43.6601 21.9502L35.3301 24.9602" stroke="black" stroke-width="1.5" stroke-linecap="round" stroke-linejoin="round"/>
<path d="M12.4502 15.4798C12.4502 15.4798 19.4602 12.4098 22.5202 16.0098Z" fill="white"/>
<path d="M12.4502 15.4798C12.4502 15.4798 19.4602 12.4098 22.5202 16.0098" stroke="black" stroke-width="1.5" stroke-linecap="round" stroke-linejoin="round"/>
<path d="M43.53 15.4798C43.53 15.4798 36.52 12.4098 33.46 16.0098Z" fill="white"/>
<path d="M43.53 15.4798C43.53 15.4798 36.52 12.4098 33.46 16.0098" stroke="black" stroke-width="1.5" stroke-linecap="round" stroke-linejoin="round"/>
</g>
<defs>
<linearGradient id="paint0_linear_9972_44384" x1="20.6907" y1="40.6299" x2="33.3007" y2="40.6299" gradientUnits="userSpaceOnUse">
<stop stop-color="#CBD1FF"/>
<stop offset="0.55" stop-color="#F7B363"/>
<stop offset="0.84" stop-color="#771BED"/>
</linearGradient>
<clipPath id="clip0_9972_44384">
<rect width="53.6" height="54.6" fill="white" transform="translate(0.0302734)"/>
</clipPath>
</defs>
</svg>
