<svg width="61" height="59" viewBox="0 0 61 59" fill="none" xmlns="http://www.w3.org/2000/svg">
<g clip-path="url(#clip0_9972_44349)">
<path d="M24.0199 19.5102V14.4302C24.0199 12.7702 22.6799 11.4302 21.0199 11.4302H3.62988C1.97988 11.4302 0.629883 12.7702 0.629883 14.4302V31.8102C0.629883 33.4702 1.97988 34.8102 3.62988 34.8102H8.75988C9.02988 33.0902 10.5199 31.7702 12.3299 31.7702C14.1399 31.7702 15.6199 33.0902 15.8899 34.8102H21.0199C22.6799 34.8102 24.0199 33.4702 24.0199 31.8102V26.7302" fill="#CAB8FF"/>
<path d="M24.0195 26.6401C25.9595 26.6401 27.5395 25.0601 27.5395 23.1201C27.5395 21.1801 25.9595 19.6001 24.0195 19.6001" fill="#CAB8FF"/>
<path d="M8.71988 34.8999H3.63988C1.97988 34.8999 0.629883 36.2399 0.629883 37.8999V55.2899C0.629883 56.9399 1.96988 58.2899 3.62988 58.2899H21.0099C22.6699 58.2899 24.0099 56.9399 24.0099 55.2899V50.1599C22.2899 49.8899 20.9699 48.3999 20.9699 46.5899C20.9699 44.7799 22.2899 43.2999 24.0099 43.0299V37.8999C24.0099 36.2399 22.6699 34.8999 21.0099 34.8999H15.9299" fill="#CAB8FF"/>
<path d="M15.8496 34.8999C15.8496 32.9599 14.2696 31.3799 12.3296 31.3799C10.3896 31.3799 8.80957 32.9599 8.80957 34.8999" fill="#CAB8FF"/>
<path d="M24.3896 50.2102V55.2902C24.3896 56.9502 25.7296 58.2902 27.3896 58.2902H44.7796C46.4296 58.2902 47.7796 56.9502 47.7796 55.2902V37.9102C47.7796 36.2502 46.4296 34.9102 44.7796 34.9102H39.6496C39.3796 36.6302 37.8896 37.9502 36.0796 37.9502C34.2696 37.9502 32.7896 36.6302 32.5196 34.9102H27.3896C25.7296 34.9102 24.3896 36.2502 24.3896 37.9102V42.9902" fill="#CAB8FF"/>
<path d="M24.3901 43.0801C22.4501 43.0801 20.8701 44.6601 20.8701 46.6001C20.8701 48.5401 22.4501 50.1201 24.3901 50.1201" fill="#CAB8FF"/>
<path d="M27.7699 16.3202V11.2402C27.7699 9.58023 26.4299 8.24023 24.7699 8.24023H7.37988C5.72988 8.24023 4.37988 9.58023 4.37988 11.2402V28.6202C4.37988 30.2802 5.72988 31.6202 7.37988 31.6202H12.5099C12.7799 29.9002 14.2699 28.5802 16.0799 28.5802C17.8899 28.5802 19.3699 29.9002 19.6399 31.6202H24.7699C26.4299 31.6202 27.7699 30.2802 27.7699 28.6202V23.5402" fill="white"/>
<path d="M27.7699 16.3202V11.2402C27.7699 9.58023 26.4299 8.24023 24.7699 8.24023H7.37988C5.72988 8.24023 4.37988 9.58023 4.37988 11.2402V28.6202C4.37988 30.2802 5.72988 31.6202 7.37988 31.6202H12.5099C12.7799 29.9002 14.2699 28.5802 16.0799 28.5802C17.8899 28.5802 19.3699 29.9002 19.6399 31.6202H24.7699C26.4299 31.6202 27.7699 30.2802 27.7699 28.6202V23.5402" stroke="black" stroke-width="1.5" stroke-linecap="round" stroke-linejoin="round"/>
<path d="M27.7695 23.4502C29.7095 23.4502 31.2895 21.8702 31.2895 19.9302C31.2895 17.9902 29.7095 16.4102 27.7695 16.4102" fill="white"/>
<path d="M27.7695 23.4502C29.7095 23.4502 31.2895 21.8702 31.2895 19.9302C31.2895 17.9902 29.7095 16.4102 27.7695 16.4102" stroke="black" stroke-width="1.5" stroke-linecap="round" stroke-linejoin="round"/>
<path d="M12.4696 31.71H7.38965C5.72965 31.71 4.38965 33.05 4.38965 34.71V52.1C4.38965 53.75 5.72965 55.1 7.38965 55.1H24.7696C26.4296 55.1 27.7696 53.75 27.7696 52.1V46.97C26.0496 46.7 24.7296 45.21 24.7296 43.4C24.7296 41.59 26.0496 40.11 27.7696 39.84V34.71C27.7696 33.05 26.4296 31.71 24.7696 31.71H19.6896" fill="white"/>
<path d="M12.4696 31.71H7.38965C5.72965 31.71 4.38965 33.05 4.38965 34.71V52.1C4.38965 53.75 5.72965 55.1 7.38965 55.1H24.7696C26.4296 55.1 27.7696 53.75 27.7696 52.1V46.97C26.0496 46.7 24.7296 45.21 24.7296 43.4C24.7296 41.59 26.0496 40.11 27.7696 39.84V34.71C27.7696 33.05 26.4296 31.71 24.7696 31.71H19.6896" stroke="black" stroke-width="1.5" stroke-linecap="round" stroke-linejoin="round"/>
<path d="M19.5996 31.7099C19.5996 29.7699 18.0196 28.1899 16.0796 28.1899C14.1396 28.1899 12.5596 29.7699 12.5596 31.7099" fill="white"/>
<path d="M19.5996 31.7099C19.5996 29.7699 18.0196 28.1899 16.0796 28.1899C14.1396 28.1899 12.5596 29.7699 12.5596 31.7099" stroke="black" stroke-width="1.5" stroke-linecap="round" stroke-linejoin="round"/>
<path d="M28.1299 47.0202V52.1002C28.1299 53.7602 29.4699 55.1002 31.1299 55.1002H48.5199C50.1699 55.1002 51.5199 53.7602 51.5199 52.1002V34.7202C51.5199 33.0602 50.1699 31.7202 48.5199 31.7202H43.3899C43.1199 33.4402 41.6299 34.7602 39.8199 34.7602C38.0099 34.7602 36.5299 33.4402 36.2599 31.7202H31.1299C29.4699 31.7202 28.1299 33.0602 28.1299 34.7202V39.8002" fill="white"/>
<path d="M28.1299 47.0202V52.1002C28.1299 53.7602 29.4699 55.1002 31.1299 55.1002H48.5199C50.1699 55.1002 51.5199 53.7602 51.5199 52.1002V34.7202C51.5199 33.0602 50.1699 31.7202 48.5199 31.7202H43.3899C43.1199 33.4402 41.6299 34.7602 39.8199 34.7602C38.0099 34.7602 36.5299 33.4402 36.2599 31.7202H31.1299C29.4699 31.7202 28.1299 33.0602 28.1299 34.7202V39.8002" stroke="black" stroke-width="1.5" stroke-linecap="round" stroke-linejoin="round"/>
<path d="M28.1304 39.8901C26.1904 39.8901 24.6104 41.4701 24.6104 43.4101C24.6104 45.3501 26.1904 46.9301 28.1304 46.9301" fill="white"/>
<path d="M28.1304 39.8901C26.1904 39.8901 24.6104 41.4701 24.6104 43.4101C24.6104 45.3501 26.1904 46.9301 28.1304 46.9301" stroke="black" stroke-width="1.5" stroke-linecap="round" stroke-linejoin="round"/>
<path d="M56.4603 0.75H39.0703C37.4135 0.75 36.0703 2.09315 36.0703 3.75V21.14C36.0703 22.7969 37.4135 24.14 39.0703 24.14H56.4603C58.1172 24.14 59.4603 22.7969 59.4603 21.14V3.75C59.4603 2.09315 58.1172 0.75 56.4603 0.75Z" fill="url(#paint0_linear_9972_44349)" stroke="black" stroke-width="1.5" stroke-linecap="round" stroke-linejoin="round"/>
<path d="M50.8599 6.62996C51.7199 7.41996 52.1499 8.46996 52.1499 9.79996C52.1499 11.28 51.6899 12.37 50.7799 13.08C49.8699 13.79 48.6299 14.15 47.0699 14.15L47.0099 16.15H45.3399L45.2599 12.82H45.8699C47.2599 12.82 48.3499 12.61 49.1399 12.19C49.9299 11.77 50.3199 10.97 50.3199 9.80996C50.3199 8.96996 50.0699 8.29996 49.5599 7.80996C49.0499 7.31996 48.3699 7.06996 47.5099 7.06996C46.6499 7.06996 45.9499 7.30996 45.4499 7.77996C44.9499 8.24996 44.6999 8.88996 44.6999 9.70996H42.8799C42.8799 8.86996 43.0699 8.11996 43.4499 7.47996C43.8299 6.83996 44.3699 6.33996 45.0599 5.98996C45.7599 5.63996 46.5599 5.45996 47.4799 5.45996C48.8699 5.45996 49.9999 5.84996 50.8599 6.63996V6.62996ZM45.2199 20.09C44.9699 19.84 44.8399 19.53 44.8399 19.16C44.8399 18.79 44.9699 18.48 45.2199 18.23C45.4699 17.98 45.7799 17.85 46.1499 17.85C46.5199 17.85 46.7999 17.98 47.0499 18.23C47.2999 18.48 47.4199 18.79 47.4199 19.16C47.4199 19.53 47.2999 19.84 47.0499 20.09C46.7999 20.34 46.4999 20.47 46.1499 20.47C45.7999 20.47 45.4799 20.34 45.2199 20.09Z" fill="black"/>
</g>
<defs>
<linearGradient id="paint0_linear_9972_44349" x1="36.0703" y1="12.44" x2="59.4603" y2="12.44" gradientUnits="userSpaceOnUse">
<stop stop-color="#CBD1FF"/>
<stop offset="0.55" stop-color="#F7B363"/>
<stop offset="0.84" stop-color="#771BED"/>
</linearGradient>
<clipPath id="clip0_9972_44349">
<rect width="59.58" height="58.29" fill="white" transform="translate(0.629883)"/>
</clipPath>
</defs>
</svg>
