<svg width="58" height="58" viewBox="0 0 58 58" fill="none" xmlns="http://www.w3.org/2000/svg">
<g clip-path="url(#clip0_9972_44396)">
<path d="M49.29 28.21C49.54 29.63 49.67 31.06 49.67 32.5C49.67 46.07 38.51 57.23 24.94 57.23C11.37 57.23 0.209961 46.07 0.209961 32.5C0.209961 18.93 11.37 7.77002 24.94 7.77002C28.25 7.77002 31.53 8.44002 34.58 9.73002" fill="#CAB8FF"/>
<path d="M52.29 26.21C52.54 27.63 52.67 29.06 52.67 30.5C52.67 44.07 41.51 55.23 27.94 55.23C14.37 55.23 3.20996 44.07 3.20996 30.5C3.20996 16.93 14.37 5.77002 27.94 5.77002C31.25 5.77002 34.53 6.44002 37.58 7.73002" fill="white"/>
<path d="M52.29 26.21C52.54 27.63 52.67 29.06 52.67 30.5C52.67 44.07 41.51 55.23 27.94 55.23C14.37 55.23 3.20996 44.07 3.20996 30.5C3.20996 16.93 14.37 5.77002 27.94 5.77002C31.25 5.77002 34.53 6.44002 37.58 7.73002" stroke="black" stroke-width="1.5" stroke-linecap="round" stroke-linejoin="round"/>
<path d="M51.0196 11.7598C50.1396 9.45981 48.4196 7.70981 45.7796 6.57981C45.5696 6.48981 45.5696 6.20981 45.7796 6.11981C48.2296 5.13981 50.0196 3.44981 51.0096 0.909807C51.0896 0.699807 51.3796 0.689807 51.4696 0.909807C52.7796 4.04981 54.4196 5.10981 56.6996 6.09981C56.9096 6.18981 56.8996 6.46981 56.6896 6.55981C54.0996 7.59981 52.4796 9.43981 51.4696 11.7798C51.3796 11.9898 51.0896 11.9798 51.0096 11.7698L51.0196 11.7598Z" fill="url(#paint0_linear_9972_44396)" stroke="black" stroke-width="1.5" stroke-miterlimit="10"/>
<path d="M45.4102 23.7198C44.5302 21.4198 42.8102 19.6698 40.1702 18.5398C39.9602 18.4498 39.9602 18.1698 40.1702 18.0798C42.6202 17.0998 44.4102 15.4098 45.4002 12.8698C45.4802 12.6598 45.7702 12.6498 45.8602 12.8698C47.1702 16.0098 48.8102 17.0698 51.0902 18.0598C51.3002 18.1498 51.2902 18.4298 51.0802 18.5198C48.4902 19.5598 46.8702 21.3998 45.8602 23.7398C45.7702 23.9498 45.4802 23.9398 45.4002 23.7298L45.4102 23.7198Z" fill="url(#paint1_linear_9972_44396)" stroke="black" stroke-width="1.5" stroke-miterlimit="10"/>
<path d="M27.1201 12.71V32.6H38.3901" fill="white"/>
<path d="M27.1201 12.71V32.6H38.3901" stroke="black" stroke-width="1.5" stroke-linecap="round" stroke-linejoin="round"/>
</g>
<defs>
<linearGradient id="paint0_linear_9972_44396" x1="49.5496" y1="10.5798" x2="52.3096" y2="3.67981" gradientUnits="userSpaceOnUse">
<stop stop-color="#CBD1FF"/>
<stop offset="0.55" stop-color="#F7B363"/>
<stop offset="1" stop-color="#771BED"/>
</linearGradient>
<linearGradient id="paint1_linear_9972_44396" x1="43.9302" y1="22.5298" x2="46.6902" y2="15.6298" gradientUnits="userSpaceOnUse">
<stop stop-color="#CBD1FF"/>
<stop offset="0.55" stop-color="#F7B363"/>
<stop offset="1" stop-color="#771BED"/>
</linearGradient>
<clipPath id="clip0_9972_44396">
<rect width="57.41" height="57.23" fill="white" transform="translate(0.209961)"/>
</clipPath>
</defs>
</svg>
